<svg width="15" height="15" viewBox="0 0 15 15" fill="none" xmlns="http://www.w3.org/2000/svg">
<g clip-path="url(#clip0_2010_6442)">
<path d="M7.50648 1.7967C8.25566 1.79915 8.99691 1.95017 9.68734 2.24099C10.3778 2.53182 11.0037 2.95669 11.5288 3.49102H9.76557C9.61579 3.49102 9.47214 3.55052 9.36622 3.65643C9.2603 3.76235 9.2008 3.906 9.2008 4.05579C9.2008 4.20558 9.2603 4.34923 9.36622 4.45514C9.47214 4.56106 9.61579 4.62056 9.76557 4.62056H12.1054C12.3835 4.62041 12.6502 4.50987 12.8469 4.31322C13.0435 4.11656 13.1541 3.84989 13.1542 3.57178V1.23192C13.1542 1.08213 13.0947 0.938482 12.9888 0.832566C12.8829 0.726651 12.7392 0.667148 12.5894 0.667148C12.4397 0.667148 12.296 0.726651 12.1901 0.832566C12.0842 0.938482 12.0247 1.08213 12.0247 1.23192V2.40552C11.0912 1.56483 9.94212 1.0006 8.70612 0.776008C7.47011 0.551419 6.19599 0.675344 5.02644 1.1339C3.85688 1.59246 2.83807 2.36755 2.0841 3.37237C1.33012 4.37719 0.870753 5.57206 0.757436 6.82318C0.750141 6.90183 0.759308 6.98113 0.784354 7.05605C0.809401 7.13096 0.849776 7.19983 0.902908 7.25827C0.95604 7.31672 1.02076 7.36345 1.09296 7.39551C1.16515 7.42756 1.24322 7.44422 1.32221 7.44443C1.46035 7.44619 1.59417 7.39633 1.69748 7.30462C1.80079 7.2129 1.86615 7.08593 1.88077 6.94856C2.0065 5.5427 2.65337 4.23465 3.6943 3.28139C4.73524 2.32813 6.09501 1.79855 7.50648 1.7967Z" fill="#0AF571"/>
<path d="M13.6915 7.44438C13.5533 7.44262 13.4195 7.49248 13.3162 7.58419C13.2129 7.67591 13.1475 7.80288 13.1329 7.94025C13.0395 9.01515 12.6398 10.0407 11.9811 10.8953C11.3224 11.7498 10.4325 12.3975 9.41677 12.7615C8.40107 13.1254 7.30228 13.1904 6.25076 12.9487C5.19924 12.707 4.23912 12.1688 3.48431 11.3978H5.24753C5.39732 11.3978 5.54097 11.3383 5.64688 11.2324C5.7528 11.1265 5.8123 10.9828 5.8123 10.833C5.8123 10.6832 5.7528 10.5396 5.64688 10.4337C5.54097 10.3278 5.39732 10.2682 5.24753 10.2682H2.90767C2.76992 10.2682 2.63351 10.2953 2.50623 10.3479C2.37895 10.4006 2.26331 10.4779 2.1659 10.5753C2.0685 10.6727 1.99125 10.7883 1.93857 10.9156C1.88589 11.0429 1.85881 11.1793 1.85889 11.317V13.6569C1.85889 13.8067 1.91839 13.9503 2.02431 14.0562C2.13022 14.1622 2.27387 14.2217 2.42366 14.2217C2.57345 14.2217 2.7171 14.1622 2.82302 14.0562C2.92893 13.9503 2.98843 13.8067 2.98843 13.6569V12.4833C3.92191 13.324 5.07099 13.8882 6.30699 14.1128C7.54299 14.3374 8.81711 14.2135 9.98666 13.7549C11.1562 13.2963 12.175 12.5213 12.929 11.5164C13.683 10.5116 14.1423 9.31675 14.2557 8.06563C14.263 7.98698 14.2538 7.90768 14.2287 7.83277C14.2037 7.75786 14.1633 7.68898 14.1102 7.63054C14.0571 7.57209 13.9923 7.52536 13.9201 7.49331C13.848 7.46125 13.7704 7.44459 13.6915 7.44438Z" fill="#0AF571"/>
</g>
<defs>
<clipPath id="clip0_2010_6442">
<rect width="13.5546" height="13.5546" fill="white" transform="translate(0.729248 0.666992)"/>
</clipPath>
</defs>
</svg>
