<svg width="1920" height="1460" viewBox="0 0 1920 1460" fill="none" xmlns="http://www.w3.org/2000/svg">
<g opacity="0.4">
<path d="M308.691 609.27L307.001 608.691C336.667 520.419 382.977 440.157 444.705 370.157C505.11 301.615 577.263 246.225 659.159 205.528L659.958 207.134C495.071 289.102 367.046 435.661 308.718 609.274L308.691 609.27Z" fill="#0AF571"/>
<path d="M270.633 855.518C269.208 810.719 272.129 765.397 279.34 720.768L281.104 721.053C273.911 765.574 270.98 810.783 272.427 855.446L270.637 855.491L270.633 855.518Z" fill="#0AF571"/>
<path d="M1383.95 1396.4L1382.9 1394.97C1531.49 1285.91 1629.53 1125.65 1658.93 943.661L1660.7 943.947C1631.22 1126.4 1532.95 1287.07 1383.95 1396.4Z" fill="#0AF571"/>
<path d="M1666.48 785.938C1657.67 652.034 1610.41 524.009 1529.83 415.697L1531.26 414.646C1612.04 523.214 1659.41 651.565 1668.25 785.834L1666.47 785.965L1666.48 785.938Z" fill="#0AF571"/>
<path d="M1347.16 244.986C1266.36 193.045 1176.92 158.901 1081.33 143.458C991.045 128.87 900.503 131.874 812.196 152.426L811.781 150.688C900.314 130.117 991.086 127.066 1081.62 141.693C1177.47 157.18 1267.12 191.441 1348.13 243.498L1347.16 244.986Z" fill="#0AF571"/>
</g>
<mask id="mask0_4006_468" style="mask-type:luminance" maskUnits="userSpaceOnUse" x="478" y="325" width="1018" height="1018">
<path d="M1346.34 1193.34C1544.98 994.707 1544.98 672.658 1346.34 474.024C1147.71 275.391 825.659 275.391 627.025 474.025C428.391 672.658 428.391 994.707 627.025 1193.34C825.659 1391.97 1147.71 1391.97 1346.34 1193.34Z" fill="white"/>
</mask>
<g mask="url(#mask0_4006_468)">
<path d="M492.163 857.885L475.454 858.766L475.607 861.662L492.316 860.78L492.163 857.885Z" fill="#999999"/>
<path d="M1497.68 805.792L1480.97 806.67L1481.12 809.566L1497.83 808.687L1497.68 805.792Z" fill="#999999"/>
<path d="M494.03 883.844L477.389 885.596L477.692 888.48L494.333 886.728L494.03 883.844Z" fill="#999999"/>
<path d="M1495.78 778.589L1479.13 780.332L1479.44 783.216L1496.08 781.473L1495.78 778.589Z" fill="#999999"/>
<path d="M497.282 909.59L480.755 912.205L481.208 915.069L497.735 912.454L497.282 909.59Z" fill="#999999"/>
<path d="M1492.16 752.071L1475.64 754.694L1476.09 757.558L1492.62 754.935L1492.16 752.071Z" fill="#999999"/>
<path d="M501.913 935.174L485.546 938.653L486.149 941.489L502.516 938.01L501.913 935.174Z" fill="#999999"/>
<path d="M1487.3 725.403L1470.93 728.89L1471.54 731.726L1487.9 728.239L1487.3 725.403Z" fill="#999999"/>
<path d="M515.083 985.493L499.169 990.663L500.065 993.421L515.979 988.25L515.083 985.493Z" fill="#999999"/>
<path d="M1473.12 674.241L1457.2 679.417L1458.1 682.175L1474.01 676.998L1473.12 674.241Z" fill="#999999"/>
<path d="M523.667 1010L508.047 1016L509.087 1018.7L524.707 1012.7L523.667 1010Z" fill="#999999"/>
<path d="M1464.09 649.103L1448.47 655.094L1449.5 657.801L1465.13 651.81L1464.09 649.103Z" fill="#999999"/>
<path d="M533.633 1033.63L518.346 1040.43L519.526 1043.08L534.812 1036.28L533.633 1033.63Z" fill="#999999"/>
<path d="M1453.82 623.842L1438.53 630.645L1439.71 633.295L1455 626.492L1453.82 623.842Z" fill="#999999"/>
<path d="M544.756 1056.96L529.849 1064.56L531.166 1067.15L546.073 1059.55L544.756 1056.96Z" fill="#999999"/>
<path d="M1442.23 599.609L1427.32 607.208L1428.64 609.791L1443.54 602.192L1442.23 599.609Z" fill="#999999"/>
<path d="M570.503 1101.98L556.472 1111.09L558.051 1113.53L572.083 1104.41L570.503 1101.98Z" fill="#999999"/>
<path d="M1415.27 554.061L1401.24 563.177L1402.82 565.608L1416.85 556.493L1415.27 554.061Z" fill="#999999"/>
<path d="M585.063 1123.75L571.524 1133.58L573.228 1135.93L586.767 1126.09L585.063 1123.75Z" fill="#999999"/>
<path d="M1399.98 531.384L1386.44 541.217L1388.14 543.563L1401.68 533.73L1399.98 531.384Z" fill="#999999"/>
<path d="M600.8 1144.61L587.8 1155.15L589.625 1157.4L602.625 1146.87L600.8 1144.61Z" fill="#999999"/>
<path d="M1383.59 510.061L1370.59 520.589L1372.41 522.843L1385.42 512.315L1383.59 510.061Z" fill="#999999"/>
<path d="M617.555 1164.46L605.116 1175.65L607.056 1177.81L619.495 1166.62L617.555 1164.46Z" fill="#999999"/>
<path d="M1366.18 490.216L1353.75 501.414L1355.69 503.569L1368.12 492.37L1366.18 490.216Z" fill="#999999"/>
<path d="M654.167 1200.96L642.968 1213.39L645.123 1215.33L656.321 1202.9L654.167 1200.96Z" fill="#999999"/>
<path d="M1328.19 452.342L1317 464.779L1319.15 466.718L1330.35 454.281L1328.19 452.342Z" fill="#999999"/>
<path d="M673.816 1217.99L663.289 1231L665.542 1232.82L676.07 1219.81L673.816 1217.99Z" fill="#999999"/>
<path d="M1307.69 434.772L1297.15 447.77L1299.4 449.596L1309.94 436.598L1307.69 434.772Z" fill="#999999"/>
<path d="M694.31 1233.45L684.477 1246.99L686.823 1248.69L696.656 1235.15L694.31 1233.45Z" fill="#999999"/>
<path d="M1286.49 418.773L1276.66 432.312L1279 434.016L1288.84 420.477L1286.49 418.773Z" fill="#999999"/>
<path d="M715.738 1248.62L706.619 1262.65L709.051 1264.23L718.169 1250.2L715.738 1248.62Z" fill="#999999"/>
<path d="M1264.39 403.732L1255.27 417.764L1257.7 419.343L1266.82 405.312L1264.39 403.732Z" fill="#999999"/>
<path d="M760.596 1274.66L752.997 1289.57L755.58 1290.89L763.179 1275.98L760.596 1274.66Z" fill="#999999"/>
<path d="M1217.95 377.094L1210.35 392.002L1212.93 393.319L1220.53 378.411L1217.95 377.094Z" fill="#999999"/>
<path d="M783.975 1285.83L777.172 1301.12L779.821 1302.3L786.624 1287.01L783.975 1285.83Z" fill="#999999"/>
<path d="M1193.69 365.521L1186.88 380.807L1189.53 381.986L1196.34 366.7L1193.69 365.521Z" fill="#999999"/>
<path d="M807.664 1295.37L801.673 1311L804.38 1312.03L810.371 1296.41L807.664 1295.37Z" fill="#999999"/>
<path d="M1168.66 355.035L1162.66 370.655L1165.36 371.694L1171.36 356.074L1168.66 355.035Z" fill="#999999"/>
<path d="M832.115 1304.15L826.938 1320.06L829.696 1320.96L834.872 1305.04L832.115 1304.15Z" fill="#999999"/>
<path d="M1143.2 345.958L1138.03 361.872L1140.78 362.768L1145.95 346.854L1143.2 345.958Z" fill="#999999"/>
<path d="M881.994 1317.55L878.509 1333.91L881.345 1334.52L884.83 1318.15L881.994 1317.55Z" fill="#999999"/>
<path d="M1091.67 332.563L1088.19 348.93L1091.03 349.533L1094.51 333.166L1091.67 332.563Z" fill="#999999"/>
<path d="M907.844 1322.84L905.221 1339.37L908.085 1339.82L910.708 1323.3L907.844 1322.84Z" fill="#999999"/>
<path d="M1065.44 327.876L1062.82 344.403L1065.69 344.856L1068.3 328.329L1065.44 327.876Z" fill="#999999"/>
<path d="M933.513 1326.25L931.77 1342.89L934.654 1343.19L936.397 1326.55L933.513 1326.25Z" fill="#999999"/>
<path d="M1038.52 324.212L1036.76 340.853L1039.65 341.157L1041.4 324.516L1038.52 324.212Z" fill="#999999"/>
<path d="M958.995 1327.98L958.116 1344.69L961.012 1344.84L961.89 1328.13L958.995 1327.98Z" fill="#999999"/>
<path d="M1012.29 322.519L1011.41 339.229L1014.3 339.382L1015.18 322.672L1012.29 322.519Z" fill="#999999"/>
<path d="M1013.94 1328.33L1011.04 1328.48L1011.92 1345.19L1014.82 1345.04L1013.94 1328.33Z" fill="#999999"/>
<path d="M961.233 322.381L958.337 322.532L959.213 339.242L962.108 339.09L961.233 322.381Z" fill="#999999"/>
<path d="M1040.07 1325.8L1037.18 1326.1L1038.94 1342.74L1041.82 1342.44L1040.07 1325.8Z" fill="#999999"/>
<path d="M934.599 324.187L931.715 324.49L933.464 341.131L936.348 340.828L934.599 324.187Z" fill="#999999"/>
<path d="M1065.4 1322.88L1062.53 1323.33L1065.15 1339.86L1068.02 1339.4L1065.4 1322.88Z" fill="#999999"/>
<path d="M908.004 327.715L905.14 328.168L907.758 344.695L910.622 344.242L908.004 327.715Z" fill="#999999"/>
<path d="M1090.94 1318.04L1088.1 1318.64L1091.58 1335.01L1094.41 1334.4L1090.94 1318.04Z" fill="#999999"/>
<path d="M881.582 332.541L878.746 333.144L882.225 349.511L885.061 348.908L881.582 332.541Z" fill="#999999"/>
<path d="M1141.12 1304.13L1138.36 1305.03L1143.53 1320.94L1146.29 1320.04L1141.12 1304.13Z" fill="#999999"/>
<path d="M829.739 346.41L826.981 347.306L832.152 363.22L834.909 362.324L829.739 346.41Z" fill="#999999"/>
<path d="M1165.58 1295.21L1162.88 1296.25L1168.87 1311.87L1171.58 1310.83L1165.58 1295.21Z" fill="#999999"/>
<path d="M804.425 355.333L801.718 356.372L807.714 371.993L810.421 370.954L804.425 355.333Z" fill="#999999"/>
<path d="M1189.47 1285.4L1186.82 1286.58L1193.63 1301.87L1196.28 1300.69L1189.47 1285.4Z" fill="#999999"/>
<path d="M779.7 365.308L777.052 366.487L783.857 381.773L786.506 380.594L779.7 365.308Z" fill="#999999"/>
<path d="M1212.82 1274.23L1210.24 1275.54L1217.84 1290.45L1220.42 1289.13L1212.82 1274.23Z" fill="#999999"/>
<path d="M755.466 376.745L752.883 378.061L760.479 392.97L763.063 391.654L755.466 376.745Z" fill="#999999"/>
<path d="M1257.57 1248.5L1255.14 1250.08L1264.25 1264.11L1266.68 1262.53L1257.57 1248.5Z" fill="#999999"/>
<path d="M708.98 403.331L706.548 404.91L715.661 418.943L718.093 417.364L708.98 403.331Z" fill="#999999"/>
<path d="M1278.94 1233.35L1276.59 1235.05L1286.43 1248.59L1288.77 1246.89L1278.94 1233.35Z" fill="#999999"/>
<path d="M686.824 418.42L684.478 420.124L694.313 433.661L696.659 431.957L686.824 418.42Z" fill="#999999"/>
<path d="M1299.44 1217.82L1297.18 1219.65L1307.71 1232.65L1309.97 1230.82L1299.44 1217.82Z" fill="#999999"/>
<path d="M665.521 434.749L663.268 436.574L673.798 449.577L676.052 447.753L665.521 434.749Z" fill="#999999"/>
<path d="M1319.12 1201.07L1316.97 1203.01L1328.16 1215.44L1330.32 1213.5L1319.12 1201.07Z" fill="#999999"/>
<path d="M645.081 452.015L642.927 453.955L654.123 466.389L656.278 464.449L645.081 452.015Z" fill="#999999"/>
<path d="M1355.67 1164.09L1353.73 1166.25L1366.17 1177.44L1368.11 1175.29L1355.67 1164.09Z" fill="#999999"/>
<path d="M607.103 490.16L605.163 492.315L617.598 503.512L619.538 501.357L607.103 490.16Z" fill="#999999"/>
<path d="M1372.39 1144.06L1370.56 1146.32L1383.57 1156.85L1385.39 1154.59L1372.39 1144.06Z" fill="#999999"/>
<path d="M589.683 510.532L587.858 512.785L600.862 523.315L602.686 521.062L589.683 510.532Z" fill="#999999"/>
<path d="M1388.13 1123.51L1386.43 1125.86L1399.96 1135.69L1401.67 1133.35L1388.13 1123.51Z" fill="#999999"/>
<path d="M573.266 531.697L571.562 534.043L585.099 543.878L586.803 541.532L573.266 531.697Z" fill="#999999"/>
<path d="M1402.64 1101.83L1401.06 1104.26L1415.1 1113.37L1416.67 1110.94L1402.64 1101.83Z" fill="#999999"/>
<path d="M557.959 553.519L556.379 555.951L570.413 565.064L571.992 562.632L557.959 553.519Z" fill="#999999"/>
<path d="M1428.63 1057.33L1427.31 1059.91L1442.22 1067.51L1443.54 1064.93L1428.63 1057.33Z" fill="#999999"/>
<path d="M531.088 600.014L529.771 602.598L544.68 610.194L545.997 607.61L531.088 600.014Z" fill="#999999"/>
<path d="M1439.77 1034.01L1438.59 1036.66L1453.88 1043.46L1455.05 1040.82L1439.77 1034.01Z" fill="#999999"/>
<path d="M519.483 624.155L518.304 626.804L533.59 633.61L534.769 630.961L519.483 624.155Z" fill="#999999"/>
<path d="M1449.51 1009.78L1448.47 1012.49L1464.09 1018.48L1465.13 1015.78L1449.51 1009.78Z" fill="#999999"/>
<path d="M509.164 648.894L508.125 651.601L523.746 657.598L524.786 654.891L509.164 648.894Z" fill="#999999"/>
<path d="M1458.17 985.45L1457.27 988.208L1473.19 993.379L1474.08 990.621L1458.17 985.45Z" fill="#999999"/>
<path d="M500.042 673.981L499.146 676.739L515.06 681.909L515.956 679.152L500.042 673.981Z" fill="#999999"/>
<path d="M1471.25 935.097L1470.65 937.933L1487.02 941.412L1487.62 938.576L1471.25 935.097Z" fill="#999999"/>
<path d="M485.967 725.677L485.364 728.514L501.731 731.993L502.334 729.156L485.967 725.677Z" fill="#999999"/>
<path d="M1475.97 909.688L1475.52 912.552L1492.04 915.169L1492.5 912.306L1475.97 909.688Z" fill="#999999"/>
<path d="M481.215 752.256L480.761 755.12L497.288 757.737L497.741 754.873L481.215 752.256Z" fill="#999999"/>
<path d="M1479.32 883.995L1479.02 886.879L1495.66 888.628L1495.97 885.744L1479.32 883.995Z" fill="#999999"/>
<path d="M477.492 778.649L477.189 781.533L493.83 783.282L494.134 780.398L477.492 778.649Z" fill="#999999"/>
<path d="M1481.23 858.14L1481.08 861.035L1497.79 861.911L1497.94 859.016L1481.23 858.14Z" fill="#999999"/>
<path d="M475.258 805.348L475.107 808.244L491.817 809.119L491.968 806.223L475.258 805.348Z" fill="#999999"/>
<path d="M494.03 883.844L477.389 885.596L477.692 888.48L494.333 886.728L494.03 883.844Z" fill="#999999"/>
<path d="M1495.78 778.589L1479.13 780.332L1479.44 783.216L1496.08 781.473L1495.78 778.589Z" fill="#999999"/>
<path d="M497.282 909.59L480.755 912.205L481.208 915.069L497.735 912.454L497.282 909.59Z" fill="#999999"/>
<path d="M1492.16 752.071L1475.64 754.694L1476.09 757.558L1492.62 754.935L1492.16 752.071Z" fill="#999999"/>
<path d="M501.913 935.174L485.546 938.653L486.149 941.489L502.516 938.01L501.913 935.174Z" fill="#999999"/>
<path d="M1487.3 725.403L1470.93 728.89L1471.54 731.726L1487.9 728.239L1487.3 725.403Z" fill="#999999"/>
<path d="M507.806 960.509L491.644 964.842L492.395 967.643L508.557 963.31L507.806 960.509Z" fill="#999999"/>
<path d="M1480.83 699.772L1464.66 704.106L1465.42 706.907L1481.58 702.573L1480.83 699.772Z" fill="#999999"/>
<path d="M523.667 1010L508.047 1016L509.087 1018.7L524.707 1012.7L523.667 1010Z" fill="#999999"/>
<path d="M1464.09 649.103L1448.47 655.094L1449.5 657.801L1465.13 651.81L1464.09 649.103Z" fill="#999999"/>
<path d="M533.633 1033.63L518.346 1040.43L519.526 1043.08L534.812 1036.28L533.633 1033.63Z" fill="#999999"/>
<path d="M1453.82 623.842L1438.53 630.645L1439.71 633.295L1455 626.492L1453.82 623.842Z" fill="#999999"/>
<path d="M544.756 1056.96L529.849 1064.56L531.166 1067.15L546.073 1059.55L544.756 1056.96Z" fill="#999999"/>
<path d="M1442.23 599.609L1427.32 607.208L1428.64 609.791L1443.54 602.192L1442.23 599.609Z" fill="#999999"/>
<path d="M556.903 1080.4L542.413 1088.77L543.863 1091.28L558.353 1082.91L556.903 1080.4Z" fill="#999999"/>
<path d="M1429.34 576.226L1414.85 584.587L1416.29 587.098L1430.79 578.737L1429.34 576.226Z" fill="#999999"/>
<path d="M585.063 1123.75L571.524 1133.58L573.228 1135.93L586.767 1126.09L585.063 1123.75Z" fill="#999999"/>
<path d="M1399.98 531.384L1386.44 541.217L1388.14 543.563L1401.68 533.73L1399.98 531.384Z" fill="#999999"/>
<path d="M600.8 1144.61L587.8 1155.15L589.625 1157.4L602.625 1146.87L600.8 1144.61Z" fill="#999999"/>
<path d="M1383.59 510.061L1370.59 520.589L1372.41 522.843L1385.42 512.315L1383.59 510.061Z" fill="#999999"/>
<path d="M617.555 1164.46L605.116 1175.65L607.056 1177.81L619.495 1166.62L617.555 1164.46Z" fill="#999999"/>
<path d="M1366.18 490.216L1353.75 501.414L1355.69 503.569L1368.12 492.37L1366.18 490.216Z" fill="#999999"/>
<path d="M635.386 1182.9L623.555 1194.73L625.605 1196.78L637.437 1184.95L635.386 1182.9Z" fill="#999999"/>
<path d="M1347.62 470.429L1335.78 482.257L1337.83 484.308L1349.67 472.48L1347.62 470.429Z" fill="#999999"/>
<path d="M673.816 1217.99L663.289 1231L665.542 1232.82L676.07 1219.81L673.816 1217.99Z" fill="#999999"/>
<path d="M1307.69 434.772L1297.15 447.77L1299.4 449.596L1309.94 436.598L1307.69 434.772Z" fill="#999999"/>
<path d="M694.31 1233.45L684.477 1246.99L686.823 1248.69L696.656 1235.15L694.31 1233.45Z" fill="#999999"/>
<path d="M1286.49 418.773L1276.66 432.312L1279 434.016L1288.84 420.477L1286.49 418.773Z" fill="#999999"/>
<path d="M715.738 1248.62L706.619 1262.65L709.051 1264.23L718.169 1250.2L715.738 1248.62Z" fill="#999999"/>
<path d="M1264.39 403.732L1255.27 417.764L1257.7 419.343L1266.82 405.312L1264.39 403.732Z" fill="#999999"/>
<path d="M737.639 1261.61L729.281 1276.1L731.792 1277.55L740.151 1263.06L737.639 1261.61Z" fill="#999999"/>
<path d="M1241.22 389.234L1232.85 403.724L1235.37 405.174L1243.73 390.685L1241.22 389.234Z" fill="#999999"/>
<path d="M783.975 1285.83L777.172 1301.12L779.821 1302.3L786.624 1287.01L783.975 1285.83Z" fill="#999999"/>
<path d="M1193.69 365.521L1186.88 380.807L1189.53 381.986L1196.34 366.7L1193.69 365.521Z" fill="#999999"/>
<path d="M807.664 1295.37L801.673 1311L804.38 1312.03L810.371 1296.41L807.664 1295.37Z" fill="#999999"/>
<path d="M1168.66 355.035L1162.66 370.655L1165.36 371.694L1171.36 356.074L1168.66 355.035Z" fill="#999999"/>
<path d="M832.115 1304.15L826.938 1320.06L829.696 1320.96L834.872 1305.04L832.115 1304.15Z" fill="#999999"/>
<path d="M1143.2 345.958L1138.03 361.872L1140.78 362.768L1145.95 346.854L1143.2 345.958Z" fill="#999999"/>
<path d="M857.026 1311.73L852.692 1327.89L855.493 1328.64L859.827 1312.48L857.026 1311.73Z" fill="#999999"/>
<path d="M1117.73 338.751L1113.39 354.913L1116.19 355.664L1120.53 339.502L1117.73 338.751Z" fill="#999999"/>
<path d="M907.844 1322.84L905.221 1339.37L908.085 1339.82L910.708 1323.3L907.844 1322.84Z" fill="#999999"/>
<path d="M1065.44 327.876L1062.82 344.403L1065.69 344.856L1068.3 328.329L1065.44 327.876Z" fill="#999999"/>
<path d="M933.513 1326.25L931.77 1342.89L934.654 1343.19L936.397 1326.55L933.513 1326.25Z" fill="#999999"/>
<path d="M1038.52 324.212L1036.76 340.853L1039.65 341.157L1041.4 324.516L1038.52 324.212Z" fill="#999999"/>
<path d="M958.995 1327.98L958.116 1344.69L961.012 1344.84L961.89 1328.13L958.995 1327.98Z" fill="#999999"/>
<path d="M1012.29 322.519L1011.41 339.229L1014.3 339.382L1015.18 322.672L1012.29 322.519Z" fill="#999999"/>
<path d="M988.07 1329H985.17V1345.73H988.07V1329Z" fill="#999999"/>
<path d="M988.07 321.681H985.17V338.414H988.07V321.681Z" fill="#999999"/>
<path d="M1040.07 1325.8L1037.18 1326.1L1038.94 1342.74L1041.82 1342.44L1040.07 1325.8Z" fill="#999999"/>
<path d="M934.599 324.187L931.715 324.49L933.464 341.131L936.348 340.828L934.599 324.187Z" fill="#999999"/>
<path d="M1065.4 1322.88L1062.53 1323.33L1065.15 1339.86L1068.02 1339.4L1065.4 1322.88Z" fill="#999999"/>
<path d="M908.004 327.715L905.14 328.168L907.758 344.695L910.622 344.242L908.004 327.715Z" fill="#999999"/>
<path d="M1090.94 1318.04L1088.1 1318.64L1091.58 1335.01L1094.41 1334.4L1090.94 1318.04Z" fill="#999999"/>
<path d="M881.582 332.541L878.746 333.144L882.225 349.511L885.061 348.908L881.582 332.541Z" fill="#999999"/>
<path d="M1116.27 1311.62L1113.47 1312.37L1117.8 1328.54L1120.6 1327.79L1116.27 1311.62Z" fill="#999999"/>
<path d="M855.584 338.541L852.783 339.292L857.114 355.454L859.914 354.704L855.584 338.541Z" fill="#999999"/>
<path d="M1165.58 1295.21L1162.88 1296.25L1168.87 1311.87L1171.58 1310.83L1165.58 1295.21Z" fill="#999999"/>
<path d="M804.425 355.333L801.718 356.372L807.714 371.993L810.421 370.954L804.425 355.333Z" fill="#999999"/>
<path d="M1189.47 1285.4L1186.82 1286.58L1193.63 1301.87L1196.28 1300.69L1189.47 1285.4Z" fill="#999999"/>
<path d="M779.7 365.308L777.052 366.487L783.857 381.773L786.506 380.594L779.7 365.308Z" fill="#999999"/>
<path d="M1212.82 1274.23L1210.24 1275.54L1217.84 1290.45L1220.42 1289.13L1212.82 1274.23Z" fill="#999999"/>
<path d="M755.466 376.745L752.883 378.061L760.479 392.97L763.063 391.654L755.466 376.745Z" fill="#999999"/>
<path d="M1235.57 1261.74L1233.05 1263.19L1241.42 1277.69L1243.93 1276.24L1235.57 1261.74Z" fill="#999999"/>
<path d="M731.882 389.457L729.371 390.907L737.737 405.398L740.248 403.948L731.882 389.457Z" fill="#999999"/>
<path d="M1278.94 1233.35L1276.59 1235.05L1286.43 1248.59L1288.77 1246.89L1278.94 1233.35Z" fill="#999999"/>
<path d="M686.824 418.42L684.478 420.124L694.313 433.661L696.659 431.957L686.824 418.42Z" fill="#999999"/>
<path d="M1299.44 1217.82L1297.18 1219.65L1307.71 1232.65L1309.97 1230.82L1299.44 1217.82Z" fill="#999999"/>
<path d="M665.521 434.749L663.268 436.574L673.798 449.577L676.052 447.753L665.521 434.749Z" fill="#999999"/>
<path d="M1319.12 1201.07L1316.97 1203.01L1328.16 1215.44L1330.32 1213.5L1319.12 1201.07Z" fill="#999999"/>
<path d="M645.081 452.015L642.927 453.955L654.123 466.389L656.278 464.449L645.081 452.015Z" fill="#999999"/>
<path d="M1337.9 1183.2L1335.85 1185.25L1347.68 1197.08L1349.73 1195.03L1337.9 1183.2Z" fill="#999999"/>
<path d="M625.611 470.709L623.56 472.76L635.392 484.591L637.443 482.541L625.611 470.709Z" fill="#999999"/>
<path d="M1372.39 1144.06L1370.56 1146.32L1383.57 1156.85L1385.39 1154.59L1372.39 1144.06Z" fill="#999999"/>
<path d="M589.683 510.532L587.858 512.785L600.862 523.315L602.686 521.062L589.683 510.532Z" fill="#999999"/>
<path d="M1388.13 1123.51L1386.43 1125.86L1399.96 1135.69L1401.67 1133.35L1388.13 1123.51Z" fill="#999999"/>
<path d="M573.266 531.697L571.562 534.043L585.099 543.878L586.803 541.532L573.266 531.697Z" fill="#999999"/>
<path d="M1402.64 1101.83L1401.06 1104.26L1415.1 1113.37L1416.67 1110.94L1402.64 1101.83Z" fill="#999999"/>
<path d="M557.959 553.519L556.379 555.951L570.413 565.064L571.992 562.632L557.959 553.519Z" fill="#999999"/>
<path d="M1416.24 1079.97L1414.79 1082.48L1429.28 1090.85L1430.73 1088.34L1416.24 1079.97Z" fill="#999999"/>
<path d="M544.008 576.607L542.558 579.118L557.049 587.485L558.499 584.973L544.008 576.607Z" fill="#999999"/>
<path d="M1439.77 1034.01L1438.59 1036.66L1453.88 1043.46L1455.05 1040.82L1439.77 1034.01Z" fill="#999999"/>
<path d="M519.483 624.155L518.304 626.804L533.59 633.61L534.769 630.961L519.483 624.155Z" fill="#999999"/>
<path d="M1449.51 1009.78L1448.47 1012.49L1464.09 1018.48L1465.13 1015.78L1449.51 1009.78Z" fill="#999999"/>
<path d="M509.164 648.894L508.125 651.601L523.746 657.598L524.786 654.891L509.164 648.894Z" fill="#999999"/>
<path d="M1458.17 985.45L1457.27 988.208L1473.19 993.379L1474.08 990.621L1458.17 985.45Z" fill="#999999"/>
<path d="M500.042 673.981L499.146 676.739L515.06 681.909L515.956 679.152L500.042 673.981Z" fill="#999999"/>
<path d="M1465.42 960.483L1464.67 963.284L1480.84 967.615L1481.59 964.814L1465.42 960.483Z" fill="#999999"/>
<path d="M492.433 699.836L491.682 702.637L507.845 706.967L508.596 704.167L492.433 699.836Z" fill="#999999"/>
<path d="M1475.97 909.688L1475.52 912.552L1492.04 915.169L1492.5 912.306L1475.97 909.688Z" fill="#999999"/>
<path d="M481.215 752.256L480.761 755.12L497.288 757.737L497.741 754.873L481.215 752.256Z" fill="#999999"/>
<path d="M1479.32 883.995L1479.02 886.879L1495.66 888.628L1495.97 885.744L1479.32 883.995Z" fill="#999999"/>
<path d="M477.492 778.649L477.189 781.533L493.83 783.282L494.134 780.398L477.492 778.649Z" fill="#999999"/>
<path d="M1481.23 858.14L1481.08 861.035L1497.79 861.911L1497.94 859.016L1481.23 858.14Z" fill="#999999"/>
<path d="M475.258 805.348L475.107 808.244L491.817 809.119L491.968 806.223L475.258 805.348Z" fill="#999999"/>
<path d="M1498.65 832.257H1481.91V835.157H1498.65V832.257Z" fill="#999999"/>
<path d="M491.327 832.257H474.594V835.157H491.327V832.257Z" fill="#999999"/>
</g>
<g opacity="0.6">
<mask id="mask1_4006_468" style="mask-type:luminance" maskUnits="userSpaceOnUse" x="77" y="-76" width="1819" height="1819">
<path d="M1629.34 1476.34C1984.27 1121.41 1984.27 545.955 1629.34 191.025C1274.41 -163.906 698.955 -163.906 344.025 191.025C-10.9058 545.955 -10.9058 1121.41 344.025 1476.34C698.955 1831.27 1274.41 1831.27 1629.34 1476.34Z" fill="white"/>
</mask>
<g mask="url(#mask1_4006_468)">
<path d="M609.303 -20.3554L604.471 -18.2037L616.89 9.69073L621.723 7.5391L609.303 -20.3554Z" fill="#999999"/>
<path d="M565.125 0.460955L560.412 2.86257L574.274 30.0688L578.987 27.6672L565.125 0.460955Z" fill="#999999"/>
<path d="M480.34 49.1766L475.904 52.0578L492.534 77.666L496.97 74.7848L480.34 49.1766Z" fill="#999999"/>
<path d="M439.998 76.6555L435.718 79.7649L453.665 104.468L457.945 101.358L439.998 76.6555Z" fill="#999999"/>
<path d="M401.16 106.493L397.049 109.822L416.265 133.552L420.375 130.223L401.16 106.493Z" fill="#999999"/>
<path d="M363.877 137.965L359.946 141.505L380.378 164.196L384.309 160.657L363.877 137.965Z" fill="#999999"/>
<path d="M294.577 206.955L291.038 210.887L313.729 231.318L317.269 227.387L294.577 206.955Z" fill="#999999"/>
<path d="M1659.62 1436.01L1656.08 1439.94L1678.77 1460.37L1682.31 1456.44L1659.62 1436.01Z" fill="#999999"/>
<path d="M262.699 243.954L259.37 248.065L283.099 267.281L286.428 263.17L262.699 243.954Z" fill="#999999"/>
<path d="M1690.2 1399.73L1686.87 1403.84L1710.6 1423.06L1713.93 1418.95L1690.2 1399.73Z" fill="#999999"/>
<path d="M232.843 282.668L229.734 286.948L254.436 304.895L257.545 300.615L232.843 282.668Z" fill="#999999"/>
<path d="M1718.85 1362.14L1715.74 1366.42L1740.44 1384.37L1743.55 1380.09L1718.85 1362.14Z" fill="#999999"/>
<path d="M205.069 322.924L202.188 327.361L227.796 343.991L230.677 339.554L205.069 322.924Z" fill="#999999"/>
<path d="M1745.61 1323.37L1742.73 1327.81L1768.34 1344.44L1771.22 1340L1745.61 1323.37Z" fill="#999999"/>
<path d="M155.903 407.225L153.501 411.938L180.707 425.801L183.109 421.087L155.903 407.225Z" fill="#999999"/>
<path d="M1792.68 1241.51L1790.28 1246.22L1817.49 1260.08L1819.89 1255.37L1792.68 1241.51Z" fill="#999999"/>
<path d="M134.76 451.448L132.609 456.281L160.503 468.7L162.654 463.868L134.76 451.448Z" fill="#999999"/>
<path d="M1812.82 1198.5L1810.67 1203.33L1838.57 1215.75L1840.72 1210.92L1812.82 1198.5Z" fill="#999999"/>
<path d="M115.924 496.586L114.029 501.524L142.535 512.466L144.43 507.528L115.924 496.586Z" fill="#999999"/>
<path d="M1830.75 1154.71L1828.85 1159.65L1857.36 1170.59L1859.26 1165.65L1830.75 1154.71Z" fill="#999999"/>
<path d="M99.4023 542.437L97.7676 547.468L126.807 556.904L128.442 551.872L99.4023 542.437Z" fill="#999999"/>
<path d="M1846.44 1110.16L1844.81 1115.19L1873.85 1124.63L1875.48 1119.59L1846.44 1110.16Z" fill="#999999"/>
<path d="M73.9916 637.04L72.8918 642.214L102.758 648.563L103.858 643.388L73.9916 637.04Z" fill="#999999"/>
<path d="M1870.88 1019.03L1869.78 1024.2L1899.65 1030.55L1900.75 1025.38L1870.88 1019.03Z" fill="#999999"/>
<path d="M64.9172 685.031L64.0897 690.256L94.248 695.032L95.0755 689.808L64.9172 685.031Z" fill="#999999"/>
<path d="M1879.22 972.378L1878.4 977.603L1908.55 982.379L1909.38 977.155L1879.22 972.378Z" fill="#999999"/>
<path d="M58.4142 733.468L57.8612 738.729L88.2282 741.921L88.7812 736.66L58.4142 733.468Z" fill="#999999"/>
<path d="M1885.27 925.447L1884.71 930.708L1915.08 933.899L1915.63 928.639L1885.27 925.447Z" fill="#999999"/>
<path d="M54.3566 782.118L54.0797 787.401L84.5718 788.999L84.8486 783.717L54.3566 782.118Z" fill="#999999"/>
<path d="M1888.77 878.241L1888.49 883.523L1918.98 885.121L1919.26 879.839L1888.77 878.241Z" fill="#999999"/>
<path d="M84.4322 878.449L53.9398 880.047L54.2166 885.33L84.7091 883.732L84.4322 878.449Z" fill="#999999"/>
<path d="M1919.15 781.825L1888.66 783.418L1888.93 788.7L1919.43 787.108L1919.15 781.825Z" fill="#999999"/>
<path d="M88.4019 925.124L58.0348 928.316L58.5878 933.577L88.9548 930.385L88.4019 925.124Z" fill="#999999"/>
<path d="M1914.99 733.42L1884.63 736.617L1885.18 741.877L1915.55 738.68L1914.99 733.42Z" fill="#999999"/>
<path d="M93.9872 972.585L63.8289 977.361L64.6564 982.586L94.8148 977.809L93.9872 972.585Z" fill="#999999"/>
<path d="M1908.55 684.785L1878.39 689.557L1879.22 694.781L1909.38 690.01L1908.55 684.785Z" fill="#999999"/>
<path d="M102.614 1018.9L72.7465 1025.24L73.8463 1030.42L103.713 1024.07L102.614 1018.9Z" fill="#999999"/>
<path d="M1899.51 636.624L1869.65 642.967L1870.74 648.142L1900.61 641.799L1899.51 636.624Z" fill="#999999"/>
<path d="M127.039 1109.9L98.0015 1119.34L99.637 1124.38L128.675 1114.93L127.039 1109.9Z" fill="#999999"/>
<path d="M1873.76 543.044L1844.71 552.47L1846.35 557.502L1875.39 548.076L1873.76 543.044Z" fill="#999999"/>
<path d="M142.55 1154.77L114.043 1165.71L115.939 1170.65L144.445 1159.7L142.55 1154.77Z" fill="#999999"/>
<path d="M1857.47 496.382L1828.96 507.324L1830.86 512.263L1859.36 501.32L1857.47 496.382Z" fill="#999999"/>
<path d="M160.354 1198.93L132.459 1211.35L134.611 1216.18L162.505 1203.76L160.354 1198.93Z" fill="#999999"/>
<path d="M1838.53 451.773L1810.64 464.193L1812.79 469.025L1840.68 456.606L1838.53 451.773Z" fill="#999999"/>
<path d="M180.641 1241.58L153.435 1255.44L155.837 1260.16L183.043 1246.3L180.641 1241.58Z" fill="#999999"/>
<path d="M1817.39 407.837L1790.18 421.694L1792.58 426.408L1819.79 412.55L1817.39 407.837Z" fill="#999999"/>
<path d="M227.795 1323.2L202.188 1339.83L205.068 1344.27L230.676 1327.64L227.795 1323.2Z" fill="#999999"/>
<path d="M1768.29 323.01L1742.68 339.641L1745.56 344.077L1771.17 327.447L1768.29 323.01Z" fill="#999999"/>
<path d="M254.371 1362.78L229.665 1380.72L232.774 1385L257.48 1367.06L254.371 1362.78Z" fill="#999999"/>
<path d="M1740.51 282.481L1715.8 300.424L1718.91 304.704L1743.62 286.761L1740.51 282.481Z" fill="#999999"/>
<path d="M283.164 1399.6L259.438 1418.82L262.768 1422.93L286.494 1403.71L283.164 1399.6Z" fill="#999999"/>
<path d="M1710.73 244.426L1687 263.638L1690.33 267.749L1714.06 248.537L1710.73 244.426Z" fill="#999999"/>
<path d="M313.723 1435.7L291.032 1456.14L294.572 1460.07L317.263 1439.63L313.723 1435.7Z" fill="#999999"/>
<path d="M1678.89 207.362L1656.2 227.789L1659.74 231.721L1682.43 211.293L1678.89 207.362Z" fill="#999999"/>
<path d="M1609.31 137.528L1588.88 160.223L1592.81 163.762L1613.24 141.067L1609.31 137.528Z" fill="#999999"/>
<path d="M1572.06 105.904L1552.84 129.634L1556.96 132.963L1576.17 109.233L1572.06 105.904Z" fill="#999999"/>
<path d="M1533.29 76.5124L1515.35 101.218L1519.63 104.327L1537.57 79.6209L1533.29 76.5124Z" fill="#999999"/>
<path d="M1493.14 49.3727L1476.51 74.9809L1480.95 77.862L1497.58 52.2538L1493.14 49.3727Z" fill="#999999"/>
<path d="M1408.36 0.692173L1394.49 27.896L1399.2 30.2983L1413.07 3.09452L1408.36 0.692173Z" fill="#999999"/>
<path d="M1364.19 -20.2658L1351.76 7.62647L1356.6 9.77888L1369.02 -18.1134L1364.19 -20.2658Z" fill="#999999"/>
<path d="M609.303 -20.3554L604.471 -18.2037L616.89 9.69073L621.723 7.5391L609.303 -20.3554Z" fill="#999999"/>
<path d="M565.125 0.460954L560.412 2.86256L574.274 30.0688L578.987 27.6672L565.125 0.460954Z" fill="#999999"/>
<path d="M522.09 23.7402L517.509 26.3851L532.776 52.8285L537.357 50.1837L522.09 23.7402Z" fill="#999999"/>
<path d="M439.998 76.6555L435.718 79.7649L453.665 104.468L457.945 101.358L439.998 76.6555Z" fill="#999999"/>
<path d="M401.16 106.493L397.049 109.822L416.265 133.552L420.375 130.223L401.16 106.493Z" fill="#999999"/>
<path d="M363.877 137.965L359.946 141.505L380.378 164.196L384.309 160.657L363.877 137.965Z" fill="#999999"/>
<path d="M328.297 171.518L324.556 175.258L346.147 196.849L349.888 193.109L328.297 171.518Z" fill="#999999"/>
<path d="M262.699 243.954L259.37 248.065L283.099 267.281L286.428 263.17L262.699 243.954Z" fill="#999999"/>
<path d="M1690.2 1399.73L1686.87 1403.84L1710.6 1423.06L1713.93 1418.95L1690.2 1399.73Z" fill="#999999"/>
<path d="M232.843 282.668L229.734 286.948L254.436 304.895L257.545 300.615L232.843 282.668Z" fill="#999999"/>
<path d="M1718.85 1362.14L1715.74 1366.42L1740.44 1384.37L1743.55 1380.09L1718.85 1362.14Z" fill="#999999"/>
<path d="M205.069 322.924L202.188 327.361L227.796 343.991L230.677 339.554L205.069 322.924Z" fill="#999999"/>
<path d="M1745.61 1323.37L1742.73 1327.81L1768.34 1344.44L1771.22 1340L1745.61 1323.37Z" fill="#999999"/>
<path d="M179.406 364.542L176.761 369.123L203.204 384.391L205.849 379.81L179.406 364.542Z" fill="#999999"/>
<path d="M1770.08 1282.72L1767.44 1287.3L1793.88 1302.57L1796.52 1297.99L1770.08 1282.72Z" fill="#999999"/>
<path d="M134.76 451.448L132.609 456.281L160.503 468.7L162.654 463.868L134.76 451.448Z" fill="#999999"/>
<path d="M1812.82 1198.5L1810.67 1203.33L1838.57 1215.75L1840.72 1210.92L1812.82 1198.5Z" fill="#999999"/>
<path d="M115.924 496.586L114.029 501.524L142.535 512.466L144.43 507.528L115.924 496.586Z" fill="#999999"/>
<path d="M1830.75 1154.71L1828.85 1159.65L1857.36 1170.59L1859.26 1165.65L1830.75 1154.71Z" fill="#999999"/>
<path d="M99.4023 542.437L97.7676 547.468L126.807 556.904L128.442 551.872L99.4023 542.437Z" fill="#999999"/>
<path d="M1846.44 1110.16L1844.81 1115.19L1873.85 1124.63L1875.48 1119.59L1846.44 1110.16Z" fill="#999999"/>
<path d="M85.4762 589.421L84.1071 594.531L113.601 602.434L114.97 597.324L85.4762 589.421Z" fill="#999999"/>
<path d="M1859.81 1064.87L1858.44 1069.98L1887.93 1077.89L1889.3 1072.78L1859.81 1064.87Z" fill="#999999"/>
<path d="M64.9172 685.031L64.0897 690.256L94.248 695.032L95.0755 689.808L64.9172 685.031Z" fill="#999999"/>
<path d="M1879.22 972.378L1878.4 977.603L1908.55 982.379L1909.38 977.155L1879.22 972.378Z" fill="#999999"/>
<path d="M58.4142 733.468L57.8612 738.729L88.2282 741.921L88.7812 736.66L58.4142 733.468Z" fill="#999999"/>
<path d="M1885.27 925.447L1884.71 930.708L1915.08 933.899L1915.63 928.639L1885.27 925.447Z" fill="#999999"/>
<path d="M54.3566 782.118L54.0797 787.401L84.5718 788.999L84.8486 783.717L54.3566 782.118Z" fill="#999999"/>
<path d="M1888.77 878.241L1888.49 883.523L1918.98 885.121L1919.26 879.839L1888.77 878.241Z" fill="#999999"/>
<path d="M83.5023 830.961H52.968V836.251H83.5023V830.961Z" fill="#999999"/>
<path d="M1920.38 830.961H1889.84V836.251H1920.38V830.961Z" fill="#999999"/>
<path d="M88.4019 925.124L58.0348 928.316L58.5878 933.577L88.9548 930.385L88.4019 925.124Z" fill="#999999"/>
<path d="M1914.99 733.42L1884.63 736.617L1885.18 741.877L1915.55 738.68L1914.99 733.42Z" fill="#999999"/>
<path d="M93.9872 972.585L63.8289 977.361L64.6564 982.586L94.8148 977.809L93.9872 972.585Z" fill="#999999"/>
<path d="M1908.55 684.785L1878.39 689.557L1879.22 694.781L1909.38 690.01L1908.55 684.785Z" fill="#999999"/>
<path d="M102.614 1018.9L72.7465 1025.24L73.8463 1030.42L103.713 1024.07L102.614 1018.9Z" fill="#999999"/>
<path d="M1899.51 636.624L1869.65 642.967L1870.74 648.142L1900.61 641.799L1899.51 636.624Z" fill="#999999"/>
<path d="M113.582 1064.81L84.0877 1072.72L85.4569 1077.83L114.951 1069.92L113.582 1064.81Z" fill="#999999"/>
<path d="M1888 588.972L1858.5 596.869L1859.87 601.979L1889.36 594.082L1888 588.972Z" fill="#999999"/>
<path d="M142.55 1154.77L114.043 1165.71L115.939 1170.65L144.445 1159.7L142.55 1154.77Z" fill="#999999"/>
<path d="M1857.47 496.381L1828.96 507.324L1830.86 512.262L1859.36 501.32L1857.47 496.381Z" fill="#999999"/>
<path d="M160.354 1198.93L132.459 1211.35L134.611 1216.18L162.505 1203.76L160.354 1198.93Z" fill="#999999"/>
<path d="M1838.53 451.773L1810.64 464.193L1812.79 469.025L1840.68 456.606L1838.53 451.773Z" fill="#999999"/>
<path d="M180.641 1241.58L153.435 1255.44L155.837 1260.16L183.043 1246.3L180.641 1241.58Z" fill="#999999"/>
<path d="M1817.39 407.837L1790.18 421.694L1792.58 426.408L1819.79 412.55L1817.39 407.837Z" fill="#999999"/>
<path d="M203.164 1282.94L176.718 1298.21L179.363 1302.79L205.809 1287.53L203.164 1282.94Z" fill="#999999"/>
<path d="M1793.94 364.01L1767.5 379.277L1770.15 383.858L1796.59 368.591L1793.94 364.01Z" fill="#999999"/>
<path d="M254.371 1362.78L229.665 1380.72L232.774 1385L257.48 1367.06L254.371 1362.78Z" fill="#999999"/>
<path d="M1740.51 282.481L1715.8 300.424L1718.91 304.704L1743.62 286.761L1740.51 282.481Z" fill="#999999"/>
<path d="M283.164 1399.6L259.438 1418.82L262.768 1422.93L286.494 1403.71L283.164 1399.6Z" fill="#999999"/>
<path d="M1710.73 244.426L1687 263.638L1690.33 267.749L1714.06 248.537L1710.73 244.426Z" fill="#999999"/>
<path d="M313.723 1435.7L291.032 1456.14L294.572 1460.07L317.263 1439.63L313.723 1435.7Z" fill="#999999"/>
<path d="M1678.89 207.362L1656.2 227.789L1659.74 231.721L1682.43 211.293L1678.89 207.362Z" fill="#999999"/>
<path d="M1645.12 171.723L1623.53 193.314L1627.27 197.055L1648.86 175.464L1645.12 171.723Z" fill="#999999"/>
<path d="M1572.06 105.904L1552.84 129.634L1556.96 132.963L1576.17 109.233L1572.06 105.904Z" fill="#999999"/>
<path d="M1533.29 76.5124L1515.35 101.218L1519.63 104.327L1537.57 79.6209L1533.29 76.5124Z" fill="#999999"/>
<path d="M1493.14 49.3727L1476.51 74.9809L1480.95 77.862L1497.58 52.2538L1493.14 49.3727Z" fill="#999999"/>
<path d="M1451.2 23.6258L1435.94 50.072L1440.52 52.7161L1455.78 26.2699L1451.2 23.6258Z" fill="#999999"/>
<path d="M1364.19 -20.2658L1351.76 7.62647L1356.6 9.77888L1369.02 -18.1134L1364.19 -20.2658Z" fill="#999999"/>
</g>
</g>
<mask id="mask2_4006_468" style="mask-type:luminance" maskUnits="userSpaceOnUse" x="621" y="468" width="731" height="731">
<path d="M1244.84 1091.84C1387.42 949.265 1387.42 718.102 1244.84 575.525C1102.26 432.948 871.102 432.948 728.525 575.525C585.948 718.102 585.948 949.265 728.525 1091.84C871.102 1234.42 1102.26 1234.42 1244.84 1091.84Z" fill="white"/>
</mask>
<g mask="url(#mask2_4006_468)">
<path d="M968.106 459.048L965.984 459.159L966.626 471.408L968.748 471.297L968.106 459.048Z" fill="#999999"/>
<path d="M1006.72 1195.91L1004.6 1196.02L1005.24 1208.27L1007.37 1208.15L1006.72 1195.91Z" fill="#999999"/>
<path d="M948.536 460.511L946.423 460.733L947.705 472.932L949.818 472.71L948.536 460.511Z" fill="#999999"/>
<path d="M1025.68 1194.34L1023.57 1194.56L1024.85 1206.76L1026.96 1206.54L1025.68 1194.34Z" fill="#999999"/>
<path d="M929.07 463.022L926.971 463.355L928.89 475.469L930.989 475.137L929.07 463.022Z" fill="#999999"/>
<path d="M1044.5 1191.81L1042.4 1192.14L1044.32 1204.25L1046.42 1203.92L1044.5 1191.81Z" fill="#999999"/>
<path d="M909.759 466.505L907.68 466.947L910.23 478.945L912.309 478.503L909.759 466.505Z" fill="#999999"/>
<path d="M1063.15 1188.31L1061.07 1188.75L1063.62 1200.75L1065.7 1200.31L1063.15 1188.31Z" fill="#999999"/>
<path d="M871.771 476.662L869.75 477.318L873.541 488.984L875.562 488.327L871.771 476.662Z" fill="#999999"/>
<path d="M1099.82 1178.37L1097.8 1179.02L1101.59 1190.69L1103.61 1190.03L1099.82 1178.37Z" fill="#999999"/>
<path d="M853.256 483.155L851.272 483.917L855.667 495.367L857.651 494.606L853.256 483.155Z" fill="#999999"/>
<path d="M1117.68 1171.99L1115.7 1172.75L1120.09 1184.2L1122.08 1183.44L1117.68 1171.99Z" fill="#999999"/>
<path d="M835.088 490.612L833.147 491.477L838.136 502.682L840.077 501.818L835.088 490.612Z" fill="#999999"/>
<path d="M1135.22 1164.64L1133.28 1165.5L1138.27 1176.71L1140.21 1175.84L1135.22 1164.64Z" fill="#999999"/>
<path d="M817.342 498.974L815.448 499.939L821.017 510.868L822.91 509.903L817.342 498.974Z" fill="#999999"/>
<path d="M1152.3 1156.58L1150.41 1157.54L1155.98 1168.47L1157.87 1167.51L1152.3 1156.58Z" fill="#999999"/>
<path d="M783.283 518.544L781.501 519.701L788.181 529.988L789.964 528.831L783.283 518.544Z" fill="#999999"/>
<path d="M1185.17 1137.34L1183.39 1138.5L1190.07 1148.79L1191.85 1147.63L1185.17 1137.34Z" fill="#999999"/>
<path d="M767.077 529.582L765.358 530.831L772.568 540.754L774.287 539.505L767.077 529.582Z" fill="#999999"/>
<path d="M1200.8 1126.44L1199.08 1127.69L1206.29 1137.62L1208.01 1136.37L1200.8 1126.44Z" fill="#999999"/>
<path d="M751.476 541.568L749.825 542.905L757.544 552.438L759.195 551.1L751.476 541.568Z" fill="#999999"/>
<path d="M1215.83 1114.97L1214.18 1116.31L1221.9 1125.84L1223.55 1124.5L1215.83 1114.97Z" fill="#999999"/>
<path d="M736.5 554.211L734.92 555.632L743.128 564.748L744.707 563.326L736.5 554.211Z" fill="#999999"/>
<path d="M1230.23 1102.57L1228.65 1103.99L1236.86 1113.1L1238.44 1111.68L1230.23 1102.57Z" fill="#999999"/>
<path d="M708.661 581.924L707.24 583.503L716.355 591.711L717.777 590.131L708.661 581.924Z" fill="#999999"/>
<path d="M1257 1075.64L1255.58 1077.22L1264.7 1085.43L1266.12 1083.85L1257 1075.64Z" fill="#999999"/>
<path d="M695.856 596.786L694.518 598.438L704.051 606.157L705.388 604.506L695.856 596.786Z" fill="#999999"/>
<path d="M1269.29 1061.07L1267.95 1062.72L1277.48 1070.44L1278.82 1068.79L1269.29 1061.07Z" fill="#999999"/>
<path d="M683.862 612.338L682.613 614.057L692.537 621.267L693.786 619.548L683.862 612.338Z" fill="#999999"/>
<path d="M1280.8 1045.97L1279.55 1047.69L1289.47 1054.9L1290.72 1053.18L1280.8 1045.97Z" fill="#999999"/>
<path d="M672.705 628.509L671.548 630.291L681.835 636.972L682.992 635.19L672.705 628.509Z" fill="#999999"/>
<path d="M1291.55 1030.39L1290.39 1032.18L1300.68 1038.86L1301.83 1037.07L1291.55 1030.39Z" fill="#999999"/>
<path d="M652.955 662.373L651.99 664.267L662.919 669.835L663.884 667.942L652.955 662.373Z" fill="#999999"/>
<path d="M1310.46 997.507L1309.49 999.401L1320.42 1004.97L1321.39 1003.08L1310.46 997.507Z" fill="#999999"/>
<path d="M644.462 680.138L643.598 682.079L654.803 687.068L655.667 685.127L644.462 680.138Z" fill="#999999"/>
<path d="M1318.55 980.23L1317.68 982.172L1328.89 987.16L1329.75 985.219L1318.55 980.23Z" fill="#999999"/>
<path d="M636.896 698.27L636.134 700.253L647.585 704.649L648.347 702.665L636.896 698.27Z" fill="#999999"/>
<path d="M1325.75 962.641L1324.99 964.625L1336.44 969.02L1337.2 967.036L1325.75 962.641Z" fill="#999999"/>
<path d="M630.259 716.688L629.602 718.709L641.268 722.5L641.924 720.479L630.259 716.688Z" fill="#999999"/>
<path d="M1332.05 944.745L1331.39 946.766L1343.06 950.556L1343.72 948.535L1332.05 944.745Z" fill="#999999"/>
<path d="M620.051 754.691L619.609 756.769L631.607 759.319L632.049 757.241L620.051 754.691Z" fill="#999999"/>
<path d="M1341.87 908.137L1341.43 910.215L1353.43 912.766L1353.87 910.687L1341.87 908.137Z" fill="#999999"/>
<path d="M616.406 773.969L616.074 776.068L628.188 777.987L628.521 775.888L616.406 773.969Z" fill="#999999"/>
<path d="M1345.22 889.397L1344.89 891.496L1357 893.415L1357.33 891.316L1345.22 889.397Z" fill="#999999"/>
<path d="M613.794 793.426L613.572 795.54L625.77 796.822L625.992 794.708L613.794 793.426Z" fill="#999999"/>
<path d="M1347.65 870.545L1347.43 872.658L1359.62 873.94L1359.85 871.827L1347.65 870.545Z" fill="#999999"/>
<path d="M612.164 812.969L612.053 815.091L624.301 815.733L624.413 813.611L612.164 812.969Z" fill="#999999"/>
<path d="M1349.05 851.582L1348.94 853.704L1361.19 854.346L1361.3 852.224L1349.05 851.582Z" fill="#999999"/>
<path d="M624.245 851.666L611.996 852.308L612.108 854.43L624.357 853.788L624.245 851.666Z" fill="#999999"/>
<path d="M1361.26 812.851L1349.01 813.491L1349.12 815.613L1361.37 814.974L1361.26 812.851Z" fill="#999999"/>
<path d="M625.84 870.415L613.641 871.697L613.863 873.811L626.062 872.529L625.84 870.415Z" fill="#999999"/>
<path d="M1359.59 793.407L1347.39 794.691L1347.61 796.804L1359.81 795.52L1359.59 793.407Z" fill="#999999"/>
<path d="M628.084 889.48L615.969 891.399L616.301 893.498L628.416 891.579L628.084 889.48Z" fill="#999999"/>
<path d="M1357 773.87L1344.89 775.787L1345.22 777.886L1357.33 775.969L1357 773.87Z" fill="#999999"/>
<path d="M631.549 908.084L619.551 910.634L619.993 912.712L631.991 910.162L631.549 908.084Z" fill="#999999"/>
<path d="M1353.37 754.524L1341.37 757.072L1341.81 759.15L1353.81 756.602L1353.37 754.524Z" fill="#999999"/>
<path d="M641.361 944.642L629.696 948.435L630.353 950.455L642.018 946.663L641.361 944.642Z" fill="#999999"/>
<path d="M1343.02 716.932L1331.36 720.719L1332.01 722.74L1343.68 718.954L1343.02 716.932Z" fill="#999999"/>
<path d="M647.591 962.663L636.14 967.059L636.902 969.043L648.353 964.647L647.591 962.663Z" fill="#999999"/>
<path d="M1336.48 698.188L1325.03 702.583L1325.79 704.567L1337.24 700.172L1336.48 698.188Z" fill="#999999"/>
<path d="M654.743 980.404L643.538 985.392L644.402 987.334L655.608 982.345L654.743 980.404Z" fill="#999999"/>
<path d="M1328.87 680.268L1317.67 685.257L1318.53 687.199L1329.74 682.21L1328.87 680.268Z" fill="#999999"/>
<path d="M662.893 997.538L651.964 1003.11L652.929 1005L663.858 999.431L662.893 997.538Z" fill="#999999"/>
<path d="M1320.38 662.619L1309.45 668.185L1310.42 670.079L1321.35 664.512L1320.38 662.619Z" fill="#999999"/>
<path d="M681.835 1030.32L671.548 1037L672.705 1038.79L682.992 1032.11L681.835 1030.32Z" fill="#999999"/>
<path d="M1300.66 628.544L1290.37 635.224L1291.53 637.006L1301.81 630.326L1300.66 628.544Z" fill="#999999"/>
<path d="M692.511 1046.22L682.586 1053.43L683.835 1055.15L693.759 1047.94L692.511 1046.22Z" fill="#999999"/>
<path d="M1289.5 612.263L1279.57 619.471L1280.82 621.19L1290.75 613.982L1289.5 612.263Z" fill="#999999"/>
<path d="M704.077 1061.01L694.546 1068.73L695.883 1070.38L705.414 1062.66L704.077 1061.01Z" fill="#999999"/>
<path d="M1277.54 596.976L1268 604.694L1269.34 606.345L1278.87 598.628L1277.54 596.976Z" fill="#999999"/>
<path d="M716.353 1075.52L707.237 1083.72L708.659 1085.3L717.774 1077.1L716.353 1075.52Z" fill="#999999"/>
<path d="M1264.75 582.087L1255.63 590.293L1257.05 591.872L1266.17 583.667L1264.75 582.087Z" fill="#999999"/>
<path d="M743.109 1102.47L734.903 1111.58L736.483 1113L744.688 1103.89L743.109 1102.47Z" fill="#999999"/>
<path d="M1236.79 554.035L1228.59 563.152L1230.17 564.573L1238.37 555.457L1236.79 554.035Z" fill="#999999"/>
<path d="M757.508 1114.76L749.791 1124.3L751.442 1125.63L759.16 1116.1L757.508 1114.76Z" fill="#999999"/>
<path d="M1221.83 541.331L1214.11 550.864L1215.76 552.201L1223.48 542.669L1221.83 541.331Z" fill="#999999"/>
<path d="M772.581 1126.61L765.373 1136.53L767.092 1137.78L774.3 1127.86L772.581 1126.61Z" fill="#999999"/>
<path d="M1206.26 529.525L1199.05 539.449L1200.77 540.698L1207.98 530.773L1206.26 529.525Z" fill="#999999"/>
<path d="M788.198 1137.42L781.518 1147.7L783.3 1148.86L789.98 1138.57L788.198 1137.42Z" fill="#999999"/>
<path d="M1190.13 518.623L1183.45 528.909L1185.23 530.067L1191.91 519.78L1190.13 518.623Z" fill="#999999"/>
<path d="M821.03 1156.49L815.461 1167.42L817.354 1168.38L822.923 1157.45L821.03 1156.49Z" fill="#999999"/>
<path d="M1156.07 499.067L1150.5 509.995L1152.39 510.96L1157.96 500.032L1156.07 499.067Z" fill="#999999"/>
<path d="M838.199 1164.82L833.208 1176.02L835.149 1176.89L840.14 1165.68L838.199 1164.82Z" fill="#999999"/>
<path d="M1138.33 490.648L1133.34 501.853L1135.28 502.718L1140.27 491.513L1138.33 490.648Z" fill="#999999"/>
<path d="M855.646 1171.94L851.25 1183.39L853.234 1184.15L857.63 1172.7L855.646 1171.94Z" fill="#999999"/>
<path d="M1120.11 483.118L1115.72 494.569L1117.7 495.331L1122.1 483.88L1120.11 483.118Z" fill="#999999"/>
<path d="M873.636 1178.55L869.847 1190.22L871.868 1190.87L875.657 1179.21L873.636 1178.55Z" fill="#999999"/>
<path d="M1101.67 476.699L1097.88 488.364L1099.9 489.021L1103.7 477.356L1101.67 476.699Z" fill="#999999"/>
<path d="M910.212 1188.33L907.663 1200.33L909.742 1200.77L912.29 1188.77L910.212 1188.33Z" fill="#999999"/>
<path d="M1063.59 466.522L1061.04 478.52L1063.11 478.962L1065.66 466.964L1063.59 466.522Z" fill="#999999"/>
<path d="M928.903 1191.88L926.987 1203.99L929.086 1204.33L931.002 1192.21L928.903 1191.88Z" fill="#999999"/>
<path d="M1044.19 462.943L1042.27 475.058L1044.37 475.39L1046.29 463.276L1044.19 462.943Z" fill="#999999"/>
<path d="M947.604 1194.26L946.32 1206.46L948.433 1206.68L949.718 1194.48L947.604 1194.26Z" fill="#999999"/>
<path d="M1024.93 460.599L1023.65 472.798L1025.76 473.02L1027.04 460.821L1024.93 460.599Z" fill="#999999"/>
<path d="M966.514 1195.78L965.876 1208.03L967.998 1208.14L968.636 1195.89L966.514 1195.78Z" fill="#999999"/>
<path d="M1005.16 458.979L1004.51 471.228L1006.64 471.339L1007.28 459.09L1005.16 458.979Z" fill="#999999"/>
<path d="M948.536 460.511L946.423 460.733L947.705 472.932L949.818 472.71L948.536 460.511Z" fill="#999999"/>
<path d="M1025.68 1194.34L1023.57 1194.56L1024.85 1206.76L1026.96 1206.54L1025.68 1194.34Z" fill="#999999"/>
<path d="M929.07 463.022L926.971 463.355L928.89 475.469L930.989 475.137L929.07 463.022Z" fill="#999999"/>
<path d="M1044.5 1191.81L1042.4 1192.14L1044.32 1204.25L1046.42 1203.92L1044.5 1191.81Z" fill="#999999"/>
<path d="M909.759 466.505L907.68 466.947L910.23 478.945L912.309 478.503L909.759 466.505Z" fill="#999999"/>
<path d="M1063.15 1188.31L1061.07 1188.75L1063.62 1200.75L1065.7 1200.31L1063.15 1188.31Z" fill="#999999"/>
<path d="M890.643 471.062L888.591 471.612L891.765 483.46L893.818 482.91L890.643 471.062Z" fill="#999999"/>
<path d="M1081.6 1183.82L1079.55 1184.37L1082.72 1196.22L1084.78 1195.67L1081.6 1183.82Z" fill="#999999"/>
<path d="M853.256 483.155L851.272 483.917L855.667 495.367L857.651 494.606L853.256 483.155Z" fill="#999999"/>
<path d="M1117.68 1171.99L1115.7 1172.75L1120.09 1184.2L1122.08 1183.44L1117.68 1171.99Z" fill="#999999"/>
<path d="M835.088 490.612L833.147 491.477L838.136 502.682L840.077 501.818L835.088 490.612Z" fill="#999999"/>
<path d="M1135.22 1164.64L1133.28 1165.5L1138.27 1176.71L1140.21 1175.84L1135.22 1164.64Z" fill="#999999"/>
<path d="M817.342 498.974L815.448 499.939L821.017 510.868L822.91 509.903L817.342 498.974Z" fill="#999999"/>
<path d="M1152.3 1156.58L1150.41 1157.54L1155.98 1168.47L1157.87 1167.51L1152.3 1156.58Z" fill="#999999"/>
<path d="M800.054 508.326L798.214 509.388L804.347 520.011L806.187 518.948L800.054 508.326Z" fill="#999999"/>
<path d="M1169.02 1147.31L1167.18 1148.37L1173.31 1158.99L1175.15 1157.93L1169.02 1147.31Z" fill="#999999"/>
<path d="M767.077 529.582L765.358 530.831L772.568 540.754L774.287 539.505L767.077 529.582Z" fill="#999999"/>
<path d="M1200.8 1126.44L1199.08 1127.69L1206.29 1137.62L1208.01 1136.37L1200.8 1126.44Z" fill="#999999"/>
<path d="M751.476 541.568L749.825 542.905L757.544 552.438L759.195 551.1L751.476 541.568Z" fill="#999999"/>
<path d="M1215.83 1114.97L1214.18 1116.31L1221.9 1125.84L1223.55 1124.5L1215.83 1114.97Z" fill="#999999"/>
<path d="M736.5 554.211L734.92 555.632L743.128 564.748L744.707 563.326L736.5 554.211Z" fill="#999999"/>
<path d="M1230.23 1102.57L1228.65 1103.99L1236.86 1113.1L1238.44 1111.68L1230.23 1102.57Z" fill="#999999"/>
<path d="M722.207 567.689L720.704 569.191L729.377 577.864L730.88 576.362L722.207 567.689Z" fill="#999999"/>
<path d="M1243.97 1089.43L1242.47 1090.94L1251.15 1099.61L1252.65 1098.11L1243.97 1089.43Z" fill="#999999"/>
<path d="M695.856 596.786L694.518 598.438L704.051 606.157L705.388 604.506L695.856 596.786Z" fill="#999999"/>
<path d="M1269.29 1061.07L1267.95 1062.72L1277.48 1070.44L1278.82 1068.79L1269.29 1061.07Z" fill="#999999"/>
<path d="M683.863 612.338L682.613 614.057L692.537 621.267L693.786 619.548L683.863 612.338Z" fill="#999999"/>
<path d="M1280.8 1045.97L1279.55 1047.69L1289.47 1054.9L1290.72 1053.18L1280.8 1045.97Z" fill="#999999"/>
<path d="M672.705 628.509L671.548 630.291L681.835 636.972L682.992 635.19L672.705 628.509Z" fill="#999999"/>
<path d="M1291.55 1030.39L1290.39 1032.18L1300.68 1038.86L1301.83 1037.07L1291.55 1030.39Z" fill="#999999"/>
<path d="M662.396 645.227L661.334 647.068L671.956 653.2L673.019 651.36L662.396 645.227Z" fill="#999999"/>
<path d="M1301.38 1014.06L1300.31 1015.9L1310.94 1022.04L1312 1020.2L1301.38 1014.06Z" fill="#999999"/>
<path d="M644.462 680.138L643.598 682.079L654.803 687.068L655.667 685.127L644.462 680.138Z" fill="#999999"/>
<path d="M1318.55 980.23L1317.68 982.172L1328.89 987.16L1329.75 985.219L1318.55 980.23Z" fill="#999999"/>
<path d="M636.896 698.27L636.134 700.253L647.585 704.649L648.347 702.665L636.896 698.27Z" fill="#999999"/>
<path d="M1325.75 962.641L1324.99 964.625L1336.44 969.02L1337.2 967.036L1325.75 962.641Z" fill="#999999"/>
<path d="M630.259 716.688L629.602 718.709L641.268 722.5L641.924 720.479L630.259 716.688Z" fill="#999999"/>
<path d="M1332.05 944.745L1331.4 946.766L1343.06 950.556L1343.72 948.535L1332.05 944.745Z" fill="#999999"/>
<path d="M624.665 735.562L624.115 737.615L635.963 740.789L636.513 738.737L624.665 735.562Z" fill="#999999"/>
<path d="M1337.42 926.553L1336.87 928.606L1348.72 931.781L1349.27 929.728L1337.42 926.553Z" fill="#999999"/>
<path d="M616.406 773.969L616.074 776.068L628.188 777.987L628.521 775.888L616.406 773.969Z" fill="#999999"/>
<path d="M1345.22 889.397L1344.89 891.496L1357 893.415L1357.33 891.316L1345.22 889.397Z" fill="#999999"/>
<path d="M613.794 793.426L613.572 795.54L625.77 796.822L625.992 794.708L613.794 793.426Z" fill="#999999"/>
<path d="M1347.65 870.545L1347.43 872.658L1359.62 873.94L1359.85 871.827L1347.65 870.545Z" fill="#999999"/>
<path d="M612.164 812.969L612.053 815.091L624.301 815.733L624.413 813.611L612.164 812.969Z" fill="#999999"/>
<path d="M1349.05 851.582L1348.94 853.704L1361.19 854.346L1361.3 852.224L1349.05 851.582Z" fill="#999999"/>
<path d="M623.872 832.59H611.606V834.715H623.872V832.59Z" fill="#999999"/>
<path d="M1361.75 832.59H1349.49V834.715H1361.75V832.59Z" fill="#999999"/>
<path d="M625.84 870.415L613.641 871.697L613.864 873.811L626.062 872.529L625.84 870.415Z" fill="#999999"/>
<path d="M1359.59 793.407L1347.39 794.691L1347.61 796.804L1359.81 795.52L1359.59 793.407Z" fill="#999999"/>
<path d="M628.084 889.48L615.969 891.399L616.301 893.498L628.416 891.579L628.084 889.48Z" fill="#999999"/>
<path d="M1357 773.87L1344.89 775.787L1345.22 777.886L1357.33 775.969L1357 773.87Z" fill="#999999"/>
<path d="M631.549 908.084L619.551 910.634L619.993 912.712L631.991 910.162L631.549 908.084Z" fill="#999999"/>
<path d="M1353.37 754.524L1341.37 757.072L1341.81 759.15L1353.81 756.602L1353.37 754.524Z" fill="#999999"/>
<path d="M635.955 926.529L624.107 929.703L624.657 931.756L636.505 928.581L635.955 926.529Z" fill="#999999"/>
<path d="M1348.74 735.382L1336.9 738.554L1337.45 740.607L1349.29 737.434L1348.74 735.382Z" fill="#999999"/>
<path d="M647.591 962.663L636.14 967.059L636.902 969.043L648.353 964.647L647.591 962.663Z" fill="#999999"/>
<path d="M1336.48 698.188L1325.03 702.583L1325.79 704.567L1337.24 700.172L1336.48 698.188Z" fill="#999999"/>
<path d="M654.743 980.404L643.538 985.392L644.402 987.334L655.608 982.345L654.743 980.404Z" fill="#999999"/>
<path d="M1328.87 680.268L1317.67 685.257L1318.53 687.199L1329.74 682.21L1328.87 680.268Z" fill="#999999"/>
<path d="M662.893 997.538L651.964 1003.11L652.929 1005L663.858 999.431L662.893 997.538Z" fill="#999999"/>
<path d="M1320.38 662.619L1309.45 668.185L1310.42 670.079L1321.35 664.512L1320.38 662.619Z" fill="#999999"/>
<path d="M671.941 1014.15L661.317 1020.28L662.379 1022.12L673.003 1015.99L671.941 1014.15Z" fill="#999999"/>
<path d="M1310.96 645.014L1300.34 651.146L1301.4 652.987L1312.03 646.854L1310.96 645.014Z" fill="#999999"/>
<path d="M692.511 1046.22L682.586 1053.43L683.835 1055.15L693.759 1047.94L692.511 1046.22Z" fill="#999999"/>
<path d="M1289.5 612.263L1279.57 619.471L1280.82 621.19L1290.75 613.982L1289.5 612.263Z" fill="#999999"/>
<path d="M704.077 1061.01L694.546 1068.73L695.884 1070.38L705.414 1062.66L704.077 1061.01Z" fill="#999999"/>
<path d="M1277.54 596.976L1268 604.694L1269.34 606.345L1278.87 598.628L1277.54 596.976Z" fill="#999999"/>
<path d="M716.353 1075.52L707.237 1083.72L708.659 1085.3L717.774 1077.1L716.353 1075.52Z" fill="#999999"/>
<path d="M1264.75 582.087L1255.63 590.293L1257.05 591.872L1266.17 583.667L1264.75 582.087Z" fill="#999999"/>
<path d="M729.377 1089.46L720.704 1098.13L722.207 1099.63L730.88 1090.96L729.377 1089.46Z" fill="#999999"/>
<path d="M1251.18 567.771L1242.51 576.444L1244.01 577.947L1252.68 569.274L1251.18 567.771Z" fill="#999999"/>
<path d="M757.508 1114.76L749.791 1124.3L751.442 1125.63L759.16 1116.1L757.508 1114.76Z" fill="#999999"/>
<path d="M1221.83 541.331L1214.11 550.864L1215.76 552.201L1223.48 542.669L1221.83 541.331Z" fill="#999999"/>
<path d="M772.581 1126.61L765.373 1136.53L767.092 1137.78L774.3 1127.86L772.581 1126.61Z" fill="#999999"/>
<path d="M1206.26 529.525L1199.05 539.449L1200.77 540.698L1207.98 530.773L1206.26 529.525Z" fill="#999999"/>
<path d="M788.198 1137.42L781.518 1147.7L783.3 1148.86L789.98 1138.57L788.198 1137.42Z" fill="#999999"/>
<path d="M1190.13 518.623L1183.45 528.909L1185.23 530.067L1191.91 519.78L1190.13 518.623Z" fill="#999999"/>
<path d="M804.372 1147.39L798.239 1158.01L800.079 1159.07L806.212 1148.45L804.372 1147.39Z" fill="#999999"/>
<path d="M1173.28 508.28L1167.15 518.903L1168.99 519.966L1175.12 509.342L1173.28 508.28Z" fill="#999999"/>
<path d="M838.199 1164.82L833.208 1176.02L835.149 1176.89L840.14 1165.68L838.199 1164.82Z" fill="#999999"/>
<path d="M1138.33 490.648L1133.34 501.853L1135.28 502.718L1140.27 491.513L1138.33 490.648Z" fill="#999999"/>
<path d="M855.646 1171.94L851.25 1183.39L853.234 1184.15L857.63 1172.7L855.646 1171.94Z" fill="#999999"/>
<path d="M1120.11 483.118L1115.72 494.569L1117.7 495.331L1122.1 483.88L1120.11 483.118Z" fill="#999999"/>
<path d="M873.636 1178.55L869.847 1190.22L871.868 1190.87L875.657 1179.21L873.636 1178.55Z" fill="#999999"/>
<path d="M1101.67 476.699L1097.88 488.364L1099.9 489.021L1103.7 477.356L1101.67 476.699Z" fill="#999999"/>
<path d="M891.676 1183.71L888.505 1195.56L890.558 1196.1L893.729 1184.26L891.676 1183.71Z" fill="#999999"/>
<path d="M1082.73 471.082L1079.55 482.93L1081.6 483.48L1084.78 471.632L1082.73 471.082Z" fill="#999999"/>
<path d="M928.903 1191.88L926.987 1203.99L929.086 1204.33L931.002 1192.21L928.903 1191.88Z" fill="#999999"/>
<path d="M1044.19 462.943L1042.27 475.058L1044.37 475.39L1046.29 463.276L1044.19 462.943Z" fill="#999999"/>
<path d="M947.604 1194.26L946.32 1206.46L948.433 1206.68L949.718 1194.48L947.604 1194.26Z" fill="#999999"/>
<path d="M1024.93 460.599L1023.65 472.798L1025.76 473.02L1027.04 460.821L1024.93 460.599Z" fill="#999999"/>
<path d="M966.514 1195.78L965.876 1208.03L967.998 1208.14L968.636 1195.89L966.514 1195.78Z" fill="#999999"/>
<path d="M1005.16 458.979L1004.51 471.228L1006.64 471.339L1007.28 459.09L1005.16 458.979Z" fill="#999999"/>
<path d="M987.735 1196.47H985.61V1208.73H987.735V1196.47Z" fill="#999999"/>
<path d="M987.735 458.586H985.61V470.851H987.735V458.586Z" fill="#999999"/>
</g>
<g opacity="0.3" filter="url(#filter0_f_4006_468)">
<ellipse cx="986.5" cy="628.5" rx="369.5" ry="102.5" fill="url(#paint0_radial_4006_468)"/>
</g>
<g style="mix-blend-mode:screen" filter="url(#filter1_f_4006_468)">
<ellipse cx="986.5" cy="628.5" rx="268.5" ry="74.5" fill="url(#paint1_radial_4006_468)"/>
</g>
<g style="mix-blend-mode:screen" opacity="0.1" filter="url(#filter2_f_4006_468)">
<path d="M306.241 507.437L1618.41 280.686C1658.9 273.69 1692.82 311.351 1681.64 350.891L1530.02 887.138C1524.17 907.816 1506.98 923.303 1485.8 926.963L173.635 1153.71C133.146 1160.71 99.2252 1123.05 110.405 1083.51L262.025 547.261C267.871 526.583 285.067 511.096 306.241 507.437Z" fill="url(#paint2_linear_4006_468)"/>
</g>
<g style="mix-blend-mode:screen" opacity="0.6" filter="url(#filter3_f_4006_468)">
<path d="M608.7 626.692L1328.75 502.262C1350.97 498.423 1369.59 519.09 1363.45 540.787L1280.25 835.053C1277.04 846.4 1267.61 854.899 1255.99 856.907L535.932 981.336C513.714 985.176 495.1 964.509 501.235 942.812L584.436 648.545C587.645 637.198 597.081 628.7 608.7 626.692Z" fill="url(#paint3_linear_4006_468)"/>
</g>
<g filter="url(#filter4_f_4006_468)">
<ellipse cx="968.5" cy="572.5" rx="203.5" ry="23.5" fill="url(#paint4_radial_4006_468)"/>
</g>
<defs>
<filter id="filter0_f_4006_468" x="444.449" y="353.449" width="1084.1" height="550.102" filterUnits="userSpaceOnUse" color-interpolation-filters="sRGB">
<feFlood flood-opacity="0" result="BackgroundImageFix"/>
<feBlend mode="normal" in="SourceGraphic" in2="BackgroundImageFix" result="shape"/>
<feGaussianBlur stdDeviation="86.2754" result="effect1_foregroundBlur_4006_468"/>
</filter>
<filter id="filter1_f_4006_468" x="592.628" y="428.628" width="787.745" height="399.745" filterUnits="userSpaceOnUse" color-interpolation-filters="sRGB">
<feFlood flood-opacity="0" result="BackgroundImageFix"/>
<feBlend mode="normal" in="SourceGraphic" in2="BackgroundImageFix" result="shape"/>
<feGaussianBlur stdDeviation="62.6862" result="effect1_foregroundBlur_4006_468"/>
</filter>
<filter id="filter2_f_4006_468" x="-414.99" y="-243.394" width="2622.02" height="1921.19" filterUnits="userSpaceOnUse" color-interpolation-filters="sRGB">
<feFlood flood-opacity="0" result="BackgroundImageFix"/>
<feBlend mode="normal" in="SourceGraphic" in2="BackgroundImageFix" result="shape"/>
<feGaussianBlur stdDeviation="261.618" result="effect1_foregroundBlur_4006_468"/>
</filter>
<filter id="filter3_f_4006_468" x="212.924" y="214.672" width="1438.84" height="1054.25" filterUnits="userSpaceOnUse" color-interpolation-filters="sRGB">
<feFlood flood-opacity="0" result="BackgroundImageFix"/>
<feBlend mode="normal" in="SourceGraphic" in2="BackgroundImageFix" result="shape"/>
<feGaussianBlur stdDeviation="143.563" result="effect1_foregroundBlur_4006_468"/>
</filter>
<filter id="filter4_f_4006_468" x="639.628" y="423.628" width="657.745" height="297.745" filterUnits="userSpaceOnUse" color-interpolation-filters="sRGB">
<feFlood flood-opacity="0" result="BackgroundImageFix"/>
<feBlend mode="normal" in="SourceGraphic" in2="BackgroundImageFix" result="shape"/>
<feGaussianBlur stdDeviation="62.6862" result="effect1_foregroundBlur_4006_468"/>
</filter>
<radialGradient id="paint0_radial_4006_468" cx="0" cy="0" r="1" gradientUnits="userSpaceOnUse" gradientTransform="translate(986.5 628.5) rotate(89.0682) scale(102.164 368.199)">
<stop stop-color="#56FFA0"/>
<stop offset="1" stop-color="#080B0A"/>
</radialGradient>
<radialGradient id="paint1_radial_4006_468" cx="0" cy="0" r="1" gradientUnits="userSpaceOnUse" gradientTransform="translate(986.5 628.5) rotate(89.0684) scale(74.2559 267.555)">
<stop stop-color="#82FFB9"/>
<stop offset="1" stop-color="#080B0A"/>
</radialGradient>
<linearGradient id="paint2_linear_4006_468" x1="1349.4" y1="1525.94" x2="350.676" y2="-120.747" gradientUnits="userSpaceOnUse">
<stop stop-color="#0AF471"/>
<stop offset="1" stop-color="#00454C"/>
</linearGradient>
<linearGradient id="paint3_linear_4006_468" x1="1181.14" y1="1185.6" x2="633.084" y2="281.975" gradientUnits="userSpaceOnUse">
<stop stop-color="#0AF471"/>
<stop offset="1" stop-color="#00454C"/>
</linearGradient>
<radialGradient id="paint4_radial_4006_468" cx="0" cy="0" r="1" gradientUnits="userSpaceOnUse" gradientTransform="translate(968.5 572.5) rotate(87.7626) scale(23.4378 202.656)">
<stop stop-color="#82FFB9"/>
<stop offset="1" stop-color="#080B0A"/>
</radialGradient>
</defs>
</svg>
