<svg width="1920" height="1456" viewBox="0 0 1920 1456" fill="none" xmlns="http://www.w3.org/2000/svg">
<path d="M64.591 511.681H22.6274V467.66H64.591V511.681ZM64.1796 754H23.0388V541.714H64.1796V754ZM203.2 536.777C226.513 536.777 244.752 543.359 257.917 556.524C271.082 569.415 277.665 587.791 277.665 611.653V754H236.524V617.413C236.524 587.791 221.576 572.981 191.681 572.981C177.967 572.981 165.625 578.192 154.654 588.614C143.683 599.311 138.198 614.533 138.198 634.28V754H97.0568V541.714H136.552V573.392C152.734 548.982 174.95 536.777 203.2 536.777ZM404.05 541.714V575.449H361.264V702.985C361.264 709.294 363.047 713.956 366.612 716.973C370.452 719.716 376.76 721.087 385.537 721.087H404.05V754C394.999 754.823 386.634 755.234 378.955 755.234C358.933 755.234 344.122 751.394 334.523 743.715C324.923 736.035 320.123 723.693 320.123 706.688V575.449H285.976V541.714H320.123V480.825H361.264V541.714H404.05ZM611.577 649.502V661.433H451.539C453.459 682.278 459.63 698.049 470.052 708.745C480.475 719.167 494.6 724.379 512.427 724.379C539.306 724.379 556.859 712.585 565.088 688.998H606.64C600.88 710.665 589.635 727.807 572.904 740.424C556.448 752.766 536.015 758.937 511.605 758.937C481.16 758.937 456.613 748.789 437.963 728.493C419.312 708.197 409.987 681.318 409.987 647.857C409.987 614.396 419.312 587.517 437.963 567.221C456.613 546.925 480.886 536.777 510.782 536.777C542.049 536.777 566.733 547.336 584.835 568.455C602.663 589.574 611.577 616.59 611.577 649.502ZM510.782 571.335C494.6 571.335 481.298 576.272 470.875 586.146C460.727 596.02 454.419 610.282 451.95 628.932H569.202C567.282 611.653 561.111 597.802 550.688 587.38C540.54 576.683 527.238 571.335 510.782 571.335ZM676.039 754H634.898V461.078H676.039V754ZM750.468 511.681H708.505V467.66H750.468V511.681ZM750.057 754H708.916V541.714H750.057V754ZM940.503 571.746V541.714H979.998V746.183C979.998 775.256 971.222 798.021 953.668 814.477C936.115 831.207 911.156 839.573 878.792 839.573C851.091 839.573 829.012 833.265 812.556 820.648C796.374 808.032 787.185 790.752 784.991 768.811H826.132C829.423 793.769 847.114 806.249 879.204 806.249C918.973 806.249 938.858 786.501 938.858 747.006V723.556C922.676 745.498 899.911 756.468 870.564 756.468C840.943 756.468 817.355 746.458 799.802 726.436C781.974 706.14 773.06 679.535 773.06 646.623C773.06 613.71 781.974 587.106 799.802 566.81C817.355 546.788 840.806 536.777 870.153 536.777C901.145 536.777 924.596 548.433 940.503 571.746ZM877.969 721.087C897.168 721.087 912.253 714.505 923.224 701.34C934.469 687.901 940.092 669.661 940.092 646.623C940.092 623.584 934.469 605.482 923.224 592.317C912.253 578.878 897.168 572.158 877.969 572.158C859.045 572.158 843.96 578.878 832.715 592.317C821.469 605.756 815.847 623.858 815.847 646.623C815.847 669.661 821.469 687.901 832.715 701.34C843.96 714.505 859.045 721.087 877.969 721.087ZM1139.95 511.681L1104.16 475.066L1068.78 511.681H1029.28L1076.6 452.438H1131.72L1179.04 511.681H1139.95ZM1204.95 649.502V661.433H1044.92C1046.84 682.278 1053.01 698.049 1063.43 708.745C1073.85 719.167 1087.98 724.379 1105.81 724.379C1132.68 724.379 1150.24 712.585 1158.47 688.998H1200.02C1194.26 710.665 1183.01 727.807 1166.28 740.424C1149.83 752.766 1129.39 758.937 1104.98 758.937C1074.54 758.937 1049.99 748.789 1031.34 728.493C1012.69 708.197 1003.37 681.318 1003.37 647.857C1003.37 614.396 1012.69 587.517 1031.34 567.221C1049.99 546.925 1074.26 536.777 1104.16 536.777C1135.43 536.777 1160.11 547.336 1178.21 568.455C1196.04 589.574 1204.95 616.59 1204.95 649.502ZM1104.16 571.335C1087.98 571.335 1074.68 576.272 1064.25 586.146C1054.11 596.02 1047.8 610.282 1045.33 628.932H1162.58C1160.66 611.653 1154.49 597.802 1144.07 587.38C1133.92 576.683 1120.62 571.335 1104.16 571.335ZM1334.42 536.777C1357.73 536.777 1375.97 543.359 1389.14 556.524C1402.3 569.415 1408.88 587.791 1408.88 611.653V754H1367.74V617.413C1367.74 587.791 1352.8 572.981 1322.9 572.981C1309.19 572.981 1296.84 578.192 1285.87 588.614C1274.9 599.311 1269.42 614.533 1269.42 634.28V754H1228.28V541.714H1267.77V573.392C1283.95 548.982 1306.17 536.777 1334.42 536.777ZM1533.44 758.937C1503.27 758.937 1478.86 748.789 1460.21 728.493C1441.56 708.197 1432.23 681.318 1432.23 647.857C1432.23 614.121 1441.56 587.106 1460.21 566.81C1478.59 546.788 1503 536.777 1533.44 536.777C1559.5 536.777 1580.89 543.908 1597.62 558.17C1614.63 572.432 1624.77 591.631 1628.06 615.767H1586.1C1583.36 601.779 1577.19 591.083 1567.59 583.677C1558.26 576.272 1546.88 572.569 1533.44 572.569C1515.61 572.569 1501.35 579.152 1490.65 592.317C1480.23 605.208 1475.02 623.721 1475.02 647.857C1475.02 671.993 1480.23 690.643 1490.65 703.808C1501.35 716.699 1515.61 723.144 1533.44 723.144C1547.15 723.144 1558.81 719.305 1568.41 711.625C1578.01 703.945 1584.04 692.837 1586.51 678.301H1628.48C1625.18 702.985 1614.9 722.596 1597.62 737.132C1580.34 751.669 1558.95 758.937 1533.44 758.937ZM1689.06 511.681H1647.09V467.66H1689.06V511.681ZM1688.64 754H1647.5V541.714H1688.64V754ZM1904.19 722.322H1915.71V754C1909.67 754.823 1902.95 755.234 1895.55 755.234C1882.38 755.234 1872.51 752.903 1865.93 748.24C1859.62 743.303 1855.78 735.624 1854.41 725.201C1840.14 747.692 1817.11 758.937 1785.29 758.937C1761.98 758.937 1743.46 753.451 1729.75 742.481C1716.31 731.235 1709.59 715.739 1709.59 695.992C1709.59 657.594 1736.2 635.652 1789.4 630.166L1820.67 626.875C1831.64 625.504 1839.6 622.761 1844.53 618.647C1849.74 614.259 1852.35 608.087 1852.35 600.134C1852.35 589.437 1848.92 581.757 1842.06 577.095C1835.48 572.158 1824.37 569.689 1808.74 569.689C1791.74 569.689 1779.53 572.569 1772.12 578.329C1764.72 583.814 1760.47 593.688 1759.37 607.95H1718.64C1721.66 560.501 1751.69 536.777 1808.74 536.777C1864.69 536.777 1892.67 557.621 1892.67 599.311V711.625C1892.67 718.756 1896.51 722.322 1904.19 722.322ZM1791.46 726.847C1809.01 726.847 1823.55 721.91 1835.07 712.036C1846.59 702.163 1852.35 688.175 1852.35 670.073V647.857C1847.14 652.245 1838.36 655.125 1826.02 656.496L1796.4 659.788C1780.49 661.708 1769.11 665.547 1762.25 671.307C1755.39 676.793 1751.97 684.609 1751.97 694.757C1751.97 704.905 1755.26 712.859 1761.84 718.619C1768.7 724.104 1778.57 726.847 1791.46 726.847ZM205.704 1068.32H217.223V1100C211.189 1100.82 204.47 1101.23 197.064 1101.23C183.899 1101.23 174.025 1098.9 167.443 1094.24C161.135 1089.3 157.295 1081.62 155.923 1071.2C141.661 1093.69 118.623 1104.94 86.807 1104.94C63.4939 1104.94 44.9806 1099.45 31.267 1088.48C17.8277 1077.24 11.108 1061.74 11.108 1041.99C11.108 1003.59 37.7124 981.652 90.9211 976.166L122.188 972.875C133.159 971.504 141.113 968.761 146.05 964.647C151.261 960.259 153.866 954.087 153.866 946.134C153.866 935.437 150.438 927.757 143.581 923.095C136.999 918.158 125.891 915.689 110.257 915.689C93.2524 915.689 81.0473 918.569 73.6419 924.329C66.2366 929.814 61.9854 939.688 60.8883 953.95H20.159C23.176 906.501 53.2087 882.777 110.257 882.777C166.209 882.777 194.184 903.621 194.184 945.311V1057.63C194.184 1064.76 198.024 1068.32 205.704 1068.32ZM92.9781 1072.85C110.531 1072.85 125.068 1067.91 136.587 1058.04C148.107 1048.16 153.866 1034.17 153.866 1016.07V993.857C148.655 998.245 139.879 1001.13 127.536 1002.5L97.915 1005.79C82.0072 1007.71 70.625 1011.55 63.7682 1017.31C56.9114 1022.79 53.483 1030.61 53.483 1040.76C53.483 1050.91 56.7742 1058.86 63.3568 1064.62C70.2136 1070.1 80.0873 1072.85 92.9781 1072.85ZM336.978 884.422C343.012 884.422 346.989 884.56 348.909 884.834V923.918H338.624C317.505 923.918 301.186 929.129 289.666 939.551C278.147 949.973 272.387 965.058 272.387 984.806V1100H231.246V887.714H270.741V925.563C284.181 898.136 306.26 884.422 336.978 884.422ZM468.333 887.714V921.449H425.546V1048.99C425.546 1055.29 427.329 1059.96 430.895 1062.97C434.735 1065.72 441.043 1067.09 449.819 1067.09H468.333V1100C459.282 1100.82 450.917 1101.23 443.237 1101.23C423.215 1101.23 408.404 1097.39 398.805 1089.71C389.205 1082.04 384.406 1069.69 384.406 1052.69V921.449H350.259V887.714H384.406V826.825H425.546V887.714H468.333ZM529.713 857.681H487.749V813.66H529.713V857.681ZM529.301 1100H488.161V887.714H529.301V1100ZM579.046 887.714V868.378C579.046 826.688 600.302 805.844 642.815 805.844C646.929 805.844 654.745 806.255 666.265 807.078V840.402H647.751C629.375 840.402 620.187 849.727 620.187 868.378V887.714H664.619V921.449H620.187V1100H579.046V921.449H544.9V887.714H579.046ZM695.475 857.681V813.66H737.438V857.681H695.475ZM737.027 1100H695.886V887.714H737.027V1100ZM861.719 1104.94C831.549 1104.94 807.139 1094.79 788.488 1074.49C769.838 1054.2 760.513 1027.32 760.513 993.857C760.513 960.121 769.838 933.106 788.488 912.81C806.864 892.788 831.275 882.777 861.719 882.777C887.775 882.777 909.168 889.908 925.898 904.17C942.903 918.432 953.051 937.631 956.342 961.767H914.379C911.636 947.779 905.465 937.083 895.866 929.677C886.54 922.272 875.158 918.569 861.719 918.569C843.891 918.569 829.629 925.152 818.932 938.317C808.51 951.208 803.299 969.721 803.299 993.857C803.299 1017.99 808.51 1036.64 818.932 1049.81C829.629 1062.7 843.891 1069.14 861.719 1069.14C875.432 1069.14 887.089 1065.3 896.688 1057.63C906.288 1049.95 912.322 1038.84 914.79 1024.3H956.754C953.463 1048.99 943.177 1068.6 925.898 1083.13C908.619 1097.67 887.226 1104.94 861.719 1104.94ZM1017.33 857.681H975.37V813.66H1017.33V857.681ZM1016.92 1100H975.781V887.714H1016.92V1100ZM1232.46 1068.32H1243.98V1100C1237.95 1100.82 1231.23 1101.23 1223.82 1101.23C1210.66 1101.23 1200.79 1098.9 1194.2 1094.24C1187.9 1089.3 1184.06 1081.62 1182.68 1071.2C1168.42 1093.69 1145.38 1104.94 1113.57 1104.94C1090.25 1104.94 1071.74 1099.45 1058.03 1088.48C1044.59 1077.24 1037.87 1061.74 1037.87 1041.99C1037.87 1003.59 1064.47 981.652 1117.68 976.166L1148.95 972.875C1159.92 971.504 1167.87 968.761 1172.81 964.647C1178.02 960.259 1180.63 954.087 1180.63 946.134C1180.63 935.437 1177.2 927.757 1170.34 923.095C1163.76 918.158 1152.65 915.689 1137.02 915.689C1120.01 915.689 1107.81 918.569 1100.4 924.329C1093 929.814 1088.75 939.688 1087.65 953.95H1046.92C1049.94 906.501 1079.97 882.777 1137.02 882.777C1192.97 882.777 1220.94 903.621 1220.94 945.311V1057.63C1220.94 1064.76 1224.78 1068.32 1232.46 1068.32ZM1119.74 1072.85C1137.29 1072.85 1151.83 1067.91 1163.35 1058.04C1174.87 1048.16 1180.63 1034.17 1180.63 1016.07V993.857C1175.42 998.245 1166.64 1001.13 1154.3 1002.5L1124.68 1005.79C1108.77 1007.71 1097.39 1011.55 1090.53 1017.31C1083.67 1022.79 1080.24 1030.61 1080.24 1040.76C1080.24 1050.91 1083.53 1058.86 1090.12 1064.62C1096.97 1070.1 1106.85 1072.85 1119.74 1072.85ZM1297.54 1100H1256.4V807.078H1297.54V1100Z" fill="url(#paint0_radial_4021_468)"/>
<g style="mix-blend-mode:screen" opacity="0.3" filter="url(#filter0_f_4021_468)">
<path d="M332.709 834.412L878.411 377.421C895.249 363.32 921.037 371.625 926.482 392.903L1000.32 681.48C1003.17 692.608 999.373 704.382 990.567 711.757L444.866 1168.75C428.027 1182.85 402.239 1174.54 396.795 1153.27L322.958 864.689C320.111 853.561 323.903 841.787 332.709 834.412Z" fill="url(#paint1_linear_4021_468)"/>
</g>
<g style="mix-blend-mode:screen" opacity="0.3" filter="url(#filter1_f_4021_468)">
<path d="M903.323 626.825L1527.01 283.832C1546.26 273.248 1569.95 286.378 1571.19 308.307L1587.9 605.712C1588.54 617.18 1582.55 628 1572.48 633.535L948.795 976.527C929.55 987.111 905.852 973.981 904.62 952.053L887.908 654.648C887.264 643.18 893.258 632.36 903.323 626.825Z" fill="url(#paint2_linear_4021_468)"/>
</g>
<defs>
<filter id="filter0_f_4021_468" x="42.3435" y="90.7553" width="1238.59" height="1364.66" filterUnits="userSpaceOnUse" color-interpolation-filters="sRGB">
<feFlood flood-opacity="0" result="BackgroundImageFix"/>
<feBlend mode="normal" in="SourceGraphic" in2="BackgroundImageFix" result="shape"/>
<feGaussianBlur stdDeviation="139.841" result="effect1_foregroundBlur_4021_468"/>
</filter>
<filter id="filter1_f_4021_468" x="608.179" y="0.420837" width="1259.45" height="1259.52" filterUnits="userSpaceOnUse" color-interpolation-filters="sRGB">
<feFlood flood-opacity="0" result="BackgroundImageFix"/>
<feBlend mode="normal" in="SourceGraphic" in2="BackgroundImageFix" result="shape"/>
<feGaussianBlur stdDeviation="139.841" result="effect1_foregroundBlur_4021_468"/>
</filter>
<radialGradient id="paint0_radial_4021_468" cx="0" cy="0" r="1" gradientUnits="userSpaceOnUse" gradientTransform="translate(977.036 801.427) rotate(23.4947) scale(702.875 465.039)">
<stop stop-color="#0AF471"/>
<stop offset="1" stop-color="#000C0B"/>
</radialGradient>
<linearGradient id="paint1_linear_4021_468" x1="1088.28" y1="1025.25" x2="184.65" y2="532.104" gradientUnits="userSpaceOnUse">
<stop stop-color="#0AF471"/>
<stop offset="1" stop-color="#00454C"/>
</linearGradient>
<linearGradient id="paint2_linear_4021_468" x1="1607.81" y1="959.996" x2="816.438" y2="301.613" gradientUnits="userSpaceOnUse">
<stop stop-color="#0AF471"/>
<stop offset="1" stop-color="#00454C"/>
</linearGradient>
</defs>
</svg>
