<svg width="1350" height="1260" viewBox="0 0 1350 1260" fill="none" xmlns="http://www.w3.org/2000/svg">
<g clip-path="url(#clip0_124_28002)">
<path opacity="0.3" d="M343.4 863.7C343.4 865.021 344.474 866.095 345.794 866.095C347.115 866.095 348.189 865.021 348.189 863.7C348.189 862.379 347.115 861.306 345.794 861.306C344.474 861.306 343.4 862.379 343.4 863.7Z" fill="white"/>
<path opacity="0.3" d="M348.521 818.08C348.521 819.474 349.652 820.608 351.049 820.608C352.447 820.608 353.578 819.478 353.578 818.08C353.578 816.682 352.447 815.552 351.049 815.552C349.652 815.552 348.521 816.682 348.521 818.08Z" fill="white"/>
<path opacity="0.3" d="M354.562 766.025C354.562 767.455 355.721 768.618 357.155 768.618C358.589 768.618 359.748 767.459 359.748 766.025C359.748 764.59 358.589 763.432 357.155 763.432C355.721 763.432 354.562 764.59 354.562 766.025Z" fill="white"/>
<path opacity="0.3" d="M392.777 662.652C392.777 663.385 393.372 663.977 394.102 663.977C394.831 663.977 395.426 663.385 395.426 662.652C395.426 661.919 394.831 661.327 394.102 661.327C393.372 661.327 392.777 661.919 392.777 662.652Z" fill="white"/>
<path opacity="0.3" d="M495.294 511.459C495.294 511.876 495.63 512.212 496.048 512.212C496.465 512.212 496.801 511.876 496.801 511.459C496.801 511.041 496.465 510.705 496.048 510.705C495.63 510.705 495.294 511.041 495.294 511.459Z" fill="white"/>
<path opacity="0.3" d="M535.064 471.222C535.064 471.895 535.611 472.442 536.284 472.442C536.957 472.442 537.504 471.895 537.504 471.222C537.504 470.55 536.957 470.003 536.284 470.003C535.611 470.003 535.064 470.55 535.064 471.222Z" fill="white"/>
<path opacity="0.3" d="M690.017 377.275C688.247 377.275 686.813 375.84 686.813 374.07C686.813 372.3 688.247 370.865 690.017 370.865C691.787 370.865 693.222 372.3 693.222 374.07C693.222 375.84 691.787 377.275 690.017 377.275Z" fill="white"/>
<path opacity="0.3" d="M757.634 352.888C755.985 352.888 754.648 351.551 754.648 349.902C754.648 348.253 755.985 346.916 757.634 346.916C759.283 346.916 760.62 348.253 760.62 349.902C760.62 351.551 759.283 352.888 757.634 352.888Z" fill="white"/>
<path opacity="0.3" d="M800.261 338.826C800.261 339.596 800.885 340.216 801.651 340.216C802.416 340.216 803.04 339.592 803.04 338.826C803.04 338.06 802.416 337.437 801.651 337.437C800.885 337.437 800.261 338.06 800.261 338.826Z" fill="white"/>
<path opacity="0.3" d="M859.248 332.739C858.946 332.739 858.701 332.495 858.701 332.192C858.701 331.89 858.946 331.646 859.248 331.646C859.55 331.646 859.795 331.89 859.795 332.192C859.795 332.495 859.55 332.739 859.248 332.739Z" fill="white"/>
<path opacity="0.3" d="M919.434 327.7C918.841 327.7 918.361 327.219 918.361 326.626C918.361 326.033 918.841 325.553 919.434 325.553C920.027 325.553 920.508 326.033 920.508 326.626C920.508 327.219 920.027 327.7 919.434 327.7Z" fill="white"/>
<path opacity="0.3" d="M1095.38 360.003C1095.38 361.243 1096.39 362.244 1097.62 362.244C1098.86 362.244 1099.86 361.239 1099.86 360.003C1099.86 358.767 1098.86 357.763 1097.62 357.763C1096.39 357.763 1095.38 358.767 1095.38 360.003Z" fill="white"/>
<path opacity="0.3" d="M1211.39 414.834C1210.72 414.834 1210.17 414.288 1210.17 413.614C1210.17 412.941 1210.72 412.395 1211.39 412.395C1212.07 412.395 1212.61 412.941 1212.61 413.614C1212.61 414.288 1212.07 414.834 1211.39 414.834Z" fill="white"/>
<path opacity="0.3" d="M1257.94 443.802C1257.94 444.312 1258.36 444.73 1258.87 444.73C1259.39 444.73 1259.8 444.312 1259.8 443.802C1259.8 443.291 1259.39 442.874 1258.87 442.874C1258.36 442.874 1257.94 443.291 1257.94 443.802Z" fill="white"/>
<path opacity="0.3" d="M1303.45 488.545C1301.66 487.803 1300.81 485.751 1301.55 483.96C1302.29 482.17 1304.35 481.32 1306.14 482.062C1307.93 482.803 1308.78 484.856 1308.04 486.646C1307.29 488.436 1305.24 489.286 1303.45 488.545Z" fill="white"/>
<path opacity="0.3" d="M442.326 1220.52C440.651 1219.83 439.856 1217.91 440.55 1216.23C441.243 1214.56 443.163 1213.77 444.838 1214.46C446.512 1215.15 447.307 1217.07 446.614 1218.75C445.92 1220.42 444 1221.22 442.326 1220.52Z" fill="white"/>
<path opacity="0.3" d="M370.222 1066.45C369.745 1066.45 369.359 1066.06 369.359 1065.58C369.359 1065.11 369.745 1064.72 370.222 1064.72C370.698 1064.72 371.085 1065.11 371.085 1065.58C371.085 1066.06 370.698 1066.45 370.222 1066.45Z" fill="white"/>
<path opacity="0.3" d="M884.412 1107.22C884.412 1108.31 885.296 1109.19 886.386 1109.19C887.475 1109.19 888.359 1108.31 888.359 1107.22C888.359 1106.13 887.475 1105.24 886.386 1105.24C885.296 1105.24 884.412 1106.13 884.412 1107.22Z" fill="white"/>
<path opacity="0.3" d="M1049.44 1170.08C1049.44 1170.9 1050.11 1171.57 1050.93 1171.57C1051.75 1171.57 1052.42 1170.9 1052.42 1170.08C1052.42 1169.26 1051.75 1168.59 1050.93 1168.59C1050.11 1168.59 1049.44 1169.26 1049.44 1170.08Z" fill="white"/>
<path opacity="0.3" d="M1038.63 1020.52C1038.63 1021.48 1039.41 1022.25 1040.37 1022.25C1041.33 1022.25 1042.11 1021.48 1042.11 1020.52C1042.11 1019.56 1041.33 1018.78 1040.37 1018.78C1039.41 1018.78 1038.63 1019.56 1038.63 1020.52Z" fill="white"/>
<path opacity="0.3" d="M435.703 851.323C435.703 852.567 436.712 853.576 437.956 853.576C439.2 853.576 440.209 852.567 440.209 851.323C440.209 850.079 439.2 849.07 437.956 849.07C436.712 849.07 435.703 850.079 435.703 851.323Z" fill="white"/>
<path opacity="0.3" d="M933.575 998.634C933.575 1000.04 934.717 1001.18 936.123 1001.18C937.529 1001.18 938.671 1000.04 938.671 998.634C938.671 997.229 937.529 996.086 936.123 996.086C934.717 996.086 933.575 997.229 933.575 998.634Z" fill="white"/>
<path opacity="0.3" d="M765.51 970.379C764.206 970.379 763.148 969.322 763.148 968.017C763.148 966.713 764.206 965.655 765.51 965.655C766.815 965.655 767.873 966.713 767.873 968.017C767.873 969.322 766.815 970.379 765.51 970.379Z" fill="white"/>
<path opacity="0.3" d="M847.397 902.033C846.334 902.033 845.473 901.171 845.473 900.108C845.473 899.045 846.334 898.184 847.397 898.184C848.46 898.184 849.322 899.045 849.322 900.108C849.322 901.171 848.46 902.033 847.397 902.033Z" fill="white"/>
<path opacity="0.3" d="M756.69 918.992C756.69 920.28 757.735 921.326 759.024 921.326C760.312 921.326 761.358 920.28 761.358 918.992C761.358 917.703 760.312 916.658 759.024 916.658C757.735 916.658 756.69 917.703 756.69 918.992Z" fill="white"/>
<path opacity="0.3" d="M1016.26 822.381C1014.97 821.096 1014.97 819.013 1016.26 817.728C1017.54 816.444 1019.63 816.444 1020.91 817.728C1022.2 819.013 1022.2 821.096 1020.91 822.381C1019.63 823.666 1017.54 823.666 1016.26 822.381Z" fill="white"/>
<path opacity="0.3" d="M848.329 764.497C848.329 764.809 848.58 765.06 848.892 765.06C849.204 765.06 849.455 764.809 849.455 764.497C849.455 764.185 849.204 763.934 848.892 763.934C848.58 763.934 848.329 764.185 848.329 764.497Z" fill="white"/>
<path opacity="0.3" d="M901.012 729.273C901.012 730.173 901.741 730.898 902.637 730.898C903.532 730.898 904.261 730.169 904.261 729.273C904.261 728.378 903.532 727.648 902.637 727.648C901.741 727.648 901.012 728.378 901.012 729.273Z" fill="white"/>
<path opacity="0.3" d="M829.696 736.68C828.133 736.033 827.391 734.241 828.038 732.678C828.685 731.115 830.477 730.373 832.04 731.02C833.603 731.668 834.345 733.459 833.698 735.022C833.05 736.585 831.259 737.327 829.696 736.68Z" fill="white"/>
<path opacity="0.3" d="M1139.48 491.006C1139.48 491.557 1139.93 492.003 1140.48 492.003C1141.03 492.003 1141.47 491.557 1141.47 491.006C1141.47 490.455 1141.03 490.01 1140.48 490.01C1139.93 490.01 1139.48 490.455 1139.48 491.006Z" fill="white"/>
<path opacity="0.3" d="M1097.19 463.298C1097.19 464.566 1098.22 465.595 1099.49 465.595C1100.76 465.595 1101.79 464.566 1101.79 463.298C1101.79 462.03 1100.76 461.001 1099.49 461.001C1098.22 461.001 1097.19 462.03 1097.19 463.298Z" fill="white"/>
<path opacity="0.3" d="M1117.2 446.909C1117.2 448.445 1118.45 449.689 1119.98 449.689C1121.52 449.689 1122.76 448.445 1122.76 446.909C1122.76 445.374 1121.52 444.13 1119.98 444.13C1118.45 444.13 1117.2 445.374 1117.2 446.909Z" fill="white"/>
<path opacity="0.3" d="M924.641 650.222C923.099 650.222 921.849 648.972 921.849 647.43C921.849 645.888 923.099 644.639 924.641 644.639C926.183 644.639 927.432 645.888 927.432 647.43C927.432 648.972 926.183 650.222 924.641 650.222Z" fill="white"/>
<path opacity="0.3" d="M505.184 1124.41C504.399 1124.41 503.762 1123.77 503.762 1122.99C503.762 1122.2 504.399 1121.57 505.184 1121.57C505.969 1121.57 506.606 1122.2 506.606 1122.99C506.606 1123.77 505.969 1124.41 505.184 1124.41Z" fill="white"/>
<path opacity="0.3" d="M467.124 1118.92C466.715 1117.18 467.789 1115.45 469.522 1115.04C471.256 1114.63 472.993 1115.7 473.402 1117.44C473.811 1119.17 472.737 1120.91 471.004 1121.32C469.27 1121.73 467.533 1120.65 467.124 1118.92Z" fill="white"/>
<path opacity="0.3" d="M585.575 1055.53C585.575 1056.76 586.568 1057.76 587.796 1057.76C589.023 1057.76 590.016 1056.76 590.016 1055.53C590.016 1054.31 589.023 1053.31 587.796 1053.31C586.568 1053.31 585.575 1054.31 585.575 1055.53Z" fill="white"/>
<path opacity="0.3" d="M788.207 987.742C787.82 986.102 788.835 984.459 790.475 984.072C792.115 983.685 793.758 984.7 794.145 986.34C794.532 987.98 793.517 989.623 791.877 990.01C790.237 990.397 788.594 989.382 788.207 987.742Z" fill="white"/>
<path opacity="0.3" d="M627.392 1010.78C625.967 1010.78 624.811 1009.62 624.811 1008.2C624.811 1006.77 625.967 1005.62 627.392 1005.62C628.817 1005.62 629.973 1006.77 629.973 1008.2C629.973 1009.62 628.817 1010.78 627.392 1010.78Z" fill="white"/>
<path opacity="0.3" d="M444.191 953.15C444.191 954.183 445.03 955.022 446.063 955.022C447.096 955.022 447.931 954.183 447.931 953.15C447.931 952.117 447.092 951.282 446.063 951.282C445.034 951.282 444.191 952.121 444.191 953.15Z" fill="white"/>
<path opacity="0.3" d="M806.869 941.236C806.446 941.236 806.103 940.893 806.103 940.47C806.103 940.047 806.446 939.704 806.869 939.704C807.292 939.704 807.635 940.047 807.635 940.47C807.635 940.893 807.292 941.236 806.869 941.236Z" fill="white"/>
<path opacity="0.3" d="M536.094 851.805C534.503 851.805 533.213 850.516 533.213 848.925C533.213 847.334 534.503 846.044 536.094 846.044C537.685 846.044 538.974 847.334 538.974 848.925C538.974 850.516 537.685 851.805 536.094 851.805Z" fill="white"/>
<path opacity="0.3" d="M669.363 841.166C669.363 841.822 669.893 842.353 670.55 842.353C671.206 842.353 671.737 841.822 671.737 841.166C671.737 840.509 671.206 839.979 670.55 839.979C669.893 839.979 669.363 840.509 669.363 841.166Z" fill="white"/>
<path opacity="0.3" d="M483.901 675.144C482.614 675.144 481.571 674.101 481.571 672.814C481.571 671.527 482.614 670.484 483.901 670.484C485.187 670.484 486.23 671.527 486.23 672.814C486.23 674.101 485.187 675.144 483.901 675.144Z" fill="white"/>
<path opacity="0.3" d="M574.138 747.283C572.916 747.283 571.926 746.292 571.926 745.071C571.926 743.849 572.916 742.858 574.138 742.858C575.36 742.858 576.35 743.849 576.35 745.071C576.35 746.292 575.36 747.283 574.138 747.283Z" fill="white"/>
<path opacity="0.3" d="M677.307 746.115C677.307 746.816 677.875 747.383 678.576 747.383C679.277 747.383 679.844 746.816 679.844 746.115C679.844 745.414 679.277 744.847 678.576 744.847C677.875 744.847 677.307 745.414 677.307 746.115Z" fill="white"/>
<path opacity="0.3" d="M694.499 773.602C693.024 773.602 691.829 772.406 691.829 770.932C691.829 769.457 693.024 768.262 694.499 768.262C695.973 768.262 697.169 769.457 697.169 770.932C697.169 772.406 695.973 773.602 694.499 773.602Z" fill="white"/>
<path opacity="0.3" d="M587.472 606.631C585.324 606.631 583.582 604.889 583.582 602.741C583.582 600.593 585.324 598.852 587.472 598.852C589.62 598.852 591.361 600.593 591.361 602.741C591.361 604.889 589.62 606.631 587.472 606.631Z" fill="white"/>
<path opacity="0.3" d="M1181.56 916.557C1181.56 917.343 1182.19 917.975 1182.97 917.975C1183.76 917.975 1184.39 917.339 1184.39 916.557C1184.39 915.775 1183.76 915.139 1182.97 915.139C1182.19 915.139 1181.56 915.775 1181.56 916.557Z" fill="white"/>
<path opacity="0.3" d="M1287.14 883.958C1286.3 883.958 1285.62 883.277 1285.62 882.438C1285.62 881.599 1286.3 880.919 1287.14 880.919C1287.98 880.919 1288.66 881.599 1288.66 882.438C1288.66 883.277 1287.98 883.958 1287.14 883.958Z" fill="white"/>
<path opacity="0.3" d="M1260.74 766.033C1260.74 766.742 1261.31 767.318 1262.02 767.318C1262.73 767.318 1263.3 766.742 1263.3 766.033C1263.3 765.324 1262.73 764.749 1262.02 764.749C1261.31 764.749 1260.74 765.324 1260.74 766.033Z" fill="white"/>
<path opacity="0.3" d="M1185.62 717.632C1185.62 718.26 1186.13 718.767 1186.75 718.767C1187.38 718.767 1187.89 718.26 1187.89 717.632C1187.89 717.004 1187.38 716.498 1186.75 716.498C1186.13 716.498 1185.62 717.004 1185.62 717.632Z" fill="white"/>
<path opacity="0.3" d="M1337.07 657.053C1337.07 658.427 1338.18 659.545 1339.56 659.545C1340.94 659.545 1342.05 658.431 1342.05 657.053C1342.05 655.676 1340.94 654.562 1339.56 654.562C1338.18 654.562 1337.07 655.676 1337.07 657.053Z" fill="white"/>
<path opacity="0.3" d="M1225.92 658.313C1225.92 659.662 1227.02 660.756 1228.37 660.756C1229.72 660.756 1230.81 659.662 1230.81 658.313C1230.81 656.964 1229.72 655.87 1228.37 655.87C1227.02 655.87 1225.92 656.964 1225.92 658.313Z" fill="white"/>
<path opacity="0.3" d="M1238.57 367.92C1238.57 368.969 1239.42 369.824 1240.48 369.824C1241.53 369.824 1242.38 368.973 1242.38 367.92C1242.38 366.866 1241.53 366.016 1240.48 366.016C1239.42 366.016 1238.57 366.866 1238.57 367.92Z" fill="white"/>
<path opacity="0.3" d="M738.474 580.422C738.474 581.143 739.057 581.726 739.779 581.726C740.5 581.726 741.083 581.143 741.083 580.422C741.083 579.701 740.5 579.117 739.779 579.117C739.057 579.117 738.474 579.701 738.474 580.422Z" fill="white"/>
<path opacity="0.3" d="M759.916 592.467C759.916 593.192 760.503 593.78 761.228 593.78C761.954 593.78 762.541 593.192 762.541 592.467C762.541 591.742 761.954 591.154 761.228 591.154C760.503 591.154 759.916 591.742 759.916 592.467Z" fill="white"/>
<path opacity="0.3" d="M821.888 348.132C821.888 348.703 822.354 349.169 822.925 349.169C823.497 349.169 823.963 348.703 823.963 348.132C823.963 347.561 823.497 347.095 822.925 347.095C822.354 347.095 821.888 347.561 821.888 348.132Z" fill="white"/>
<path opacity="0.3" d="M853.62 331.574C853.62 332.331 854.232 332.943 854.99 332.943C855.748 332.943 856.359 332.331 856.359 331.574C856.359 330.816 855.748 330.204 854.99 330.204C854.232 330.204 853.62 330.816 853.62 331.574Z" fill="white"/>
<path opacity="0.3" d="M871.488 503.299C870.669 503.299 870.005 502.635 870.005 501.816C870.005 500.997 870.669 500.333 871.488 500.333C872.307 500.333 872.971 500.997 872.971 501.816C872.971 502.635 872.307 503.299 871.488 503.299Z" fill="white"/>
<path opacity="0.3" d="M913.694 439.341C912.546 439.341 911.615 438.411 911.615 437.263C911.615 436.115 912.546 435.185 913.694 435.185C914.841 435.185 915.772 436.115 915.772 437.263C915.772 438.411 914.841 439.341 913.694 439.341Z" fill="white"/>
<path opacity="0.3" d="M930.762 499.26C930.51 499.26 930.305 499.055 930.305 498.803C930.305 498.55 930.51 498.345 930.762 498.345C931.015 498.345 931.22 498.55 931.22 498.803C931.22 499.055 931.015 499.26 930.762 499.26Z" fill="white"/>
<path opacity="0.3" d="M979.459 414.683C977.93 414.683 976.691 413.444 976.691 411.916C976.691 410.387 977.93 409.148 979.459 409.148C980.987 409.148 982.226 410.387 982.226 411.916C982.226 413.444 980.987 414.683 979.459 414.683Z" fill="white"/>
<path opacity="0.3" d="M1039.35 522.196C1037.35 522.196 1035.72 520.571 1035.72 518.566C1035.72 516.561 1037.35 514.936 1039.35 514.936C1041.36 514.936 1042.98 516.561 1042.98 518.566C1042.98 520.571 1041.36 522.196 1039.35 522.196Z" fill="white"/>
<path opacity="0.3" d="M1056.98 1225.75C1056.98 1226.74 1057.78 1227.53 1058.76 1227.53C1059.75 1227.53 1060.55 1226.74 1060.55 1225.75C1060.55 1224.77 1059.75 1223.97 1058.76 1223.97C1057.78 1223.97 1056.98 1224.77 1056.98 1225.75Z" fill="white"/>
<path opacity="0.3" d="M1173.52 1190.77C1171.98 1190.77 1170.73 1189.52 1170.73 1187.98C1170.73 1186.44 1171.98 1185.19 1173.52 1185.19C1175.06 1185.19 1176.31 1186.44 1176.31 1187.98C1176.31 1189.52 1175.06 1190.77 1173.52 1190.77Z" fill="white"/>
<path opacity="0.3" d="M738.633 1207.63C738.633 1208.97 739.718 1210.06 741.059 1210.06C742.401 1210.06 743.486 1208.97 743.486 1207.63C743.486 1206.29 742.401 1205.2 741.059 1205.2C739.718 1205.2 738.633 1206.29 738.633 1207.63Z" fill="white"/>
<path opacity="0.3" d="M1334 1181.98C1332.92 1181.98 1332.05 1181.11 1332.05 1180.03C1332.05 1178.96 1332.92 1178.08 1334 1178.08C1335.08 1178.08 1335.95 1178.96 1335.95 1180.03C1335.95 1181.11 1335.08 1181.98 1334 1181.98Z" fill="white"/>
<path opacity="0.3" d="M1300.54 1042.4C1300.54 1043.2 1301.19 1043.84 1301.98 1043.84C1302.78 1043.84 1303.42 1043.19 1303.42 1042.4C1303.42 1041.61 1302.78 1040.96 1301.98 1040.96C1301.19 1040.96 1300.54 1041.61 1300.54 1042.4Z" fill="white"/>
<path opacity="0.3" d="M1187.46 372.976C1187.46 374.228 1188.47 375.241 1189.72 375.241C1190.98 375.241 1191.99 374.228 1191.99 372.976C1191.99 371.724 1190.98 370.711 1189.72 370.711C1188.47 370.711 1187.46 371.724 1187.46 372.976Z" fill="white"/>
<path opacity="0.3" d="M617.421 330.365C617.421 330.904 617.859 331.342 618.398 331.342C618.936 331.342 619.374 330.904 619.374 330.365C619.374 329.826 618.936 329.389 618.398 329.389C617.859 329.389 617.421 329.826 617.421 330.365Z" fill="white"/>
<path opacity="0.3" d="M626.31 356.539C626.31 357.511 627.1 358.301 628.073 358.301C629.045 358.301 629.835 357.511 629.835 356.539C629.835 355.566 629.045 354.776 628.073 354.776C627.1 354.776 626.31 355.566 626.31 356.539Z" fill="white"/>
<path opacity="0.3" d="M598.172 434.192C598.172 434.8 598.666 435.294 599.274 435.294C599.882 435.294 600.376 434.8 600.376 434.192C600.376 433.584 599.882 433.09 599.274 433.09C598.666 433.09 598.172 433.584 598.172 434.192Z" fill="white"/>
<path opacity="0.3" d="M566.87 408.995C564.954 408.995 563.401 407.442 563.401 405.527C563.401 403.611 564.954 402.059 566.87 402.059C568.785 402.059 570.338 403.611 570.338 405.527C570.338 407.442 568.785 408.995 566.87 408.995Z" fill="white"/>
<path opacity="0.3" d="M582.756 379.65C582.756 381.096 583.927 382.267 585.373 382.267C586.819 382.267 587.99 381.096 587.99 379.65C587.99 378.203 586.819 377.032 585.373 377.032C583.927 377.032 582.756 378.203 582.756 379.65Z" fill="white"/>
<path opacity="0.3" d="M565.48 322.457C564.249 322.457 563.252 321.459 563.252 320.228C563.252 318.998 564.249 318 565.48 318C566.711 318 567.708 318.998 567.708 320.228C567.708 321.459 566.711 322.457 565.48 322.457Z" fill="white"/>
<path opacity="0.3" d="M620.391 325.361C620.391 326.893 621.635 328.137 623.166 328.137C624.698 328.137 625.942 326.893 625.942 325.361C625.942 323.83 624.698 322.586 623.166 322.586C621.635 322.586 620.391 323.83 620.391 325.361Z" fill="white"/>
<path opacity="0.3" d="M1198.57 351.729C1197.71 351.729 1197.02 351.032 1197.02 350.173C1197.02 349.314 1197.71 348.617 1198.57 348.617C1199.43 348.617 1200.13 349.314 1200.13 350.173C1200.13 351.032 1199.43 351.729 1198.57 351.729Z" fill="white"/>
<path opacity="0.3" d="M293.002 789.836C291.344 789.836 290 788.491 290 786.833C290 785.175 291.344 783.831 293.002 783.831C294.66 783.831 296.005 785.175 296.005 786.833C296.005 788.491 294.66 789.836 293.002 789.836Z" fill="white"/>
<path opacity="0.3" d="M393.909 774.947C393.508 773.249 394.56 771.547 396.259 771.146C397.958 770.745 399.66 771.797 400.061 773.496C400.462 775.194 399.41 776.896 397.711 777.297C396.012 777.698 394.31 776.646 393.909 774.947Z" fill="white"/>
<path opacity="0.3" d="M349.964 966.376C348.813 966.376 347.881 965.444 347.881 964.293C347.881 963.143 348.813 962.211 349.964 962.211C351.114 962.211 352.046 963.143 352.046 964.293C352.046 965.444 351.114 966.376 349.964 966.376Z" fill="white"/>
<path opacity="0.3" d="M329.77 842.287C328.994 842.287 328.364 841.658 328.364 840.881C328.364 840.105 328.994 839.476 329.77 839.476C330.547 839.476 331.176 840.105 331.176 840.881C331.176 841.658 330.547 842.287 329.77 842.287Z" fill="white"/>
<path opacity="0.3" d="M336.253 834.233C336.253 834.756 336.678 835.181 337.201 835.181C337.724 835.181 338.149 834.756 338.149 834.233C338.149 833.711 337.724 833.285 337.201 833.285C336.678 833.285 336.253 833.711 336.253 834.233Z" fill="white"/>
<path opacity="0.3" d="M315.525 831.041C315.525 831.79 316.133 832.398 316.883 832.398C317.632 832.398 318.24 831.79 318.24 831.041C318.24 830.291 317.632 829.684 316.883 829.684C316.133 829.684 315.525 830.291 315.525 831.041Z" fill="white"/>
<path opacity="0.3" d="M321.647 816.053C321.647 816.56 322.056 816.969 322.563 816.969C323.069 816.969 323.478 816.56 323.478 816.053C323.478 815.547 323.069 815.138 322.563 815.138C322.056 815.138 321.647 815.547 321.647 816.053Z" fill="white"/>
<path opacity="0.3" d="M993.603 619.28C993.603 620.828 994.859 622.084 996.406 622.084C997.954 622.084 999.21 620.828 999.21 619.28C999.21 617.733 997.954 616.477 996.406 616.477C994.859 616.477 993.603 617.733 993.603 619.28Z" fill="white"/>
<path opacity="0.3" d="M969.217 537.106C967.791 537.106 966.636 535.951 966.636 534.525C966.636 533.1 967.791 531.944 969.217 531.944C970.642 531.944 971.797 533.1 971.797 534.525C971.797 535.951 970.642 537.106 969.217 537.106Z" fill="white"/>
<path opacity="0.3" d="M1092.44 704.064C1090.13 704.064 1088.25 702.189 1088.25 699.875C1088.25 697.561 1090.13 695.686 1092.44 695.686C1094.75 695.686 1096.63 697.561 1096.63 699.875C1096.63 702.189 1094.75 704.064 1092.44 704.064Z" fill="white"/>
<path opacity="0.3" d="M1138.54 749.973C1138.54 750.289 1138.8 750.544 1139.12 750.544C1139.43 750.544 1139.69 750.289 1139.69 749.973C1139.69 749.657 1139.43 749.401 1139.12 749.401C1138.8 749.401 1138.54 749.657 1138.54 749.973Z" fill="white"/>
<path opacity="0.3" d="M1155.95 617.453C1155.49 617.453 1155.12 617.08 1155.12 616.619C1155.12 616.158 1155.49 615.784 1155.95 615.784C1156.42 615.784 1156.79 616.158 1156.79 616.619C1156.79 617.08 1156.42 617.453 1155.95 617.453Z" fill="white"/>
<path opacity="0.3" d="M1205.42 759.583C1204.82 759.583 1204.33 759.091 1204.33 758.485C1204.33 757.878 1204.82 757.387 1205.42 757.387C1206.03 757.387 1206.52 757.878 1206.52 758.485C1206.52 759.091 1206.03 759.583 1205.42 759.583Z" fill="white"/>
<path opacity="0.3" d="M1191.18 444.717C1191.18 446.172 1192.36 447.347 1193.81 447.347C1195.26 447.347 1196.44 446.168 1196.44 444.717C1196.44 443.267 1195.26 442.088 1193.81 442.088C1192.36 442.088 1191.18 443.267 1191.18 444.717Z" fill="white"/>
<path opacity="0.3" d="M1273.95 563.239C1271.84 563.239 1270.13 561.53 1270.13 559.422C1270.13 557.314 1271.84 555.605 1273.95 555.605C1276.06 555.605 1277.76 557.314 1277.76 559.422C1277.76 561.53 1276.06 563.239 1273.95 563.239Z" fill="white"/>
<path opacity="0.3" d="M436.084 571.371C436.084 572.404 436.923 573.243 437.956 573.243C438.989 573.243 439.828 572.404 439.828 571.371C439.828 570.338 438.989 569.499 437.956 569.499C436.923 569.499 436.084 570.338 436.084 571.371Z" fill="white"/>
<path opacity="0.3" d="M692.371 679.065C691.57 679.065 690.921 678.416 690.921 677.615C690.921 676.813 691.57 676.164 692.371 676.164C693.173 676.164 693.822 676.813 693.822 677.615C693.822 678.416 693.173 679.065 692.371 679.065Z" fill="white"/>
<path opacity="0.3" d="M744.568 685.564C744.568 686.387 745.236 687.055 746.059 687.055C746.881 687.055 747.55 686.387 747.55 685.564C747.55 684.742 746.881 684.073 746.059 684.073C745.236 684.073 744.568 684.742 744.568 685.564Z" fill="white"/>
<path opacity="0.3" d="M644.919 500.504C643.684 500.504 642.683 499.503 642.683 498.268C642.683 497.033 643.684 496.031 644.919 496.031C646.154 496.031 647.156 497.033 647.156 498.268C647.156 499.503 646.154 500.504 644.919 500.504Z" fill="white"/>
<path opacity="0.3" d="M478.188 486.299C477.078 486.587 476.41 487.721 476.697 488.835C476.985 489.946 478.119 490.614 479.234 490.326C480.344 490.039 481.012 488.904 480.725 487.79C480.437 486.68 479.302 486.012 478.188 486.299Z" fill="white"/>
<path opacity="0.3" d="M438.288 499.268C436.728 499.673 435.792 501.262 436.197 502.822C436.602 504.381 438.191 505.317 439.751 504.912C441.31 504.507 442.246 502.919 441.841 501.359C441.436 499.799 439.848 498.863 438.288 499.268Z" fill="white"/>
<path opacity="0.3" d="M467.354 470.158C466.268 470.437 465.612 471.548 465.896 472.633C466.175 473.719 467.285 474.376 468.371 474.092C469.457 473.812 470.113 472.702 469.83 471.616C469.55 470.531 468.44 469.874 467.354 470.158Z" fill="white"/>
<path opacity="0.3" d="M429.168 475.17C428.775 475.271 428.54 475.672 428.642 476.065C428.743 476.458 429.144 476.693 429.537 476.592C429.93 476.491 430.165 476.09 430.064 475.697C429.962 475.304 429.561 475.069 429.168 475.17Z" fill="white"/>
<path opacity="0.3" d="M778.605 567.173C777.556 567.173 776.705 566.323 776.705 565.273C776.705 564.224 777.556 563.373 778.605 563.373C779.655 563.373 780.506 564.224 780.506 565.273C780.506 566.323 779.655 567.173 778.605 567.173Z" fill="white"/>
<path opacity="0.3" d="M1304.79 485.303L1392.46 591.831L1339.56 657.054L1304.79 485.303Z" stroke="white" stroke-width="0.405159" stroke-linecap="round" stroke-linejoin="round"/>
<path opacity="0.3" d="M1439.46 1115.19L1377.3 1253.89L1334 1180.03L1439.46 1115.19Z" stroke="white" stroke-width="0.405159" stroke-linecap="round" stroke-linejoin="round"/>
<path opacity="0.3" d="M470.227 1118.23L443.584 1217.49L491.818 1279.4L470.227 1118.23Z" stroke="white" stroke-width="0.405159" stroke-linecap="round" stroke-linejoin="round"/>
<path opacity="0.3" d="M349.964 964.293L370.222 1065.58L446.059 953.151L349.964 964.293Z" stroke="white" stroke-width="0.405159" stroke-linecap="round" stroke-linejoin="round"/>
<path opacity="0.3" d="M757.635 349.902L690.018 374.07L644.919 498.267L757.635 349.902Z" stroke="white" stroke-width="0.405159" stroke-linecap="round" stroke-linejoin="round"/>
<path opacity="0.3" d="M1097.62 360.003L919.434 326.626L979.459 411.916L1097.62 360.003Z" stroke="white" stroke-width="0.405159" stroke-linecap="round" stroke-linejoin="round"/>
<path opacity="0.3" d="M1262.02 766.033L1287.14 882.439L1182.98 916.558L1262.02 766.033Z" stroke="white" stroke-width="0.405159" stroke-linecap="round" stroke-linejoin="round"/>
<path opacity="0.3" d="M536.284 471.224L437.956 571.371L587.471 602.742L536.284 471.224Z" stroke="white" stroke-width="0.405159" stroke-linecap="round" stroke-linejoin="round"/>
<path opacity="0.3" d="M394.102 662.652L357.156 766.025L396.942 774.257L394.102 662.652Z" stroke="white" stroke-width="0.405159" stroke-linecap="round" stroke-linejoin="round"/>
<path opacity="0.3" d="M667.332 1232.44L443.583 1217.49L491.818 1279.4L667.332 1232.44Z" stroke="white" stroke-width="0.405159" stroke-linecap="round" stroke-linejoin="round"/>
<path opacity="0.3" d="M741.055 1207.63L667.333 1232.44L691.452 1258.16L741.055 1207.63Z" stroke="white" stroke-width="0.405159" stroke-linecap="round" stroke-linejoin="round"/>
<path opacity="0.3" d="M566.869 405.527L599.274 434.192L585.377 379.649L566.869 405.527Z" stroke="white" stroke-width="0.405159" stroke-linecap="round" stroke-linejoin="round"/>
<path opacity="0.3" d="M623.166 325.362L565.48 320.229L628.073 356.539L623.166 325.362Z" stroke="white" stroke-width="0.405159" stroke-linecap="round" stroke-linejoin="round"/>
<path opacity="0.3" d="M585.377 379.65L623.166 325.362L628.073 356.539L585.377 379.65Z" stroke="white" stroke-width="0.405159" stroke-linecap="round" stroke-linejoin="round"/>
<path opacity="0.3" d="M1287.14 882.439L1373.24 812.537L1182.98 916.558L1287.14 882.439Z" stroke="white" stroke-width="0.405159" stroke-linecap="round" stroke-linejoin="round"/>
<path opacity="0.3" d="M439.018 502.092L478.707 488.312L429.35 475.878L439.018 502.092Z" stroke="white" stroke-width="0.405159" stroke-linecap="round" stroke-linejoin="round"/>
<path opacity="0.3" d="M467.865 472.127L478.707 488.313L439.018 502.092L467.865 472.127Z" stroke="white" stroke-width="0.405159" stroke-linecap="round" stroke-linejoin="round"/>
<path opacity="0.3" d="M1119.98 446.909L1140.48 491.007L1099.49 463.298L1119.98 446.909Z" stroke="white" stroke-width="0.405159" stroke-linecap="round" stroke-linejoin="round"/>
<path opacity="0.3" d="M1189.73 372.976L1198.57 350.174L1240.48 367.92L1189.73 372.976Z" stroke="white" stroke-width="0.405159" stroke-linecap="round" stroke-linejoin="round"/>
<path opacity="0.3" d="M322.563 816.054L316.882 831.041L329.77 840.882L322.563 816.054Z" stroke="white" stroke-width="0.405159" stroke-linecap="round" stroke-linejoin="round"/>
<path opacity="0.3" d="M337.201 834.233L329.771 840.881L316.882 831.04L337.201 834.233Z" stroke="white" stroke-width="0.405159" stroke-linecap="round" stroke-linejoin="round"/>
<path opacity="0.3" d="M574.138 745.069L536.093 848.924L670.549 841.165L574.138 745.069Z" stroke="white" stroke-width="0.405159" stroke-linecap="round" stroke-linejoin="round"/>
<path opacity="0.3" d="M470.227 1118.23L349.964 964.294L370.222 1065.58L470.227 1118.23Z" stroke="white" stroke-width="0.405159" stroke-linecap="round" stroke-linejoin="round"/>
<path opacity="0.3" d="M886.386 1107.22L936.123 998.633L1040.37 1020.52L886.386 1107.22Z" stroke="white" stroke-width="0.405159" stroke-linecap="round" stroke-linejoin="round"/>
<path opacity="0.3" d="M847.397 900.108L886.386 1107.22L936.123 998.635L847.397 900.108Z" stroke="white" stroke-width="0.405159" stroke-linecap="round" stroke-linejoin="round"/>
<path opacity="0.3" d="M1301.98 1042.4L1402.32 920.997L1287.14 882.438L1301.98 1042.4Z" stroke="white" stroke-width="0.405159" stroke-linecap="round" stroke-linejoin="round"/>
<path opacity="0.3" d="M1439.46 1115.19L1301.98 1042.4L1377.3 1253.89L1439.46 1115.19Z" stroke="white" stroke-width="0.405159" stroke-linecap="round" stroke-linejoin="round"/>
<path opacity="0.3" d="M1301.98 1042.4L1334 1180.03L1173.52 1187.98L1301.98 1042.4Z" stroke="white" stroke-width="0.405159" stroke-linecap="round" stroke-linejoin="round"/>
<path opacity="0.3" d="M587.796 1055.53L627.392 1008.2L791.153 987.079L587.796 1055.53Z" stroke="white" stroke-width="0.405159" stroke-linecap="round" stroke-linejoin="round"/>
<path opacity="0.3" d="M667.332 1232.44L627.392 1008.2L587.796 1055.54L667.332 1232.44Z" stroke="white" stroke-width="0.405159" stroke-linecap="round" stroke-linejoin="round"/>
<path opacity="0.3" d="M446.059 953.151L536.094 848.924L627.392 1008.2L446.059 953.151Z" stroke="white" stroke-width="0.405159" stroke-linecap="round" stroke-linejoin="round"/>
<path opacity="0.3" d="M1058.77 1225.75L1082.56 1229.55L1050.93 1170.08L1058.77 1225.75Z" stroke="white" stroke-width="0.405159" stroke-linecap="round" stroke-linejoin="round"/>
<path opacity="0.3" d="M741.055 1207.63L820.098 1299L795.97 1319.52L741.055 1207.63Z" stroke="white" stroke-width="0.405159" stroke-linecap="round" stroke-linejoin="round"/>
<path opacity="0.3" d="M847.397 900.108L1018.58 820.053L1182.98 916.558L847.397 900.108Z" stroke="white" stroke-width="0.405159" stroke-linecap="round" stroke-linejoin="round"/>
<path opacity="0.3" d="M1301.98 1042.4L1467.96 945.814L1439.46 1115.19L1301.98 1042.4Z" stroke="white" stroke-width="0.405159" stroke-linecap="round" stroke-linejoin="round"/>
<path opacity="0.3" d="M370.222 1065.58L443.584 1217.49L446.059 953.151L370.222 1065.58Z" stroke="white" stroke-width="0.405159" stroke-linecap="round" stroke-linejoin="round"/>
<path opacity="0.3" d="M759.024 918.993L765.511 968.017L806.869 940.471L759.024 918.993Z" stroke="white" stroke-width="0.405159" stroke-linecap="round" stroke-linejoin="round"/>
<path opacity="0.3" d="M692.372 677.614L678.576 746.114L746.059 685.563L692.372 677.614Z" stroke="white" stroke-width="0.405159" stroke-linecap="round" stroke-linejoin="round"/>
<path opacity="0.3" d="M778.605 565.272L761.228 592.467L739.779 580.421L778.605 565.272Z" stroke="white" stroke-width="0.405159" stroke-linecap="round" stroke-linejoin="round"/>
<path opacity="0.3" d="M690.017 374.07L644.919 498.268L739.779 580.422L690.017 374.07Z" stroke="white" stroke-width="0.405159" stroke-linecap="round" stroke-linejoin="round"/>
<path opacity="0.3" d="M1273.95 559.422L1228.37 658.313L1155.95 616.618L1273.95 559.422Z" stroke="white" stroke-width="0.405159" stroke-linecap="round" stroke-linejoin="round"/>
<path opacity="0.3" d="M1211.39 413.613L1193.81 444.717L1258.87 443.802L1211.39 413.613Z" stroke="white" stroke-width="0.405159" stroke-linecap="round" stroke-linejoin="round"/>
<path opacity="0.3" d="M1039.35 518.565L996.407 619.28L969.216 534.525L1039.35 518.565Z" stroke="white" stroke-width="0.405159" stroke-linecap="round" stroke-linejoin="round"/>
<path opacity="0.3" d="M854.99 331.573L801.651 338.826L822.925 348.132L854.99 331.573Z" stroke="white" stroke-width="0.405159" stroke-linecap="round" stroke-linejoin="round"/>
<path opacity="0.3" d="M902.636 729.272L830.867 733.851L848.888 764.497L902.636 729.272Z" stroke="white" stroke-width="0.405159" stroke-linecap="round" stroke-linejoin="round"/>
<path opacity="0.3" d="M1186.76 717.632L1139.12 749.972L1092.44 699.874L1186.76 717.632Z" stroke="white" stroke-width="0.405159" stroke-linecap="round" stroke-linejoin="round"/>
<path opacity="0.3" d="M1205.42 758.485L1287.14 882.44L1262.02 766.033L1205.42 758.485Z" stroke="white" stroke-width="0.405159" stroke-linecap="round" stroke-linejoin="round"/>
<path opacity="0.3" d="M791.153 987.08L765.51 968.017L759.024 918.993L791.153 987.08Z" stroke="white" stroke-width="0.405159" stroke-linecap="round" stroke-linejoin="round"/>
<path opacity="0.3" d="M1205.42 758.484L1092.44 699.874L1186.76 717.632L1205.42 758.484Z" stroke="white" stroke-width="0.405159" stroke-linecap="round" stroke-linejoin="round"/>
<path opacity="0.3" d="M1155.95 616.618L1139.12 749.972L1092.44 699.874L1155.95 616.618Z" stroke="white" stroke-width="0.405159" stroke-linecap="round" stroke-linejoin="round"/>
<path opacity="0.3" d="M969.216 534.525L1155.95 616.618L1039.35 518.565L969.216 534.525Z" stroke="white" stroke-width="0.405159" stroke-linecap="round" stroke-linejoin="round"/>
<path opacity="0.3" d="M913.693 437.263L930.763 498.802L871.488 501.817L913.693 437.263Z" stroke="white" stroke-width="0.405159" stroke-linecap="round" stroke-linejoin="round"/>
<path opacity="0.3" d="M1323.84 1312.62L1439.46 1115.19L1334 1180.03L1323.84 1312.62Z" stroke="white" stroke-width="0.405159" stroke-linecap="round" stroke-linejoin="round"/>
<path opacity="0.3" d="M505.184 1122.99L627.392 1008.2L587.796 1055.54L505.184 1122.99Z" stroke="white" stroke-width="0.405159" stroke-linecap="round" stroke-linejoin="round"/>
<path opacity="0.3" d="M443.583 1217.49L470.227 1118.23L505.184 1122.99L443.583 1217.49Z" stroke="white" stroke-width="0.405159" stroke-linecap="round" stroke-linejoin="round"/>
<path opacity="0.3" d="M1273.95 559.422L1392.46 591.831L1304.79 485.303L1273.95 559.422Z" stroke="white" stroke-width="0.405159" stroke-linecap="round" stroke-linejoin="round"/>
<path opacity="0.3" d="M936.123 998.635L1018.58 820.053L847.397 900.108L936.123 998.635Z" stroke="white" stroke-width="0.405159" stroke-linecap="round" stroke-linejoin="round"/>
<path opacity="0.3" d="M806.869 940.47L936.123 998.635L847.397 900.108L806.869 940.47Z" stroke="white" stroke-width="0.405159" stroke-linecap="round" stroke-linejoin="round"/>
<path opacity="0.3" d="M345.795 863.7L349.964 964.293L446.059 953.151L345.795 863.7Z" stroke="white" stroke-width="0.405159" stroke-linecap="round" stroke-linejoin="round"/>
<path opacity="0.3" d="M1334 1180.03L1462.54 1070.21L1439.46 1115.19L1334 1180.03Z" stroke="white" stroke-width="0.405159" stroke-linecap="round" stroke-linejoin="round"/>
<path opacity="0.3" d="M1386.64 704.461L1392.46 591.831L1304.79 485.303L1386.64 704.461Z" stroke="white" stroke-width="0.405159" stroke-linecap="round" stroke-linejoin="round"/>
<path opacity="0.3" d="M394.102 662.653L536.284 471.224L437.956 571.371L394.102 662.653Z" stroke="white" stroke-width="0.405159" stroke-linecap="round" stroke-linejoin="round"/>
<path opacity="0.3" d="M1301.98 1042.4L1182.98 916.558L1018.58 820.053L1301.98 1042.4Z" stroke="white" stroke-width="0.405159" stroke-linecap="round" stroke-linejoin="round"/>
<path opacity="0.3" d="M1018.58 820.052L1186.76 717.632L1092.44 699.874L1018.58 820.052Z" stroke="white" stroke-width="0.405159" stroke-linecap="round" stroke-linejoin="round"/>
<path opacity="0.3" d="M924.641 647.43L969.216 534.524L1092.44 699.874L924.641 647.43Z" stroke="white" stroke-width="0.405159" stroke-linecap="round" stroke-linejoin="round"/>
<path opacity="0.3" d="M778.605 565.272L996.406 619.28L969.216 534.524L778.605 565.272Z" stroke="white" stroke-width="0.405159" stroke-linecap="round" stroke-linejoin="round"/>
<path opacity="0.3" d="M1092.44 699.874L996.406 619.28L1018.58 820.053L1092.44 699.874Z" stroke="white" stroke-width="0.405159" stroke-linecap="round" stroke-linejoin="round"/>
<path opacity="0.3" d="M1092.44 699.874L1273.95 559.422L1155.95 616.618L1092.44 699.874Z" stroke="white" stroke-width="0.405159" stroke-linecap="round" stroke-linejoin="round"/>
<path opacity="0.3" d="M1211.39 413.613L1273.95 559.422L1258.87 443.802L1211.39 413.613Z" stroke="white" stroke-width="0.405159" stroke-linecap="round" stroke-linejoin="round"/>
<path opacity="0.3" d="M854.99 331.573L919.434 326.626L1097.62 360.003L854.99 331.573Z" stroke="white" stroke-width="0.405159" stroke-linecap="round" stroke-linejoin="round"/>
<path opacity="0.3" d="M1339.56 657.053L1373.24 812.536L1392.46 591.83L1339.56 657.053Z" stroke="white" stroke-width="0.405159" stroke-linecap="round" stroke-linejoin="round"/>
<path opacity="0.3" d="M644.919 498.268L437.956 571.371L536.284 471.224L644.919 498.268Z" stroke="white" stroke-width="0.405159" stroke-linecap="round" stroke-linejoin="round"/>
<path opacity="0.3" d="M694.499 770.93L692.372 677.614L678.576 746.114L694.499 770.93Z" stroke="white" stroke-width="0.405159" stroke-linecap="round" stroke-linejoin="round"/>
<path opacity="0.3" d="M587.472 602.741L692.372 677.615L694.499 770.931L587.472 602.741Z" stroke="white" stroke-width="0.405159" stroke-linecap="round" stroke-linejoin="round"/>
<path opacity="0.3" d="M574.138 745.069L678.989 745.746L536.094 848.924L574.138 745.069Z" stroke="white" stroke-width="0.405159" stroke-linecap="round" stroke-linejoin="round"/>
<path opacity="0.3" d="M1173.52 1187.98L1082.56 1229.55L1058.77 1225.75L1173.52 1187.98Z" stroke="white" stroke-width="0.405159" stroke-linecap="round" stroke-linejoin="round"/>
<path opacity="0.3" d="M1050.93 1170.08L936.123 998.633L886.386 1107.22L1050.93 1170.08Z" stroke="white" stroke-width="0.405159" stroke-linecap="round" stroke-linejoin="round"/>
<path opacity="0.3" d="M988.489 1376.35L843.633 1277.28L1058.77 1225.75L988.489 1376.35Z" stroke="white" stroke-width="0.405159" stroke-linecap="round" stroke-linejoin="round"/>
<path opacity="0.3" d="M483.901 672.814L437.956 571.37L394.102 662.652L483.901 672.814Z" stroke="white" stroke-width="0.405159" stroke-linecap="round" stroke-linejoin="round"/>
<path opacity="0.3" d="M437.956 851.322L396.942 774.257L483.901 672.813L437.956 851.322Z" stroke="white" stroke-width="0.405159" stroke-linecap="round" stroke-linejoin="round"/>
<path opacity="0.3" d="M446.059 953.152L437.956 851.323L370.222 1065.58L446.059 953.152Z" stroke="white" stroke-width="0.405159" stroke-linecap="round" stroke-linejoin="round"/>
<path opacity="0.3" d="M791.153 987.079L936.123 998.634L765.511 968.017L791.153 987.079Z" stroke="white" stroke-width="0.405159" stroke-linecap="round" stroke-linejoin="round"/>
<path opacity="0.3" d="M924.641 647.431L902.636 729.273L848.888 764.497L924.641 647.431Z" stroke="white" stroke-width="0.405159" stroke-linecap="round" stroke-linejoin="round"/>
<path opacity="0.3" d="M830.867 733.85L746.059 685.563L692.371 677.614L830.867 733.85Z" stroke="white" stroke-width="0.405159" stroke-linecap="round" stroke-linejoin="round"/>
<path opacity="0.3" d="M670.55 841.166L694.499 770.932L759.024 918.993L670.55 841.166Z" stroke="white" stroke-width="0.405159" stroke-linecap="round" stroke-linejoin="round"/>
<path opacity="0.3" d="M848.888 764.497L694.498 770.931L670.549 841.165L848.888 764.497Z" stroke="white" stroke-width="0.405159" stroke-linecap="round" stroke-linejoin="round"/>
<path opacity="0.3" d="M739.779 580.422L587.472 602.742L483.901 672.814L739.779 580.422Z" stroke="white" stroke-width="0.405159" stroke-linecap="round" stroke-linejoin="round"/>
<path opacity="0.3" d="M739.779 580.422L483.901 672.814" stroke="white" stroke-width="0.810317" stroke-linecap="round" stroke-linejoin="round"/>
<path opacity="0.3" d="M1018.58 820.053L694.498 770.932" stroke="white" stroke-width="0.810317" stroke-linecap="round" stroke-linejoin="round"/>
<path opacity="0.3" d="M1097.62 360.003L996.406 619.28" stroke="white" stroke-width="0.810317" stroke-linecap="round" stroke-linejoin="round"/>
<path opacity="0.3" d="M1182.98 916.558L1082.56 1229.55" stroke="white" stroke-width="1.21548" stroke-linecap="round" stroke-linejoin="round"/>
<path opacity="0.3" d="M1262.02 766.033L1186.76 717.633" stroke="white" stroke-width="1.21548" stroke-linecap="round" stroke-linejoin="round"/>
<path opacity="0.3" d="M847.397 900.108L765.174 968.017" stroke="white" stroke-width="1.21548" stroke-linecap="round" stroke-linejoin="round"/>
<path opacity="0.3" d="M587.796 1055.53L536.276 847.611" stroke="white" stroke-width="1.21548" stroke-linecap="round" stroke-linejoin="round"/>
<rect x="204" y="822" width="1281" height="670" fill="url(#paint0_linear_124_28002)"/>
</g>
<g style="mix-blend-mode:screen" opacity="0.2" filter="url(#filter0_f_124_28002)">
<path d="M538.382 268.152L337.5 1079.96C330.959 1106.39 355.146 1130.16 381.461 1123.16L765.393 1021.05C778.016 1017.69 787.81 1007.73 790.948 995.049L991.83 183.242C998.371 156.81 974.183 133.039 947.869 140.038L563.937 242.149C551.314 245.507 541.52 255.472 538.382 268.152Z" fill="url(#paint1_linear_124_28002)"/>
</g>
<g style="mix-blend-mode:screen" opacity="0.9" filter="url(#filter1_f_124_28002)">
<path d="M567.291 351.351L412.393 977.322C407.35 997.703 426 1016.03 446.291 1010.64L742.334 931.899C752.068 929.31 759.62 921.626 762.039 911.849L916.937 285.879C921.98 265.497 903.33 247.168 883.039 252.564L586.996 331.301C577.262 333.89 569.71 341.574 567.291 351.351Z" fill="url(#paint2_linear_124_28002)"/>
</g>
<defs>
<filter id="filter0_f_124_28002" x="0.838226" y="-196.781" width="1327.65" height="1656.76" filterUnits="userSpaceOnUse" color-interpolation-filters="sRGB">
<feFlood flood-opacity="0" result="BackgroundImageFix"/>
<feBlend mode="normal" in="SourceGraphic" in2="BackgroundImageFix" result="shape"/>
<feGaussianBlur stdDeviation="167.79" result="effect1_foregroundBlur_124_28002"/>
</filter>
<filter id="filter1_f_124_28002" x="258.559" y="98.6094" width="812.211" height="1065.98" filterUnits="userSpaceOnUse" color-interpolation-filters="sRGB">
<feFlood flood-opacity="0" result="BackgroundImageFix"/>
<feBlend mode="normal" in="SourceGraphic" in2="BackgroundImageFix" result="shape"/>
<feGaussianBlur stdDeviation="76.5" result="effect1_foregroundBlur_124_28002"/>
</filter>
<linearGradient id="paint0_linear_124_28002" x1="844.5" y1="1492" x2="844.5" y2="822" gradientUnits="userSpaceOnUse">
<stop offset="0.325" stop-color="#060706"/>
<stop offset="1" stop-opacity="0"/>
</linearGradient>
<linearGradient id="paint1_linear_124_28002" x1="1213.15" y1="901.963" x2="200.305" y2="165.244" gradientUnits="userSpaceOnUse">
<stop stop-color="#0AF471"/>
<stop offset="1" stop-color="#00454C"/>
</linearGradient>
<linearGradient id="paint2_linear_124_28002" x1="1087.6" y1="840.072" x2="306.605" y2="272" gradientUnits="userSpaceOnUse">
<stop stop-color="#0AF471"/>
<stop offset="1" stop-color="#00454C"/>
</linearGradient>
<clipPath id="clip0_124_28002">
<rect width="1222" height="908" fill="white" transform="translate(290 318)"/>
</clipPath>
</defs>
</svg>
