<svg width="1920" height="468" viewBox="0 0 1920 468" fill="none" xmlns="http://www.w3.org/2000/svg">
<g clip-path="url(#clip0_4001_1549)">
<circle opacity="0.1" cx="960.363" cy="0.362549" r="402.962" stroke="url(#paint0_linear_4001_1549)" stroke-width="1.35097"/>
<circle opacity="0.3" cx="960.363" cy="0.362488" r="280.168" stroke="url(#paint1_linear_4001_1549)" stroke-width="0.939294"/>
<circle opacity="0.5" cx="960.363" cy="0.362518" r="208.341" stroke="url(#paint2_linear_4001_1549)" stroke-width="0.698485"/>
<circle cx="960.363" cy="0.362473" r="146.306" stroke="url(#paint3_linear_4001_1549)" stroke-width="0.490506"/>
<g opacity="0.4" filter="url(#filter0_f_4001_1549)">
<circle cx="960.637" cy="0.637466" r="197.363" fill="url(#paint4_radial_4001_1549)"/>
</g>
<g opacity="0.8" filter="url(#filter1_f_4001_1549)">
<circle cx="960.637" cy="0.637466" r="80.6375" fill="url(#paint5_radial_4001_1549)"/>
</g>
<rect width="1920" height="467" transform="translate(0 1)" fill="#060706" fill-opacity="0.47"/>
<line opacity="0.3" x1="2" y1="0.5" x2="1920" y2="0.5" stroke="url(#paint6_radial_4001_1549)"/>
<circle cx="960.363" cy="0.362534" r="80.5025" fill="#080B0A" stroke="url(#paint7_linear_4001_1549)" stroke-width="0.269894"/>
<path d="M950.71 0.970039L971.959 -23.7649C974.375 -26.5759 977.659 -28.16 981.087 -28.16H1001.15C1003.68 -28.16 1004.95 -24.6068 1003.16 -22.5313L971.196 14.4681C968.759 17.2893 964.805 17.2893 962.368 14.4681L950.71 0.973476V0.970039Z" fill="url(#paint8_linear_4001_1549)"/>
<path d="M971.773 13.8045L950.233 -10.9923C947.819 -13.7689 944.557 -15.3256 941.155 -15.3256H921.336C918.801 -15.3256 917.531 -11.7724 919.324 -9.69679L951.286 27.3026C953.724 30.1238 957.678 30.1238 960.115 27.3026L971.773 13.8079V13.8045Z" fill="url(#paint9_linear_4001_1549)"/>
<g style="mix-blend-mode:multiply" opacity="0.1">
<path d="M971.773 13.8011L955.609 -4.79992L960.97 -11.0266L971.773 13.8011Z" fill="#00444C"/>
</g>
<g style="mix-blend-mode:multiply" opacity="0.2">
<path d="M971.773 13.8012L955.609 -4.79982L957.936 -7.51111L971.773 13.8012Z" fill="#00444C"/>
</g>
</g>
<defs>
<filter id="filter0_f_4001_1549" x="590.724" y="-369.276" width="739.827" height="739.827" filterUnits="userSpaceOnUse" color-interpolation-filters="sRGB">
<feFlood flood-opacity="0" result="BackgroundImageFix"/>
<feBlend mode="normal" in="SourceGraphic" in2="BackgroundImageFix" result="shape"/>
<feGaussianBlur stdDeviation="86.2754" result="effect1_foregroundBlur_4001_1549"/>
</filter>
<filter id="filter1_f_4001_1549" x="809.5" y="-150.5" width="302.275" height="302.275" filterUnits="userSpaceOnUse" color-interpolation-filters="sRGB">
<feFlood flood-opacity="0" result="BackgroundImageFix"/>
<feBlend mode="normal" in="SourceGraphic" in2="BackgroundImageFix" result="shape"/>
<feGaussianBlur stdDeviation="35.25" result="effect1_foregroundBlur_4001_1549"/>
</filter>
<linearGradient id="paint0_linear_4001_1549" x1="457.293" y1="-0.871002" x2="1006.76" y2="-12.779" gradientUnits="userSpaceOnUse">
<stop stop-color="#0AF571"/>
<stop offset="1" stop-color="#696969"/>
</linearGradient>
<linearGradient id="paint1_linear_4001_1549" x1="610.593" y1="-0.495164" x2="992.622" y2="-8.77442" gradientUnits="userSpaceOnUse">
<stop stop-color="#0AF571"/>
<stop offset="1" stop-color="#696969"/>
</linearGradient>
<linearGradient id="paint2_linear_4001_1549" x1="700.264" y1="-0.275256" x2="984.352" y2="-6.43195" gradientUnits="userSpaceOnUse">
<stop stop-color="#0AF571"/>
<stop offset="1" stop-color="#696969"/>
</linearGradient>
<linearGradient id="paint3_linear_4001_1549" x1="777.71" y1="-0.0853998" x2="977.209" y2="-4.40889" gradientUnits="userSpaceOnUse">
<stop stop-color="#0AF571"/>
<stop offset="1" stop-color="#696969"/>
</linearGradient>
<radialGradient id="paint4_radial_4001_1549" cx="0" cy="0" r="1" gradientUnits="userSpaceOnUse" gradientTransform="translate(960.637 0.637453) rotate(89.7415) scale(196.692)">
<stop stop-color="#0AF571"/>
<stop offset="1" stop-color="#080B0A"/>
</radialGradient>
<radialGradient id="paint5_radial_4001_1549" cx="0" cy="0" r="1" gradientUnits="userSpaceOnUse" gradientTransform="translate(960.637 0.637461) rotate(89.7415) scale(80.3634)">
<stop stop-color="#0AF571"/>
<stop offset="1" stop-color="#080B0A"/>
</radialGradient>
<radialGradient id="paint6_radial_4001_1549" cx="0" cy="0" r="1" gradientUnits="userSpaceOnUse" gradientTransform="translate(961 1.5) scale(959 281.895)">
<stop stop-color="white"/>
<stop offset="1" stop-color="#4D4D4D" stop-opacity="0"/>
</radialGradient>
<linearGradient id="paint7_linear_4001_1549" x1="859.861" y1="0.116099" x2="969.632" y2="-2.26284" gradientUnits="userSpaceOnUse">
<stop stop-color="#0AF571"/>
<stop offset="1" stop-color="#696969"/>
</linearGradient>
<linearGradient id="paint8_linear_4001_1549" x1="950.71" y1="-5.788" x2="1004" y2="-5.788" gradientUnits="userSpaceOnUse">
<stop stop-color="white"/>
<stop offset="1" stop-color="#9BF1C1"/>
</linearGradient>
<linearGradient id="paint9_linear_4001_1549" x1="929.965" y1="-10.1028" x2="955.894" y2="33.7999" gradientUnits="userSpaceOnUse">
<stop stop-color="#0FFF79"/>
<stop offset="0.5" stop-color="#0FFF79"/>
<stop offset="1" stop-color="#00454C"/>
</linearGradient>
<clipPath id="clip0_4001_1549">
<rect width="1920" height="468" fill="white"/>
</clipPath>
</defs>
</svg>
