<svg width="19" height="25" viewBox="0 0 19 25" fill="none" xmlns="http://www.w3.org/2000/svg">
<path d="M15.75 0H11.5833V1.04167C11.5833 1.5942 11.3638 2.1241 10.9731 2.51481C10.5824 2.90551 10.0525 3.125 9.5 3.125C8.94746 3.125 8.41756 2.90551 8.02686 2.51481C7.63616 2.1241 7.41667 1.5942 7.41667 1.04167V0H3.25C2.4212 0 1.62634 0.32924 1.04029 0.915291C0.45424 1.50134 0.125 2.2962 0.125 3.125V25H7.41667V23.9583C7.41667 23.4058 7.63616 22.8759 8.02686 22.4852C8.41756 22.0945 8.94746 21.875 9.5 21.875C10.0525 21.875 10.5824 22.0945 10.9731 22.4852C11.3638 22.8759 11.5833 23.4058 11.5833 23.9583V25H18.875V3.125C18.875 2.2962 18.5458 1.50134 17.9597 0.915291C17.3737 0.32924 16.5788 0 15.75 0ZM13.5354 22.9167C13.3052 22.0213 12.7838 21.228 12.0532 20.6615C11.3227 20.095 10.4245 19.7876 9.5 19.7876C8.57554 19.7876 7.67733 20.095 6.94677 20.6615C6.21621 21.228 5.69479 22.0213 5.46458 22.9167H2.20833V17.7083H5.33333V15.625H2.20833V3.125C2.20833 2.84873 2.31808 2.58378 2.51343 2.38843C2.70878 2.19308 2.97373 2.08333 3.25 2.08333H5.46458C5.69479 2.97867 6.21621 3.77203 6.94677 4.33852C7.67733 4.905 8.57554 5.21244 9.5 5.21244C10.4245 5.21244 11.3227 4.905 12.0532 4.33852C12.7838 3.77203 13.3052 2.97867 13.5354 2.08333H15.75C16.0263 2.08333 16.2912 2.19308 16.4866 2.38843C16.6819 2.58378 16.7917 2.84873 16.7917 3.125V15.625H13.6667V17.7083H16.7917V22.9167H13.5354Z" fill="url(#paint0_linear_2010_7657)"/>
<path d="M11.5834 15.625H7.41669V17.7083H11.5834V15.625Z" fill="url(#paint1_linear_2010_7657)"/>
<defs>
<linearGradient id="paint0_linear_2010_7657" x1="0.125" y1="0" x2="24.6244" y2="19.7647" gradientUnits="userSpaceOnUse">
<stop stop-color="#0AF471"/>
<stop offset="1" stop-color="#00454C"/>
</linearGradient>
<linearGradient id="paint1_linear_2010_7657" x1="7.41669" y1="15.625" x2="9.0136" y2="19.0605" gradientUnits="userSpaceOnUse">
<stop stop-color="#0AF471"/>
<stop offset="1" stop-color="#00454C"/>
</linearGradient>
</defs>
</svg>
