<svg width="464" height="272" viewBox="0 0 464 272" fill="none" xmlns="http://www.w3.org/2000/svg">
<g opacity="0.6">
<g clip-path="url(#clip0_2010_7538)">
<rect width="464" height="272" rx="22.2897" fill="#151515"/>
<g style="mix-blend-mode:screen" opacity="0.5" filter="url(#filter1_f_2010_7538)">
<path d="M205.487 17.57L391.541 122.641C397.282 125.884 397.672 134.007 392.268 137.785L318.977 189.014C316.151 190.989 312.442 191.168 309.44 189.472L123.385 84.4004C117.644 81.1583 117.254 73.0346 122.658 69.2572L195.949 18.0279C198.775 16.0525 202.484 15.8744 205.487 17.57Z" fill="url(#paint0_linear_2010_7538)"/>
</g>
<g clip-path="url(#clip1_2010_7538)">
<path d="M150.468 198.619L150.326 178.746L180.637 160.724L178.651 159.604L147.523 178.111L147.665 197.984L120.19 214.32L122.176 215.44L150.468 198.619Z" fill="#0AF571"/>
<path d="M175.092 188.191C172.561 189.697 168.426 189.75 165.873 188.309C163.319 186.868 163.303 184.474 165.835 182.968C168.029 181.664 171.426 181.451 173.955 182.354L195.877 169.32L197.863 170.441L175.941 183.474C177.565 184.914 177.286 186.887 175.092 188.191ZM167.821 184.088C166.377 184.946 166.386 186.316 167.844 187.138C169.301 187.961 171.662 187.931 173.108 187.071C174.554 186.211 174.545 184.845 173.086 184.021C171.628 183.198 169.268 183.228 167.821 184.088Z" fill="#0AF571"/>
<path d="M107.522 172.441C104.991 173.947 100.855 173.999 98.3013 172.559C95.7478 171.118 95.7328 168.722 98.2638 167.218C100.456 165.914 103.852 165.7 106.381 166.603L147.611 142.09L149.597 143.21L108.367 167.724C109.991 169.164 109.712 171.137 107.52 172.439L107.522 172.441ZM100.251 168.338C98.8052 169.198 98.8146 170.566 100.272 171.388C101.73 172.21 104.09 172.18 105.536 171.32C106.981 170.462 106.973 169.095 105.514 168.271C104.056 167.448 101.696 167.478 100.25 168.338" fill="#0AF571"/>
<path d="M75.931 173.241C73.4 174.747 69.2636 174.8 66.7101 173.359C64.1567 171.919 64.1417 169.523 66.6727 168.018C68.8664 166.714 72.2629 166.501 74.792 167.404L132.092 133.336L134.078 134.456L76.7778 168.524C78.402 169.965 78.1229 171.937 75.9291 173.241H75.931ZM68.6603 169.138C67.2141 169.998 67.2253 171.366 68.6828 172.188C70.1403 173.011 72.5008 172.981 73.9471 172.121C75.3915 171.263 75.3821 169.893 73.9246 169.071C72.4671 168.249 70.1047 168.279 68.6603 169.138Z" fill="#0AF571"/>
<path d="M164.902 151.847L162.917 150.725L107.232 183.831L73.1734 184.268L42 202.801L43.9858 203.922L74.3424 185.873L108.403 185.437L164.902 151.847Z" fill="#0AF571"/>
<path d="M222.731 222.964C220.012 221.441 219.965 218.906 222.626 217.313C224.932 215.933 228.523 215.71 231.21 216.663L254.247 202.879L256.362 204.065L233.325 217.849C235.059 219.374 234.79 221.459 232.483 222.838C229.823 224.43 225.449 224.485 222.731 222.964ZM230.31 218.428C228.759 217.559 226.26 217.591 224.741 218.499C223.223 219.408 223.25 220.854 224.803 221.725C226.354 222.595 228.853 222.563 230.37 221.654C231.89 220.746 231.863 219.297 230.312 218.428" fill="#0AF571"/>
<path d="M168.972 245.748L197.844 228.472L197.457 207.454L230.168 187.879L232.283 189.065L200.43 208.127L200.816 229.144L171.087 246.934L168.972 245.748Z" fill="#0AF571"/>
<path d="M146.425 221.773C143.709 220.25 143.66 217.717 146.32 216.125C148.625 214.746 152.218 214.521 154.9 215.474L215.113 179.443L217.228 180.629L157.015 216.66C158.752 218.183 158.48 220.27 156.176 221.649C153.516 223.242 149.142 223.296 146.423 221.775L146.425 221.773ZM154.003 217.237C152.452 216.368 149.955 216.4 148.435 217.309C146.916 218.217 146.942 219.663 148.495 220.533C150.046 221.402 152.544 221.37 154.063 220.461C155.582 219.553 155.556 218.107 154.003 217.237Z" fill="#0AF571"/>
<path d="M406.994 148.157C406.993 148.22 406.989 148.284 406.985 148.348C406.981 148.404 406.979 148.458 406.974 148.514C406.968 148.578 406.963 148.644 406.955 148.707C406.949 148.762 406.944 148.818 406.938 148.872C406.931 148.938 406.921 149.002 406.912 149.067C406.904 149.121 406.897 149.176 406.888 149.23C406.876 149.296 406.865 149.361 406.852 149.427C406.843 149.481 406.833 149.534 406.822 149.588C406.809 149.652 406.794 149.717 406.779 149.781C406.766 149.835 406.755 149.888 406.741 149.942C406.725 150.008 406.708 150.073 406.689 150.137C406.674 150.189 406.661 150.242 406.646 150.294C406.627 150.362 406.605 150.427 406.584 150.493C406.567 150.543 406.552 150.594 406.535 150.646C406.513 150.716 406.487 150.785 406.462 150.854C406.445 150.901 406.429 150.95 406.412 150.997C406.374 151.098 406.333 151.199 406.29 151.302C406.283 151.319 406.277 151.336 406.269 151.353C406.219 151.471 406.166 151.589 406.112 151.705C406.095 151.74 406.076 151.776 406.06 151.812C406.02 151.894 405.981 151.975 405.94 152.057C405.917 152.102 405.891 152.147 405.868 152.192C405.831 152.263 405.792 152.336 405.752 152.407C405.73 152.449 405.704 152.49 405.679 152.531C405.632 152.612 405.586 152.69 405.537 152.771C405.509 152.818 405.479 152.864 405.449 152.911C405.402 152.986 405.355 153.059 405.306 153.132C405.275 153.181 405.243 153.228 405.209 153.277C405.158 153.35 405.108 153.423 405.057 153.494C405.024 153.541 404.99 153.588 404.954 153.636C404.9 153.711 404.842 153.784 404.786 153.859C404.752 153.902 404.72 153.945 404.686 153.987C404.583 154.116 404.477 154.245 404.368 154.374C404.349 154.395 404.33 154.416 404.312 154.438C404.218 154.547 404.121 154.655 404.023 154.762C403.988 154.802 403.95 154.841 403.915 154.88C403.825 154.976 403.731 155.071 403.637 155.167C403.604 155.201 403.572 155.234 403.538 155.266C403.412 155.392 403.283 155.515 403.15 155.637C403.101 155.682 403.049 155.729 402.998 155.774C402.935 155.832 402.873 155.888 402.807 155.946C402.755 155.993 402.699 156.04 402.644 156.085C402.579 156.141 402.515 156.195 402.448 156.252C402.391 156.298 402.333 156.345 402.275 156.39C402.208 156.445 402.142 156.499 402.073 156.553C402.013 156.6 401.953 156.645 401.893 156.692C401.824 156.744 401.754 156.799 401.685 156.851C401.623 156.898 401.56 156.943 401.496 156.99C401.425 157.042 401.354 157.093 401.282 157.145C401.217 157.19 401.151 157.237 401.086 157.282C401.013 157.333 400.938 157.383 400.863 157.434C400.795 157.479 400.728 157.524 400.659 157.569C400.584 157.619 400.507 157.668 400.43 157.717C400.361 157.762 400.288 157.807 400.216 157.85C400.138 157.898 400.061 157.947 399.982 157.994C399.857 158.071 399.731 158.146 399.602 158.221L306.34 212.418C306.065 212.577 305.782 212.733 305.497 212.883C305.422 212.922 305.347 212.961 305.273 213.001C305.016 213.134 304.757 213.263 304.495 213.388C304.46 213.405 304.426 213.422 304.392 213.439C304.098 213.578 303.8 213.711 303.498 213.842C303.422 213.875 303.343 213.907 303.264 213.941C303.008 214.05 302.747 214.155 302.485 214.256C302.427 214.278 302.371 214.301 302.313 214.323C302.003 214.441 301.689 214.556 301.372 214.664C301.295 214.69 301.219 214.717 301.142 214.741C300.928 214.814 300.711 214.881 300.494 214.951C300.287 215.016 300.081 215.078 299.873 215.14C299.699 215.192 299.523 215.243 299.345 215.292C299.135 215.35 298.924 215.406 298.712 215.46C298.534 215.505 298.356 215.552 298.178 215.595C297.963 215.648 297.745 215.696 297.53 215.745C297.35 215.784 297.172 215.826 296.99 215.863C296.769 215.91 296.546 215.951 296.325 215.994C296.129 216.032 295.93 216.071 295.731 216.105C295.641 216.12 295.551 216.135 295.462 216.15C295.156 216.2 294.851 216.249 294.544 216.294C294.493 216.302 294.441 216.309 294.39 216.317C294.04 216.365 293.687 216.41 293.335 216.45C293.247 216.459 293.159 216.468 293.069 216.478C292.85 216.502 292.631 216.521 292.412 216.541C292.14 216.566 291.867 216.588 291.595 216.609C291.423 216.622 291.252 216.633 291.08 216.644C290.795 216.661 290.51 216.676 290.224 216.687C290.062 216.695 289.901 216.702 289.74 216.708C289.493 216.716 289.246 216.719 288.996 216.723C288.822 216.725 288.65 216.731 288.476 216.731C288.212 216.731 287.947 216.727 287.681 216.723C287.524 216.721 287.367 216.721 287.209 216.717C286.966 216.712 286.724 216.699 286.482 216.689C286.312 216.682 286.141 216.678 285.973 216.669C285.711 216.654 285.448 216.635 285.188 216.616C285.038 216.605 284.89 216.598 284.74 216.584C284.425 216.558 284.114 216.526 283.802 216.493C283.706 216.483 283.61 216.476 283.515 216.465C283.108 216.42 282.704 216.367 282.299 216.311C282.232 216.302 282.166 216.29 282.099 216.279C281.754 216.228 281.409 216.176 281.068 216.116C280.924 216.092 280.782 216.062 280.637 216.036C280.375 215.987 280.113 215.94 279.852 215.886C279.716 215.858 279.581 215.826 279.444 215.796C279.157 215.734 278.871 215.67 278.588 215.603C278.43 215.565 278.273 215.524 278.116 215.485C277.857 215.419 277.599 215.352 277.344 215.281C277.125 215.219 276.906 215.159 276.688 215.093C276.608 215.069 276.525 215.044 276.445 215.02C276.117 214.919 275.793 214.816 275.472 214.707C275.411 214.687 275.351 214.664 275.291 214.644C275.025 214.552 274.76 214.456 274.498 214.357C274.41 214.323 274.32 214.29 274.232 214.256C274.024 214.175 273.82 214.091 273.614 214.007C273.473 213.949 273.331 213.892 273.192 213.832C272.992 213.746 272.797 213.656 272.6 213.568C272.471 213.51 272.342 213.452 272.215 213.392C271.999 213.291 271.789 213.184 271.579 213.077C271.476 213.025 271.37 212.974 271.267 212.92C270.956 212.757 270.65 212.59 270.349 212.416L104.352 116.575C101.374 114.855 99.2792 112.817 98.0727 110.649C97.2466 109.166 96.8363 107.624 96.84 106.08L96.8213 112.727C96.8101 116.522 99.3167 120.325 104.334 123.222L270.339 219.065C270.639 219.237 270.946 219.406 271.257 219.569C271.36 219.623 271.465 219.674 271.57 219.726C271.78 219.833 271.992 219.94 272.205 220.041C272.333 220.101 272.462 220.159 272.591 220.217C272.788 220.307 272.985 220.397 273.183 220.483C273.322 220.543 273.464 220.599 273.605 220.657C273.74 220.713 273.874 220.771 274.011 220.826C274.08 220.854 274.154 220.878 274.223 220.906C274.311 220.94 274.401 220.974 274.489 221.007C274.751 221.107 275.015 221.2 275.281 221.294C275.343 221.315 275.403 221.337 275.463 221.358C275.783 221.466 276.109 221.571 276.435 221.671C276.516 221.695 276.598 221.719 276.679 221.744C276.819 221.785 276.958 221.828 277.1 221.869C277.177 221.892 277.258 221.91 277.335 221.931C277.589 222.002 277.848 222.07 278.106 222.135C278.264 222.175 278.419 222.216 278.578 222.253C278.861 222.321 279.148 222.384 279.435 222.446C279.541 222.469 279.648 222.497 279.755 222.519C279.783 222.525 279.813 222.531 279.843 222.536C280.103 222.589 280.366 222.637 280.628 222.686C280.772 222.712 280.915 222.742 281.059 222.767C281.4 222.825 281.745 222.879 282.089 222.93C282.153 222.939 282.215 222.95 282.278 222.96C282.282 222.96 282.284 222.96 282.288 222.96C282.691 223.016 283.097 223.068 283.504 223.113C283.599 223.124 283.693 223.132 283.788 223.141C284.101 223.175 284.414 223.207 284.729 223.233C284.736 223.233 284.744 223.233 284.753 223.235C284.894 223.246 285.036 223.254 285.177 223.263C285.439 223.282 285.699 223.302 285.962 223.316C286.132 223.325 286.302 223.329 286.471 223.336C286.713 223.347 286.956 223.359 287.198 223.364C287.219 223.364 287.237 223.364 287.258 223.366C287.395 223.37 287.533 223.368 287.67 223.37C287.934 223.374 288.198 223.379 288.464 223.377C288.639 223.377 288.811 223.372 288.985 223.37C289.233 223.366 289.482 223.362 289.729 223.355C289.774 223.355 289.821 223.355 289.866 223.353C289.982 223.349 290.096 223.34 290.21 223.336C290.495 223.325 290.782 223.31 291.067 223.293C291.239 223.282 291.411 223.271 291.582 223.257C291.855 223.237 292.127 223.214 292.399 223.19C292.494 223.181 292.59 223.175 292.685 223.166C292.809 223.153 292.932 223.139 293.056 223.124C293.144 223.115 293.232 223.106 293.322 223.094C293.674 223.053 294.027 223.01 294.377 222.961C294.429 222.954 294.48 222.946 294.53 222.939C294.838 222.894 295.143 222.847 295.448 222.795C295.538 222.78 295.628 222.765 295.718 222.75C295.789 222.737 295.862 222.725 295.934 222.712C296.061 222.69 296.185 222.662 296.312 222.637C296.535 222.594 296.756 222.553 296.977 222.506C297.157 222.469 297.337 222.428 297.517 222.388C297.734 222.339 297.951 222.291 298.165 222.238C298.345 222.195 298.521 222.15 298.699 222.103C298.91 222.049 299.122 221.993 299.334 221.935C299.51 221.886 299.686 221.836 299.86 221.783C300.068 221.721 300.274 221.659 300.48 221.594C300.57 221.566 300.662 221.54 300.75 221.511C300.878 221.47 301.001 221.427 301.127 221.384C301.204 221.358 301.28 221.333 301.357 221.307C301.674 221.199 301.988 221.084 302.298 220.966C302.356 220.944 302.412 220.921 302.47 220.899C302.732 220.798 302.991 220.693 303.249 220.584C303.328 220.55 303.405 220.519 303.483 220.485C303.785 220.356 304.085 220.221 304.377 220.082C304.413 220.065 304.446 220.048 304.48 220.031C304.742 219.906 305.003 219.777 305.258 219.644C305.333 219.604 305.409 219.565 305.482 219.526C305.767 219.374 306.05 219.22 306.325 219.061L399.587 164.864C399.692 164.804 399.795 164.742 399.898 164.68C399.922 164.665 399.945 164.652 399.967 164.637C400.048 164.588 400.127 164.54 400.203 164.491C400.275 164.446 400.346 164.403 400.415 164.358C400.492 164.309 400.569 164.258 400.645 164.208C400.713 164.163 400.782 164.118 400.85 164.073C400.925 164.022 400.999 163.972 401.073 163.919C401.138 163.874 401.204 163.829 401.267 163.785C401.34 163.732 401.412 163.681 401.483 163.629C401.547 163.584 401.61 163.537 401.672 163.49C401.743 163.438 401.811 163.385 401.88 163.331C401.94 163.284 402.002 163.239 402.06 163.193C402.129 163.138 402.195 163.084 402.262 163.03C402.32 162.983 402.378 162.938 402.435 162.891C402.502 162.837 402.566 162.78 402.631 162.724C402.686 162.677 402.74 162.632 402.794 162.586C402.86 162.529 402.922 162.471 402.985 162.415C403.03 162.374 403.077 162.335 403.122 162.293C403.128 162.29 403.131 162.284 403.137 162.278C403.27 162.155 403.399 162.031 403.525 161.907C403.559 161.874 403.59 161.84 403.624 161.808C403.718 161.713 403.811 161.617 403.901 161.521C403.939 161.482 403.974 161.443 404.01 161.403C404.109 161.297 404.205 161.188 404.299 161.079C404.317 161.059 404.336 161.038 404.355 161.016C404.465 160.886 404.57 160.757 404.673 160.628C404.683 160.617 404.692 160.605 404.699 160.596C404.724 160.564 404.748 160.532 404.773 160.5C404.831 160.426 404.887 160.352 404.941 160.278C404.977 160.231 405.01 160.184 405.044 160.135C405.097 160.062 405.147 159.991 405.196 159.918C405.228 159.869 405.261 159.822 405.293 159.774C405.342 159.701 405.389 159.626 405.436 159.553C405.466 159.506 405.496 159.459 405.524 159.412C405.572 159.331 405.619 159.253 405.666 159.172C405.685 159.14 405.705 159.107 405.724 159.075C405.73 159.065 405.734 159.056 405.739 159.047C405.779 158.976 405.818 158.904 405.855 158.831C405.88 158.786 405.904 158.741 405.927 158.696C405.968 158.614 406.007 158.533 406.046 158.451C406.063 158.415 406.082 158.38 406.099 158.344C406.153 158.226 406.206 158.11 406.256 157.992C406.264 157.975 406.269 157.958 406.277 157.941C406.318 157.84 406.359 157.739 406.399 157.636C406.399 157.632 406.402 157.629 406.404 157.625C406.421 157.582 406.434 157.537 406.451 157.494C406.475 157.424 406.502 157.355 406.524 157.286C406.541 157.235 406.556 157.185 406.573 157.132C406.593 157.067 406.616 156.999 406.635 156.933C406.65 156.881 406.663 156.827 406.678 156.774C406.695 156.709 406.713 156.645 406.728 156.579C406.741 156.525 406.753 156.471 406.766 156.416C406.781 156.353 406.796 156.289 406.809 156.225C406.811 156.214 406.815 156.203 406.816 156.192C406.826 156.149 406.831 156.107 406.839 156.064C406.85 155.999 406.863 155.933 406.874 155.868C406.884 155.813 406.891 155.759 406.899 155.705C406.908 155.639 406.918 155.575 406.925 155.51C406.933 155.455 406.936 155.399 406.942 155.345C406.948 155.281 406.955 155.216 406.961 155.152C406.964 155.096 406.968 155.041 406.972 154.985C406.976 154.921 406.979 154.858 406.981 154.794C406.981 154.773 406.983 154.753 406.985 154.732C406.987 154.657 406.989 154.582 406.989 154.509L407.008 147.863C407.008 147.958 407.004 148.054 407 148.147L406.994 148.157Z" fill="url(#paint1_linear_2010_7538)"/>
<path d="M399.488 137.377C409.458 143.134 409.508 152.465 399.606 158.22L306.344 212.418C296.439 218.173 280.328 218.175 270.358 212.418L104.352 116.575C94.3821 110.818 94.3315 101.486 104.234 95.7312L197.496 41.5319C207.401 35.7768 223.512 35.7749 233.482 41.5319L399.488 137.375V137.377Z" fill="url(#paint2_linear_2010_7538)"/>
<path d="M379.761 141.807L359.646 130.194C356.737 128.513 352.034 128.513 349.144 130.194L337.883 136.738C334.992 138.418 335.007 141.142 337.917 142.823L358.031 154.436C360.941 156.116 365.645 156.116 368.535 154.436L379.796 147.892C382.687 146.211 382.67 143.489 379.761 141.809V141.807Z" fill="#131313"/>
<path d="M187.325 135.845C186.834 136.482 186.027 137.128 184.903 137.782C183.771 138.439 182.655 138.913 181.553 139.202C180.454 139.49 179.406 139.593 178.415 139.507C177.424 139.421 176.527 139.147 175.725 138.685C174.921 138.218 174.446 137.697 174.292 137.126C174.14 136.553 174.313 135.946 174.811 135.307C175.307 134.668 176.12 134.02 177.248 133.364C178.372 132.71 179.485 132.24 180.587 131.954C181.686 131.667 182.733 131.566 183.725 131.654C184.716 131.74 185.611 132.015 186.411 132.476C187.209 132.937 187.683 133.454 187.835 134.029C187.985 134.604 187.814 135.21 187.323 135.846L187.325 135.845ZM179.764 138.259C180.849 138.093 182.038 137.632 183.337 136.877C184.198 136.377 184.834 135.901 185.249 135.449C185.663 134.998 185.856 134.586 185.826 134.211C185.796 133.836 185.549 133.514 185.083 133.246C184.38 132.84 183.483 132.72 182.393 132.89C181.302 133.061 180.109 133.518 178.812 134.267C177.947 134.769 177.308 135.245 176.896 135.698C176.48 136.15 176.289 136.56 176.319 136.933C176.349 137.306 176.602 137.628 177.074 137.9C177.78 138.308 178.676 138.428 179.762 138.259" fill="black"/>
<path d="M178.052 130.489C177.561 131.126 176.752 131.772 175.628 132.426C174.496 133.084 173.38 133.558 172.278 133.846C171.178 134.135 170.131 134.238 169.14 134.152C168.149 134.065 167.252 133.792 166.45 133.329C165.648 132.863 165.17 132.342 165.017 131.77C164.867 131.197 165.037 130.59 165.536 129.951C166.032 129.313 166.847 128.664 167.975 128.009C169.099 127.355 170.212 126.885 171.313 126.596C172.413 126.31 173.46 126.208 174.451 126.296C175.442 126.383 176.338 126.658 177.138 127.119C177.938 127.58 178.412 128.099 178.563 128.672C178.713 129.245 178.543 129.852 178.052 130.489ZM170.491 132.904C171.574 132.735 172.765 132.274 174.062 131.521C174.923 131.021 175.56 130.545 175.976 130.094C176.388 129.642 176.581 129.228 176.553 128.854C176.525 128.479 176.276 128.157 175.809 127.889C175.107 127.482 174.21 127.362 173.119 127.533C172.029 127.703 170.837 128.162 169.539 128.91C168.674 129.412 168.037 129.89 167.623 130.341C167.207 130.793 167.016 131.203 167.048 131.576C167.077 131.948 167.329 132.269 167.802 132.542C168.511 132.951 169.406 133.071 170.491 132.904Z" fill="black"/>
<path d="M164.976 122.94C164.485 123.577 163.675 124.223 162.551 124.877C161.42 125.535 160.305 126.009 159.204 126.297C158.104 126.586 157.057 126.689 156.064 126.603C155.073 126.516 154.175 126.243 153.374 125.78C152.572 125.314 152.094 124.795 151.942 124.222C151.791 123.648 151.963 123.041 152.461 122.401C152.958 121.762 153.773 121.114 154.9 120.458C156.024 119.804 157.137 119.334 158.239 119.045C159.338 118.759 160.386 118.658 161.377 118.746C162.368 118.832 163.265 119.107 164.063 119.568C164.863 120.029 165.337 120.548 165.489 121.121C165.639 121.694 165.468 122.301 164.977 122.938L164.976 122.94ZM157.415 125.355C158.499 125.188 159.689 124.727 160.987 123.972C161.849 123.472 162.484 122.996 162.9 122.545C163.312 122.093 163.507 121.681 163.477 121.305C163.449 120.93 163.2 120.608 162.733 120.34C162.031 119.933 161.135 119.815 160.045 119.984C158.953 120.153 157.761 120.612 156.465 121.361C155.599 121.863 154.962 122.341 154.548 122.792C154.132 123.244 153.943 123.656 153.973 124.027C154.003 124.4 154.254 124.72 154.728 124.993C155.436 125.402 156.332 125.522 157.416 125.355" fill="black"/>
<path d="M155.702 117.585C155.211 118.222 154.402 118.868 153.278 119.522C152.147 120.18 151.032 120.653 149.93 120.942C148.831 121.23 147.783 121.334 146.792 121.247C145.801 121.161 144.904 120.888 144.102 120.425C143.298 119.958 142.823 119.438 142.669 118.866C142.517 118.293 142.69 117.686 143.188 117.047C143.684 116.408 144.497 115.76 145.625 115.104C146.749 114.451 147.862 113.98 148.964 113.694C150.063 113.407 151.111 113.306 152.1 113.394C153.091 113.48 153.988 113.756 154.786 114.216C155.584 114.677 156.058 115.194 156.21 115.77C156.36 116.345 156.189 116.95 155.698 117.587L155.702 117.585ZM148.141 120C149.226 119.833 150.415 119.372 151.714 118.617C152.576 118.117 153.211 117.641 153.626 117.19C154.041 116.738 154.233 116.326 154.204 115.951C154.174 115.577 153.926 115.254 153.46 114.986C152.757 114.58 151.86 114.46 150.77 114.631C149.679 114.799 148.486 115.258 147.189 116.007C146.324 116.51 145.685 116.985 145.273 117.439C144.857 117.89 144.666 118.3 144.696 118.673C144.726 119.046 144.979 119.368 145.451 119.64C146.157 120.048 147.053 120.168 148.139 120" fill="black"/>
<path d="M137.156 106.878C136.665 107.515 135.855 108.161 134.731 108.815C133.6 109.472 132.485 109.946 131.384 110.235C130.284 110.523 129.237 110.626 128.244 110.54C127.253 110.456 126.357 110.18 125.554 109.718C124.752 109.251 124.274 108.732 124.122 108.159C123.971 107.586 124.143 106.979 124.641 106.338C125.138 105.699 125.953 105.051 127.08 104.395C128.204 103.742 129.317 103.271 130.419 102.983C131.519 102.696 132.566 102.595 133.557 102.683C134.548 102.769 135.445 103.045 136.243 103.506C137.043 103.966 137.517 104.485 137.669 105.059C137.819 105.634 137.648 106.239 137.157 106.876L137.156 106.878ZM129.595 109.292C130.679 109.126 131.869 108.665 133.167 107.91C134.029 107.41 134.664 106.934 135.08 106.482C135.494 106.031 135.687 105.619 135.657 105.242C135.629 104.868 135.38 104.545 134.913 104.277C134.211 103.871 133.315 103.753 132.225 103.921C131.134 104.09 129.941 104.549 128.645 105.298C127.779 105.8 127.142 106.278 126.728 106.73C126.314 107.181 126.123 107.593 126.153 107.964C126.183 108.337 126.436 108.659 126.908 108.931C127.616 109.339 128.512 109.459 129.596 109.292" fill="black"/>
<path d="M146.429 112.233C145.938 112.87 145.129 113.516 144.005 114.17C142.873 114.828 141.757 115.302 140.655 115.59C139.555 115.879 138.508 115.982 137.517 115.896C136.526 115.81 135.629 115.536 134.827 115.073C134.025 114.607 133.547 114.086 133.394 113.515C133.244 112.941 133.414 112.334 133.913 111.696C134.409 111.057 135.224 110.409 136.352 109.753C137.476 109.099 138.589 108.629 139.69 108.34C140.79 108.054 141.837 107.952 142.828 108.041C143.819 108.127 144.715 108.402 145.515 108.863C146.315 109.324 146.789 109.843 146.938 110.416C147.088 110.991 146.918 111.596 146.429 112.235V112.233ZM138.868 114.648C139.951 114.479 141.142 114.019 142.439 113.265C143.3 112.765 143.937 112.289 144.353 111.838C144.765 111.386 144.958 110.972 144.93 110.598C144.902 110.223 144.653 109.901 144.186 109.633C143.484 109.226 142.587 109.107 141.496 109.277C140.406 109.446 139.213 109.905 137.916 110.654C137.051 111.156 136.414 111.634 136 112.085C135.584 112.537 135.393 112.947 135.425 113.32C135.455 113.693 135.706 114.013 136.18 114.286C136.888 114.695 137.783 114.815 138.868 114.646" fill="black"/>
<path d="M196.599 141.198C196.108 141.835 195.298 142.481 194.174 143.135C193.043 143.793 191.928 144.267 190.827 144.555C189.727 144.844 188.68 144.947 187.687 144.86C186.696 144.776 185.8 144.501 184.997 144.038C184.195 143.572 183.717 143.053 183.565 142.479C183.414 141.906 183.586 141.299 184.084 140.658C184.581 140.02 185.396 139.371 186.523 138.716C187.647 138.062 188.76 137.592 189.862 137.303C190.961 137.017 192.009 136.915 193 137.003C193.991 137.09 194.888 137.365 195.686 137.826C196.486 138.287 196.96 138.806 197.112 139.379C197.262 139.954 197.091 140.559 196.6 141.196L196.599 141.198ZM189.037 143.613C190.122 143.446 191.312 142.985 192.61 142.23C193.472 141.73 194.107 141.254 194.523 140.803C194.937 140.351 195.13 139.939 195.1 139.562C195.072 139.188 194.823 138.866 194.356 138.598C193.654 138.191 192.758 138.073 191.668 138.242C190.577 138.41 189.384 138.869 188.088 139.619C187.222 140.121 186.585 140.598 186.171 141.05C185.757 141.501 185.566 141.914 185.596 142.285C185.626 142.657 185.879 142.98 186.351 143.251C187.059 143.66 187.955 143.78 189.039 143.611" fill="black"/>
<path d="M205.872 146.552C205.381 147.19 204.574 147.837 203.45 148.489C202.318 149.146 201.201 149.62 200.1 149.909C199 150.197 197.953 150.3 196.962 150.214C195.971 150.128 195.074 149.854 194.272 149.392C193.468 148.925 192.992 148.404 192.839 147.833C192.687 147.26 192.859 146.653 193.358 146.014C193.854 145.375 194.667 144.727 195.795 144.071C196.919 143.417 198.034 142.947 199.135 142.661C200.235 142.374 201.282 142.273 202.273 142.361C203.264 142.447 204.16 142.722 204.959 143.183C205.759 143.644 206.232 144.161 206.383 144.736C206.533 145.311 206.363 145.917 205.872 146.554V146.552ZM198.313 148.966C199.396 148.798 200.587 148.337 201.883 147.584C202.745 147.084 203.382 146.608 203.796 146.156C204.21 145.705 204.403 145.293 204.373 144.918C204.345 144.543 204.096 144.221 203.629 143.953C202.927 143.547 202.03 143.427 200.939 143.597C199.849 143.766 198.656 144.225 197.359 144.974C196.494 145.476 195.857 145.954 195.443 146.406C195.027 146.857 194.836 147.267 194.866 147.64C194.897 148.013 195.149 148.335 195.621 148.607C196.327 149.015 197.224 149.135 198.309 148.968" fill="black"/>
<path d="M218.948 154.1C218.457 154.739 217.65 155.384 216.526 156.038C215.394 156.695 214.278 157.169 213.176 157.458C212.077 157.746 211.029 157.849 210.038 157.763C209.047 157.677 208.15 157.403 207.348 156.941C206.544 156.474 206.069 155.953 205.915 155.382C205.763 154.809 205.936 154.202 206.434 153.563C206.93 152.924 207.743 152.276 208.871 151.62C209.995 150.966 211.108 150.496 212.211 150.209C213.311 149.923 214.358 149.822 215.349 149.91C216.34 149.996 217.236 150.271 218.036 150.732C218.836 151.193 219.308 151.71 219.46 152.285C219.61 152.86 219.439 153.465 218.948 154.102V154.1ZM211.387 156.515C212.472 156.349 213.661 155.888 214.96 155.133C215.821 154.633 216.458 154.157 216.872 153.705C217.286 153.254 217.479 152.842 217.449 152.467C217.42 152.092 217.172 151.77 216.706 151.502C216.003 151.096 215.106 150.976 214.016 151.146C212.925 151.315 211.732 151.774 210.435 152.523C209.57 153.025 208.933 153.503 208.519 153.954C208.103 154.406 207.912 154.816 207.942 155.189C207.974 155.562 208.225 155.884 208.697 156.156C209.403 156.564 210.299 156.684 211.385 156.515" fill="black"/>
<path d="M228.223 159.456C227.733 160.093 226.923 160.739 225.799 161.393C224.668 162.05 223.553 162.524 222.451 162.813C221.352 163.101 220.305 163.204 219.312 163.118C218.321 163.034 217.425 162.759 216.621 162.296C215.82 161.829 215.342 161.31 215.19 160.737C215.038 160.164 215.211 159.557 215.709 158.916C216.206 158.277 217.02 157.629 218.148 156.974C219.272 156.32 220.385 155.849 221.487 155.561C222.588 155.274 223.634 155.173 224.625 155.261C225.616 155.347 226.513 155.623 227.311 156.084C228.111 156.545 228.585 157.063 228.737 157.637C228.887 158.212 228.716 158.817 228.225 159.454L228.223 159.456ZM220.662 161.871C221.747 161.704 222.937 161.243 224.235 160.488C225.097 159.988 225.732 159.512 226.148 159.061C226.562 158.609 226.755 158.197 226.725 157.82C226.697 157.446 226.447 157.123 225.981 156.856C225.278 156.449 224.383 156.331 223.293 156.5C222.202 156.668 221.009 157.127 219.713 157.877C218.847 158.379 218.21 158.856 217.796 159.308C217.382 159.759 217.191 160.171 217.221 160.542C217.251 160.915 217.504 161.237 217.976 161.509C218.684 161.917 219.58 162.037 220.664 161.871" fill="black"/>
<path d="M269.12 183.069C268.629 183.706 267.82 184.352 266.696 185.006C265.564 185.664 264.447 186.138 263.346 186.426C262.246 186.715 261.199 186.818 260.208 186.732C259.217 186.645 258.32 186.372 257.518 185.909C256.716 185.443 256.238 184.922 256.085 184.351C255.935 183.777 256.105 183.17 256.604 182.531C257.1 181.893 257.915 181.244 259.043 180.589C260.167 179.935 261.28 179.465 262.381 179.176C263.481 178.89 264.528 178.788 265.519 178.876C266.51 178.963 267.406 179.238 268.205 179.699C269.005 180.16 269.479 180.679 269.631 181.252C269.781 181.825 269.611 182.432 269.12 183.069ZM261.559 185.484C262.643 185.317 263.833 184.854 265.129 184.101C265.991 183.601 266.628 183.125 267.044 182.674C267.456 182.222 267.651 181.81 267.621 181.434C267.593 181.059 267.344 180.737 266.877 180.469C266.175 180.062 265.277 179.942 264.187 180.113C263.097 180.282 261.905 180.742 260.607 181.49C259.741 181.992 259.105 182.47 258.691 182.921C258.275 183.373 258.084 183.783 258.115 184.156C258.145 184.529 258.396 184.849 258.87 185.122C259.578 185.531 260.474 185.651 261.559 185.484Z" fill="black"/>
<path d="M259.846 177.714C259.356 178.351 258.546 178.997 257.422 179.651C256.291 180.308 255.176 180.782 254.074 181.071C252.975 181.359 251.928 181.462 250.936 181.376C249.945 181.29 249.048 181.016 248.246 180.554C247.443 180.087 246.967 179.566 246.813 178.995C246.661 178.422 246.834 177.815 247.332 177.176C247.829 176.537 248.642 175.889 249.769 175.233C250.893 174.579 252.006 174.109 253.108 173.821C254.209 173.534 255.255 173.433 256.246 173.521C257.237 173.607 258.134 173.883 258.932 174.343C259.73 174.804 260.204 175.321 260.356 175.896C260.506 176.472 260.335 177.077 259.844 177.714H259.846ZM252.285 180.128C253.37 179.962 254.56 179.501 255.858 178.746C256.72 178.246 257.355 177.77 257.771 177.318C258.185 176.867 258.378 176.455 258.348 176.08C258.318 175.705 258.07 175.383 257.604 175.115C256.899 174.709 256.004 174.589 254.914 174.759C253.823 174.93 252.63 175.387 251.334 176.136C250.468 176.638 249.829 177.114 249.415 177.566C249.001 178.019 248.81 178.429 248.84 178.8C248.87 179.173 249.123 179.495 249.595 179.767C250.301 180.175 251.197 180.295 252.283 180.127" fill="black"/>
<path d="M246.77 170.161C246.279 170.798 245.47 171.444 244.346 172.098C243.214 172.756 242.1 173.23 240.998 173.518C239.898 173.807 238.851 173.91 237.86 173.824C236.869 173.737 235.972 173.464 235.17 173.001C234.366 172.535 233.89 172.014 233.737 171.442C233.585 170.869 233.757 170.262 234.256 169.623C234.752 168.985 235.565 168.336 236.693 167.681C237.817 167.027 238.93 166.557 240.033 166.27C241.133 165.983 242.18 165.882 243.169 165.97C244.162 166.058 245.058 166.332 245.856 166.793C246.654 167.254 247.128 167.771 247.28 168.346C247.429 168.921 247.259 169.526 246.768 170.163L246.77 170.161ZM239.209 172.576C240.294 172.409 241.483 171.948 242.782 171.193C243.643 170.693 244.28 170.217 244.694 169.766C245.108 169.314 245.301 168.902 245.271 168.527C245.241 168.153 244.994 167.831 244.528 167.563C243.825 167.156 242.928 167.036 241.837 167.207C240.747 167.375 239.554 167.834 238.257 168.584C237.392 169.086 236.753 169.562 236.341 170.015C235.925 170.466 235.734 170.877 235.764 171.249C235.794 171.622 236.047 171.944 236.519 172.216C237.225 172.625 238.121 172.744 239.207 172.576" fill="black"/>
<path d="M237.497 164.811C237.006 165.448 236.197 166.095 235.073 166.748C233.941 167.406 232.824 167.88 231.723 168.168C230.623 168.457 229.576 168.56 228.585 168.474C227.594 168.388 226.697 168.114 225.895 167.651C225.093 167.185 224.615 166.664 224.462 166.093C224.312 165.519 224.482 164.913 224.981 164.274C225.477 163.635 226.292 162.987 227.42 162.331C228.544 161.677 229.657 161.207 230.758 160.918C231.858 160.632 232.905 160.531 233.896 160.619C234.887 160.705 235.783 160.978 236.583 161.441C237.382 161.902 237.856 162.421 238.006 162.994C238.156 163.569 237.986 164.174 237.497 164.813V164.811ZM229.936 167.226C231.019 167.058 232.21 166.597 233.506 165.844C234.368 165.343 235.005 164.868 235.421 164.416C235.833 163.965 236.026 163.551 235.998 163.176C235.97 162.801 235.721 162.479 235.254 162.211C234.552 161.805 233.654 161.685 232.564 161.855C231.474 162.024 230.28 162.483 228.984 163.232C228.118 163.734 227.482 164.212 227.068 164.663C226.652 165.115 226.461 165.525 226.492 165.898C226.522 166.271 226.773 166.591 227.247 166.865C227.955 167.273 228.851 167.393 229.936 167.226Z" fill="black"/>
<path d="M287.666 193.776C287.175 194.413 286.366 195.059 285.242 195.713C284.111 196.371 282.996 196.845 281.894 197.133C280.795 197.422 279.747 197.525 278.755 197.439C277.764 197.354 276.868 197.079 276.064 196.616C275.263 196.15 274.785 195.631 274.633 195.058C274.481 194.484 274.654 193.877 275.152 193.237C275.648 192.598 276.463 191.95 277.591 191.294C278.715 190.64 279.828 190.17 280.93 189.881C282.029 189.595 283.077 189.494 284.068 189.582C285.059 189.668 285.956 189.943 286.754 190.404C287.554 190.865 288.028 191.384 288.18 191.957C288.33 192.532 288.159 193.137 287.668 193.774L287.666 193.776ZM280.105 196.191C281.19 196.024 282.38 195.563 283.678 194.808C284.54 194.308 285.175 193.832 285.591 193.381C286.005 192.929 286.198 192.517 286.168 192.141C286.14 191.766 285.89 191.444 285.424 191.176C284.721 190.769 283.826 190.651 282.736 190.82C281.645 190.988 280.452 191.447 279.155 192.197C278.29 192.699 277.653 193.177 277.239 193.628C276.825 194.08 276.634 194.492 276.664 194.863C276.694 195.235 276.947 195.558 277.419 195.829C278.127 196.238 279.022 196.358 280.107 196.191" fill="black"/>
<path d="M278.393 188.421C277.902 189.058 277.095 189.704 275.971 190.358C274.839 191.015 273.723 191.489 272.621 191.778C271.521 192.066 270.474 192.169 269.483 192.083C268.492 191.997 267.595 191.724 266.793 191.261C265.989 190.794 265.513 190.274 265.36 189.702C265.208 189.129 265.38 188.522 265.879 187.883C266.375 187.244 267.188 186.596 268.316 185.94C269.44 185.287 270.553 184.816 271.654 184.53C272.754 184.243 273.801 184.142 274.792 184.23C275.783 184.316 276.679 184.592 277.479 185.052C278.277 185.513 278.751 186.03 278.903 186.605C279.052 187.181 278.882 187.786 278.391 188.423L278.393 188.421ZM270.832 190.836C271.917 190.669 273.106 190.208 274.405 189.453C275.266 188.953 275.901 188.477 276.317 188.026C276.731 187.574 276.924 187.162 276.894 186.787C276.864 186.413 276.617 186.09 276.151 185.822C275.448 185.416 274.551 185.296 273.46 185.466C272.37 185.635 271.177 186.094 269.88 186.843C269.015 187.345 268.376 187.821 267.964 188.275C267.548 188.726 267.357 189.136 267.387 189.509C267.417 189.882 267.67 190.204 268.142 190.476C268.848 190.884 269.744 191.004 270.83 190.836" fill="black"/>
</g>
</g>
<rect x="0.624766" y="0.624766" width="462.75" height="270.75" rx="21.6649" stroke="#575757" stroke-opacity="0.62" stroke-width="1.24953"/>
</g>
<defs>
<filter id="filter1_f_2010_7538" x="32.5854" y="-69.8342" width="449.755" height="346.711" filterUnits="userSpaceOnUse" color-interpolation-filters="sRGB">
<feFlood flood-opacity="0" result="BackgroundImageFix"/>
<feBlend mode="normal" in="SourceGraphic" in2="BackgroundImageFix" result="shape"/>
<feGaussianBlur stdDeviation="43.1231" result="effect1_foregroundBlur_2010_7538"/>
</filter>
<linearGradient id="paint0_linear_2010_7538" x1="231.669" y1="250.041" x2="274.796" y2="-55.966" gradientUnits="userSpaceOnUse">
<stop stop-color="#0AF471"/>
<stop offset="1" stop-color="#00454C"/>
</linearGradient>
<linearGradient id="paint1_linear_2010_7538" x1="96.8213" y1="164.731" x2="407" y2="164.731" gradientUnits="userSpaceOnUse">
<stop stop-color="#4C4C4C"/>
<stop offset="0.01" stop-color="#3B3B3B"/>
<stop offset="0.03" stop-color="#2A2A2A"/>
<stop offset="0.05" stop-color="#1E1E1E"/>
<stop offset="0.08" stop-color="#171717"/>
<stop offset="0.16" stop-color="#161616"/>
<stop offset="0.37" stop-color="#171717"/>
<stop offset="0.44" stop-color="#1E1E1E"/>
<stop offset="0.5" stop-color="#2A2A2A"/>
<stop offset="0.54" stop-color="#3A3A3B"/>
<stop offset="0.58" stop-color="#505051"/>
<stop offset="0.62" stop-color="#686869"/>
<stop offset="0.65" stop-color="#7F7F7F"/>
<stop offset="0.67" stop-color="#6B6B6B"/>
<stop offset="0.69" stop-color="#515151"/>
<stop offset="0.72" stop-color="#3B3B3B"/>
<stop offset="0.75" stop-color="#2A2A2A"/>
<stop offset="0.79" stop-color="#1E1E1E"/>
<stop offset="0.85" stop-color="#171717"/>
<stop offset="1" stop-color="#161616"/>
</linearGradient>
<linearGradient id="paint2_linear_2010_7538" x1="184.107" y1="-15.4382" x2="317.452" y2="264.594" gradientUnits="userSpaceOnUse">
<stop stop-color="#191919"/>
<stop offset="0.27" stop-color="#1F1F1F"/>
<stop offset="0.66" stop-color="#323232"/>
<stop offset="1" stop-color="#494949"/>
</linearGradient>
<clipPath id="clip0_2010_7538">
<rect width="464" height="272" rx="22.2897" fill="white"/>
</clipPath>
<clipPath id="clip1_2010_7538">
<rect width="365" height="209.72" fill="white" transform="translate(42 37.2148)"/>
</clipPath>
</defs>
</svg>
