<svg width="35" height="35" viewBox="0 0 35 35" fill="none" xmlns="http://www.w3.org/2000/svg">
<path d="M35 4.375H6.18625L6.125 3.86313C5.99965 2.79915 5.48827 1.81815 4.6878 1.10611C3.88733 0.394076 2.85342 0.000498449 1.78208 0L0 0V2.91667H1.78208C2.13928 2.91671 2.48403 3.04785 2.75096 3.28521C3.01789 3.52257 3.18842 3.84963 3.23021 4.20437L5.54167 23.8452C5.66701 24.9092 6.1784 25.8902 6.97887 26.6022C7.77934 27.3143 8.81325 27.7078 9.88458 27.7083H29.1667V24.7917H9.88458C9.52717 24.7916 9.18223 24.6602 8.91527 24.4226C8.64831 24.1849 8.47792 23.8575 8.43646 23.5025L8.24542 21.875H31.8442L35 4.375ZM29.4058 18.9583H7.90271L6.53042 7.29167H31.5102L29.4058 18.9583Z" fill="url(#paint0_linear_2010_7097)"/>
<path d="M10.2084 34.9993C11.8192 34.9993 13.125 33.6935 13.125 32.0827C13.125 30.4719 11.8192 29.166 10.2084 29.166C8.59752 29.166 7.29169 30.4719 7.29169 32.0827C7.29169 33.6935 8.59752 34.9993 10.2084 34.9993Z" fill="url(#paint1_linear_2010_7097)"/>
<path d="M24.7917 34.9993C26.4025 34.9993 27.7083 33.6935 27.7083 32.0827C27.7083 30.4719 26.4025 29.166 24.7917 29.166C23.1808 29.166 21.875 30.4719 21.875 32.0827C21.875 33.6935 23.1808 34.9993 24.7917 34.9993Z" fill="url(#paint2_linear_2010_7097)"/>
<defs>
<linearGradient id="paint0_linear_2010_7097" x1="0" y1="0" x2="26.5259" y2="36.0415" gradientUnits="userSpaceOnUse">
<stop stop-color="#0AF471"/>
<stop offset="1" stop-color="#00454C"/>
</linearGradient>
<linearGradient id="paint1_linear_2010_7097" x1="7.29169" y1="29.166" x2="13.125" y2="35.4407" gradientUnits="userSpaceOnUse">
<stop stop-color="#0AF471"/>
<stop offset="1" stop-color="#00454C"/>
</linearGradient>
<linearGradient id="paint2_linear_2010_7097" x1="21.875" y1="29.166" x2="27.7083" y2="35.4407" gradientUnits="userSpaceOnUse">
<stop stop-color="#0AF471"/>
<stop offset="1" stop-color="#00454C"/>
</linearGradient>
</defs>
</svg>
