<svg width="21" height="21" viewBox="0 0 21 21" fill="none" xmlns="http://www.w3.org/2000/svg">
<g clip-path="url(#clip0_2010_6730)">
<path d="M5.41882 14.2911C6.10328 14.2911 6.65814 13.7363 6.65814 13.0518C6.65814 12.3674 6.10328 11.8125 5.41882 11.8125C4.73437 11.8125 4.1795 12.3674 4.1795 13.0518C4.1795 13.7363 4.73437 14.2911 5.41882 14.2911Z" fill="#0AF571"/>
<path d="M16.5727 2.72461H5.00572C3.9105 2.72592 2.86051 3.16158 2.08607 3.93602C1.31163 4.71045 0.875976 5.76044 0.874664 6.85566L0.874664 13.4654C0.875976 14.5606 1.31163 15.6106 2.08607 16.385C2.86051 17.1594 3.9105 17.5951 5.00572 17.5964H16.5727C17.6679 17.5951 18.7179 17.1594 19.4923 16.385C20.2668 15.6106 20.7024 14.5606 20.7037 13.4654V6.85566C20.7024 5.76044 20.2668 4.71045 19.4923 3.93602C18.7179 3.16158 17.6679 2.72592 16.5727 2.72461ZM5.00572 4.37703H16.5727C17.23 4.37703 17.8605 4.63817 18.3253 5.10301C18.7902 5.56784 19.0513 6.19829 19.0513 6.85566H2.52709C2.52709 6.19829 2.78823 5.56784 3.25306 5.10301C3.71789 4.63817 4.34834 4.37703 5.00572 4.37703ZM16.5727 15.944H5.00572C4.34834 15.944 3.71789 15.6828 3.25306 15.218C2.78823 14.7532 2.52709 14.1227 2.52709 13.4654V8.50808H19.0513V13.4654C19.0513 14.1227 18.7902 14.7532 18.3253 15.218C17.8605 15.6828 17.23 15.944 16.5727 15.944Z" fill="#0AF571"/>
</g>
<defs>
<clipPath id="clip0_2010_6730">
<rect width="19.8291" height="19.8291" fill="white" transform="translate(0.874664 0.246094)"/>
</clipPath>
</defs>
</svg>
