<svg width="37" height="37" viewBox="0 0 37 37" fill="none" xmlns="http://www.w3.org/2000/svg">
<path d="M8.47919 26.209C9.75635 26.209 10.7917 25.1736 10.7917 23.8965C10.7917 22.6193 9.75635 21.584 8.47919 21.584C7.20203 21.584 6.16669 22.6193 6.16669 23.8965C6.16669 25.1736 7.20203 26.209 8.47919 26.209Z" fill="url(#paint0_linear_2010_7091)"/>
<path d="M29.2917 4.625H7.70833C5.66471 4.62745 3.70548 5.44036 2.26042 6.88542C0.81536 8.33048 0.00244795 10.2897 0 12.3333L0 24.6667C0.00244795 26.7103 0.81536 28.6695 2.26042 30.1146C3.70548 31.5596 5.66471 32.3726 7.70833 32.375H29.2917C31.3353 32.3726 33.2945 31.5596 34.7396 30.1146C36.1846 28.6695 36.9976 26.7103 37 24.6667V12.3333C36.9976 10.2897 36.1846 8.33048 34.7396 6.88542C33.2945 5.44036 31.3353 4.62745 29.2917 4.625ZM7.70833 7.70833H29.2917C30.5183 7.70833 31.6947 8.19561 32.562 9.06296C33.4294 9.93032 33.9167 11.1067 33.9167 12.3333H3.08333C3.08333 11.1067 3.57061 9.93032 4.43796 9.06296C5.30532 8.19561 6.48171 7.70833 7.70833 7.70833ZM29.2917 29.2917H7.70833C6.48171 29.2917 5.30532 28.8044 4.43796 27.937C3.57061 27.0697 3.08333 25.8933 3.08333 24.6667V15.4167H33.9167V24.6667C33.9167 25.8933 33.4294 27.0697 32.562 27.937C31.6947 28.8044 30.5183 29.2917 29.2917 29.2917Z" fill="url(#paint1_linear_2010_7091)"/>
<defs>
<linearGradient id="paint0_linear_2010_7091" x1="6.16669" y1="21.584" x2="10.7917" y2="26.5589" gradientUnits="userSpaceOnUse">
<stop stop-color="#0AF471"/>
<stop offset="1" stop-color="#00454C"/>
</linearGradient>
<linearGradient id="paint1_linear_2010_7091" x1="0" y1="4.625" x2="26.1078" y2="42.0691" gradientUnits="userSpaceOnUse">
<stop stop-color="#0AF471"/>
<stop offset="1" stop-color="#00454C"/>
</linearGradient>
</defs>
</svg>
