<svg width="26" height="26" viewBox="0 0 26 26" fill="none" xmlns="http://www.w3.org/2000/svg">
<g clip-path="url(#clip0_2010_7662)">
<path d="M25.1547 6.22159L21.8928 1.81459C21.4916 1.25378 20.9626 0.79665 20.3496 0.481083C19.7365 0.165516 19.0571 0.000599864 18.3676 1.90926e-06H7.63178C6.94563 -0.00064213 6.26914 0.16166 5.65797 0.473552C5.04681 0.785444 4.51844 1.23801 4.11636 1.794L0.795945 6.23242C0.255323 6.99475 -0.0238725 7.91167 0.000148033 8.84593C0.0241685 9.78019 0.350113 10.6815 0.929195 11.4151L10.4539 24.7704C10.7574 25.1548 11.1443 25.4652 11.5853 25.6782C12.0263 25.8912 12.5099 26.0012 12.9997 26C13.4979 25.999 13.9892 25.8837 14.4358 25.6631C14.8824 25.4424 15.2724 25.1222 15.5759 24.7271L25.0247 11.5202C25.6297 10.7759 25.9707 9.85194 25.9942 8.89307C26.0178 7.9342 25.7225 6.99463 25.1547 6.22159ZM20.141 3.08859L23.4105 7.50642C23.4279 7.53025 23.4322 7.55842 23.4495 7.58334H18.1499L16.6029 2.16667H18.3676C18.7153 2.16775 19.0577 2.25199 19.3662 2.41237C19.6747 2.57275 19.9404 2.80461 20.141 3.08859ZM12.9997 20.7112L10.0747 9.75H15.9247L12.9997 20.7112ZM10.1029 7.58334L11.6499 2.16667H14.3495L15.8965 7.58334H10.1029ZM5.86811 3.07342C6.06912 2.79326 6.33389 2.56492 6.64055 2.40726C6.9472 2.2496 7.28696 2.16713 7.63178 2.16667H9.39653L7.84953 7.58334H2.51086C2.52603 7.5595 2.53036 7.53025 2.54769 7.5075L5.86811 3.07342ZM2.65169 10.1021C2.57347 9.9916 2.50634 9.87367 2.45128 9.75H7.83436L11.0779 21.9158L2.65169 10.1021ZM14.9183 21.9267L18.1683 9.75H23.5698C23.5 9.91171 23.4116 10.0648 23.3065 10.2061L14.9183 21.9267Z" fill="url(#paint0_linear_2010_7662)"/>
</g>
<defs>
<linearGradient id="paint0_linear_2010_7662" x1="-0.00128174" y1="0" x2="25.999" y2="27.9639" gradientUnits="userSpaceOnUse">
<stop stop-color="#0AF471"/>
<stop offset="1" stop-color="#00454C"/>
</linearGradient>
<clipPath id="clip0_2010_7662">
<rect width="26" height="26" fill="white"/>
</clipPath>
</defs>
</svg>
