<svg width="9" height="9" viewBox="0 0 9 9" fill="none" xmlns="http://www.w3.org/2000/svg">
<g opacity="0.8" clip-path="url(#clip0_2441_15382)">
<path d="M6.21069 3.06456C6.21069 3.28273 6.12403 3.49196 5.96976 3.64623C5.81549 3.8005 5.60625 3.88717 5.38808 3.88717C5.16991 3.88717 4.96067 3.8005 4.8064 3.64623C4.65213 3.49196 4.56547 3.28273 4.56547 3.06456C4.56547 2.84638 4.65213 2.63715 4.8064 2.48288C4.96067 2.32861 5.16991 2.24194 5.38808 2.24194C5.60625 2.24194 5.81549 2.32861 5.96976 2.48288C6.12403 2.63715 6.21069 2.84638 6.21069 3.06456ZM6.20872 5.32378C6.19065 5.84659 6.06012 6.35937 5.82604 6.82719C5.61036 7.23507 5.28651 7.57566 4.89001 7.81161C4.49352 8.04756 4.03969 8.16974 3.57833 8.16476H3.24928V6.35501C3.24781 6.05002 3.12601 5.75795 2.91035 5.54229C2.69469 5.32663 2.40261 5.20482 2.09762 5.20335H0.287873V4.87431C0.282892 4.41294 0.405077 3.95912 0.641025 3.56262C0.876973 3.16613 1.21757 2.84228 1.62544 2.6266C2.09327 2.39251 2.60604 2.26199 3.12885 2.24392C3.60822 1.62473 4.22384 1.12435 4.92791 0.781614C5.63198 0.438879 6.40557 0.263013 7.18862 0.267668C7.31892 0.266845 7.44809 0.291749 7.56875 0.340952C7.6894 0.390155 7.79916 0.46269 7.89172 0.554397C7.98428 0.646104 8.05783 0.755181 8.10816 0.875372C8.15848 0.995563 8.18458 1.1245 8.18497 1.2548C8.19054 2.03932 8.01514 2.81455 7.67239 3.52026C7.32964 4.22596 6.82877 4.84312 6.20872 5.32378ZM0.973604 4.54526H1.71791C1.96227 4.00101 2.24933 3.47696 2.57639 2.97802C2.34922 3.03087 2.12909 3.11039 1.9206 3.21493C1.66984 3.34734 1.45358 3.53663 1.28914 3.76765C1.12469 3.99866 1.01663 4.26498 0.973604 4.54526ZM5.47462 5.87625C4.97567 6.20331 4.45162 6.49037 3.90737 6.73473V7.47903C4.18766 7.43601 4.45397 7.32794 4.68499 7.1635C4.916 6.99905 5.10529 6.78279 5.23771 6.53204C5.34225 6.32354 5.42177 6.10342 5.47462 5.87625ZM7.52688 1.24559C7.52448 1.15993 7.48875 1.07858 7.4273 1.01885C7.36585 0.959125 7.28353 0.925726 7.19783 0.925759C5.49996 0.974129 4.35159 1.62465 3.24336 3.17051C2.93411 3.61577 2.66216 4.08582 2.43029 4.57586C2.78958 4.64278 3.12019 4.81691 3.37862 5.07533C3.63705 5.33376 3.81117 5.66437 3.87809 6.02366C4.36813 5.79179 4.83818 5.51985 5.28344 5.21059C6.82798 4.10105 7.47851 2.95268 7.52688 1.24559ZM2.30229 6.15067C2.48615 6.33642 2.58928 6.58722 2.58928 6.84858C2.58928 7.10994 2.48615 7.36074 2.30229 7.54648C2.00385 7.8446 1.11049 8.02854 0.739982 8.09402L0.277344 8.17529L0.358618 7.71265C0.424427 7.34215 0.608035 6.44879 0.90615 6.15034C1.09428 5.9709 1.3443 5.87082 1.60429 5.87088C1.86427 5.87094 2.11424 5.97114 2.30229 6.15067ZM1.9331 6.84858C1.93322 6.80535 1.92476 6.76253 1.90821 6.7226C1.89166 6.68267 1.86735 6.64642 1.83669 6.61594C1.77499 6.55426 1.69131 6.5196 1.60406 6.5196C1.5168 6.5196 1.43313 6.55426 1.37142 6.61594C1.24597 6.84241 1.15786 7.08763 1.11049 7.34215C1.3651 7.29457 1.61041 7.20636 1.83702 7.08088C1.86758 7.05043 1.89181 7.01421 1.9083 6.97434C1.92479 6.93447 1.93322 6.89173 1.9331 6.84858Z" fill="white"/>
</g>
<defs>
<clipPath id="clip0_2441_15382">
<rect width="7.89709" height="7.89709" fill="white" transform="translate(0.287109 0.267578)"/>
</clipPath>
</defs>
</svg>
