<svg width="2466" height="1808" viewBox="0 0 2466 1808" fill="none" xmlns="http://www.w3.org/2000/svg">
<g style="mix-blend-mode:screen" opacity="0.3" filter="url(#filter0_f_489_2127)">
<path d="M899.6 464.607L1974.98 930.792C2008.17 945.177 2014.97 989.269 1987.66 1012.98L1617.31 1334.6C1603.03 1347 1582.89 1350.1 1565.54 1342.58L490.156 876.394C456.973 862.009 450.173 817.917 477.481 794.204L847.834 472.59C862.115 460.188 882.247 457.084 899.6 464.607Z" fill="url(#paint0_linear_489_2127)"/>
</g>
<g style="mix-blend-mode:screen" opacity="0.9" filter="url(#filter1_f_489_2127)">
<path d="M1049.82 690.112L1541.15 903.105C1556.31 909.677 1559.42 929.822 1546.94 940.657L1377.73 1087.6C1371.21 1093.26 1362.01 1094.68 1354.08 1091.24L862.752 878.251C847.591 871.679 844.484 851.534 856.961 840.7L1026.17 693.759C1032.69 688.093 1041.89 686.674 1049.82 690.112Z" fill="url(#paint1_linear_489_2127)"/>
</g>
<defs>
<filter id="filter0_f_489_2127" x="0.000213623" y="0.000213623" width="2465.14" height="1807.18" filterUnits="userSpaceOnUse" color-interpolation-filters="sRGB">
<feFlood flood-opacity="0" result="BackgroundImageFix"/>
<feBlend mode="normal" in="SourceGraphic" in2="BackgroundImageFix" result="shape"/>
<feGaussianBlur stdDeviation="230.275" result="effect1_foregroundBlur_489_2127"/>
</filter>
<filter id="filter1_f_489_2127" x="633.075" y="472.107" width="1137.75" height="837.141" filterUnits="userSpaceOnUse" color-interpolation-filters="sRGB">
<feFlood flood-opacity="0" result="BackgroundImageFix"/>
<feBlend mode="normal" in="SourceGraphic" in2="BackgroundImageFix" result="shape"/>
<feGaussianBlur stdDeviation="108.075" result="effect1_foregroundBlur_489_2127"/>
</filter>
<linearGradient id="paint0_linear_489_2127" x1="1176.12" y1="1717.72" x2="1235.41" y2="23.5963" gradientUnits="userSpaceOnUse">
<stop stop-color="#0AF471"/>
<stop offset="1" stop-color="#00454C"/>
</linearGradient>
<linearGradient id="paint1_linear_489_2127" x1="1176.16" y1="1262.64" x2="1203.25" y2="488.62" gradientUnits="userSpaceOnUse">
<stop stop-color="#0AF471"/>
<stop offset="1" stop-color="#00454C"/>
</linearGradient>
</defs>
</svg>
