<svg width="1920" height="1318" viewBox="0 0 1920 1318" fill="none" xmlns="http://www.w3.org/2000/svg">
<path d="M18.6482 905.846C-10.6304 905.846 -33.3466 899.284 -49.5003 886.159C-65.4521 873.034 -73.5289 854.255 -73.7308 829.823H-33.4475C-33.2456 845.169 -28.7024 856.173 -19.8178 862.837C-10.7314 869.5 2.49449 872.832 19.8597 872.832C33.9942 872.832 44.797 870.207 52.2681 864.957C59.7392 859.505 63.4747 851.731 63.4747 841.635C63.4747 833.154 60.244 826.693 53.7825 822.251C47.523 817.808 36.0134 813.871 19.254 810.438L1.08104 806.804C-45.159 798.121 -68.279 776.314 -68.279 741.381C-68.279 722.804 -61.2117 708.064 -47.0772 697.16C-32.9427 686.055 -13.3563 680.502 11.6819 680.502C40.1528 680.502 61.6575 686.559 76.1958 698.675C90.9361 710.79 98.71 727.751 99.5177 749.559H59.8402C59.0325 737.242 54.8931 728.155 47.422 722.3C40.1528 716.444 28.4414 713.516 12.2877 713.516C-0.231449 713.516 -9.82272 715.838 -16.4861 720.482C-23.1495 725.126 -26.4812 731.689 -26.4812 740.17C-26.4812 748.852 -23.4524 755.516 -17.3948 760.16C-11.1352 764.804 -0.13049 768.741 15.6194 771.972L34.3981 775.607C59.6382 780.655 77.8112 788.227 88.9168 798.323C100.224 808.217 105.878 821.948 105.878 839.515C105.878 860.515 98.2052 876.87 82.8592 888.582C67.5132 900.091 46.1095 905.846 18.6482 905.846ZM264.2 685.348V721.997H146.076V772.881H252.994V808.015H146.076V864.351H263.595V901H105.187V685.348H264.2ZM325.236 905.846C303.024 905.846 285.558 899.788 272.837 887.673C260.318 875.356 254.059 858.798 254.059 838.001V824.068H293.13V838.001C293.13 848.299 295.957 856.375 301.611 862.231C307.265 867.885 315.039 870.712 324.933 870.712C335.029 870.712 342.904 867.885 348.558 862.231C354.212 856.577 357.038 848.5 357.038 838.001V685.348H397.625V838.001C397.625 858.395 391.163 874.851 378.24 887.37C365.519 899.688 347.851 905.846 325.236 905.846ZM593.476 901H550.164L533.202 853.448H438.703L422.044 901H379.944L462.025 685.348H509.88L593.476 901ZM459.299 795.294L451.121 818.616H520.784L512.303 795.294C505.236 777.323 496.352 752.689 485.65 721.391C477.169 746.429 468.385 771.064 459.299 795.294Z" fill="url(#paint0_linear_4113_514)"/>
<path d="M737.827 796.809L775.991 685.348H818.394L741.159 901H693.304L614.252 685.348H657.867L696.938 796.809C706.025 824.27 712.89 846.683 717.534 864.048C722.784 844.058 729.549 821.645 737.827 796.809ZM970.649 685.348V721.997H852.525V772.881H959.442V808.015H852.525V864.351H970.043V901H811.636V685.348H970.649ZM1114.34 741.684V685.348H1153.71V901H1108.28L1048.31 804.986C1031.95 779.342 1019.13 757.737 1009.84 740.17C1010.65 762.785 1011.05 797.616 1011.05 844.664V901H971.678V685.348H1017.11L1077.38 781.362C1095.36 810.438 1108.08 832.044 1115.55 846.178C1114.74 816.092 1114.34 781.261 1114.34 741.684ZM1164.85 685.348H1247.23C1281.76 685.348 1308.41 694.939 1327.19 714.122C1345.97 733.506 1355.36 759.857 1355.36 793.174C1355.36 826.491 1345.97 852.741 1327.19 871.923C1308.41 891.308 1281.76 901 1247.23 901H1164.85V685.348ZM1205.74 865.866H1246.63C1267.83 865.866 1284.18 859.707 1295.69 847.39C1307.2 834.871 1312.96 816.799 1312.96 793.174C1312.96 769.549 1307.2 751.578 1295.69 739.261C1284.18 726.742 1267.83 720.482 1246.63 720.482H1205.74V865.866ZM1516.44 685.348V721.997H1398.32V772.881H1505.23V808.015H1398.32V864.351H1515.83V901H1357.43V685.348H1516.44ZM1517.47 685.348H1612.27C1636.3 685.348 1654.98 691.708 1668.3 704.43C1681.83 716.949 1688.6 734.011 1688.6 755.617C1688.6 777.02 1681.83 794.083 1668.3 806.804C1654.98 819.323 1636.3 825.582 1612.27 825.582H1558.36V901H1517.47V685.348ZM1558.36 790.448H1610.45C1622.37 790.448 1631.45 787.52 1637.71 781.664C1644.18 775.607 1647.41 766.924 1647.41 755.617C1647.41 744.309 1644.18 735.626 1637.71 729.569C1631.45 723.511 1622.37 720.482 1610.45 720.482H1558.36V790.448ZM1855.77 901H1812.46L1795.5 853.448H1701L1684.34 901H1642.24L1724.32 685.348H1772.18L1855.77 901ZM1721.6 795.294L1713.42 818.616H1783.08L1774.6 795.294C1767.53 777.323 1758.65 752.689 1747.95 721.391C1739.47 746.429 1730.68 771.064 1721.6 795.294ZM1929.96 724.117L1953.58 685.348H1998.71L1917.84 815.89V901H1876.96V815.89L1795.48 685.348H1841.82L1865.75 724.42C1885.13 756.727 1895.94 774.9 1898.16 778.939C1903.61 769.246 1914.21 750.972 1929.96 724.117Z" fill="url(#paint1_radial_4113_514)"/>
<g style="mix-blend-mode:screen" opacity="0.3" filter="url(#filter0_f_4113_514)">
<path d="M1048.03 465.138L2123.41 931.324C2156.6 945.709 2163.4 989.8 2136.09 1013.51L1765.74 1335.13C1751.45 1347.53 1731.32 1350.63 1713.97 1343.11L638.586 876.925C605.403 862.54 598.603 818.449 625.911 794.735L996.264 473.121C1010.55 460.72 1030.68 457.615 1048.03 465.138Z" fill="url(#paint2_linear_4113_514)"/>
</g>
<g style="mix-blend-mode:screen" opacity="0.9" filter="url(#filter1_f_4113_514)">
<path d="M1208.25 693.643L1699.58 906.636C1714.74 913.209 1717.85 933.354 1705.37 944.188L1536.16 1091.13C1529.64 1096.79 1520.44 1098.21 1512.51 1094.78L1021.18 881.783C1006.02 875.21 1002.91 855.065 1015.39 844.231L1184.6 697.29C1191.12 691.624 1200.32 690.206 1208.25 693.643Z" fill="url(#paint3_linear_4113_514)"/>
</g>
<defs>
<filter id="filter0_f_4113_514" x="148.43" y="0.531464" width="2465.14" height="1807.18" filterUnits="userSpaceOnUse" color-interpolation-filters="sRGB">
<feFlood flood-opacity="0" result="BackgroundImageFix"/>
<feBlend mode="normal" in="SourceGraphic" in2="BackgroundImageFix" result="shape"/>
<feGaussianBlur stdDeviation="230.275" result="effect1_foregroundBlur_4113_514"/>
</filter>
<filter id="filter1_f_4113_514" x="791.505" y="475.64" width="1137.75" height="837.139" filterUnits="userSpaceOnUse" color-interpolation-filters="sRGB">
<feFlood flood-opacity="0" result="BackgroundImageFix"/>
<feBlend mode="normal" in="SourceGraphic" in2="BackgroundImageFix" result="shape"/>
<feGaussianBlur stdDeviation="108.075" result="effect1_foregroundBlur_4113_514"/>
</filter>
<linearGradient id="paint0_linear_4113_514" x1="-81" y1="787" x2="2001" y2="787" gradientUnits="userSpaceOnUse">
<stop stop-color="white"/>
<stop offset="1" stop-color="#9BF1C1"/>
</linearGradient>
<radialGradient id="paint1_radial_4113_514" cx="0" cy="0" r="1" gradientUnits="userSpaceOnUse" gradientTransform="translate(978.473 797.434) rotate(8.37062) scale(706.519 184.141)">
<stop stop-color="#0AF471"/>
<stop offset="1" stop-color="#000C0B"/>
</radialGradient>
<linearGradient id="paint2_linear_4113_514" x1="1324.55" y1="1718.25" x2="1383.84" y2="24.1275" gradientUnits="userSpaceOnUse">
<stop stop-color="#0AF471"/>
<stop offset="1" stop-color="#00454C"/>
</linearGradient>
<linearGradient id="paint3_linear_4113_514" x1="1334.59" y1="1266.17" x2="1361.68" y2="492.151" gradientUnits="userSpaceOnUse">
<stop stop-color="#0AF471"/>
<stop offset="1" stop-color="#00454C"/>
</linearGradient>
</defs>
</svg>
