<svg width="2073" height="226" viewBox="0 0 2073 226" fill="none" xmlns="http://www.w3.org/2000/svg">
<path d="M92.379 225.346C63.1004 225.346 40.3843 218.784 24.2306 205.659C8.27877 192.534 0.201918 173.755 -3.41582e-06 149.323H40.2833C40.4852 164.669 45.0285 175.673 53.913 182.337C62.9995 189 76.2253 192.332 93.5906 192.332C107.725 192.332 118.528 189.707 125.999 184.457C133.47 179.005 137.206 171.231 137.206 161.135C137.206 152.654 133.975 146.193 127.513 141.751C121.254 137.308 109.744 133.371 92.9848 129.938L74.8119 126.304C28.5719 117.621 5.45187 95.8136 5.45187 60.8812C5.45187 42.3044 12.5191 27.5641 26.6536 16.6604C40.7881 5.55469 60.3745 0.00185434 85.4127 0.00185434C113.884 0.00185434 135.388 6.0595 149.927 18.1748C164.667 30.2901 172.441 47.2515 173.249 69.059H133.571C132.763 56.7418 128.624 47.6553 121.153 41.7996C113.884 35.9439 102.172 33.016 86.0185 33.016C73.4994 33.016 63.9081 35.3381 57.2447 39.9823C50.5813 44.6265 47.2496 51.1889 47.2496 59.6696C47.2496 68.3522 50.2784 75.0156 56.3361 79.6598C62.5956 84.304 73.6003 88.2415 89.3502 91.4722L108.129 95.1068C133.369 100.155 151.542 107.727 162.648 117.823C173.955 127.717 179.609 141.448 179.609 159.015C179.609 180.015 171.936 196.37 156.59 208.082C141.244 219.591 119.84 225.346 92.379 225.346ZM337.931 4.84798V41.4967H219.807V92.3809H326.725V127.515H219.807V183.851H337.325V220.5H178.918V4.84798H337.931ZM398.967 225.346C376.755 225.346 359.289 219.288 346.568 207.173C334.049 194.856 327.789 178.298 327.789 157.501V143.568H366.861V157.501C366.861 167.799 369.688 175.875 375.342 181.731C380.996 187.385 388.77 190.212 398.664 190.212C408.76 190.212 416.635 187.385 422.289 181.731C427.942 176.077 430.769 168 430.769 157.501V4.84798H471.355V157.501C471.355 177.895 464.894 194.351 451.971 206.87C439.25 219.188 421.582 225.346 398.967 225.346ZM667.207 220.5H623.894L606.933 172.948H512.434L495.775 220.5H453.675L535.756 4.84798H583.611L667.207 220.5ZM533.03 114.794L524.852 138.116H594.515L586.034 114.794C578.967 96.8232 570.082 72.1887 559.381 40.8909C550.9 65.9292 542.116 90.5636 533.03 114.794Z" fill="url(#paint0_linear_489_2123)"/>
<path d="M811.558 116.309L849.721 4.84798H892.125L814.89 220.5H767.035L687.982 4.84798H731.597L770.669 116.309C779.756 143.77 786.621 166.183 791.265 183.548C796.515 163.558 803.279 141.145 811.558 116.309ZM1044.38 4.84798V41.4967H926.256V92.3809H1033.17V127.515H926.256V183.851H1043.77V220.5H885.367V4.84798H1044.38ZM1188.07 61.184V4.84798H1227.44V220.5H1182.01L1122.04 124.486C1105.68 98.8424 1092.86 77.2368 1083.57 59.6696C1084.38 82.2848 1084.78 117.116 1084.78 164.164V220.5H1045.41V4.84798H1090.84L1151.12 100.862C1169.09 129.938 1181.81 151.544 1189.28 165.678C1188.47 135.592 1188.07 100.761 1188.07 61.184ZM1238.58 4.84798H1320.96C1355.49 4.84798 1382.15 14.4392 1400.92 33.6218C1419.7 53.0062 1429.09 79.357 1429.09 112.674C1429.09 145.991 1419.7 172.241 1400.92 191.423C1382.15 210.808 1355.49 220.5 1320.96 220.5H1238.58V4.84798ZM1279.47 185.366H1320.36C1341.56 185.366 1357.91 179.207 1369.42 166.89C1380.93 154.371 1386.69 136.299 1386.69 112.674C1386.69 89.0492 1380.93 71.0782 1369.42 58.761C1357.91 46.2419 1341.56 39.9823 1320.36 39.9823H1279.47V185.366ZM1590.17 4.84798V41.4967H1472.05V92.3809H1578.96V127.515H1472.05V183.851H1589.57V220.5H1431.16V4.84798H1590.17ZM1591.2 4.84798H1686C1710.03 4.84798 1728.71 11.2085 1742.04 23.9295C1755.56 36.4487 1762.33 53.511 1762.33 75.1166C1762.33 96.5203 1755.56 113.583 1742.04 126.304C1728.71 138.823 1710.03 145.082 1686 145.082H1632.09V220.5H1591.2V4.84798ZM1632.09 109.948H1684.19C1696.1 109.948 1705.18 107.02 1711.44 101.164C1717.91 95.1068 1721.14 86.4242 1721.14 75.1166C1721.14 63.809 1717.91 55.1264 1711.44 49.0687C1705.18 43.0111 1696.1 39.9823 1684.19 39.9823H1632.09V109.948ZM1929.5 220.5H1886.19L1869.23 172.948H1774.73L1758.07 220.5H1715.97L1798.05 4.84798H1845.91L1929.5 220.5ZM1795.33 114.794L1787.15 138.116H1856.81L1848.33 114.794C1841.26 96.8232 1832.38 72.1887 1821.68 40.8909C1813.2 65.9292 1804.41 90.5636 1795.33 114.794ZM2003.69 43.6169L2027.32 4.84798H2072.44L1991.57 135.39V220.5H1950.69V135.39L1869.21 4.84798H1915.55L1939.48 43.9198C1958.86 76.2272 1969.67 94.4001 1971.89 98.4385C1977.34 88.7463 1987.94 70.4724 2003.69 43.6169Z" fill="url(#paint1_radial_489_2123)"/>
<defs>
<linearGradient id="paint0_linear_489_2123" x1="-7.26917" y1="106.5" x2="2074.73" y2="106.5" gradientUnits="userSpaceOnUse">
<stop stop-color="white"/>
<stop offset="1" stop-color="#9BF1C1"/>
</linearGradient>
<radialGradient id="paint1_radial_489_2123" cx="0" cy="0" r="1" gradientTransform="matrix(698.993 102.852 -759.71 74.3374 1052.2 116.934)" gradientUnits="userSpaceOnUse">
<stop stop-color="#0AF471"/>
<stop offset="1" stop-color="#000C0B"/>
</radialGradient>
</defs>
</svg>
