<svg width="1916" height="1059" viewBox="0 0 1916 1059" fill="none" xmlns="http://www.w3.org/2000/svg">
<g clip-path="url(#clip0_4048_478)">
<g filter="url(#filter0_d_4048_478)">
<rect x="1466.43" y="287.215" width="72.2956" height="72.2956" rx="13.2652" fill="#2E3834" fill-opacity="0.16" shape-rendering="crispEdges"/>
<rect x="1466.93" y="287.715" width="71.2956" height="71.2956" rx="12.7652" stroke="url(#paint0_radial_4048_478)" stroke-opacity="0.52" shape-rendering="crispEdges"/>
<path d="M1513 313.076L1492.08 334L1513 313.076ZM1492.08 334V313.913V334ZM1492.08 334H1512.16H1492.08Z" fill="url(#paint1_linear_4048_478)"/>
<path d="M1513 313.076L1492.08 334M1492.08 334V313.913M1492.08 334H1512.16" stroke="url(#paint2_linear_4048_478)" stroke-width="2.41436" stroke-linecap="round" stroke-linejoin="round"/>
</g>
<g style="mix-blend-mode:screen" opacity="0.3" filter="url(#filter1_f_4048_478)">
<path d="M443.63 180.017L1127.95 807.329C1149.06 826.686 1142.74 861.451 1116.16 872.134L755.686 1017.02C741.786 1022.6 725.913 1019.72 714.87 1009.59L30.5534 382.283C9.43748 362.926 15.76 328.161 42.3391 317.478L402.813 172.593C416.714 167.007 432.587 169.893 443.63 180.017Z" fill="url(#paint3_linear_4048_478)"/>
</g>
<g style="mix-blend-mode:screen" opacity="0.9" filter="url(#filter2_f_4048_478)">
<path d="M497.709 387.703L810.364 674.313C820.011 683.157 817.123 699.041 804.979 703.922L640.283 770.117C633.933 772.67 626.681 771.351 621.635 766.726L308.98 480.116C299.333 471.272 302.222 455.388 314.365 450.507L479.061 384.312C485.412 381.759 492.664 383.078 497.709 387.703Z" fill="url(#paint4_linear_4048_478)"/>
</g>
<path d="M436.416 362.581L459.349 297.553H476.784L435.945 409.389H416.782L375.158 297.553H392.907L416.311 362.581C420.185 373.471 423.536 383.734 426.363 393.367C427.934 388.132 431.285 377.869 436.416 362.581ZM543.044 369.492V374.047H481.942C482.675 382.006 485.032 388.027 489.011 392.111C492.99 396.09 498.383 398.079 505.189 398.079C515.451 398.079 522.153 393.577 525.294 384.571H541.159C538.96 392.844 534.666 399.388 528.279 404.205C521.996 408.917 514.195 411.274 504.875 411.274C493.252 411.274 483.88 407.399 476.759 399.65C469.638 391.901 466.078 381.639 466.078 368.864C466.078 356.089 469.638 345.827 476.759 338.078C483.88 330.329 493.147 326.454 504.561 326.454C516.498 326.454 525.923 330.486 532.834 338.549C539.64 346.612 543.044 356.927 543.044 369.492ZM504.561 339.649C498.383 339.649 493.304 341.533 489.325 345.303C485.45 349.073 483.042 354.518 482.1 361.639H526.865C526.132 355.042 523.776 349.754 519.797 345.774C515.922 341.691 510.844 339.649 504.561 339.649ZM592.472 326.454C601.373 326.454 608.337 328.968 613.363 333.994C618.389 338.916 620.902 345.931 620.902 355.042V409.389H605.195V357.241C605.195 345.931 599.488 340.277 588.074 340.277C582.839 340.277 578.126 342.266 573.938 346.246C569.749 350.329 567.655 356.141 567.655 363.681V409.389H551.948V328.339H567.027V340.434C573.205 331.114 581.687 326.454 592.472 326.454ZM693.118 339.334V297.553H708.825V409.389H693.746V397.451C687.672 406.666 678.719 411.274 666.887 411.274C655.577 411.274 646.572 407.451 639.87 399.807C633.168 392.163 629.817 381.849 629.817 368.864C629.817 355.879 633.168 345.565 639.87 337.921C646.572 330.277 655.577 326.454 666.887 326.454C678.3 326.454 687.044 330.748 693.118 339.334ZM646.153 369.492C646.153 378.498 648.3 385.461 652.593 390.383C656.886 395.305 662.646 397.765 669.871 397.765C677.306 397.765 683.117 395.2 687.306 390.069C691.495 385.147 693.589 378.079 693.589 368.864C693.589 359.754 691.495 352.633 687.306 347.502C683.117 342.476 677.306 339.963 669.871 339.963C662.646 339.963 656.886 342.581 652.593 347.816C648.3 353.052 646.153 360.277 646.153 369.492ZM791.256 397.294H795.654V409.389C793.35 409.703 790.785 409.86 787.957 409.86C782.931 409.86 779.161 408.97 776.648 407.19C774.24 405.305 772.774 402.373 772.25 398.394C766.805 406.98 758.009 411.274 745.862 411.274C736.961 411.274 729.893 409.179 724.657 404.991C719.526 400.697 716.961 394.781 716.961 387.241C716.961 372.581 727.118 364.204 747.433 362.11L759.37 360.853C763.559 360.33 766.596 359.283 768.48 357.712C770.47 356.036 771.465 353.68 771.465 350.644C771.465 346.56 770.156 343.628 767.538 341.848C765.025 339.963 760.784 339.02 754.815 339.02C748.323 339.02 743.663 340.12 740.836 342.319C738.008 344.413 736.385 348.183 735.966 353.628H720.416C721.568 335.512 733.034 326.454 754.815 326.454C776.177 326.454 786.858 334.413 786.858 350.329V393.21C786.858 395.933 788.324 397.294 791.256 397.294ZM748.218 399.022C754.92 399.022 760.47 397.137 764.868 393.367C769.266 389.598 771.465 384.257 771.465 377.346V368.864C769.475 370.539 766.124 371.639 761.412 372.163L750.103 373.419C744.03 374.152 739.684 375.618 737.066 377.817C734.448 379.911 733.139 382.896 733.139 386.77C733.139 390.645 734.396 393.681 736.909 395.88C739.527 397.975 743.297 399.022 748.218 399.022ZM867.473 310.276H860.405C853.389 310.276 849.881 313.836 849.881 320.957V328.339H866.844V341.219H849.881V409.389H834.173V341.219H821.136V328.339H834.173V320.957C834.173 305.04 842.289 297.082 858.52 297.082C860.09 297.082 863.075 297.239 867.473 297.553V310.276ZM909.866 294.255H929.5L909.709 316.873H896.201L909.866 294.255ZM938.925 397.294H943.323V409.389C941.019 409.703 938.454 409.86 935.626 409.86C930.6 409.86 926.83 408.97 924.317 407.19C921.909 405.305 920.443 402.373 919.919 398.394C914.474 406.98 905.678 411.274 893.531 411.274C884.63 411.274 877.562 409.179 872.326 404.991C867.195 400.697 864.63 394.781 864.63 387.241C864.63 372.581 874.787 364.204 895.102 362.11L907.039 360.853C911.228 360.33 914.264 359.283 916.149 357.712C918.139 356.036 919.134 353.68 919.134 350.644C919.134 346.56 917.825 343.628 915.207 341.848C912.694 339.963 908.453 339.02 902.484 339.02C895.992 339.02 891.332 340.12 888.505 342.319C885.677 344.413 884.054 348.183 883.635 353.628H868.085C869.237 335.512 880.703 326.454 902.484 326.454C923.846 326.454 934.527 334.413 934.527 350.329V393.21C934.527 395.933 935.993 397.294 938.925 397.294ZM895.887 399.022C902.589 399.022 908.139 397.137 912.537 393.367C916.935 389.598 919.134 384.257 919.134 377.346V368.864C917.144 370.539 913.793 371.639 909.081 372.163L897.772 373.419C891.698 374.152 887.353 375.618 884.735 377.817C882.117 379.911 880.808 382.896 880.808 386.77C880.808 390.645 882.065 393.681 884.578 395.88C887.196 397.975 890.965 399.022 895.887 399.022ZM982.78 411.274C971.261 411.274 961.942 407.399 954.821 399.65C947.7 391.901 944.14 381.639 944.14 368.864C944.14 355.984 947.7 345.67 954.821 337.921C961.837 330.277 971.156 326.454 982.78 326.454C992.728 326.454 1000.9 329.177 1007.28 334.622C1013.78 340.067 1017.65 347.397 1018.91 356.612H1002.89C1001.84 351.272 999.482 347.188 995.817 344.361C992.257 341.533 987.911 340.12 982.78 340.12C975.973 340.12 970.528 342.633 966.444 347.659C962.465 352.581 960.476 359.649 960.476 368.864C960.476 378.079 962.465 385.2 966.444 390.226C970.528 395.147 975.973 397.608 982.78 397.608C988.016 397.608 992.466 396.142 996.131 393.21C999.796 390.278 1002.1 386.037 1003.04 380.487H1019.06C1017.81 389.912 1013.88 397.399 1007.28 402.949C1000.69 408.499 992.518 411.274 982.78 411.274ZM1042.19 316.873H1026.17V300.066H1042.19V316.873ZM1042.04 409.389H1026.33V328.339H1042.04V409.389ZM1070.29 409.389H1054.59V297.553H1070.29V409.389ZM422.437 494.56H450.71V508.382H422.437V536.498H407.515V508.382H379.242V494.56H407.515V466.287H422.437V494.56ZM504.812 557.389H488.006V445.553H504.812V557.389ZM615.995 557.389H598.246L587.251 528.33H536.988L526.15 557.389H508.715L552.381 445.553H571.701L615.995 557.389ZM544.684 507.597L542.328 513.723H581.753L579.397 507.597C573.847 493.774 568.036 478.486 561.962 461.732C554.737 480.999 548.978 496.288 544.684 507.597ZM748.596 557.389H730.847L719.852 528.33H669.589L658.751 557.389H641.316L684.982 445.553H704.302L748.596 557.389ZM677.285 507.597L674.929 513.723H714.354L711.998 507.597C706.448 493.774 700.637 478.486 694.563 461.732C687.338 480.999 681.579 496.288 677.285 507.597ZM793.557 474.454C802.458 474.454 809.421 476.968 814.447 481.994C819.474 486.916 821.987 493.931 821.987 503.042V557.389H806.28V505.241C806.28 493.931 800.573 488.277 789.159 488.277C783.923 488.277 779.211 490.266 775.022 494.246C770.834 498.329 768.739 504.141 768.739 511.681V557.389H753.032V476.339H768.111V488.434C774.289 479.114 782.771 474.454 793.557 474.454ZM870.24 476.339V489.219H853.904V537.912C853.904 540.32 854.585 542.1 855.946 543.252C857.412 544.299 859.821 544.823 863.172 544.823H870.24V557.389C866.784 557.703 863.591 557.86 860.659 557.86C853.014 557.86 847.36 556.394 843.695 553.462C840.03 550.53 838.197 545.818 838.197 539.325V489.219H825.16V476.339H838.197V453.093H853.904V476.339H870.24ZM893.674 464.873H877.653V448.066H893.674V464.873ZM893.517 557.389H877.81V476.339H893.517V557.389ZM1009.92 445.553V460.632H950.544V492.204H1004.11V506.968H950.544V557.389H933.738V445.553H1009.92ZM1083.56 545.294H1087.96V557.389C1085.66 557.703 1083.09 557.86 1080.26 557.86C1075.24 557.86 1071.47 556.97 1068.95 555.19C1066.55 553.305 1065.08 550.373 1064.56 546.394C1059.11 554.98 1050.31 559.274 1038.17 559.274C1029.27 559.274 1022.2 557.179 1016.96 552.991C1011.83 548.697 1009.27 542.781 1009.27 535.241C1009.27 520.581 1019.42 512.204 1039.74 510.11L1051.68 508.853C1055.86 508.33 1058.9 507.283 1060.79 505.712C1062.78 504.036 1063.77 501.68 1063.77 498.644C1063.77 494.56 1062.46 491.628 1059.84 489.848C1057.33 487.963 1053.09 487.02 1047.12 487.02C1040.63 487.02 1035.97 488.12 1033.14 490.319C1030.31 492.413 1028.69 496.183 1028.27 501.628H1012.72C1013.87 483.512 1025.34 474.454 1047.12 474.454C1068.48 474.454 1079.16 482.413 1079.16 498.329V541.21C1079.16 543.933 1080.63 545.294 1083.56 545.294ZM1040.52 547.022C1047.23 547.022 1052.78 545.137 1057.17 541.367C1061.57 537.598 1063.77 532.257 1063.77 525.346V516.864C1061.78 518.539 1058.43 519.639 1053.72 520.163L1042.41 521.419C1036.33 522.152 1031.99 523.618 1029.37 525.817C1026.75 527.911 1025.44 530.896 1025.44 534.77C1025.44 538.645 1026.7 541.681 1029.21 543.88C1031.83 545.975 1035.6 547.022 1040.52 547.022ZM1108.41 557.389H1092.7V445.553H1108.41V557.389ZM1161.48 474.454C1170.38 474.454 1177.35 476.968 1182.37 481.994C1187.4 486.916 1189.91 493.931 1189.91 503.042V557.389H1174.21V505.241C1174.21 493.931 1168.5 488.277 1157.09 488.277C1151.85 488.277 1147.14 490.266 1142.95 494.246C1138.76 498.329 1136.67 504.141 1136.67 511.681V557.389H1120.96V445.553H1136.67V487.491C1142.84 478.8 1151.12 474.454 1161.48 474.454ZM1272.34 545.294H1276.74V557.389C1274.43 557.703 1271.87 557.86 1269.04 557.86C1264.01 557.86 1260.24 556.97 1257.73 555.19C1255.32 553.305 1253.86 550.373 1253.33 546.394C1247.89 554.98 1239.09 559.274 1226.95 559.274C1218.04 559.274 1210.98 557.179 1205.74 552.991C1200.61 548.697 1198.04 542.781 1198.04 535.241C1198.04 520.581 1208.2 512.204 1228.52 510.11L1240.45 508.853C1244.64 508.33 1247.68 507.283 1249.56 505.712C1251.55 504.036 1252.55 501.68 1252.55 498.644C1252.55 494.56 1251.24 491.628 1248.62 489.848C1246.11 487.963 1241.87 487.02 1235.9 487.02C1229.41 487.02 1224.75 488.12 1221.92 490.319C1219.09 492.413 1217.47 496.183 1217.05 501.628H1201.5C1202.65 483.512 1214.12 474.454 1235.9 474.454C1257.26 474.454 1267.94 482.413 1267.94 498.329V541.21C1267.94 543.933 1269.41 545.294 1272.34 545.294ZM1229.3 547.022C1236 547.022 1241.55 545.137 1245.95 541.367C1250.35 537.598 1252.55 532.257 1252.55 525.346V516.864C1250.56 518.539 1247.21 519.639 1242.5 520.163L1231.19 521.419C1225.11 522.152 1220.77 523.618 1218.15 525.817C1215.53 527.911 1214.22 530.896 1214.22 534.77C1214.22 538.645 1215.48 541.681 1217.99 543.88C1220.61 545.975 1224.38 547.022 1229.3 547.022ZM1312.4 559.431C1289.88 559.431 1278.05 550.163 1276.9 531.629H1292.61C1293.24 537.283 1295.07 541.263 1298.1 543.566C1301.14 545.87 1305.96 547.022 1312.56 547.022C1324.49 547.022 1330.46 543.252 1330.46 535.713C1330.46 532.467 1329.21 529.953 1326.69 528.173C1324.18 526.393 1319.68 524.927 1313.18 523.775L1304.86 522.204C1287.69 519.063 1279.1 511 1279.1 498.015C1279.1 490.79 1281.87 485.083 1287.42 480.894C1292.97 476.601 1300.62 474.454 1310.36 474.454C1332.66 474.454 1344.07 483.512 1344.6 501.628H1329.36C1329.05 496.183 1327.37 492.361 1324.34 490.162C1321.3 487.858 1316.64 486.706 1310.36 486.706C1305.33 486.706 1301.46 487.649 1298.73 489.533C1296.01 491.418 1294.65 494.089 1294.65 497.544C1294.65 500.686 1295.85 503.146 1298.26 504.927C1300.67 506.602 1304.49 507.963 1309.73 509.01L1318.21 510.424C1328.16 512.309 1335.33 515.136 1339.73 518.906C1344.13 522.676 1346.33 527.911 1346.33 534.613C1346.33 542.467 1343.34 548.593 1337.37 552.991C1331.4 557.284 1323.08 559.431 1312.4 559.431ZM422.437 642.56H450.71V656.382H422.437V684.498H407.515V656.382H379.242V642.56H407.515V614.287H422.437V642.56ZM567.798 593.553V608.632H504.812V640.204H561.83V654.968H504.812V690.31H567.327V705.389H488.006V593.553H567.798ZM606.22 707.431C583.706 707.431 571.873 698.163 570.721 679.629H586.429C587.057 685.283 588.889 689.263 591.926 691.566C594.963 693.87 599.78 695.022 606.377 695.022C618.314 695.022 624.283 691.252 624.283 683.713C624.283 680.467 623.027 677.953 620.513 676.173C618 674.393 613.497 672.927 607.005 671.775L598.68 670.204C581.507 667.063 572.92 659 572.92 646.015C572.92 638.79 575.695 633.083 581.245 628.894C586.795 624.601 594.439 622.454 604.178 622.454C626.482 622.454 637.896 631.512 638.42 649.628H623.184C622.869 644.183 621.194 640.361 618.157 638.162C615.121 635.858 610.461 634.706 604.178 634.706C599.152 634.706 595.277 635.649 592.555 637.533C589.832 639.418 588.471 642.089 588.471 645.544C588.471 648.686 589.675 651.146 592.083 652.927C594.492 654.602 598.314 655.963 603.55 657.01L612.031 658.424C621.979 660.309 629.152 663.136 633.55 666.906C637.948 670.676 640.147 675.911 640.147 682.613C640.147 690.467 637.163 696.593 631.194 700.991C625.226 705.284 616.901 707.431 606.22 707.431ZM683.917 624.339V637.219H667.581V685.912C667.581 688.32 668.262 690.1 669.623 691.252C671.089 692.299 673.497 692.823 676.848 692.823H683.917V705.389C680.461 705.703 677.267 705.86 674.335 705.86C666.691 705.86 661.036 704.394 657.371 701.462C653.706 698.53 651.874 693.818 651.874 687.325V637.219H638.837V624.339H651.874V601.093H667.581V624.339H683.917ZM760.613 693.294H765.011V705.389C762.708 705.703 760.142 705.86 757.315 705.86C752.288 705.86 748.519 704.97 746.006 703.19C743.597 701.305 742.131 698.373 741.608 694.394C736.162 702.98 727.366 707.274 715.219 707.274C706.319 707.274 699.25 705.179 694.015 700.991C688.884 696.697 686.318 690.781 686.318 683.241C686.318 668.581 696.475 660.204 716.79 658.11L728.728 656.853C732.916 656.33 735.953 655.283 737.838 653.712C739.827 652.036 740.822 649.68 740.822 646.644C740.822 642.56 739.513 639.628 736.895 637.848C734.382 635.963 730.141 635.02 724.173 635.02C717.68 635.02 713.02 636.12 710.193 638.319C707.366 640.413 705.743 644.183 705.324 649.628H689.774C690.926 631.512 702.392 622.454 724.173 622.454C745.534 622.454 756.215 630.413 756.215 646.329V689.21C756.215 691.933 757.681 693.294 760.613 693.294ZM717.575 695.022C724.277 695.022 729.827 693.137 734.225 689.367C738.623 685.598 740.822 680.257 740.822 673.346V664.864C738.833 666.539 735.482 667.639 730.77 668.163L719.46 669.419C713.387 670.152 709.041 671.618 706.423 673.817C703.805 675.911 702.497 678.896 702.497 682.77C702.497 686.645 703.753 689.681 706.266 691.88C708.884 693.975 712.654 695.022 717.575 695.022ZM811.847 622.454C823.156 622.454 832.162 626.277 838.864 633.921C845.565 641.565 848.916 651.879 848.916 664.864C848.916 677.744 845.565 688.006 838.864 695.65C832.057 703.399 823.052 707.274 811.847 707.274C799.91 707.274 790.904 702.561 784.831 693.137V705.389H769.752V593.553H785.459V635.649C791.532 626.853 800.328 622.454 811.847 622.454ZM791.585 686.069C795.773 691.2 801.533 693.765 808.863 693.765C816.193 693.765 822.004 691.147 826.298 685.912C830.486 680.781 832.581 673.555 832.581 664.236C832.581 655.23 830.486 648.267 826.298 643.345C822.109 638.424 816.297 635.963 808.863 635.963C801.637 635.963 795.878 638.476 791.585 643.502C787.291 648.738 785.145 655.859 785.145 664.864C785.145 673.869 787.291 680.938 791.585 686.069ZM873.545 612.873H857.523V596.066H873.545V612.873ZM873.388 705.389H857.68V624.339H873.388V705.389ZM901.647 705.389H885.94V593.553H901.647V705.389ZM930.064 612.873H914.042V596.066H930.064V612.873ZM929.907 705.389H914.199V624.339H929.907V705.389ZM1001.99 635.334V593.553H1017.7V705.389H1002.62V693.451C996.544 702.666 987.591 707.274 975.758 707.274C964.449 707.274 955.443 703.451 948.742 695.807C942.04 688.163 938.689 677.849 938.689 664.864C938.689 651.879 942.04 641.565 948.742 633.921C955.443 626.277 964.449 622.454 975.758 622.454C987.172 622.454 995.916 626.748 1001.99 635.334ZM955.025 665.492C955.025 674.498 957.171 681.461 961.465 686.383C965.758 691.305 971.517 693.765 978.743 693.765C986.177 693.765 991.989 691.2 996.178 686.069C1000.37 681.147 1002.46 674.079 1002.46 664.864C1002.46 655.754 1000.37 648.633 996.178 643.502C991.989 638.476 986.177 635.963 978.743 635.963C971.517 635.963 965.758 638.581 961.465 643.816C957.171 649.052 955.025 656.277 955.025 665.492ZM1100.13 693.294H1104.53V705.389C1102.22 705.703 1099.66 705.86 1096.83 705.86C1091.8 705.86 1088.03 704.97 1085.52 703.19C1083.11 701.305 1081.65 698.373 1081.12 694.394C1075.68 702.98 1066.88 707.274 1054.73 707.274C1045.83 707.274 1038.76 705.179 1033.53 700.991C1028.4 696.697 1025.83 690.781 1025.83 683.241C1025.83 668.581 1035.99 660.204 1056.3 658.11L1068.24 656.853C1072.43 656.33 1075.47 655.283 1077.35 653.712C1079.34 652.036 1080.34 649.68 1080.34 646.644C1080.34 642.56 1079.03 639.628 1076.41 637.848C1073.9 635.963 1069.66 635.02 1063.69 635.02C1057.19 635.02 1052.53 636.12 1049.71 638.319C1046.88 640.413 1045.26 644.183 1044.84 649.628H1029.29C1030.44 631.512 1041.91 622.454 1063.69 622.454C1085.05 622.454 1095.73 630.413 1095.73 646.329V689.21C1095.73 691.933 1097.2 693.294 1100.13 693.294ZM1057.09 695.022C1063.79 695.022 1069.34 693.137 1073.74 689.367C1078.14 685.598 1080.34 680.257 1080.34 673.346V664.864C1078.35 666.539 1075 667.639 1070.28 668.163L1058.97 669.419C1052.9 670.152 1048.56 671.618 1045.94 673.817C1043.32 675.911 1042.01 678.896 1042.01 682.77C1042.01 686.645 1043.27 689.681 1045.78 691.88C1048.4 693.975 1052.17 695.022 1057.09 695.022ZM1168.64 635.334V593.553H1184.35V705.389H1169.27V693.451C1163.2 702.666 1154.24 707.274 1142.41 707.274C1131.1 707.274 1122.1 703.451 1115.4 695.807C1108.69 688.163 1105.34 677.849 1105.34 664.864C1105.34 651.879 1108.69 641.565 1115.4 633.921C1122.1 626.277 1131.1 622.454 1142.41 622.454C1153.83 622.454 1162.57 626.748 1168.64 635.334ZM1121.68 665.492C1121.68 674.498 1123.83 681.461 1128.12 686.383C1132.41 691.305 1138.17 693.765 1145.4 693.765C1152.83 693.765 1158.64 691.2 1162.83 686.069C1167.02 681.147 1169.11 674.079 1169.11 664.864C1169.11 655.754 1167.02 648.633 1162.83 643.502C1158.64 638.476 1152.83 635.963 1145.4 635.963C1138.17 635.963 1132.41 638.581 1128.12 643.816C1123.83 649.052 1121.68 656.277 1121.68 665.492ZM1270.24 665.492V670.047H1209.14C1209.87 678.006 1212.22 684.027 1216.2 688.111C1220.18 692.09 1225.58 694.079 1232.38 694.079C1242.64 694.079 1249.35 689.577 1252.49 680.571H1268.35C1266.15 688.844 1261.86 695.388 1255.47 700.205C1249.19 704.917 1241.39 707.274 1232.07 707.274C1220.44 707.274 1211.07 703.399 1203.95 695.65C1196.83 687.901 1193.27 677.639 1193.27 664.864C1193.27 652.089 1196.83 641.827 1203.95 634.078C1211.07 626.329 1220.34 622.454 1231.75 622.454C1243.69 622.454 1253.12 626.486 1260.03 634.549C1266.83 642.612 1270.24 652.927 1270.24 665.492ZM1231.75 635.649C1225.58 635.649 1220.5 637.533 1216.52 641.303C1212.64 645.073 1210.24 650.518 1209.29 657.639H1254.06C1253.33 651.042 1250.97 645.754 1246.99 641.774C1243.12 637.691 1238.04 635.649 1231.75 635.649ZM1374.35 642.246H1302.88V628.737H1374.35V642.246ZM1374.35 670.204H1302.88V656.696H1374.35V670.204Z" fill="url(#paint5_linear_4048_478)"/>
<path d="M458.249 775.481V741.553H474.428V853.389H455.108L420.709 799.199C410.656 783.491 403.379 771.502 398.876 763.229C399.295 775.69 399.504 794.434 399.504 819.461V853.389H383.169V741.553H402.488L437.044 795.743C446.364 810.508 453.642 822.55 458.877 831.87C458.459 819.304 458.249 800.508 458.249 775.481ZM561.144 813.492V818.047H500.043C500.776 826.006 503.132 832.027 507.111 836.111C511.09 840.09 516.483 842.079 523.289 842.079C533.551 842.079 540.253 837.577 543.395 828.571H559.259C557.06 836.844 552.767 843.388 546.379 848.205C540.096 852.917 532.295 855.274 522.975 855.274C511.352 855.274 501.98 851.399 494.859 843.65C487.739 835.901 484.178 825.639 484.178 812.864C484.178 800.089 487.739 789.827 494.859 782.078C501.98 774.329 511.247 770.454 522.661 770.454C534.599 770.454 544.023 774.486 550.934 782.549C557.741 790.612 561.144 800.927 561.144 813.492ZM522.661 783.649C516.483 783.649 511.404 785.533 507.425 789.303C503.551 793.073 501.142 798.518 500.2 805.639H544.965C544.232 799.042 541.876 793.754 537.897 789.774C534.023 785.691 528.944 783.649 522.661 783.649ZM630.206 783.806V772.339H645.285V850.404C645.285 861.504 641.935 870.195 635.233 876.478C628.531 882.866 619.002 886.06 606.646 886.06C596.069 886.06 587.64 883.651 581.357 878.834C575.179 874.018 571.671 867.42 570.833 859.043H586.54C587.797 868.572 594.551 873.337 606.803 873.337C621.986 873.337 629.578 865.797 629.578 850.718V841.765C623.4 850.143 614.709 854.331 603.504 854.331C592.195 854.331 583.189 850.509 576.488 842.865C569.681 835.116 566.278 824.959 566.278 812.393C566.278 799.827 569.681 789.67 576.488 781.921C583.189 774.277 592.143 770.454 603.347 770.454C615.18 770.454 624.133 774.905 630.206 783.806ZM606.331 840.823C613.662 840.823 619.421 838.31 623.609 833.283C627.903 828.152 630.049 821.189 630.049 812.393C630.049 803.597 627.903 796.686 623.609 791.659C619.421 786.528 613.662 783.963 606.331 783.963C599.106 783.963 593.347 786.528 589.054 791.659C584.76 796.79 582.614 803.701 582.614 812.393C582.614 821.189 584.76 828.152 589.054 833.283C593.347 838.31 599.106 840.823 606.331 840.823ZM701.642 760.873H688.134L701.8 738.255H721.434L701.642 760.873ZM723.476 843.65C716.041 851.399 706.355 855.274 694.417 855.274C682.48 855.274 672.794 851.399 665.359 843.65C657.924 835.901 654.207 825.639 654.207 812.864C654.207 799.984 657.924 789.67 665.359 781.921C672.689 774.277 682.375 770.454 694.417 770.454C706.459 770.454 716.145 774.277 723.476 781.921C730.806 789.565 734.471 799.879 734.471 812.864C734.471 825.744 730.806 836.006 723.476 843.65ZM676.982 834.069C681.275 839.2 687.087 841.765 694.417 841.765C701.747 841.765 707.506 839.2 711.695 834.069C715.988 828.938 718.135 821.869 718.135 812.864C718.135 803.859 715.988 796.79 711.695 791.659C707.506 786.528 701.747 783.963 694.417 783.963C687.087 783.963 681.275 786.528 676.982 791.659C672.689 796.79 670.542 803.859 670.542 812.864C670.542 821.869 672.689 828.938 676.982 834.069ZM778.167 855.274C766.649 855.274 757.329 851.399 750.208 843.65C743.088 835.901 739.528 825.639 739.528 812.864C739.528 799.984 743.088 789.67 750.208 781.921C757.224 774.277 766.544 770.454 778.167 770.454C788.115 770.454 796.283 773.177 802.671 778.622C809.163 784.067 813.037 791.397 814.294 800.612H798.273C797.225 795.272 794.869 791.188 791.204 788.361C787.644 785.533 783.298 784.12 778.167 784.12C771.361 784.12 765.916 786.633 761.832 791.659C757.853 796.581 755.863 803.649 755.863 812.864C755.863 822.079 757.853 829.2 761.832 834.226C765.916 839.147 771.361 841.608 778.167 841.608C783.403 841.608 787.853 840.142 791.519 837.21C795.184 834.278 797.487 830.037 798.43 824.487H814.451C813.194 833.912 809.268 841.399 802.671 846.949C796.074 852.499 787.906 855.274 778.167 855.274ZM837.58 760.873H821.559V744.066H837.58V760.873ZM837.423 853.389H821.716V772.339H837.423V853.389ZM915.474 843.65C908.04 851.399 898.353 855.274 886.416 855.274C874.478 855.274 864.792 851.399 857.358 843.65C849.923 835.901 846.205 825.639 846.205 812.864C846.205 799.984 849.923 789.67 857.358 781.921C864.688 774.277 874.374 770.454 886.416 770.454C898.458 770.454 908.144 774.277 915.474 781.921C922.804 789.565 926.469 799.879 926.469 812.864C926.469 825.744 922.804 836.006 915.474 843.65ZM868.981 834.069C873.274 839.2 879.086 841.765 886.416 841.765C893.746 841.765 899.505 839.2 903.694 834.069C907.987 828.938 910.134 821.869 910.134 812.864C910.134 803.859 907.987 796.79 903.694 791.659C899.505 786.528 893.746 783.963 886.416 783.963C879.086 783.963 873.274 786.528 868.981 791.659C864.688 796.79 862.541 803.859 862.541 812.864C862.541 821.869 864.688 828.938 868.981 834.069ZM992.023 855.431C969.509 855.431 957.676 846.163 956.524 827.629H972.231C972.86 833.283 974.692 837.263 977.729 839.566C980.766 841.87 985.583 843.022 992.18 843.022C1004.12 843.022 1010.09 839.252 1010.09 831.713C1010.09 828.467 1008.83 825.953 1006.32 824.173C1003.8 822.393 999.3 820.927 992.808 819.775L984.483 818.204C967.31 815.063 958.723 807 958.723 794.015C958.723 786.79 961.498 781.083 967.048 776.894C972.598 772.601 980.242 770.454 989.981 770.454C1012.28 770.454 1023.7 779.512 1024.22 797.628H1008.99C1008.67 792.183 1007 788.361 1003.96 786.162C1000.92 783.858 996.264 782.706 989.981 782.706C984.954 782.706 981.08 783.649 978.357 785.533C975.635 787.418 974.273 790.089 974.273 793.544C974.273 796.686 975.478 799.146 977.886 800.927C980.295 802.602 984.117 803.963 989.352 805.01L997.834 806.424C1007.78 808.309 1014.96 811.136 1019.35 814.906C1023.75 818.676 1025.95 823.911 1025.95 830.613C1025.95 838.467 1022.97 844.593 1017 848.991C1011.03 853.284 1002.7 855.431 992.023 855.431ZM1104.5 841.294H1108.9V853.389C1106.6 853.703 1104.03 853.86 1101.21 853.86C1096.18 853.86 1092.41 852.97 1089.9 851.19C1087.49 849.305 1086.02 846.373 1085.5 842.394C1080.05 850.98 1071.26 855.274 1059.11 855.274C1050.21 855.274 1043.14 853.179 1037.91 848.991C1032.78 844.697 1030.21 838.781 1030.21 831.241C1030.21 816.581 1040.37 808.204 1060.68 806.11L1072.62 804.853C1076.81 804.33 1079.84 803.283 1081.73 801.712C1083.72 800.036 1084.71 797.68 1084.71 794.644C1084.71 790.56 1083.4 787.628 1080.79 785.848C1078.27 783.963 1074.03 783.02 1068.06 783.02C1061.57 783.02 1056.91 784.12 1054.08 786.319C1051.26 788.413 1049.63 792.183 1049.22 797.628H1033.67C1034.82 779.512 1046.28 770.454 1068.06 770.454C1089.43 770.454 1100.11 778.413 1100.11 794.329V837.21C1100.11 839.933 1101.57 841.294 1104.5 841.294ZM1061.47 843.022C1068.17 843.022 1073.72 841.137 1078.12 837.367C1082.51 833.598 1084.71 828.257 1084.71 821.346V812.864C1082.72 814.539 1079.37 815.639 1074.66 816.163L1063.35 817.419C1057.28 818.152 1052.93 819.618 1050.31 821.817C1047.7 823.911 1046.39 826.896 1046.39 830.77C1046.39 834.645 1047.64 837.681 1050.16 839.88C1052.78 841.975 1056.55 843.022 1061.47 843.022ZM1167.35 818.047V772.339H1183.06V853.389H1167.98V841.294C1161.8 850.614 1153.32 855.274 1142.53 855.274C1133.63 855.274 1126.67 852.76 1121.64 847.734C1116.62 842.708 1114.1 835.692 1114.1 826.686V772.339H1129.81V824.487C1129.81 835.797 1135.52 841.451 1146.93 841.451C1152.69 841.451 1157.51 839.409 1161.38 835.325C1165.36 831.137 1167.35 825.377 1167.35 818.047ZM1255.27 783.334V741.553H1270.98V853.389H1255.9V841.451C1249.83 850.666 1240.88 855.274 1229.04 855.274C1217.73 855.274 1208.73 851.451 1202.03 843.807C1195.32 836.163 1191.97 825.849 1191.97 812.864C1191.97 799.879 1195.32 789.565 1202.03 781.921C1208.73 774.277 1217.73 770.454 1229.04 770.454C1240.46 770.454 1249.2 774.748 1255.27 783.334ZM1208.31 813.492C1208.31 822.498 1210.46 829.461 1214.75 834.383C1219.04 839.305 1224.8 841.765 1232.03 841.765C1239.46 841.765 1245.27 839.2 1249.46 834.069C1253.65 829.147 1255.74 822.079 1255.74 812.864C1255.74 803.754 1253.65 796.633 1249.46 791.502C1245.27 786.476 1239.46 783.963 1232.03 783.963C1224.8 783.963 1219.04 786.581 1214.75 791.816C1210.46 797.052 1208.31 804.277 1208.31 813.492ZM1324.35 738.255H1343.99L1324.2 760.873H1310.69L1324.35 738.255ZM1353.41 841.294H1357.81V853.389C1355.51 853.703 1352.94 853.86 1350.11 853.86C1345.09 853.86 1341.32 852.97 1338.8 851.19C1336.4 849.305 1334.93 846.373 1334.41 842.394C1328.96 850.98 1320.16 855.274 1308.02 855.274C1299.12 855.274 1292.05 853.179 1286.81 848.991C1281.68 844.697 1279.12 838.781 1279.12 831.241C1279.12 816.581 1289.27 808.204 1309.59 806.11L1321.53 804.853C1325.71 804.33 1328.75 803.283 1330.64 801.712C1332.63 800.036 1333.62 797.68 1333.62 794.644C1333.62 790.56 1332.31 787.628 1329.69 785.848C1327.18 783.963 1322.94 783.02 1316.97 783.02C1310.48 783.02 1305.82 784.12 1302.99 786.319C1300.16 788.413 1298.54 792.183 1298.12 797.628H1282.57C1283.72 779.512 1295.19 770.454 1316.97 770.454C1338.33 770.454 1349.01 778.413 1349.01 794.329V837.21C1349.01 839.933 1350.48 841.294 1353.41 841.294ZM1310.37 843.022C1317.08 843.022 1322.63 841.137 1327.02 837.367C1331.42 833.598 1333.62 828.257 1333.62 821.346V812.864C1331.63 814.539 1328.28 815.639 1323.57 816.163L1312.26 817.419C1306.19 818.152 1301.84 819.618 1299.22 821.817C1296.6 823.911 1295.29 826.896 1295.29 830.77C1295.29 834.645 1296.55 837.681 1299.06 839.88C1301.68 841.975 1305.45 843.022 1310.37 843.022ZM1403 802.026L1413.84 772.339H1430.49L1399.39 853.389H1381.95L1351.01 772.339H1367.97L1378.97 802.026C1386.4 824.121 1390.38 836.163 1390.9 838.153C1391.22 837.106 1391.9 835.011 1392.95 831.87C1393.99 828.728 1395.46 824.435 1397.34 818.99C1399.23 813.44 1401.11 807.785 1403 802.026ZM1503.58 813.492V818.047H1442.48C1443.21 826.006 1445.57 832.027 1449.55 836.111C1453.53 840.09 1458.92 842.079 1465.73 842.079C1475.99 842.079 1482.69 837.577 1485.83 828.571H1501.7C1499.5 836.844 1495.2 843.388 1488.82 848.205C1482.53 852.917 1474.73 855.274 1465.41 855.274C1453.79 855.274 1444.42 851.399 1437.3 843.65C1430.17 835.901 1426.61 825.639 1426.61 812.864C1426.61 800.089 1430.17 789.827 1437.3 782.078C1444.42 774.329 1453.68 770.454 1465.1 770.454C1477.03 770.454 1486.46 774.486 1493.37 782.549C1500.18 790.612 1503.58 800.927 1503.58 813.492ZM1465.1 783.649C1458.92 783.649 1453.84 785.533 1449.86 789.303C1445.99 793.073 1443.58 798.518 1442.64 805.639H1487.4C1486.67 799.042 1484.31 793.754 1480.33 789.774C1476.46 785.691 1471.38 783.649 1465.1 783.649ZM1528.19 853.389H1512.48V741.553H1528.19V853.389Z" fill="url(#paint6_linear_4048_478)"/>
</g>
<defs>
<filter id="filter0_d_4048_478" x="1450.63" y="271.415" width="103.896" height="103.895" filterUnits="userSpaceOnUse" color-interpolation-filters="sRGB">
<feFlood flood-opacity="0" result="BackgroundImageFix"/>
<feColorMatrix in="SourceAlpha" type="matrix" values="0 0 0 0 0 0 0 0 0 0 0 0 0 0 0 0 0 0 127 0" result="hardAlpha"/>
<feOffset/>
<feGaussianBlur stdDeviation="7.9"/>
<feComposite in2="hardAlpha" operator="out"/>
<feColorMatrix type="matrix" values="0 0 0 0 0.0392157 0 0 0 0 0.960784 0 0 0 0 0.443137 0 0 0 0.28 0"/>
<feBlend mode="normal" in2="BackgroundImageFix" result="effect1_dropShadow_4048_478"/>
<feBlend mode="normal" in="SourceGraphic" in2="effect1_dropShadow_4048_478" result="shape"/>
</filter>
<filter id="filter1_f_4048_478" x="-346.853" y="-194.989" width="1852.21" height="1579.59" filterUnits="userSpaceOnUse" color-interpolation-filters="sRGB">
<feFlood flood-opacity="0" result="BackgroundImageFix"/>
<feBlend mode="normal" in="SourceGraphic" in2="BackgroundImageFix" result="shape"/>
<feGaussianBlur stdDeviation="182.387" result="effect1_foregroundBlur_4048_478"/>
</filter>
<filter id="filter2_f_4048_478" x="132.009" y="211.829" width="855.326" height="730.771" filterUnits="userSpaceOnUse" color-interpolation-filters="sRGB">
<feFlood flood-opacity="0" result="BackgroundImageFix"/>
<feBlend mode="normal" in="SourceGraphic" in2="BackgroundImageFix" result="shape"/>
<feGaussianBlur stdDeviation="85.6" result="effect1_foregroundBlur_4048_478"/>
</filter>
<radialGradient id="paint0_radial_4048_478" cx="0" cy="0" r="1" gradientUnits="userSpaceOnUse" gradientTransform="translate(1502.58 323.363) scale(36.1478 96.9095)">
<stop stop-color="#D9F7E6"/>
<stop offset="1" stop-color="#424242"/>
</radialGradient>
<linearGradient id="paint1_linear_4048_478" x1="1513" y1="334" x2="1492.08" y2="311.492" gradientUnits="userSpaceOnUse">
<stop stop-color="#0AF471"/>
<stop offset="1" stop-color="#00454C"/>
</linearGradient>
<linearGradient id="paint2_linear_4048_478" x1="1513" y1="334" x2="1492.08" y2="311.492" gradientUnits="userSpaceOnUse">
<stop stop-color="#0AF471"/>
<stop offset="1" stop-color="#00454C"/>
</linearGradient>
<linearGradient id="paint3_linear_4048_478" x1="326.271" y1="1189.61" x2="809.147" y2="-63.1851" gradientUnits="userSpaceOnUse">
<stop stop-color="#0AF471"/>
<stop offset="1" stop-color="#00454C"/>
</linearGradient>
<linearGradient id="paint4_linear_4048_478" x1="444.09" y1="848.973" x2="664.709" y2="276.588" gradientUnits="userSpaceOnUse">
<stop stop-color="#0AF471"/>
<stop offset="1" stop-color="#00454C"/>
</linearGradient>
<linearGradient id="paint5_linear_4048_478" x1="373.43" y1="572.389" x2="1537.43" y2="572.389" gradientUnits="userSpaceOnUse">
<stop stop-color="white"/>
<stop offset="1" stop-color="#9BF1C1"/>
</linearGradient>
<linearGradient id="paint6_linear_4048_478" x1="373.43" y1="276.389" x2="832.18" y2="1246.63" gradientUnits="userSpaceOnUse">
<stop stop-color="#0AF471"/>
<stop offset="1" stop-color="#00454C"/>
</linearGradient>
<clipPath id="clip0_4048_478">
<rect width="1931" height="1059" fill="white" transform="translate(-15)"/>
</clipPath>
</defs>
</svg>
