<svg width="430" height="563" viewBox="0 0 430 563" fill="none" xmlns="http://www.w3.org/2000/svg">
<g style="mix-blend-mode:screen" opacity="0.5" filter="url(#filter0_f_2264_12899)">
<path d="M72.109 134.021L315.483 357.121C322.992 364.006 320.744 376.37 311.291 380.169L183.09 431.696C178.147 433.683 172.502 432.656 168.574 429.056L-74.7992 205.956C-82.3089 199.072 -80.0603 186.708 -70.6076 182.909L57.593 131.381C62.5365 129.395 68.1816 130.421 72.109 134.021Z" fill="url(#paint0_linear_2264_12899)"/>
</g>
<g style="mix-blend-mode:screen" opacity="0.4" filter="url(#filter1_f_2264_12899)">
<path d="M91.3422 207.886L202.536 309.817C205.967 312.962 204.94 318.611 200.621 320.347L142.048 343.889C139.789 344.797 137.21 344.328 135.416 342.683L24.2219 240.752C20.7908 237.606 21.8181 231.957 26.1369 230.222L84.71 206.68C86.9686 205.772 89.5478 206.241 91.3422 207.886Z" fill="url(#paint1_linear_2264_12899)"/>
</g>
<path d="M59.2803 237.229L68.4624 211.192H75.4433L59.0917 255.971H51.419L34.7528 211.192H41.8595L51.2303 237.229C52.7816 241.59 54.1233 245.698 55.2553 249.556C55.8842 247.459 57.2259 243.351 59.2803 237.229ZM101.974 239.996V241.82H77.5089C77.8024 245.007 78.7458 247.418 80.339 249.053C81.9323 250.646 84.0915 251.443 86.8168 251.443C90.9257 251.443 93.609 249.64 94.8669 246.034H101.219C100.338 249.346 98.6194 251.967 96.0618 253.895C93.5461 255.782 90.4226 256.725 86.691 256.725C82.0371 256.725 78.2846 255.174 75.4335 252.071C72.5825 248.969 71.1569 244.86 71.1569 239.745C71.1569 234.63 72.5825 230.521 75.4335 227.418C78.2846 224.316 81.9952 222.764 86.5652 222.764C91.345 222.764 95.1184 224.378 97.8856 227.607C100.611 230.835 101.974 234.965 101.974 239.996ZM86.5652 228.047C84.0915 228.047 82.058 228.802 80.4648 230.311C78.9135 231.821 77.9492 234.001 77.5718 236.852H95.4958C95.2023 234.21 94.2589 232.093 92.6657 230.5C91.1144 228.865 89.0809 228.047 86.5652 228.047ZM121.765 222.764C125.328 222.764 128.117 223.77 130.129 225.783C132.142 227.754 133.148 230.563 133.148 234.21V255.971H126.859V235.091C126.859 230.563 124.574 228.299 120.004 228.299C117.907 228.299 116.021 229.095 114.343 230.689C112.666 232.324 111.828 234.651 111.828 237.669V255.971H105.539V223.519H111.576V228.362C114.05 224.63 117.446 222.764 121.765 222.764ZM162.062 227.921V211.192H168.352V255.971H162.314V251.191C159.882 254.881 156.297 256.725 151.56 256.725C147.032 256.725 143.426 255.195 140.742 252.134C138.059 249.074 136.717 244.944 136.717 239.745C136.717 234.546 138.059 230.416 140.742 227.355C143.426 224.295 147.032 222.764 151.56 222.764C156.13 222.764 159.631 224.483 162.062 227.921ZM143.258 239.996C143.258 243.602 144.118 246.39 145.837 248.361C147.556 250.331 149.862 251.317 152.755 251.317C155.731 251.317 158.058 250.29 159.736 248.235C161.413 246.265 162.251 243.434 162.251 239.745C162.251 236.097 161.413 233.246 159.736 231.192C158.058 229.179 155.731 228.173 152.755 228.173C149.862 228.173 147.556 229.221 145.837 231.317C144.118 233.414 143.258 236.307 143.258 239.996ZM201.357 251.128H203.118V255.971C202.195 256.096 201.168 256.159 200.036 256.159C198.023 256.159 196.514 255.803 195.508 255.09C194.543 254.336 193.956 253.162 193.747 251.568C191.567 255.006 188.045 256.725 183.181 256.725C179.617 256.725 176.787 255.887 174.691 254.21C172.636 252.491 171.609 250.122 171.609 247.103C171.609 241.233 175.676 237.879 183.81 237.04L188.59 236.537C190.267 236.328 191.483 235.908 192.237 235.28C193.034 234.609 193.432 233.665 193.432 232.449C193.432 230.814 192.908 229.64 191.86 228.928C190.854 228.173 189.156 227.796 186.766 227.796C184.166 227.796 182.301 228.236 181.169 229.116C180.037 229.955 179.387 231.464 179.219 233.644H172.993C173.454 226.391 178.045 222.764 186.766 222.764C195.319 222.764 199.596 225.951 199.596 232.324V249.493C199.596 250.583 200.183 251.128 201.357 251.128ZM184.124 251.82C186.808 251.82 189.03 251.065 190.791 249.556C192.552 248.046 193.432 245.908 193.432 243.141V239.745C192.636 240.416 191.294 240.856 189.407 241.066L184.879 241.569C182.447 241.862 180.707 242.449 179.659 243.33C178.611 244.168 178.087 245.363 178.087 246.914C178.087 248.466 178.59 249.682 179.596 250.562C180.645 251.401 182.154 251.82 184.124 251.82ZM231.874 216.286H229.043C226.234 216.286 224.83 217.712 224.83 220.563V223.519H231.622V228.676H224.83V255.971H218.541V228.676H213.321V223.519H218.541V220.563C218.541 214.19 221.79 211.004 228.289 211.004C228.918 211.004 230.113 211.066 231.874 211.192V216.286ZM248.848 209.872H256.709L248.785 218.928H243.376L248.848 209.872ZM260.483 251.128H262.244V255.971C261.321 256.096 260.294 256.159 259.162 256.159C257.149 256.159 255.64 255.803 254.634 255.09C253.669 254.336 253.082 253.162 252.873 251.568C250.693 255.006 247.171 256.725 242.307 256.725C238.743 256.725 235.913 255.887 233.817 254.21C231.762 252.491 230.735 250.122 230.735 247.103C230.735 241.233 234.802 237.879 242.936 237.04L247.716 236.537C249.393 236.328 250.609 235.908 251.363 235.28C252.16 234.609 252.558 233.665 252.558 232.449C252.558 230.814 252.034 229.64 250.986 228.928C249.98 228.173 248.282 227.796 245.892 227.796C243.292 227.796 241.427 228.236 240.295 229.116C239.163 229.955 238.513 231.464 238.345 233.644H232.119C232.58 226.391 237.171 222.764 245.892 222.764C254.445 222.764 258.722 225.951 258.722 232.324V249.493C258.722 250.583 259.309 251.128 260.483 251.128ZM243.25 251.82C245.934 251.82 248.156 251.065 249.917 249.556C251.678 248.046 252.558 245.908 252.558 243.141V239.745C251.762 240.416 250.42 240.856 248.533 241.066L244.005 241.569C241.573 241.862 239.833 242.449 238.785 243.33C237.737 244.168 237.213 245.363 237.213 246.914C237.213 248.466 237.716 249.682 238.722 250.562C239.77 251.401 241.28 251.82 243.25 251.82ZM278.042 256.725C273.43 256.725 269.698 255.174 266.847 252.071C263.996 248.969 262.571 244.86 262.571 239.745C262.571 234.588 263.996 230.458 266.847 227.355C269.656 224.295 273.388 222.764 278.042 222.764C282.025 222.764 285.295 223.854 287.853 226.035C290.452 228.215 292.004 231.15 292.507 234.839H286.092C285.673 232.701 284.729 231.066 283.262 229.934C281.836 228.802 280.096 228.236 278.042 228.236C275.317 228.236 273.136 229.242 271.501 231.255C269.908 233.225 269.111 236.055 269.111 239.745C269.111 243.434 269.908 246.285 271.501 248.298C273.136 250.269 275.317 251.254 278.042 251.254C280.138 251.254 281.92 250.667 283.388 249.493C284.855 248.319 285.778 246.621 286.155 244.399H292.57C292.067 248.172 290.494 251.17 287.853 253.392C285.212 255.614 281.941 256.725 278.042 256.725ZM301.83 218.928H295.416V212.199H301.83V218.928ZM301.768 255.971H295.479V223.519H301.768V255.971ZM313.083 255.971H306.793V211.192H313.083V255.971ZM344.909 230.814H356.23V236.349H344.909V247.606H338.935V236.349H327.614V230.814H338.935V219.494H344.909V230.814ZM44.6896 314.971H37.9603V270.192H44.6896V314.971ZM89.2067 314.971H82.1L77.6976 303.336H57.5725L53.233 314.971H46.2521L63.7358 270.192H71.4714L89.2067 314.971ZM60.6541 295.034L59.7108 297.487H75.4964L74.553 295.034C72.3309 289.5 70.0039 283.378 67.5721 276.67C64.6792 284.385 62.3731 290.506 60.6541 295.034ZM142.299 314.971H135.193L130.79 303.336H110.665L106.326 314.971H99.3449L116.829 270.192H124.564L142.299 314.971ZM113.747 295.034L112.804 297.487H128.589L127.646 295.034C125.424 289.5 123.097 283.378 120.665 276.67C117.772 284.385 115.466 290.506 113.747 295.034ZM160.302 281.764C163.865 281.764 166.654 282.77 168.666 284.783C170.679 286.754 171.685 289.563 171.685 293.21V314.971H165.396V294.091C165.396 289.563 163.111 287.299 158.541 287.299C156.444 287.299 154.557 288.095 152.88 289.689C151.203 291.324 150.365 293.651 150.365 296.669V314.971H144.076V282.519H150.113V287.362C152.587 283.63 155.983 281.764 160.302 281.764ZM191.005 282.519V287.676H184.464V307.172C184.464 308.137 184.737 308.849 185.282 309.311C185.869 309.73 186.833 309.939 188.175 309.939H191.005V314.971C189.622 315.096 188.343 315.159 187.169 315.159C184.108 315.159 181.844 314.572 180.377 313.398C178.909 312.224 178.175 310.338 178.175 307.738V287.676H172.955V282.519H178.175V273.211H184.464V282.519H191.005ZM200.388 277.928H193.973V271.199H200.388V277.928ZM200.325 314.971H194.036V282.519H200.325V314.971ZM246.932 270.192V276.23H223.159V288.871H244.605V294.783H223.159V314.971H216.429V270.192H246.932ZM276.418 310.128H278.179V314.971C277.257 315.096 276.229 315.159 275.097 315.159C273.085 315.159 271.575 314.803 270.569 314.09C269.605 313.336 269.018 312.162 268.808 310.568C266.628 314.006 263.106 315.725 258.243 315.725C254.679 315.725 251.849 314.887 249.752 313.21C247.698 311.491 246.671 309.122 246.671 306.103C246.671 300.233 250.738 296.879 258.871 296.04L263.651 295.537C265.328 295.328 266.544 294.908 267.299 294.28C268.095 293.609 268.494 292.665 268.494 291.449C268.494 289.814 267.97 288.64 266.922 287.928C265.915 287.173 264.217 286.796 261.827 286.796C259.228 286.796 257.362 287.236 256.23 288.116C255.098 288.955 254.448 290.464 254.28 292.644H248.054C248.515 285.391 253.106 281.764 261.827 281.764C270.381 281.764 274.657 284.951 274.657 291.324V308.493C274.657 309.583 275.244 310.128 276.418 310.128ZM259.186 310.82C261.869 310.82 264.091 310.065 265.852 308.556C267.613 307.046 268.494 304.908 268.494 302.141V298.745C267.697 299.416 266.356 299.856 264.469 300.066L259.941 300.569C257.509 300.862 255.769 301.449 254.721 302.33C253.672 303.168 253.148 304.363 253.148 305.914C253.148 307.466 253.652 308.682 254.658 309.562C255.706 310.401 257.215 310.82 259.186 310.82ZM286.366 314.971H280.077V270.192H286.366V314.971ZM307.618 281.764C311.182 281.764 313.97 282.77 315.982 284.783C317.995 286.754 319.001 289.563 319.001 293.21V314.971H312.712V294.091C312.712 289.563 310.427 287.299 305.857 287.299C303.761 287.299 301.874 288.095 300.197 289.689C298.52 291.324 297.681 293.651 297.681 296.669V314.971H291.392V270.192H297.681V286.984C300.155 283.504 303.467 281.764 307.618 281.764ZM352.004 310.128H353.765V314.971C352.842 315.096 351.815 315.159 350.683 315.159C348.671 315.159 347.161 314.803 346.155 314.09C345.191 313.336 344.604 312.162 344.394 310.568C342.214 314.006 338.692 315.725 333.828 315.725C330.264 315.725 327.434 314.887 325.338 313.21C323.284 311.491 322.256 309.122 322.256 306.103C322.256 300.233 326.323 296.879 334.457 296.04L339.237 295.537C340.914 295.328 342.13 294.908 342.885 294.28C343.681 293.609 344.08 292.665 344.08 291.449C344.08 289.814 343.555 288.64 342.507 287.928C341.501 287.173 339.803 286.796 337.413 286.796C334.814 286.796 332.948 287.236 331.816 288.116C330.684 288.955 330.034 290.464 329.866 292.644H323.64C324.101 285.391 328.692 281.764 337.413 281.764C345.966 281.764 350.243 284.951 350.243 291.324V308.493C350.243 309.583 350.83 310.128 352.004 310.128ZM334.772 310.82C337.455 310.82 339.677 310.065 341.438 308.556C343.199 307.046 344.08 304.908 344.08 302.141V298.745C343.283 299.416 341.941 299.856 340.054 300.066L335.526 300.569C333.095 300.862 331.355 301.449 330.306 302.33C329.258 303.168 328.734 304.363 328.734 305.914C328.734 307.466 329.237 308.682 330.243 309.562C331.292 310.401 332.801 310.82 334.772 310.82ZM368.043 315.788C359.029 315.788 354.291 312.078 353.83 304.657H360.119C360.371 306.921 361.104 308.514 362.32 309.436C363.536 310.359 365.465 310.82 368.106 310.82C372.886 310.82 375.276 309.311 375.276 306.292C375.276 304.992 374.773 303.986 373.767 303.273C372.76 302.56 370.957 301.973 368.358 301.512L365.025 300.883C358.149 299.625 354.711 296.397 354.711 291.198C354.711 288.305 355.822 286.02 358.044 284.343C360.266 282.624 363.327 281.764 367.226 281.764C376.156 281.764 380.726 285.391 380.936 292.644H374.836C374.71 290.464 374.039 288.934 372.823 288.053C371.607 287.131 369.742 286.67 367.226 286.67C365.213 286.67 363.662 287.047 362.572 287.802C361.482 288.556 360.937 289.626 360.937 291.009C360.937 292.267 361.419 293.252 362.383 293.965C363.348 294.636 364.878 295.181 366.974 295.6L370.37 296.166C374.354 296.921 377.226 298.053 378.987 299.562C380.747 301.072 381.628 303.168 381.628 305.852C381.628 308.996 380.433 311.449 378.043 313.21C375.653 314.929 372.32 315.788 368.043 315.788ZM53.683 348.814H65.0034V354.349H53.683V365.606H47.7084V354.349H36.388V348.814H47.7084V337.494H53.683V348.814ZM111.885 329.192V335.23H86.666V347.871H109.495V353.783H86.666V367.933H111.697V373.971H79.9366V329.192H111.885ZM127.269 374.788C118.255 374.788 113.517 371.078 113.056 363.657H119.345C119.596 365.921 120.33 367.514 121.546 368.436C122.762 369.359 124.69 369.82 127.332 369.82C132.112 369.82 134.501 368.311 134.501 365.292C134.501 363.992 133.998 362.986 132.992 362.273C131.986 361.56 130.183 360.973 127.583 360.512L124.25 359.883C117.374 358.625 113.936 355.397 113.936 350.198C113.936 347.305 115.047 345.02 117.269 343.343C119.491 341.624 122.552 340.764 126.451 340.764C135.382 340.764 139.952 344.391 140.162 351.644H134.061C133.935 349.464 133.265 347.934 132.049 347.053C130.833 346.131 128.967 345.67 126.451 345.67C124.439 345.67 122.888 346.047 121.797 346.802C120.707 347.556 120.162 348.626 120.162 350.009C120.162 351.267 120.644 352.252 121.609 352.965C122.573 353.636 124.103 354.181 126.2 354.6L129.596 355.166C133.579 355.921 136.451 357.053 138.212 358.562C139.973 360.072 140.853 362.168 140.853 364.852C140.853 367.996 139.659 370.449 137.269 372.21C134.879 373.929 131.546 374.788 127.269 374.788ZM158.378 341.519V346.676H151.838V366.172C151.838 367.137 152.11 367.849 152.655 368.311C153.242 368.73 154.207 368.939 155.548 368.939H158.378V373.971C156.995 374.096 155.716 374.159 154.542 374.159C151.481 374.159 149.217 373.572 147.75 372.398C146.282 371.224 145.549 369.338 145.549 366.738V346.676H140.329V341.519H145.549V332.211H151.838V341.519H158.378ZM189.087 369.128H190.848V373.971C189.926 374.096 188.899 374.159 187.767 374.159C185.754 374.159 184.245 373.803 183.239 373.09C182.274 372.336 181.687 371.162 181.478 369.568C179.297 373.006 175.776 374.725 170.912 374.725C167.348 374.725 164.518 373.887 162.422 372.21C160.367 370.491 159.34 368.122 159.34 365.103C159.34 359.233 163.407 355.879 171.541 355.04L176.321 354.537C177.998 354.328 179.214 353.908 179.968 353.28C180.765 352.609 181.163 351.665 181.163 350.449C181.163 348.814 180.639 347.64 179.591 346.928C178.585 346.173 176.887 345.796 174.497 345.796C171.897 345.796 170.031 346.236 168.899 347.116C167.767 347.955 167.118 349.464 166.95 351.644H160.724C161.185 344.391 165.776 340.764 174.497 340.764C183.05 340.764 187.327 343.951 187.327 350.324V367.493C187.327 368.583 187.914 369.128 189.087 369.128ZM171.855 369.82C174.539 369.82 176.761 369.065 178.522 367.556C180.283 366.046 181.163 363.908 181.163 361.141V357.745C180.367 358.416 179.025 358.856 177.138 359.066L172.61 359.569C170.178 359.862 168.438 360.449 167.39 361.33C166.342 362.168 165.818 363.363 165.818 364.914C165.818 366.466 166.321 367.682 167.327 368.562C168.375 369.401 169.885 369.82 171.855 369.82ZM209.601 340.764C214.129 340.764 217.735 342.295 220.419 345.355C223.102 348.416 224.444 352.546 224.444 357.745C224.444 362.902 223.102 367.011 220.419 370.071C217.693 373.174 214.087 374.725 209.601 374.725C204.822 374.725 201.216 372.839 198.784 369.065V373.971H192.746V329.192H199.036V346.047C201.467 342.525 204.989 340.764 209.601 340.764ZM201.488 366.235C203.165 368.29 205.471 369.317 208.406 369.317C211.341 369.317 213.668 368.269 215.387 366.172C217.064 364.118 217.903 361.225 217.903 357.493C217.903 353.887 217.064 351.099 215.387 349.129C213.71 347.158 211.383 346.173 208.406 346.173C205.513 346.173 203.207 347.179 201.488 349.192C199.769 351.288 198.91 354.139 198.91 357.745C198.91 361.351 199.769 364.181 201.488 366.235ZM234.305 336.928H227.89V330.199H234.305V336.928ZM234.242 373.971H227.953V341.519H234.242V373.971ZM245.557 373.971H239.268V329.192H245.557V373.971ZM256.935 336.928H250.52V330.199H256.935V336.928ZM256.872 373.971H250.583V341.519H256.872V373.971ZM285.733 345.921V329.192H292.022V373.971H285.985V369.191C283.553 372.881 279.968 374.725 275.231 374.725C270.702 374.725 267.097 373.195 264.413 370.134C261.73 367.074 260.388 362.944 260.388 357.745C260.388 352.546 261.73 348.416 264.413 345.355C267.097 342.295 270.702 340.764 275.231 340.764C279.801 340.764 283.302 342.483 285.733 345.921ZM266.929 357.996C266.929 361.602 267.788 364.39 269.507 366.361C271.226 368.331 273.532 369.317 276.425 369.317C279.402 369.317 281.729 368.29 283.406 366.235C285.083 364.265 285.922 361.434 285.922 357.745C285.922 354.097 285.083 351.246 283.406 349.192C281.729 347.179 279.402 346.173 276.425 346.173C273.532 346.173 271.226 347.221 269.507 349.317C267.788 351.414 266.929 354.307 266.929 357.996ZM325.027 369.128H326.788V373.971C325.866 374.096 324.839 374.159 323.707 374.159C321.694 374.159 320.185 373.803 319.179 373.09C318.214 372.336 317.627 371.162 317.418 369.568C315.237 373.006 311.716 374.725 306.852 374.725C303.288 374.725 300.458 373.887 298.362 372.21C296.307 370.491 295.28 368.122 295.28 365.103C295.28 359.233 299.347 355.879 307.481 355.04L312.261 354.537C313.938 354.328 315.154 353.908 315.908 353.28C316.705 352.609 317.103 351.665 317.103 350.449C317.103 348.814 316.579 347.64 315.531 346.928C314.525 346.173 312.827 345.796 310.437 345.796C307.837 345.796 305.971 346.236 304.839 347.116C303.707 347.955 303.058 349.464 302.89 351.644H296.664C297.125 344.391 301.716 340.764 310.437 340.764C318.99 340.764 323.267 343.951 323.267 350.324V367.493C323.267 368.583 323.853 369.128 325.027 369.128ZM307.795 369.82C310.479 369.82 312.701 369.065 314.462 367.556C316.223 366.046 317.103 363.908 317.103 361.141V357.745C316.307 358.416 314.965 358.856 313.078 359.066L308.55 359.569C306.118 359.862 304.378 360.449 303.33 361.33C302.282 362.168 301.758 363.363 301.758 364.914C301.758 366.466 302.261 367.682 303.267 368.562C304.315 369.401 305.825 369.82 307.795 369.82ZM352.461 345.921V329.192H358.75V373.971H352.712V369.191C350.281 372.881 346.696 374.725 341.958 374.725C337.43 374.725 333.824 373.195 331.141 370.134C328.457 367.074 327.116 362.944 327.116 357.745C327.116 352.546 328.457 348.416 331.141 345.355C333.824 342.295 337.43 340.764 341.958 340.764C346.528 340.764 350.029 342.483 352.461 345.921ZM333.656 357.996C333.656 361.602 334.516 364.39 336.235 366.361C337.954 368.331 340.26 369.317 343.153 369.317C346.13 369.317 348.457 368.29 350.134 366.235C351.811 364.265 352.649 361.434 352.649 357.745C352.649 354.097 351.811 351.246 350.134 349.192C348.457 347.179 346.13 346.173 343.153 346.173C340.26 346.173 337.954 347.221 336.235 349.317C334.516 351.414 333.656 354.307 333.656 357.996ZM393.138 357.996V359.82H368.674C368.967 363.007 369.911 365.418 371.504 367.053C373.097 368.646 375.256 369.443 377.982 369.443C382.091 369.443 384.774 367.64 386.032 364.034H392.384C391.503 367.346 389.784 369.967 387.227 371.895C384.711 373.782 381.587 374.725 377.856 374.725C373.202 374.725 369.449 373.174 366.598 370.071C363.747 366.969 362.322 362.86 362.322 357.745C362.322 352.63 363.747 348.521 366.598 345.418C369.449 342.316 373.16 340.764 377.73 340.764C382.51 340.764 386.283 342.378 389.051 345.607C391.776 348.835 393.138 352.965 393.138 357.996ZM377.73 346.047C375.256 346.047 373.223 346.802 371.63 348.311C370.078 349.821 369.114 352.001 368.737 354.852H386.661C386.367 352.21 385.424 350.093 383.831 348.5C382.279 346.865 380.246 346.047 377.73 346.047ZM65.0034 407.689H36.388V402.28H65.0034V407.689ZM65.0034 418.883H36.388V413.474H65.0034V418.883Z" fill="url(#paint2_linear_2264_12899)"/>
<path d="M109.999 401.777V388.192H116.476V432.971H108.741L94.9676 411.273C90.9426 404.984 88.0286 400.184 86.2257 396.871C86.3934 401.861 86.4773 409.366 86.4773 419.386V432.971H79.9366V388.192H87.6722L101.508 409.89C105.24 415.801 108.154 420.623 110.25 424.355C110.082 419.323 109.999 411.797 109.999 401.777ZM151.197 416.996V418.82H126.732C127.026 422.007 127.969 424.418 129.563 426.053C131.156 427.646 133.315 428.443 136.04 428.443C140.149 428.443 142.833 426.64 144.09 423.034H150.442C149.562 426.346 147.843 428.967 145.285 430.895C142.77 432.782 139.646 433.725 135.915 433.725C131.261 433.725 127.508 432.174 124.657 429.071C121.806 425.969 120.38 421.86 120.38 416.745C120.38 411.63 121.806 407.521 124.657 404.418C127.508 401.316 131.219 399.764 135.789 399.764C140.568 399.764 144.342 401.378 147.109 404.607C149.834 407.835 151.197 411.965 151.197 416.996ZM135.789 405.047C133.315 405.047 131.282 405.802 129.688 407.311C128.137 408.821 127.173 411.001 126.795 413.852H144.719C144.426 411.21 143.482 409.093 141.889 407.5C140.338 405.865 138.304 405.047 135.789 405.047ZM178.849 405.11V400.519H184.887V431.776C184.887 436.22 183.545 439.7 180.862 442.216C178.179 444.773 174.363 446.052 169.416 446.052C165.181 446.052 161.806 445.088 159.29 443.159C156.817 441.23 155.412 438.589 155.077 435.235H161.366C161.869 439.05 164.573 440.958 169.479 440.958C175.558 440.958 178.598 437.939 178.598 431.902V428.317C176.124 431.671 172.644 433.348 168.158 433.348C163.63 433.348 160.024 431.818 157.341 428.757C154.615 425.654 153.253 421.587 153.253 416.556C153.253 411.525 154.615 407.458 157.341 404.355C160.024 401.295 163.609 399.764 168.095 399.764C172.833 399.764 176.418 401.546 178.849 405.11ZM169.29 427.939C172.225 427.939 174.531 426.933 176.208 424.921C177.927 422.866 178.787 420.078 178.787 416.556C178.787 413.034 177.927 410.267 176.208 408.255C174.531 406.2 172.225 405.173 169.29 405.173C166.397 405.173 164.091 406.2 162.372 408.255C160.653 410.309 159.794 413.076 159.794 416.556C159.794 420.078 160.653 422.866 162.372 424.921C164.091 426.933 166.397 427.939 169.29 427.939ZM207.452 395.928H202.044L207.515 386.872H215.376L207.452 395.928ZM216.194 429.071C213.217 432.174 209.339 433.725 204.559 433.725C199.779 433.725 195.901 432.174 192.924 429.071C189.947 425.969 188.459 421.86 188.459 416.745C188.459 411.588 189.947 407.458 192.924 404.355C195.859 401.295 199.738 399.764 204.559 399.764C209.381 399.764 213.259 401.295 216.194 404.355C219.129 407.416 220.596 411.546 220.596 416.745C220.596 421.902 219.129 426.011 216.194 429.071ZM197.578 425.235C199.297 427.29 201.624 428.317 204.559 428.317C207.494 428.317 209.8 427.29 211.477 425.235C213.196 423.181 214.056 420.351 214.056 416.745C214.056 413.139 213.196 410.309 211.477 408.255C209.8 406.2 207.494 405.173 204.559 405.173C201.624 405.173 199.297 406.2 197.578 408.255C195.859 410.309 195 413.139 195 416.745C195 420.351 195.859 423.181 197.578 425.235ZM238.092 433.725C233.48 433.725 229.749 432.174 226.898 429.071C224.047 425.969 222.621 421.86 222.621 416.745C222.621 411.588 224.047 407.458 226.898 404.355C229.707 401.295 233.438 399.764 238.092 399.764C242.075 399.764 245.346 400.854 247.903 403.035C250.503 405.215 252.054 408.15 252.557 411.839H246.142C245.723 409.701 244.78 408.066 243.312 406.934C241.887 405.802 240.147 405.236 238.092 405.236C235.367 405.236 233.187 406.242 231.552 408.255C229.958 410.225 229.162 413.055 229.162 416.745C229.162 420.434 229.958 423.285 231.552 425.298C233.187 427.269 235.367 428.254 238.092 428.254C240.189 428.254 241.971 427.667 243.438 426.493C244.906 425.319 245.828 423.621 246.205 421.399H252.62C252.117 425.172 250.545 428.17 247.903 430.392C245.262 432.614 241.992 433.725 238.092 433.725ZM261.881 395.928H255.466V389.199H261.881V395.928ZM261.818 432.971H255.529V400.519H261.818V432.971ZM293.069 429.071C290.093 432.174 286.214 433.725 281.435 433.725C276.655 433.725 272.777 432.174 269.8 429.071C266.823 425.969 265.335 421.86 265.335 416.745C265.335 411.588 266.823 407.458 269.8 404.355C272.735 401.295 276.613 399.764 281.435 399.764C286.256 399.764 290.135 401.295 293.069 404.355C296.004 407.416 297.472 411.546 297.472 416.745C297.472 421.902 296.004 426.011 293.069 429.071ZM274.454 425.235C276.173 427.29 278.5 428.317 281.435 428.317C284.37 428.317 286.676 427.29 288.353 425.235C290.072 423.181 290.931 420.351 290.931 416.745C290.931 413.139 290.072 410.309 288.353 408.255C286.676 406.2 284.37 405.173 281.435 405.173C278.5 405.173 276.173 406.2 274.454 408.255C272.735 410.309 271.875 413.139 271.875 416.745C271.875 420.351 272.735 423.181 274.454 425.235ZM49.5951 492.788C40.5807 492.788 35.8429 489.078 35.3817 481.657H41.6709C41.9224 483.921 42.6561 485.514 43.872 486.436C45.0879 487.359 47.0166 487.82 49.658 487.82C54.4377 487.82 56.8276 486.311 56.8276 483.292C56.8276 481.992 56.3245 480.986 55.3182 480.273C54.312 479.56 52.5091 478.973 49.9096 478.512L46.5764 477.883C39.7003 476.625 36.2622 473.397 36.2622 468.198C36.2622 465.305 37.3733 463.02 39.5954 461.343C41.8176 459.624 44.8783 458.764 48.7775 458.764C57.7081 458.764 62.2782 462.391 62.4878 469.644H56.3874C56.2616 467.464 55.5907 465.934 54.3748 465.053C53.159 464.131 51.2932 463.67 48.7775 463.67C46.765 463.67 45.2137 464.047 44.1236 464.802C43.0335 465.556 42.4884 466.626 42.4884 468.009C42.4884 469.267 42.9706 470.252 43.9349 470.965C44.8993 471.636 46.4296 472.181 48.526 472.6L51.9221 473.166C55.9052 473.921 58.7772 475.053 60.5382 476.562C62.2991 478.072 63.1796 480.168 63.1796 482.852C63.1796 485.996 61.9847 488.449 59.5948 490.21C57.2049 491.929 53.8717 492.788 49.5951 492.788ZM94.6325 487.128H96.3934V491.971C95.471 492.096 94.4438 492.159 93.3118 492.159C91.2993 492.159 89.7899 491.803 88.7836 491.09C87.8193 490.336 87.2323 489.162 87.0227 487.568C84.8424 491.006 81.3205 492.725 76.457 492.725C72.8931 492.725 70.063 491.887 67.9667 490.21C65.9122 488.491 64.885 486.122 64.885 483.103C64.885 477.233 68.952 473.879 77.0859 473.04L81.8656 472.537C83.5427 472.328 84.7586 471.908 85.5133 471.28C86.3099 470.609 86.7082 469.665 86.7082 468.449C86.7082 466.814 86.1841 465.64 85.1359 464.928C84.1297 464.173 82.4316 463.796 80.0418 463.796C77.4423 463.796 75.5765 464.236 74.4445 465.116C73.3124 465.955 72.6625 467.464 72.4948 469.644H66.2686C66.7298 462.391 71.3209 458.764 80.0418 458.764C88.5949 458.764 92.8715 461.951 92.8715 468.324V485.493C92.8715 486.583 93.4585 487.128 94.6325 487.128ZM77.4003 487.82C80.0837 487.82 82.3058 487.065 84.0668 485.556C85.8277 484.046 86.7082 481.908 86.7082 479.141V475.745C85.9116 476.416 84.5699 476.856 82.6832 477.066L78.155 477.569C75.7232 477.862 73.9833 478.449 72.9351 479.33C71.8869 480.168 71.3628 481.363 71.3628 482.914C71.3628 484.466 71.8659 485.682 72.8722 486.562C73.9204 487.401 75.4298 487.82 77.4003 487.82ZM119.796 477.82V459.519H126.085V491.971H120.047V487.128C117.574 490.86 114.178 492.725 109.859 492.725C106.295 492.725 103.507 491.719 101.494 489.707C99.482 487.694 98.4757 484.885 98.4757 481.279V459.519H104.765V480.399C104.765 484.927 107.05 487.191 111.62 487.191C113.926 487.191 115.855 486.373 117.406 484.738C118.999 483.061 119.796 480.755 119.796 477.82ZM155 463.921V447.192H161.289V491.971H155.251V487.191C152.819 490.881 149.235 492.725 144.497 492.725C139.969 492.725 136.363 491.195 133.679 488.134C130.996 485.074 129.654 480.944 129.654 475.745C129.654 470.546 130.996 466.416 133.679 463.355C136.363 460.295 139.969 458.764 144.497 458.764C149.067 458.764 152.568 460.483 155 463.921ZM136.195 475.996C136.195 479.602 137.055 482.39 138.774 484.361C140.493 486.331 142.799 487.317 145.692 487.317C148.669 487.317 150.995 486.29 152.673 484.235C154.35 482.265 155.188 479.434 155.188 475.745C155.188 472.097 154.35 469.246 152.673 467.192C150.995 465.179 148.669 464.173 145.692 464.173C142.799 464.173 140.493 465.221 138.774 467.317C137.055 469.414 136.195 472.307 136.195 475.996ZM182.659 445.872H190.52L182.596 454.928H177.187L182.659 445.872ZM194.294 487.128H196.055V491.971C195.132 492.096 194.105 492.159 192.973 492.159C190.96 492.159 189.451 491.803 188.445 491.09C187.48 490.336 186.893 489.162 186.684 487.568C184.504 491.006 180.982 492.725 176.118 492.725C172.554 492.725 169.724 491.887 167.628 490.21C165.573 488.491 164.546 486.122 164.546 483.103C164.546 477.233 168.613 473.879 176.747 473.04L181.527 472.537C183.204 472.328 184.42 471.908 185.174 471.28C185.971 470.609 186.369 469.665 186.369 468.449C186.369 466.814 185.845 465.64 184.797 464.928C183.791 464.173 182.093 463.796 179.703 463.796C177.103 463.796 175.238 464.236 174.106 465.116C172.974 465.955 172.324 467.464 172.156 469.644H165.93C166.391 462.391 170.982 458.764 179.703 458.764C188.256 458.764 192.533 461.951 192.533 468.324V485.493C192.533 486.583 193.12 487.128 194.294 487.128ZM177.062 487.82C179.745 487.82 181.967 487.065 183.728 485.556C185.489 484.046 186.369 481.908 186.369 479.141V475.745C185.573 476.416 184.231 476.856 182.344 477.066L177.816 477.569C175.384 477.862 173.644 478.449 172.596 479.33C171.548 480.168 171.024 481.363 171.024 482.914C171.024 484.466 171.527 485.682 172.533 486.562C173.582 487.401 175.091 487.82 177.062 487.82ZM214.148 471.405L218.488 459.519H225.154L212.702 491.971H205.721L193.331 459.519H200.123L204.526 471.405C207.503 480.252 209.096 485.074 209.305 485.87C209.431 485.451 209.704 484.612 210.123 483.355C210.542 482.097 211.129 480.378 211.884 478.198C212.639 475.975 213.393 473.711 214.148 471.405ZM254.42 475.996V477.82H229.956C230.249 481.007 231.193 483.418 232.786 485.053C234.379 486.646 236.538 487.443 239.264 487.443C243.373 487.443 246.056 485.64 247.314 482.034H253.666C252.785 485.346 251.066 487.967 248.509 489.895C245.993 491.782 242.869 492.725 239.138 492.725C234.484 492.725 230.732 491.174 227.88 488.071C225.029 484.969 223.604 480.86 223.604 475.745C223.604 470.63 225.029 466.521 227.88 463.418C230.732 460.316 234.442 458.764 239.012 458.764C243.792 458.764 247.565 460.378 250.333 463.607C253.058 466.835 254.42 470.965 254.42 475.996ZM239.012 464.047C236.538 464.047 234.505 464.802 232.912 466.311C231.36 467.821 230.396 470.001 230.019 472.852H247.943C247.649 470.21 246.706 468.093 245.113 466.5C243.561 464.865 241.528 464.047 239.012 464.047ZM264.275 491.971H257.986V447.192H264.275V491.971Z" fill="url(#paint3_linear_2264_12899)"/>
<defs>
<filter id="filter0_f_2264_12899" x="-209.022" y="0.652786" width="658.726" height="561.773" filterUnits="userSpaceOnUse" color-interpolation-filters="sRGB">
<feFlood flood-opacity="0" result="BackgroundImageFix"/>
<feBlend mode="normal" in="SourceGraphic" in2="BackgroundImageFix" result="shape"/>
<feGaussianBlur stdDeviation="64.865" result="effect1_foregroundBlur_2264_12899"/>
</filter>
<filter id="filter1_f_2264_12899" x="-38.7169" y="145.336" width="304.192" height="259.896" filterUnits="userSpaceOnUse" color-interpolation-filters="sRGB">
<feFlood flood-opacity="0" result="BackgroundImageFix"/>
<feBlend mode="normal" in="SourceGraphic" in2="BackgroundImageFix" result="shape"/>
<feGaussianBlur stdDeviation="30.4432" result="effect1_foregroundBlur_2264_12899"/>
</filter>
<linearGradient id="paint0_linear_2264_12899" x1="30.3711" y1="493.078" x2="202.103" y2="47.5282" gradientUnits="userSpaceOnUse">
<stop stop-color="#0AF471"/>
<stop offset="1" stop-color="#00454C"/>
</linearGradient>
<linearGradient id="paint1_linear_2264_12899" x1="72.2727" y1="371.934" x2="150.735" y2="168.368" gradientUnits="userSpaceOnUse">
<stop stop-color="#0AF471"/>
<stop offset="1" stop-color="#00454C"/>
</linearGradient>
<linearGradient id="paint2_linear_2264_12899" x1="34.061" y1="350.471" x2="396.061" y2="350.471" gradientUnits="userSpaceOnUse">
<stop stop-color="white"/>
<stop offset="1" stop-color="#9BF1C1"/>
</linearGradient>
<linearGradient id="paint3_linear_2264_12899" x1="34.061" y1="202.971" x2="318.804" y2="578.82" gradientUnits="userSpaceOnUse">
<stop stop-color="#0AF471"/>
<stop offset="1" stop-color="#00454C"/>
</linearGradient>
</defs>
</svg>
