<svg width="33" height="33" viewBox="0 0 33 33" fill="none" xmlns="http://www.w3.org/2000/svg">
<g clip-path="url(#clip0_2010_7087)">
<path d="M16.5 0C13.2366 0 10.0465 0.967708 7.3331 2.78075C4.61969 4.5938 2.50484 7.17074 1.256 10.1857C0.00714922 13.2007 -0.319606 16.5183 0.31705 19.719C0.953706 22.9197 2.52518 25.8597 4.83275 28.1673C7.14031 30.4748 10.0803 32.0463 13.281 32.683C16.4817 33.3196 19.7993 32.9929 22.8143 31.744C25.8293 30.4952 28.4062 28.3803 30.2193 25.6669C32.0323 22.9535 33 19.7634 33 16.5C32.9953 12.1254 31.2554 7.93129 28.162 4.83796C25.0687 1.74464 20.8746 0.00473149 16.5 0ZM28.3896 9.625H23.9608C22.9693 7.32735 21.6639 5.17837 20.0819 3.2395C23.5833 4.19228 26.5682 6.48652 28.3896 9.625ZM22.6875 16.5C22.6762 17.8999 22.4556 19.2903 22.033 20.625H10.967C10.5444 19.2903 10.3238 17.8999 10.3125 16.5C10.3238 15.1001 10.5444 13.7097 10.967 12.375H22.033C22.4556 13.7097 22.6762 15.1001 22.6875 16.5ZM12.0698 23.375H20.9303C19.7632 25.6791 18.2712 27.8037 16.5 29.6835C14.7281 27.8042 13.2361 25.6796 12.0698 23.375ZM12.0698 9.625C13.2368 7.32087 14.7288 5.19634 16.5 3.3165C18.2719 5.19581 19.7639 7.32044 20.9303 9.625H12.0698ZM12.925 3.2395C11.3405 5.17795 10.0328 7.32696 9.03926 9.625H4.61038C6.43343 6.48509 9.42104 4.19066 12.925 3.2395ZM3.38388 12.375H8.11251C7.75605 13.7213 7.57125 15.1073 7.56251 16.5C7.57125 17.8927 7.75605 19.2787 8.11251 20.625H3.38388C2.53873 17.9399 2.53873 15.0601 3.38388 12.375ZM4.61038 23.375H9.03926C10.0328 25.673 11.3405 27.822 12.925 29.7605C9.42104 28.8093 6.43343 26.5149 4.61038 23.375ZM20.0819 29.7605C21.6639 27.8216 22.9693 25.6726 23.9608 23.375H28.3896C26.5682 26.5135 23.5833 28.8077 20.0819 29.7605ZM29.6161 20.625H24.8875C25.244 19.2787 25.4288 17.8927 25.4375 16.5C25.4288 15.1073 25.244 13.7213 24.8875 12.375H29.6134C30.4585 15.0601 30.4585 17.9399 29.6134 20.625H29.6161Z" fill="url(#paint0_linear_2010_7087)"/>
</g>
<defs>
<linearGradient id="paint0_linear_2010_7087" x1="0" y1="0" x2="33" y2="35.4967" gradientUnits="userSpaceOnUse">
<stop stop-color="#0AF471"/>
<stop offset="1" stop-color="#00454C"/>
</linearGradient>
<clipPath id="clip0_2010_7087">
<rect width="33" height="33" fill="white"/>
</clipPath>
</defs>
</svg>
