<svg width="34" height="34" viewBox="0 0 34 34" fill="none" xmlns="http://www.w3.org/2000/svg">
<g clip-path="url(#clip0_2010_6449)">
<path d="M32.5833 31.1667H7.08333C5.95616 31.1667 4.87516 30.7189 4.07813 29.9219C3.2811 29.1248 2.83333 28.0438 2.83333 26.9167V1.41667C2.83333 1.04094 2.68408 0.680609 2.4184 0.414932C2.15272 0.149256 1.79239 0 1.41667 0C1.04094 0 0.680609 0.149256 0.414932 0.414932C0.149256 0.680609 0 1.04094 0 1.41667L0 26.9167C0.00224946 28.7946 0.749249 30.595 2.07714 31.9229C3.40504 33.2508 5.20541 33.9977 7.08333 34H32.5833C32.9591 34 33.3194 33.8507 33.5851 33.5851C33.8507 33.3194 34 32.9591 34 32.5833C34 32.2076 33.8507 31.8473 33.5851 31.5816C33.3194 31.3159 32.9591 31.1667 32.5833 31.1667Z" fill="url(#paint0_linear_2010_6449)"/>
<path d="M8.50001 28.333C8.87573 28.333 9.23607 28.1838 9.50174 27.9181C9.76742 27.6524 9.91668 27.2921 9.91668 26.9163V16.9997C9.91668 16.624 9.76742 16.2636 9.50174 15.9979C9.23607 15.7323 8.87573 15.583 8.50001 15.583C8.12429 15.583 7.76395 15.7323 7.49828 15.9979C7.2326 16.2636 7.08334 16.624 7.08334 16.9997V26.9163C7.08334 27.2921 7.2326 27.6524 7.49828 27.9181C7.76395 28.1838 8.12429 28.333 8.50001 28.333Z" fill="url(#paint1_linear_2010_6449)"/>
<path d="M14.1667 14.1667V26.9167C14.1667 27.2924 14.3159 27.6527 14.5816 27.9184C14.8473 28.1841 15.2076 28.3333 15.5833 28.3333C15.959 28.3333 16.3194 28.1841 16.5851 27.9184C16.8507 27.6527 17 27.2924 17 26.9167V14.1667C17 13.7909 16.8507 13.4306 16.5851 13.1649C16.3194 12.8993 15.959 12.75 15.5833 12.75C15.2076 12.75 14.8473 12.8993 14.5816 13.1649C14.3159 13.4306 14.1667 13.7909 14.1667 14.1667Z" fill="url(#paint2_linear_2010_6449)"/>
<path d="M21.25 18.4167V26.9167C21.25 27.2924 21.3993 27.6527 21.6649 27.9184C21.9306 28.1841 22.2909 28.3333 22.6667 28.3333C23.0424 28.3333 23.4027 28.1841 23.6684 27.9184C23.9341 27.6527 24.0833 27.2924 24.0833 26.9167V18.4167C24.0833 18.0409 23.9341 17.6806 23.6684 17.4149C23.4027 17.1493 23.0424 17 22.6667 17C22.2909 17 21.9306 17.1493 21.6649 17.4149C21.3993 17.6806 21.25 18.0409 21.25 18.4167Z" fill="url(#paint3_linear_2010_6449)"/>
<path d="M28.3333 12.7497V26.9163C28.3333 27.2921 28.4826 27.6524 28.7483 27.9181C29.014 28.1838 29.3743 28.333 29.75 28.333C30.1257 28.333 30.4861 28.1838 30.7517 27.9181C31.0174 27.6524 31.1667 27.2921 31.1667 26.9163V12.7497C31.1667 12.374 31.0174 12.0136 30.7517 11.7479C30.4861 11.4823 30.1257 11.333 29.75 11.333C29.3743 11.333 29.014 11.4823 28.7483 11.7479C28.4826 12.0136 28.3333 12.374 28.3333 12.7497Z" fill="url(#paint4_linear_2010_6449)"/>
<path d="M8.50001 12.7502C8.87571 12.7501 9.23598 12.6008 9.5016 12.3351L14.5818 7.25492C14.8518 6.99769 15.2104 6.85421 15.5833 6.85421C15.9563 6.85421 16.3149 6.99769 16.5849 7.25492L19.6619 10.3319C20.4589 11.1287 21.5397 11.5763 22.6667 11.5763C23.7936 11.5763 24.8744 11.1287 25.6714 10.3319L33.5849 2.41842C33.843 2.15123 33.9858 1.79338 33.9826 1.42193C33.9793 1.05049 33.8303 0.695172 33.5677 0.43251C33.305 0.169849 32.9497 0.0208594 32.5782 0.0176317C32.2068 0.0144039 31.8489 0.157196 31.5818 0.415253L23.6683 8.32734C23.4026 8.59292 23.0423 8.74212 22.6667 8.74212C22.291 8.74212 21.9308 8.59292 21.6651 8.32734L18.5881 5.25175C17.7911 4.455 16.7103 4.00741 15.5833 4.00741C14.4564 4.00741 13.3756 4.455 12.5786 5.25175L7.49843 10.3319C7.30037 10.53 7.16549 10.7824 7.11085 11.0572C7.05622 11.332 7.08427 11.6168 7.19147 11.8756C7.29867 12.1344 7.4802 12.3557 7.71311 12.5113C7.94603 12.667 8.21987 12.7501 8.50001 12.7502Z" fill="url(#paint5_linear_2010_6449)"/>
</g>
<defs>
<linearGradient id="paint0_linear_2010_6449" x1="0" y1="0" x2="34" y2="36.5724" gradientUnits="userSpaceOnUse">
<stop stop-color="#0AF471"/>
<stop offset="1" stop-color="#00454C"/>
</linearGradient>
<linearGradient id="paint1_linear_2010_6449" x1="7.08334" y1="15.583" x2="12.8646" y2="16.9649" gradientUnits="userSpaceOnUse">
<stop stop-color="#0AF471"/>
<stop offset="1" stop-color="#00454C"/>
</linearGradient>
<linearGradient id="paint2_linear_2010_6449" x1="14.1667" y1="12.75" x2="20.0531" y2="13.9012" gradientUnits="userSpaceOnUse">
<stop stop-color="#0AF471"/>
<stop offset="1" stop-color="#00454C"/>
</linearGradient>
<linearGradient id="paint3_linear_2010_6449" x1="21.25" y1="17" x2="26.9495" y2="18.5327" gradientUnits="userSpaceOnUse">
<stop stop-color="#0AF471"/>
<stop offset="1" stop-color="#00454C"/>
</linearGradient>
<linearGradient id="paint4_linear_2010_6449" x1="28.3333" y1="11.333" x2="34.2546" y2="12.3946" gradientUnits="userSpaceOnUse">
<stop stop-color="#0AF471"/>
<stop offset="1" stop-color="#00454C"/>
</linearGradient>
<linearGradient id="paint5_linear_2010_6449" x1="7.08365" y1="0.0175781" x2="16.4967" y2="21.4082" gradientUnits="userSpaceOnUse">
<stop stop-color="#0AF471"/>
<stop offset="1" stop-color="#00454C"/>
</linearGradient>
<clipPath id="clip0_2010_6449">
<rect width="34" height="34" fill="white"/>
</clipPath>
</defs>
</svg>
