<svg width="15" height="15" viewBox="0 0 15 15" fill="none" xmlns="http://www.w3.org/2000/svg">
<path d="M14.7838 4.58333V3.41667H13.6172C13.6172 2.45183 12.832 1.66667 11.8672 1.66667V0.5H10.7005V1.66667H9.53384V0.5H8.36718V1.66667H7.20051V0.5H6.03384V1.66667H4.86718V0.5H3.70051V1.66667C2.73568 1.66667 1.95051 2.45183 1.95051 3.41667H0.783844V4.58333H1.95051V5.75H0.783844V6.91667H1.95051V8.08333H0.783844V9.25H1.95051V10.4167H0.783844V11.5833H1.95051V13.3333H3.70051V14.5H4.86718V13.3333H6.03384V14.5H7.20051V13.3333H8.36718V14.5H9.53384V13.3333H10.7005V14.5H11.8672V13.3333H13.6172V11.5833H14.7838V10.4167H13.6172V9.25H14.7838V8.08333H13.6172V6.91667H14.7838V5.75H13.6172V4.58333H14.7838ZM12.4505 12.1667H3.11718V3.41667C3.11718 3.09467 3.37909 2.83333 3.70051 2.83333H11.8672C12.1886 2.83333 12.4505 3.09467 12.4505 3.41667V12.1667ZM7.12818 4.68833C6.36226 4.3675 5.58176 4.81725 5.41493 5.53883L4.28384 10.4167H5.48143L5.61676 9.83333H7.61759L7.75293 10.4167H8.95051L7.82934 5.58025C7.73951 5.19408 7.49393 4.84175 7.12818 4.68892V4.68833ZM5.88743 8.66667L6.55126 5.8025C6.55826 5.77158 6.58568 5.75 6.61718 5.75C6.64868 5.75 6.67609 5.77158 6.68309 5.8025L7.34693 8.66667H5.88743ZM9.53384 4.58333H10.7005V10.4167H9.53384V4.58333Z" fill="#0AF571"/>
</svg>
