<svg width="22" height="21" viewBox="0 0 22 21" fill="none" xmlns="http://www.w3.org/2000/svg">
<path d="M11.001 0.138672C8.01358 0.138672 7.63866 0.150623 6.46532 0.199472C5.29426 0.248535 4.49492 0.418166 3.79549 0.66704C3.07201 0.924091 2.45829 1.26796 1.84687 1.82756C1.235 2.38697 0.859155 2.94846 0.57728 3.61018C0.304562 4.2503 0.118938 4.98183 0.0662339 6.05284C0.0137501 7.12634 0 7.46957 0 10.2028C0 12.9361 0.013296 13.2781 0.0664535 14.3515C0.120312 15.423 0.305718 16.1543 0.5775 16.7942C0.858701 17.4562 1.23453 18.0176 1.84618 18.5771C2.45739 19.1369 3.07109 19.4816 3.79412 19.7386C4.49401 19.9875 5.29357 20.1572 6.4644 20.2062C7.63774 20.255 8.01244 20.267 10.9997 20.267C13.9873 20.267 14.3611 20.255 15.5345 20.2062C16.7056 20.1572 17.5058 19.9875 18.2057 19.7386C18.9289 19.4816 19.5416 19.1369 20.153 18.5771C20.7648 18.0176 21.1406 17.4562 21.4225 16.7945C21.693 16.1543 21.8786 15.4227 21.9336 14.3518C21.9863 13.2783 22 12.9361 22 10.2028C22 7.46957 21.9863 7.12656 21.9336 6.05304C21.8786 4.98163 21.693 4.25029 21.4225 3.61039C21.1406 2.94846 20.7648 2.38697 20.153 1.82756C19.541 1.26774 18.9291 0.92389 18.205 0.66704C17.5037 0.418166 16.7039 0.248535 15.5328 0.199472C14.3595 0.150623 13.986 0.138672 10.9975 0.138672H11.001ZM10.0143 1.95232C10.3071 1.95189 10.6338 1.95232 11.001 1.95232C13.9381 1.95232 14.2861 1.96196 15.4461 2.01019C16.5186 2.05505 17.1006 2.21902 17.4883 2.35677C18.0016 2.53919 18.3677 2.75724 18.7524 3.10948C19.1374 3.46173 19.3758 3.79721 19.5756 4.26686C19.7262 4.62121 19.9056 5.15377 19.9544 6.13502C20.0072 7.19595 20.0186 7.51465 20.0186 10.2006C20.0186 12.8864 20.0072 13.2051 19.9544 14.266C19.9055 15.2472 19.7262 15.7799 19.5756 16.1341C19.3762 16.6039 19.1374 16.9383 18.7524 17.2903C18.3674 17.6425 18.0019 17.8606 17.4883 18.0431C17.101 18.1814 16.5186 18.345 15.4461 18.3898C14.2864 18.4381 13.9381 18.4485 11.001 18.4485C8.06377 18.4485 7.71566 18.4381 6.55607 18.3898C5.48356 18.3445 4.90146 18.1806 4.51348 18.0428C4.00015 17.8604 3.63348 17.6424 3.24847 17.2901C2.86347 16.9379 2.62514 16.6033 2.42529 16.1334C2.27473 15.779 2.09529 15.2465 2.04648 14.2652C1.99378 13.2042 1.98323 12.8856 1.98323 10.198C1.98323 7.51045 1.99378 7.19343 2.04648 6.13251C2.09553 5.15125 2.27473 4.61869 2.42529 4.26393C2.62467 3.79426 2.86347 3.4588 3.24847 3.10655C3.63348 2.75431 4.00015 2.53624 4.51348 2.35342C4.90124 2.21503 5.48356 2.05149 6.55607 2.00642C7.57083 1.96447 7.96408 1.95189 10.0143 1.94981V1.95232ZM16.8728 3.62339C16.144 3.62339 15.5528 4.16371 15.5528 4.83067C15.5528 5.49742 16.144 6.03837 16.8728 6.03837C17.6015 6.03837 18.1928 5.49742 18.1928 4.83067C18.1928 4.16392 17.6015 3.62339 16.8728 3.62339ZM11.001 5.03447C7.88135 5.03447 5.35201 7.3486 5.35201 10.2028C5.35201 13.057 7.88135 15.3701 11.001 15.3701C14.1207 15.3701 16.6492 13.057 16.6492 10.2028C16.6492 7.3486 14.1206 5.03447 11.001 5.03447ZM11.001 6.84811C13.0259 6.84811 14.6677 8.35002 14.6677 10.2028C14.6677 12.0555 13.0259 13.5576 11.001 13.5576C8.97586 13.5576 7.33433 12.0555 7.33433 10.2028C7.33433 8.35002 8.97586 6.84811 11.001 6.84811Z" fill="url(#paint0_linear_4054_482)"/>
<defs>
<linearGradient id="paint0_linear_4054_482" x1="0" y1="0.138672" x2="19.9204" y2="23.5587" gradientUnits="userSpaceOnUse">
<stop stop-color="#0AF471"/>
<stop offset="1" stop-color="#00454C"/>
</linearGradient>
</defs>
</svg>
