<svg width="33" height="33" viewBox="0 0 33 33" fill="none" xmlns="http://www.w3.org/2000/svg">
<g clip-path="url(#clip0_2010_7103)">
<path d="M24.7417 3.14255C23.0634 1.64317 21.008 0.629849 18.7967 0.21164C16.5853 -0.206569 14.3018 -0.0138342 12.1919 0.769103C10.0819 1.55204 8.22546 2.89554 6.8222 4.65501C5.41895 6.41448 4.52207 8.52331 4.22809 10.7545C3.96406 12.711 4.17522 14.7022 4.8437 16.5597C5.51218 18.4172 6.61831 20.0864 8.06846 21.4259C8.96524 22.2123 9.68887 23.1765 10.1935 24.2572C10.6981 25.3379 10.9728 26.5117 11 27.7042V27.9255C11.0014 29.2707 11.5364 30.5604 12.4876 31.5116C13.4388 32.4628 14.7285 32.9978 16.0737 32.9993H16.9262C18.2714 32.9978 19.5611 32.4628 20.5123 31.5116C21.4635 30.5604 21.9985 29.2707 22 27.9255V27.1707C22.0205 26.1167 22.2686 25.0796 22.7271 24.1303C23.1856 23.1811 23.8437 22.342 24.6565 21.6707C25.9745 20.5163 27.0322 19.095 27.7595 17.501C28.4868 15.9069 28.8671 14.1765 28.8752 12.4244C28.8832 10.6724 28.5189 8.93854 27.8063 7.33789C27.0937 5.73723 26.0491 4.30627 24.7417 3.1398V3.14255ZM16.9262 30.2493H16.0737C15.4576 30.2486 14.867 30.0035 14.4314 29.5679C13.9957 29.1322 13.7507 28.5416 13.75 27.9255C13.75 27.9255 13.7403 27.568 13.739 27.4993H19.25V27.9255C19.2492 28.5416 19.0042 29.1322 18.5686 29.5679C18.1329 30.0035 17.5423 30.2486 16.9262 30.2493ZM22.8387 19.6054C21.2732 20.9633 20.1426 22.7524 19.5882 24.7493H17.875V14.8713C18.6765 14.5879 19.3708 14.0639 19.8631 13.3708C20.3553 12.6777 20.6214 11.8494 20.625 10.9993C20.625 10.6346 20.4801 10.2849 20.2222 10.027C19.9644 9.76916 19.6146 9.6243 19.25 9.6243C18.8853 9.6243 18.5356 9.76916 18.2777 10.027C18.0198 10.2849 17.875 10.6346 17.875 10.9993C17.875 11.364 17.7301 11.7137 17.4722 11.9716C17.2144 12.2294 16.8646 12.3743 16.5 12.3743C16.1353 12.3743 15.7856 12.2294 15.5277 11.9716C15.2698 11.7137 15.125 11.364 15.125 10.9993C15.125 10.6346 14.9801 10.2849 14.7222 10.027C14.4644 9.76916 14.1146 9.6243 13.75 9.6243C13.3853 9.6243 13.0356 9.76916 12.7777 10.027C12.5198 10.2849 12.375 10.6346 12.375 10.9993C12.3785 11.8494 12.6446 12.6777 13.1368 13.3708C13.6291 14.0639 14.3235 14.5879 15.125 14.8713V24.7493H13.3072C12.6871 22.6995 11.524 20.8556 9.94121 19.4129C8.59778 18.1611 7.64046 16.5511 7.18223 14.773C6.72401 12.9948 6.784 11.1227 7.35513 9.37748C7.92625 7.63229 8.98468 6.0869 10.4055 4.92367C11.8263 3.76044 13.5503 3.02792 15.3738 2.81255C15.7519 2.77035 16.132 2.74923 16.5123 2.7493C18.874 2.74228 21.1539 3.61366 22.9088 5.19405C23.9259 6.10099 24.7386 7.21377 25.293 8.45861C25.8474 9.70344 26.1309 11.0519 26.1247 12.4146C26.1184 13.7773 25.8226 15.1231 25.2568 16.3628C24.691 17.6025 23.8682 18.7078 22.8428 19.6054H22.8387Z" fill="url(#paint0_linear_2010_7103)"/>
</g>
<defs>
<linearGradient id="paint0_linear_2010_7103" x1="4.11768" y1="-0.00390625" x2="36.4615" y2="26.0948" gradientUnits="userSpaceOnUse">
<stop stop-color="#0AF471"/>
<stop offset="1" stop-color="#00454C"/>
</linearGradient>
<clipPath id="clip0_2010_7103">
<rect width="33" height="33" fill="white"/>
</clipPath>
</defs>
</svg>
