<svg width="158" height="30" viewBox="0 0 158 30" fill="none" xmlns="http://www.w3.org/2000/svg">
<path d="M59.5645 6.45969L53.4069 22.9262H50.132L43.9744 6.45969H47.1339L51.7233 19.7205H51.8156L56.4511 6.45969H59.5645ZM63.2929 13.3092H71.6876V15.6154H63.2929V20.4816H72.0566V22.9262H60.387V6.45969H72.0566V8.85818H63.2929V13.3092ZM87.3498 22.9262H84.1902L76.2568 10.4956H76.1645V22.9262H73.4893V6.45969H76.7642L84.5823 18.7289H84.6746V6.45969H87.3498V22.9262ZM89.1366 6.45969H95.5018C100.276 6.45969 103.481 9.20411 103.481 14.693C103.481 20.2049 100.276 22.9262 95.5018 22.9262H89.1366V6.45969ZM92.0424 20.5508H95.1097C98.546 20.5508 100.529 18.6366 100.529 14.693C100.529 10.7724 98.546 8.85818 95.1097 8.85818H92.0424V20.5508ZM107.87 13.3092H116.265V15.6154H107.87V20.4816H116.634V22.9262H104.964V6.45969H116.634V8.85818H107.87V13.3092ZM118.066 6.45969H125.4C129.136 6.45969 131.189 8.51224 131.189 11.6718C131.189 14.8313 129.136 16.8608 125.4 16.8608H120.972V22.9262H118.066V6.45969ZM120.972 14.4854H124.962C127.107 14.4854 128.237 13.4476 128.237 11.6718C128.237 9.89598 127.107 8.85818 124.962 8.85818H120.972V14.4854ZM141.354 18.7289H134.25L132.751 22.9262H129.615L135.957 6.45969H139.693L146.035 22.9262H142.876L141.354 18.7289ZM140.5 16.3765L137.848 9.01961H137.756L135.104 16.3765H140.5ZM157.884 6.45969L151.934 16.5379V22.9262H149.028V16.561L143.055 6.45969H146.261L150.504 14.0703L154.748 6.45969H157.884Z" fill="#F4F4F4"/>
<path d="M15.256 14.5589L25.3157 2.84897C26.4597 1.51823 28.014 0.768257 29.6372 0.768257H39.1334C40.335 0.768257 40.9365 2.4504 40.0862 3.43301L24.9545 20.9491C23.8007 22.2847 21.9287 22.2847 20.7749 20.9491L15.256 14.5605V14.5589Z" fill="url(#paint0_linear_2010_1370)"/>
<path d="M25.2275 20.635L15.0301 8.89577C13.8875 7.5813 12.343 6.84434 10.7324 6.84434H1.35014C0.149946 6.84434 -0.451555 8.52648 0.397293 9.50909L15.529 27.0252C16.6828 28.3608 18.5548 28.3608 19.7086 27.0252L25.2275 20.6366V20.635Z" fill="url(#paint1_linear_2010_1370)"/>
<g style="mix-blend-mode:multiply" opacity="0.1">
<path d="M25.2275 20.6334L17.5752 11.8273L20.1133 8.87951L25.2275 20.6334Z" fill="#00444C"/>
</g>
<g style="mix-blend-mode:multiply" opacity="0.2">
<path d="M25.2275 20.6334L17.5752 11.8273L18.677 10.5438L25.2275 20.6334Z" fill="#00444C"/>
</g>
<defs>
<linearGradient id="paint0_linear_2010_1370" x1="15.256" y1="11.3595" x2="40.4844" y2="11.3595" gradientUnits="userSpaceOnUse">
<stop stop-color="white"/>
<stop offset="1" stop-color="#9BF1C1"/>
</linearGradient>
<linearGradient id="paint1_linear_2010_1370" x1="5.43487" y1="9.31687" x2="17.7103" y2="30.1011" gradientUnits="userSpaceOnUse">
<stop stop-color="#0FFF79"/>
<stop offset="0.5" stop-color="#0FFF79"/>
<stop offset="1" stop-color="#00454C"/>
</linearGradient>
</defs>
</svg>
