<svg width="1920" height="1177" viewBox="0 0 1920 1177" fill="none" xmlns="http://www.w3.org/2000/svg">
<g clip-path="url(#clip0_4109_514)">
<g style="mix-blend-mode:screen" opacity="0.3" filter="url(#filter0_f_4109_514)">
<path d="M507.237 216.485L1588.52 300.582C1621.89 303.177 1641.11 339.708 1624.36 368.679L1397.15 761.59C1388.39 776.741 1371.71 785.519 1354.26 784.162L272.979 700.065C239.613 697.47 220.388 660.939 237.141 631.968L464.348 239.057C473.109 223.906 489.788 215.128 507.237 216.485Z" fill="url(#paint0_linear_4109_514)"/>
</g>
<g style="mix-blend-mode:screen" opacity="0.9" filter="url(#filter1_f_4109_514)">
<path d="M706.574 368.562L1200.6 406.985C1215.84 408.17 1224.63 424.861 1216.97 438.097L1113.16 617.613C1109.16 624.535 1101.54 628.545 1093.57 627.925L599.545 589.503C584.301 588.317 575.517 571.627 583.171 558.39L686.979 378.875C690.982 371.952 698.602 367.942 706.574 368.562Z" fill="url(#paint1_linear_4109_514)"/>
</g>
<g style="mix-blend-mode:screen" filter="url(#filter2_f_4109_514)">
<path d="M893.757 258.811L1358.98 429.394C1373.34 434.658 1377.28 453.102 1366.34 463.775L1217.85 608.532C1212.13 614.113 1203.7 615.914 1196.2 613.161L730.969 442.578C716.614 437.314 712.671 418.87 723.619 408.197L872.103 263.441C877.828 257.859 886.249 256.058 893.757 258.811Z" fill="url(#paint2_linear_4109_514)"/>
</g>
</g>
<defs>
<filter id="filter0_f_4109_514" x="-195.175" y="-209.808" width="2251.85" height="1420.26" filterUnits="userSpaceOnUse" color-interpolation-filters="sRGB">
<feFlood flood-opacity="0" result="BackgroundImageFix"/>
<feBlend mode="normal" in="SourceGraphic" in2="BackgroundImageFix" result="shape"/>
<feGaussianBlur stdDeviation="213.078" result="effect1_foregroundBlur_4109_514"/>
</filter>
<filter id="filter1_f_4109_514" x="380.349" y="168.492" width="1039.45" height="659.504" filterUnits="userSpaceOnUse" color-interpolation-filters="sRGB">
<feFlood flood-opacity="0" result="BackgroundImageFix"/>
<feBlend mode="normal" in="SourceGraphic" in2="BackgroundImageFix" result="shape"/>
<feGaussianBlur stdDeviation="100.004" result="effect1_foregroundBlur_4109_514"/>
</filter>
<filter id="filter2_f_4109_514" x="551.639" y="91.841" width="986.677" height="688.291" filterUnits="userSpaceOnUse" color-interpolation-filters="sRGB">
<feFlood flood-opacity="0" result="BackgroundImageFix"/>
<feBlend mode="normal" in="SourceGraphic" in2="BackgroundImageFix" result="shape"/>
<feGaussianBlur stdDeviation="82.85" result="effect1_foregroundBlur_4109_514"/>
</filter>
<linearGradient id="paint0_linear_4109_514" x1="1126.49" y1="1229.65" x2="668.266" y2="-270.491" gradientUnits="userSpaceOnUse">
<stop stop-color="#0AF471"/>
<stop offset="1" stop-color="#00454C"/>
</linearGradient>
<linearGradient id="paint1_linear_4109_514" x1="989.503" y1="831.461" x2="780.146" y2="146.069" gradientUnits="userSpaceOnUse">
<stop stop-color="#0AF471"/>
<stop offset="1" stop-color="#00454C"/>
</linearGradient>
<linearGradient id="paint2_linear_4109_514" x1="1040.97" y1="780.973" x2="1024.75" y2="64.5028" gradientUnits="userSpaceOnUse">
<stop stop-color="#0AF471"/>
<stop offset="1" stop-color="#00454C"/>
</linearGradient>
<clipPath id="clip0_4109_514">
<rect width="1920" height="1177" fill="white"/>
</clipPath>
</defs>
</svg>
