<svg width="18" height="18" viewBox="0 0 18 18" fill="none" xmlns="http://www.w3.org/2000/svg">
<g clip-path="url(#clip0_352_7181)">
<path d="M18 5.25V3.75H16.5C16.5 2.5095 15.4905 1.5 14.25 1.5V0H12.75V1.5H11.25V0H9.75V1.5H8.25V0H6.75V1.5H5.25V0H3.75V1.5C2.5095 1.5 1.5 2.5095 1.5 3.75H0V5.25H1.5V6.75H0V8.25H1.5V9.75H0V11.25H1.5V12.75H0V14.25H1.5V16.5H3.75V18H5.25V16.5H6.75V18H8.25V16.5H9.75V18H11.25V16.5H12.75V18H14.25V16.5H16.5V14.25H18V12.75H16.5V11.25H18V9.75H16.5V8.25H18V6.75H16.5V5.25H18ZM15 15H3V3.75C3 3.336 3.33675 3 3.75 3H14.25C14.6632 3 15 3.336 15 3.75V15ZM8.157 5.385C7.17225 4.9725 6.16875 5.55075 5.95425 6.4785L4.5 12.75H6.03975L6.21375 12H8.78625L8.96025 12.75H10.5L9.0585 6.53175C8.943 6.03525 8.62725 5.58225 8.157 5.38575V5.385ZM6.56175 10.5L7.41525 6.8175C7.42425 6.77775 7.4595 6.75 7.5 6.75C7.5405 6.75 7.57575 6.77775 7.58475 6.8175L8.43825 10.5H6.56175ZM11.25 5.25H12.75V12.75H11.25V5.25Z" fill="#0AF571"/>
</g>
<defs>
<clipPath id="clip0_352_7181">
<rect width="18" height="18" fill="white"/>
</clipPath>
</defs>
</svg>
