<svg width="29" height="29" viewBox="0 0 29 29" fill="none" xmlns="http://www.w3.org/2000/svg">
<path d="M14.2596 0.665039C11.5356 0.665039 8.87269 1.47281 6.60773 2.98621C4.34276 4.49962 2.57744 6.65067 1.53499 9.16737C0.49254 11.6841 0.219788 14.4534 0.751224 17.1251C1.28266 19.7968 2.59441 22.2509 4.52061 24.1771C6.4468 26.1033 8.90092 27.415 11.5726 27.9465C14.2443 28.4779 17.0136 28.2052 19.5303 27.1627C22.047 26.1203 24.1981 24.3549 25.7115 22.09C27.2249 19.825 28.0327 17.1621 28.0327 14.4381C28.0287 10.7865 26.5764 7.28552 23.9943 4.70343C21.4122 2.12134 17.9112 0.668989 14.2596 0.665039ZM24.1842 8.69931H20.4873C19.6598 6.7814 18.5701 4.98758 17.2495 3.36915C20.1723 4.16446 22.6638 6.07953 24.1842 8.69931ZM19.4245 14.4381C19.4151 15.6067 19.2309 16.7672 18.8782 17.8813H9.64106C9.2883 16.7672 9.10415 15.6067 9.09473 14.4381C9.10415 13.2695 9.2883 12.1089 9.64106 10.9948H18.8782C19.2309 12.1089 19.4151 13.2695 19.4245 14.4381ZM10.5616 20.1768H17.9577C16.9835 22.1002 15.7381 23.8736 14.2596 25.4427C12.7806 23.874 11.5351 22.1005 10.5616 20.1768ZM10.5616 8.69931C11.5357 6.77599 12.7811 5.00258 14.2596 3.43342C15.7386 5.00214 16.9841 6.77563 17.9577 8.69931H10.5616ZM11.2755 3.36915C9.95286 4.98723 8.86126 6.78107 8.03191 8.69931H4.335C5.85675 6.07834 8.35059 4.16311 11.2755 3.36915ZM3.3112 10.9948H7.25832C6.96078 12.1186 6.80652 13.2756 6.79922 14.4381C6.80652 15.6006 6.96078 16.7575 7.25832 17.8813H3.3112C2.60572 15.64 2.60572 13.2361 3.3112 10.9948ZM4.335 20.1768H8.03191C8.86126 22.0951 9.95286 23.8889 11.2755 25.507C8.35059 24.713 5.85675 22.7978 4.335 20.1768ZM17.2495 25.507C18.5701 23.8886 19.6598 22.0948 20.4873 20.1768H24.1842C22.6638 22.7966 20.1723 24.7117 17.2495 25.507ZM25.208 17.8813H21.2609C21.5585 16.7575 21.7127 15.6006 21.72 14.4381C21.7127 13.2756 21.5585 12.1186 21.2609 10.9948H25.2057C25.9112 13.2361 25.9112 15.64 25.2057 17.8813H25.208Z" fill="url(#paint0_linear_2010_2061)"/>
<defs>
<linearGradient id="paint0_linear_2010_2061" x1="0.486572" y1="0.665039" x2="28.0327" y2="30.2952" gradientUnits="userSpaceOnUse">
<stop stop-color="#0AF471"/>
<stop offset="1" stop-color="#00454C"/>
</linearGradient>
</defs>
</svg>
