<svg width="1912" height="574" viewBox="0 0 1912 574" fill="none" xmlns="http://www.w3.org/2000/svg">
<g clip-path="url(#clip0_4055_467)">
<circle opacity="0.1" cx="955.363" cy="574.363" r="402.962" stroke="url(#paint0_linear_4055_467)" stroke-width="1.35097"/>
<circle opacity="0.3" cx="955.363" cy="574.362" r="280.168" stroke="url(#paint1_linear_4055_467)" stroke-width="0.939294"/>
<circle opacity="0.5" cx="955.363" cy="574.363" r="208.341" stroke="url(#paint2_linear_4055_467)" stroke-width="0.698485"/>
<circle cx="955.363" cy="574.362" r="146.306" stroke="url(#paint3_linear_4055_467)" stroke-width="0.490506"/>
<g opacity="0.4" filter="url(#filter0_f_4055_467)">
<circle cx="955.637" cy="574.637" r="197.363" fill="url(#paint4_radial_4055_467)"/>
</g>
<g opacity="0.8" filter="url(#filter1_f_4055_467)">
<circle cx="955.637" cy="574.637" r="80.6375" fill="url(#paint5_radial_4055_467)"/>
</g>
<circle cx="955.363" cy="574.363" r="80.5025" fill="#080B0A" stroke="url(#paint6_linear_4055_467)" stroke-width="0.269894"/>
<path d="M945.71 574.97L966.959 550.235C969.375 547.424 972.659 545.84 976.087 545.84H996.146C998.684 545.84 999.955 549.393 998.159 551.469L966.196 588.468C963.759 591.289 959.805 591.289 957.368 588.468L945.71 574.973V574.97Z" fill="url(#paint7_linear_4055_467)"/>
<path d="M966.773 587.805L945.233 563.008C942.819 560.231 939.557 558.674 936.155 558.674H916.336C913.801 558.674 912.531 562.228 914.324 564.303L946.286 601.303C948.724 604.124 952.678 604.124 955.115 601.303L966.773 587.808V587.805Z" fill="url(#paint8_linear_4055_467)"/>
<g style="mix-blend-mode:multiply" opacity="0.1">
<path d="M966.773 587.801L950.609 569.2L955.97 562.973L966.773 587.801Z" fill="#00444C"/>
</g>
<g style="mix-blend-mode:multiply" opacity="0.2">
<path d="M966.773 587.801L950.609 569.2L952.936 566.489L966.773 587.801Z" fill="#00444C"/>
</g>
</g>
<defs>
<filter id="filter0_f_4055_467" x="585.724" y="204.724" width="739.827" height="739.827" filterUnits="userSpaceOnUse" color-interpolation-filters="sRGB">
<feFlood flood-opacity="0" result="BackgroundImageFix"/>
<feBlend mode="normal" in="SourceGraphic" in2="BackgroundImageFix" result="shape"/>
<feGaussianBlur stdDeviation="86.2754" result="effect1_foregroundBlur_4055_467"/>
</filter>
<filter id="filter1_f_4055_467" x="804.5" y="423.5" width="302.275" height="302.275" filterUnits="userSpaceOnUse" color-interpolation-filters="sRGB">
<feFlood flood-opacity="0" result="BackgroundImageFix"/>
<feBlend mode="normal" in="SourceGraphic" in2="BackgroundImageFix" result="shape"/>
<feGaussianBlur stdDeviation="35.25" result="effect1_foregroundBlur_4055_467"/>
</filter>
<linearGradient id="paint0_linear_4055_467" x1="452.293" y1="573.129" x2="1001.76" y2="561.221" gradientUnits="userSpaceOnUse">
<stop stop-color="#0AF571"/>
<stop offset="1" stop-color="#696969"/>
</linearGradient>
<linearGradient id="paint1_linear_4055_467" x1="605.593" y1="573.505" x2="987.622" y2="565.226" gradientUnits="userSpaceOnUse">
<stop stop-color="#0AF571"/>
<stop offset="1" stop-color="#696969"/>
</linearGradient>
<linearGradient id="paint2_linear_4055_467" x1="695.264" y1="573.725" x2="979.352" y2="567.568" gradientUnits="userSpaceOnUse">
<stop stop-color="#0AF571"/>
<stop offset="1" stop-color="#696969"/>
</linearGradient>
<linearGradient id="paint3_linear_4055_467" x1="772.71" y1="573.915" x2="972.209" y2="569.591" gradientUnits="userSpaceOnUse">
<stop stop-color="#0AF571"/>
<stop offset="1" stop-color="#696969"/>
</linearGradient>
<radialGradient id="paint4_radial_4055_467" cx="0" cy="0" r="1" gradientUnits="userSpaceOnUse" gradientTransform="translate(955.637 574.637) rotate(89.7415) scale(196.692)">
<stop stop-color="#0AF571"/>
<stop offset="1" stop-color="#080B0A"/>
</radialGradient>
<radialGradient id="paint5_radial_4055_467" cx="0" cy="0" r="1" gradientUnits="userSpaceOnUse" gradientTransform="translate(955.637 574.637) rotate(89.7415) scale(80.3634)">
<stop stop-color="#0AF571"/>
<stop offset="1" stop-color="#080B0A"/>
</radialGradient>
<linearGradient id="paint6_linear_4055_467" x1="854.861" y1="574.116" x2="964.632" y2="571.737" gradientUnits="userSpaceOnUse">
<stop stop-color="#0AF571"/>
<stop offset="1" stop-color="#696969"/>
</linearGradient>
<linearGradient id="paint7_linear_4055_467" x1="945.71" y1="568.212" x2="999" y2="568.212" gradientUnits="userSpaceOnUse">
<stop stop-color="white"/>
<stop offset="1" stop-color="#9BF1C1"/>
</linearGradient>
<linearGradient id="paint8_linear_4055_467" x1="924.965" y1="563.897" x2="950.894" y2="607.8" gradientUnits="userSpaceOnUse">
<stop stop-color="#0FFF79"/>
<stop offset="0.5" stop-color="#0FFF79"/>
<stop offset="1" stop-color="#00454C"/>
</linearGradient>
<clipPath id="clip0_4055_467">
<rect width="1912" height="574" fill="white"/>
</clipPath>
</defs>
</svg>
