<svg width="33" height="33" viewBox="0 0 33 33" fill="none" xmlns="http://www.w3.org/2000/svg">
<g clip-path="url(#clip0_2010_7083)">
<path d="M26.125 5.5H24.6125C24.2934 3.94819 23.449 2.55385 22.2217 1.55199C20.9944 0.550124 19.4593 0.00199997 17.875 0L15.125 0C13.5407 0.00199997 12.0056 0.550124 10.7783 1.55199C9.551 2.55385 8.70663 3.94819 8.3875 5.5H6.875C5.05231 5.50218 3.30489 6.22721 2.01605 7.51605C0.727213 8.80489 0.0021833 10.5523 0 12.375L0 26.125C0.0021833 27.9477 0.727213 29.6951 2.01605 30.9839C3.30489 32.2728 5.05231 32.9978 6.875 33H26.125C27.9477 32.9978 29.6951 32.2728 30.9839 30.9839C32.2728 29.6951 32.9978 27.9477 33 26.125V12.375C32.9978 10.5523 32.2728 8.80489 30.9839 7.51605C29.6951 6.22721 27.9477 5.50218 26.125 5.5ZM15.125 2.75H17.875C18.7251 2.75352 19.5534 3.01962 20.2465 3.51187C20.9396 4.00413 21.4636 4.6985 21.747 5.5H11.253C11.5364 4.6985 12.0604 4.00413 12.7535 3.51187C13.4466 3.01962 14.2749 2.75352 15.125 2.75ZM6.875 8.25H26.125C27.219 8.25 28.2682 8.6846 29.0418 9.45818C29.8154 10.2318 30.25 11.281 30.25 12.375V16.5H2.75V12.375C2.75 11.281 3.1846 10.2318 3.95818 9.45818C4.73177 8.6846 5.78098 8.25 6.875 8.25ZM26.125 30.25H6.875C5.78098 30.25 4.73177 29.8154 3.95818 29.0418C3.1846 28.2682 2.75 27.219 2.75 26.125V19.25H15.125V20.625C15.125 20.9897 15.2699 21.3394 15.5277 21.5973C15.7856 21.8551 16.1353 22 16.5 22C16.8647 22 17.2144 21.8551 17.4723 21.5973C17.7301 21.3394 17.875 20.9897 17.875 20.625V19.25H30.25V26.125C30.25 27.219 29.8154 28.2682 29.0418 29.0418C28.2682 29.8154 27.219 30.25 26.125 30.25Z" fill="url(#paint0_linear_2010_7083)"/>
</g>
<defs>
<linearGradient id="paint0_linear_2010_7083" x1="0" y1="0" x2="33" y2="35.4967" gradientUnits="userSpaceOnUse">
<stop stop-color="#0AF471"/>
<stop offset="1" stop-color="#00454C"/>
</linearGradient>
<clipPath id="clip0_2010_7083">
<rect width="33" height="33" fill="white"/>
</clipPath>
</defs>
</svg>
