<svg width="26" height="26" viewBox="0 0 26 26" fill="none" xmlns="http://www.w3.org/2000/svg">
<g clip-path="url(#clip0_2010_7652)">
<path d="M12.4583 6.50004C13.3553 6.50004 14.0833 7.22804 14.0833 8.12504C14.0833 9.02204 13.3553 9.75004 12.4583 9.75004C11.5613 9.75004 10.8333 9.02204 10.8333 8.12504C10.8333 7.22804 11.5613 6.50004 12.4583 6.50004ZM5.95833 3.25004C6.85533 3.25004 7.58333 2.52204 7.58333 1.62504C7.58333 0.728036 6.85533 3.57796e-05 5.95833 3.57796e-05C5.06133 3.57796e-05 4.33333 0.728036 4.33333 1.62504C4.33333 2.52204 5.06133 3.25004 5.95833 3.25004ZM25.1723 14.0996L17.8003 22.373C15.7463 24.6784 12.7985 26 9.71208 26H4.33333C1.9435 26 0 24.0565 0 21.6667V16.25C0 13.8602 1.9435 11.9167 4.33333 11.9167H13.9295C15.1634 11.9167 16.2457 12.5765 16.8426 13.5612L20.3266 9.7327C20.9138 9.08812 21.7154 8.71004 22.5864 8.66995C23.4618 8.62445 24.2916 8.92995 24.9351 9.51712C26.2503 10.7164 26.3564 12.7715 25.1723 14.0985V14.0996ZM23.4758 11.1194C23.2603 10.9222 22.9786 10.8301 22.6872 10.8355C22.3947 10.8496 22.126 10.9753 21.9288 11.192L17.134 16.4613C16.7169 17.6215 15.6834 18.5099 14.4105 18.6919L8.81942 19.4903C8.229 19.5759 7.67867 19.1642 7.59417 18.5716C7.50967 17.979 7.92133 17.4309 8.51283 17.3464L14.1039 16.548C14.7095 16.4613 15.1667 15.9348 15.1667 15.3227C15.1667 14.6402 14.612 14.0855 13.9295 14.0855H4.33333C3.13842 14.0855 2.16667 15.0573 2.16667 16.2522V21.6689C2.16667 22.8638 3.13842 23.8355 4.33333 23.8355H9.71208C12.181 23.8355 14.5405 22.7782 16.1828 20.9344L23.5549 12.6599C23.9525 12.2135 23.9168 11.5235 23.4758 11.1205V11.1194ZM6.18583 9.57887C6.36675 9.69479 6.56933 9.75112 6.77083 9.75112C7.12725 9.75112 7.47608 9.57562 7.683 9.25387L12.5569 1.66945C12.8798 1.16679 12.7346 0.496202 12.2308 0.172286C11.7293 -0.151631 11.0576 -0.0053809 10.7337 0.498369L5.85867 8.0817C5.53583 8.58437 5.68208 9.25495 6.18583 9.57887Z" fill="url(#paint0_linear_2010_7652)"/>
</g>
<defs>
<linearGradient id="paint0_linear_2010_7652" x1="0" y1="0" x2="26.0004" y2="27.9625" gradientUnits="userSpaceOnUse">
<stop stop-color="#0AF471"/>
<stop offset="1" stop-color="#00454C"/>
</linearGradient>
<clipPath id="clip0_2010_7652">
<rect width="26" height="26" fill="white"/>
</clipPath>
</defs>
</svg>
