<svg width="15" height="15" viewBox="0 0 15 15" fill="none" xmlns="http://www.w3.org/2000/svg">
<g clip-path="url(#clip0_4054_477)">
<path d="M11.1879 0.435547H3.02707C1.41997 0.435547 0.112488 1.74303 0.112488 3.35013V11.511C0.112488 13.1181 1.41997 14.4255 3.02707 14.4255H11.1879C12.795 14.4255 14.1025 13.1181 14.1025 11.511V3.35013C14.1025 1.74303 12.795 0.435547 11.1879 0.435547ZM9.43916 8.01347H7.69041V9.76222C7.69041 10.0846 7.42926 10.3451 7.10749 10.3451C6.78572 10.3451 6.52457 10.0846 6.52457 9.76222V8.01347H4.77582C4.45405 8.01347 4.19291 7.7529 4.19291 7.43055C4.19291 7.1082 4.45405 6.84763 4.77582 6.84763H6.52457V5.09888C6.52457 4.77653 6.78572 4.51596 7.10749 4.51596C7.42926 4.51596 7.69041 4.77653 7.69041 5.09888V6.84763H9.43916C9.76093 6.84763 10.0221 7.1082 10.0221 7.43055C10.0221 7.7529 9.76093 8.01347 9.43916 8.01347Z" fill="url(#paint0_linear_4054_477)"/>
</g>
<defs>
<linearGradient id="paint0_linear_4054_477" x1="0.112488" y1="0.435547" x2="14.1025" y2="15.484" gradientUnits="userSpaceOnUse">
<stop stop-color="#0AF471"/>
<stop offset="1" stop-color="#00454C"/>
</linearGradient>
<clipPath id="clip0_4054_477">
<rect width="13.99" height="13.99" fill="white" transform="translate(0.112488 0.435547)"/>
</clipPath>
</defs>
</svg>
