<svg width="1517" height="1563" viewBox="0 0 1517 1563" fill="none" xmlns="http://www.w3.org/2000/svg">
<g opacity="0.7">
<mask id="mask0_2001_2786" style="mask-type:luminance" maskUnits="userSpaceOnUse" x="343" y="449" width="670" height="670">
<path d="M914.517 1020.84C1045.15 890.211 1045.15 678.416 914.517 547.784C783.886 417.152 572.09 417.152 441.458 547.784C310.827 678.416 310.827 890.211 441.458 1020.84C572.09 1151.47 783.885 1151.47 914.517 1020.84Z" fill="white"/>
</mask>
<g mask="url(#mask0_2001_2786)">
<path d="M353.102 800.229L342.113 800.809L342.214 802.713L353.203 802.133L353.102 800.229Z" fill="#999999"/>
<path d="M1014.38 765.969L1003.39 766.547L1003.49 768.451L1014.48 767.873L1014.38 765.969Z" fill="#999999"/>
<path d="M354.33 817.3L343.386 818.452L343.585 820.349L354.529 819.196L354.33 817.3Z" fill="#999999"/>
<path d="M1013.13 748.079L1002.18 749.226L1002.38 751.122L1013.33 749.976L1013.13 748.079Z" fill="#999999"/>
<path d="M356.468 834.234L345.599 835.953L345.897 837.837L356.766 836.117L356.468 834.234Z" fill="#999999"/>
<path d="M1010.75 730.641L999.884 732.366L1000.18 734.25L1011.05 732.525L1010.75 730.641Z" fill="#999999"/>
<path d="M359.514 851.06L348.75 853.348L349.147 855.213L359.911 852.925L359.514 851.06Z" fill="#999999"/>
<path d="M1007.55 713.105L996.789 715.398L997.187 717.264L1007.95 714.97L1007.55 713.105Z" fill="#999999"/>
<path d="M368.175 884.151L357.709 887.552L358.299 889.366L368.764 885.965L368.175 884.151Z" fill="#999999"/>
<path d="M998.226 679.456L987.761 682.86L988.351 684.674L998.816 681.27L998.226 679.456Z" fill="#999999"/>
<path d="M373.821 900.268L363.548 904.213L364.232 905.993L374.504 902.048L373.821 900.268Z" fill="#999999"/>
<path d="M992.289 662.926L982.014 666.866L982.697 668.647L992.972 664.707L992.289 662.926Z" fill="#999999"/>
<path d="M380.374 915.805L370.321 920.281L371.097 922.023L381.15 917.548L380.374 915.805Z" fill="#999999"/>
<path d="M985.537 646.312L975.484 650.786L976.259 652.528L986.313 648.054L985.537 646.312Z" fill="#999999"/>
<path d="M387.69 931.154L377.886 936.151L378.752 937.85L388.556 932.853L387.69 931.154Z" fill="#999999"/>
<path d="M977.913 630.374L968.109 635.372L968.975 637.071L978.779 632.073L977.913 630.374Z" fill="#999999"/>
<path d="M404.622 960.757L395.395 966.752L396.434 968.351L405.661 962.356L404.622 960.757Z" fill="#999999"/>
<path d="M960.183 600.42L950.955 606.415L951.994 608.014L961.222 602.019L960.183 600.42Z" fill="#999999"/>
<path d="M414.198 975.074L405.294 981.541L406.415 983.084L415.318 976.617L414.198 975.074Z" fill="#999999"/>
<path d="M950.127 585.506L941.223 591.973L942.343 593.516L951.247 587.049L950.127 585.506Z" fill="#999999"/>
<path d="M424.547 988.798L415.997 995.727L417.198 997.208L425.747 990.28L424.547 988.798Z" fill="#999999"/>
<path d="M939.35 571.484L930.797 578.408L931.997 579.891L940.55 572.967L939.35 571.484Z" fill="#999999"/>
<path d="M435.566 1001.85L427.386 1009.21L428.661 1010.63L436.842 1003.27L435.566 1001.85Z" fill="#999999"/>
<path d="M927.902 558.431L919.725 565.796L921.002 567.213L929.178 559.848L927.902 558.431Z" fill="#999999"/>
<path d="M459.644 1025.85L452.279 1034.03L453.696 1035.3L461.061 1027.13L459.644 1025.85Z" fill="#999999"/>
<path d="M902.918 533.525L895.556 541.704L896.973 542.98L904.335 534.801L902.918 533.525Z" fill="#999999"/>
<path d="M472.566 1037.05L465.643 1045.61L467.125 1046.81L474.049 1038.25L472.566 1037.05Z" fill="#999999"/>
<path d="M889.432 521.969L882.502 530.518L883.983 531.719L890.913 523.17L889.432 521.969Z" fill="#999999"/>
<path d="M486.044 1047.22L479.578 1056.12L481.121 1057.24L487.587 1048.34L486.044 1047.22Z" fill="#999999"/>
<path d="M875.492 511.448L869.026 520.352L870.569 521.472L877.035 512.568L875.492 511.448Z" fill="#999999"/>
<path d="M500.136 1057.19L494.139 1066.42L495.738 1067.46L501.735 1058.23L500.136 1057.19Z" fill="#999999"/>
<path d="M860.954 501.554L854.959 510.782L856.558 511.821L862.553 502.593L860.954 501.554Z" fill="#999999"/>
<path d="M529.637 1074.32L524.64 1084.13L526.338 1084.99L531.336 1075.19L529.637 1074.32Z" fill="#999999"/>
<path d="M830.414 484.037L825.417 493.841L827.116 494.707L832.113 484.903L830.414 484.037Z" fill="#999999"/>
<path d="M545.012 1081.67L540.538 1091.72L542.28 1092.5L546.755 1082.45L545.012 1081.67Z" fill="#999999"/>
<path d="M814.461 476.426L809.985 486.479L811.727 487.255L816.203 477.202L814.461 476.426Z" fill="#999999"/>
<path d="M560.591 1087.94L556.651 1098.22L558.432 1098.9L562.372 1088.63L560.591 1087.94Z" fill="#999999"/>
<path d="M797.998 469.529L794.052 479.802L795.833 480.485L799.778 470.213L797.998 469.529Z" fill="#999999"/>
<path d="M576.671 1093.72L573.267 1104.18L575.08 1104.77L578.485 1094.31L576.671 1093.72Z" fill="#999999"/>
<path d="M781.255 463.562L777.854 474.027L779.668 474.617L783.068 464.151L781.255 463.562Z" fill="#999999"/>
<path d="M609.474 1102.53L607.183 1113.29L609.048 1113.69L611.339 1102.92L609.474 1102.53Z" fill="#999999"/>
<path d="M747.368 454.752L745.08 465.516L746.945 465.912L749.233 455.148L747.368 454.752Z" fill="#999999"/>
<path d="M626.475 1106.01L624.749 1116.88L626.633 1117.17L628.358 1106.31L626.475 1106.01Z" fill="#999999"/>
<path d="M730.117 451.669L728.398 462.538L730.281 462.836L732.001 451.967L730.117 451.669Z" fill="#999999"/>
<path d="M643.356 1108.25L642.21 1119.19L644.106 1119.39L645.253 1108.45L643.356 1108.25Z" fill="#999999"/>
<path d="M712.411 449.259L711.259 460.203L713.155 460.403L714.308 449.459L712.411 449.259Z" fill="#999999"/>
<path d="M660.114 1109.39L659.536 1120.38L661.441 1120.48L662.018 1109.49L660.114 1109.39Z" fill="#999999"/>
<path d="M695.163 448.147L694.583 459.136L696.488 459.236L697.067 448.247L695.163 448.147Z" fill="#999999"/>
<path d="M696.249 1109.62L694.344 1109.72L694.92 1120.7L696.825 1120.61L696.249 1109.62Z" fill="#999999"/>
<path d="M661.586 448.054L659.681 448.154L660.257 459.144L662.162 459.044L661.586 448.054Z" fill="#999999"/>
<path d="M713.432 1107.95L711.535 1108.15L712.687 1119.1L714.584 1118.9L713.432 1107.95Z" fill="#999999"/>
<path d="M644.07 449.243L642.174 449.442L643.324 460.386L645.221 460.187L644.07 449.243Z" fill="#999999"/>
<path d="M730.09 1106.03L728.206 1106.33L729.928 1117.2L731.811 1116.9L730.09 1106.03Z" fill="#999999"/>
<path d="M626.58 451.563L624.697 451.861L626.418 462.73L628.301 462.432L626.58 451.563Z" fill="#999999"/>
<path d="M746.885 1102.85L745.02 1103.25L747.308 1114.01L749.173 1113.61L746.885 1102.85Z" fill="#999999"/>
<path d="M609.203 454.737L607.338 455.134L609.626 465.898L611.491 465.501L609.203 454.737Z" fill="#999999"/>
<path d="M779.886 1093.7L778.072 1094.29L781.473 1104.76L783.286 1104.17L779.886 1093.7Z" fill="#999999"/>
<path d="M575.109 463.858L573.295 464.447L576.696 474.913L578.509 474.324L575.109 463.858Z" fill="#999999"/>
<path d="M795.978 1087.84L794.198 1088.52L798.142 1098.79L799.922 1098.11L795.978 1087.84Z" fill="#999999"/>
<path d="M558.461 469.727L556.681 470.41L560.624 480.684L562.405 480L558.461 469.727Z" fill="#999999"/>
<path d="M811.688 1081.39L809.946 1082.16L814.422 1092.21L816.164 1091.44L811.688 1081.39Z" fill="#999999"/>
<path d="M542.201 476.286L540.459 477.062L544.935 487.114L546.677 486.339L542.201 476.286Z" fill="#999999"/>
<path d="M827.045 1074.04L825.346 1074.9L830.342 1084.71L832.041 1083.84L827.045 1074.04Z" fill="#999999"/>
<path d="M526.264 483.807L524.564 484.673L529.56 494.478L531.259 493.612L526.264 483.807Z" fill="#999999"/>
<path d="M856.472 1057.12L854.873 1058.16L860.866 1067.39L862.466 1066.35L856.472 1057.12Z" fill="#999999"/>
<path d="M495.692 501.292L494.092 502.33L500.086 511.559L501.685 510.52L495.692 501.292Z" fill="#999999"/>
<path d="M870.524 1047.15L868.981 1048.28L875.45 1057.18L876.992 1056.06L870.524 1047.15Z" fill="#999999"/>
<path d="M481.121 511.216L479.578 512.337L486.046 521.239L487.589 520.119L481.121 511.216Z" fill="#999999"/>
<path d="M884.005 1036.94L882.523 1038.14L889.448 1046.69L890.93 1045.49L884.005 1036.94Z" fill="#999999"/>
<path d="M467.111 521.952L465.629 523.152L472.555 531.704L474.036 530.504L467.111 521.952Z" fill="#999999"/>
<path d="M896.951 1025.92L895.533 1027.2L902.897 1035.38L904.314 1034.1L896.951 1025.92Z" fill="#999999"/>
<path d="M453.669 533.309L452.252 534.585L459.615 542.763L461.032 541.487L453.669 533.309Z" fill="#999999"/>
<path d="M920.989 1001.61L919.713 1003.02L927.891 1010.39L929.167 1008.97L920.989 1001.61Z" fill="#999999"/>
<path d="M428.692 558.397L427.416 559.814L435.594 567.178L436.87 565.76L428.692 558.397Z" fill="#999999"/>
<path d="M931.983 988.434L930.783 989.916L939.335 996.841L940.535 995.359L931.983 988.434Z" fill="#999999"/>
<path d="M417.236 571.791L416.036 573.272L424.588 580.198L425.788 578.716L417.236 571.791Z" fill="#999999"/>
<path d="M942.336 974.919L941.215 976.462L950.117 982.93L951.238 981.387L942.336 974.919Z" fill="#999999"/>
<path d="M406.439 585.712L405.318 587.255L414.221 593.723L415.342 592.18L406.439 585.712Z" fill="#999999"/>
<path d="M951.878 960.661L950.839 962.261L960.069 968.253L961.108 966.653L951.878 960.661Z" fill="#999999"/>
<path d="M396.372 600.064L395.334 601.663L404.563 607.657L405.602 606.057L396.372 600.064Z" fill="#999999"/>
<path d="M968.97 931.393L968.105 933.092L977.91 938.088L978.775 936.389L968.97 931.393Z" fill="#999999"/>
<path d="M378.701 630.641L377.835 632.34L387.64 637.336L388.506 635.636L378.701 630.641Z" fill="#999999"/>
<path d="M976.295 916.058L975.52 917.8L985.573 922.276L986.348 920.534L976.295 916.058Z" fill="#999999"/>
<path d="M371.069 646.518L370.293 648.26L380.346 652.736L381.122 650.993L371.069 646.518Z" fill="#999999"/>
<path d="M982.7 900.123L982.016 901.903L992.29 905.847L992.973 904.067L982.7 900.123Z" fill="#999999"/>
<path d="M364.283 662.786L363.599 664.566L373.873 668.51L374.556 666.73L364.283 662.786Z" fill="#999999"/>
<path d="M988.397 884.122L987.808 885.936L998.274 889.336L998.863 887.523L988.397 884.122Z" fill="#999999"/>
<path d="M358.283 679.284L357.694 681.098L368.16 684.498L368.749 682.685L358.283 679.284Z" fill="#999999"/>
<path d="M997.001 851.009L996.604 852.874L1007.37 855.162L1007.76 853.297L997.001 851.009Z" fill="#999999"/>
<path d="M349.027 713.282L348.631 715.147L359.395 717.435L359.791 715.57L349.027 713.282Z" fill="#999999"/>
<path d="M1000.1 834.297L999.804 836.181L1010.67 837.902L1010.97 836.019L1000.1 834.297Z" fill="#999999"/>
<path d="M345.902 730.762L345.603 732.646L356.472 734.367L356.771 732.484L345.902 730.762Z" fill="#999999"/>
<path d="M1002.31 817.401L1002.11 819.298L1013.05 820.448L1013.25 818.551L1002.31 817.401Z" fill="#999999"/>
<path d="M343.454 748.121L343.254 750.018L354.199 751.168L354.398 749.271L343.454 748.121Z" fill="#999999"/>
<path d="M1003.56 800.397L1003.46 802.302L1014.45 802.878L1014.55 800.973L1003.56 800.397Z" fill="#999999"/>
<path d="M341.985 765.679L341.885 767.583L352.874 768.159L352.974 766.254L341.985 765.679Z" fill="#999999"/>
<path d="M354.33 817.302L343.386 818.454L343.585 820.351L354.529 819.198L354.33 817.302Z" fill="#999999"/>
<path d="M1013.13 748.081L1002.18 749.228L1002.38 751.124L1013.33 749.978L1013.13 748.081Z" fill="#999999"/>
<path d="M356.468 834.235L345.599 835.954L345.897 837.838L356.766 836.118L356.468 834.235Z" fill="#999999"/>
<path d="M1010.75 730.643L999.884 732.368L1000.18 734.252L1011.05 732.526L1010.75 730.643Z" fill="#999999"/>
<path d="M359.514 851.061L348.75 853.349L349.147 855.214L359.911 852.926L359.514 851.061Z" fill="#999999"/>
<path d="M1007.55 713.107L996.789 715.4L997.187 717.266L1007.95 714.972L1007.55 713.107Z" fill="#999999"/>
<path d="M363.39 867.72L352.761 870.57L353.255 872.412L363.884 869.562L363.39 867.72Z" fill="#999999"/>
<path d="M1003.3 696.247L992.668 699.097L993.162 700.939L1003.79 698.089L1003.3 696.247Z" fill="#999999"/>
<path d="M373.821 900.268L363.548 904.213L364.232 905.993L374.504 902.048L373.821 900.268Z" fill="#999999"/>
<path d="M992.289 662.926L982.014 666.866L982.697 668.647L992.972 664.707L992.289 662.926Z" fill="#999999"/>
<path d="M380.374 915.805L370.321 920.281L371.097 922.023L381.15 917.548L380.374 915.805Z" fill="#999999"/>
<path d="M985.537 646.313L975.484 650.787L976.259 652.529L986.313 648.055L985.537 646.313Z" fill="#999999"/>
<path d="M387.69 931.155L377.886 936.152L378.752 937.851L388.556 932.854L387.69 931.155Z" fill="#999999"/>
<path d="M977.913 630.375L968.109 635.373L968.975 637.072L978.779 632.074L977.913 630.375Z" fill="#999999"/>
<path d="M395.678 946.568L386.149 952.072L387.103 953.724L396.632 948.22L395.678 946.568Z" fill="#999999"/>
<path d="M969.436 614.998L959.904 620.497L960.857 622.149L970.389 616.65L969.436 614.998Z" fill="#999999"/>
<path d="M414.198 975.076L405.294 981.543L406.415 983.086L415.318 976.619L414.198 975.076Z" fill="#999999"/>
<path d="M950.127 585.508L941.223 591.975L942.343 593.518L951.247 587.051L950.127 585.508Z" fill="#999999"/>
<path d="M424.547 988.798L415.997 995.727L417.198 997.208L425.747 990.28L424.547 988.798Z" fill="#999999"/>
<path d="M939.35 571.484L930.797 578.408L931.997 579.891L940.55 572.967L939.35 571.484Z" fill="#999999"/>
<path d="M435.566 1001.85L427.386 1009.21L428.661 1010.63L436.842 1003.27L435.566 1001.85Z" fill="#999999"/>
<path d="M927.902 558.432L919.725 565.797L921.002 567.214L929.178 559.849L927.902 558.432Z" fill="#999999"/>
<path d="M447.293 1013.97L439.512 1021.76L440.86 1023.1L448.641 1015.32L447.293 1013.97Z" fill="#999999"/>
<path d="M915.693 545.42L907.909 553.198L909.257 554.547L917.041 546.769L915.693 545.42Z" fill="#999999"/>
<path d="M472.566 1037.05L465.643 1045.61L467.125 1046.81L474.049 1038.25L472.566 1037.05Z" fill="#999999"/>
<path d="M889.432 521.969L882.502 530.518L883.983 531.719L890.913 523.17L889.432 521.969Z" fill="#999999"/>
<path d="M486.044 1047.22L479.578 1056.12L481.121 1057.25L487.587 1048.34L486.044 1047.22Z" fill="#999999"/>
<path d="M875.492 511.449L869.026 520.353L870.569 521.473L877.035 512.569L875.492 511.449Z" fill="#999999"/>
<path d="M500.136 1057.2L494.139 1066.42L495.738 1067.46L501.735 1058.24L500.136 1057.2Z" fill="#999999"/>
<path d="M860.954 501.556L854.959 510.784L856.559 511.823L862.553 502.595L860.954 501.556Z" fill="#999999"/>
<path d="M514.54 1065.74L509.042 1075.27L510.694 1076.23L516.191 1066.69L514.54 1065.74Z" fill="#999999"/>
<path d="M845.722 492.022L840.218 501.551L841.869 502.505L847.373 492.975L845.722 492.022Z" fill="#999999"/>
<path d="M545.012 1081.67L540.538 1091.72L542.28 1092.5L546.755 1082.45L545.012 1081.67Z" fill="#999999"/>
<path d="M814.461 476.427L809.985 486.48L811.727 487.256L816.203 477.203L814.461 476.427Z" fill="#999999"/>
<path d="M560.591 1087.95L556.651 1098.22L558.432 1098.9L562.372 1088.63L560.591 1087.95Z" fill="#999999"/>
<path d="M797.998 469.53L794.052 479.803L795.833 480.486L799.778 470.214L797.998 469.53Z" fill="#999999"/>
<path d="M576.671 1093.72L573.267 1104.18L575.08 1104.77L578.485 1094.31L576.671 1093.72Z" fill="#999999"/>
<path d="M781.255 463.562L777.854 474.027L779.668 474.617L783.068 464.151L781.255 463.562Z" fill="#999999"/>
<path d="M593.054 1098.7L590.204 1109.33L592.046 1109.82L594.896 1099.19L593.054 1098.7Z" fill="#999999"/>
<path d="M764.504 458.821L761.655 469.45L763.496 469.944L766.346 459.315L764.504 458.821Z" fill="#999999"/>
<path d="M626.475 1106.01L624.75 1116.88L626.633 1117.18L628.358 1106.31L626.475 1106.01Z" fill="#999999"/>
<path d="M730.118 451.671L728.398 462.54L730.282 462.838L732.001 451.969L730.118 451.671Z" fill="#999999"/>
<path d="M643.356 1108.25L642.21 1119.2L644.106 1119.39L645.252 1108.45L643.356 1108.25Z" fill="#999999"/>
<path d="M712.411 449.26L711.259 460.204L713.156 460.404L714.308 449.46L712.411 449.26Z" fill="#999999"/>
<path d="M660.114 1109.39L659.536 1120.38L661.441 1120.48L662.018 1109.49L660.114 1109.39Z" fill="#999999"/>
<path d="M695.163 448.149L694.583 459.138L696.488 459.238L697.067 448.249L695.163 448.149Z" fill="#999999"/>
<path d="M679.235 1110.06H677.328V1121.06H679.235V1110.06Z" fill="#999999"/>
<path d="M679.235 447.596H677.328V458.6H679.235V447.596Z" fill="#999999"/>
<path d="M713.432 1107.95L711.535 1108.15L712.687 1119.1L714.584 1118.9L713.432 1107.95Z" fill="#999999"/>
<path d="M644.07 449.243L642.174 449.442L643.324 460.386L645.22 460.187L644.07 449.243Z" fill="#999999"/>
<path d="M730.09 1106.03L728.206 1106.33L729.928 1117.2L731.811 1116.9L730.09 1106.03Z" fill="#999999"/>
<path d="M626.58 451.563L624.697 451.861L626.418 462.73L628.301 462.432L626.58 451.563Z" fill="#999999"/>
<path d="M746.885 1102.85L745.02 1103.25L747.308 1114.01L749.173 1113.61L746.885 1102.85Z" fill="#999999"/>
<path d="M609.203 454.738L607.338 455.135L609.626 465.899L611.491 465.502L609.203 454.738Z" fill="#999999"/>
<path d="M763.545 1098.63L761.703 1099.12L764.551 1109.75L766.393 1109.26L763.545 1098.63Z" fill="#999999"/>
<path d="M592.106 458.682L590.264 459.176L593.112 469.805L594.954 469.312L592.106 458.682Z" fill="#999999"/>
<path d="M795.978 1087.84L794.198 1088.52L798.141 1098.8L799.922 1098.11L795.978 1087.84Z" fill="#999999"/>
<path d="M558.461 469.727L556.681 470.41L560.624 480.684L562.405 480L558.461 469.727Z" fill="#999999"/>
<path d="M811.688 1081.39L809.946 1082.16L814.422 1092.22L816.164 1091.44L811.688 1081.39Z" fill="#999999"/>
<path d="M542.201 476.287L540.459 477.062L544.935 487.115L546.677 486.34L542.201 476.287Z" fill="#999999"/>
<path d="M827.045 1074.04L825.346 1074.9L830.342 1084.71L832.041 1083.84L827.045 1074.04Z" fill="#999999"/>
<path d="M526.264 483.807L524.564 484.673L529.56 494.478L531.259 493.612L526.264 483.807Z" fill="#999999"/>
<path d="M842.001 1065.83L840.35 1066.78L845.852 1076.31L847.503 1075.36L842.001 1065.83Z" fill="#999999"/>
<path d="M510.753 492.171L509.102 493.124L514.604 502.654L516.255 501.701L510.753 492.171Z" fill="#999999"/>
<path d="M870.524 1047.16L868.981 1048.28L875.45 1057.18L876.992 1056.06L870.524 1047.16Z" fill="#999999"/>
<path d="M481.121 511.217L479.578 512.338L486.046 521.24L487.589 520.12L481.121 511.217Z" fill="#999999"/>
<path d="M884.005 1036.94L882.523 1038.14L889.448 1046.69L890.93 1045.49L884.005 1036.94Z" fill="#999999"/>
<path d="M467.111 521.954L465.629 523.154L472.555 531.706L474.037 530.506L467.111 521.954Z" fill="#999999"/>
<path d="M896.951 1025.93L895.533 1027.2L902.897 1035.38L904.314 1034.1L896.951 1025.93Z" fill="#999999"/>
<path d="M453.669 533.31L452.252 534.586L459.615 542.764L461.032 541.488L453.669 533.31Z" fill="#999999"/>
<path d="M909.301 1014.17L907.952 1015.52L915.734 1023.3L917.082 1021.95L909.301 1014.17Z" fill="#999999"/>
<path d="M440.864 545.606L439.515 546.954L447.297 554.735L448.645 553.387L440.864 545.606Z" fill="#999999"/>
<path d="M931.983 988.434L930.783 989.916L939.335 996.841L940.535 995.359L931.983 988.434Z" fill="#999999"/>
<path d="M417.236 571.791L416.036 573.272L424.588 580.198L425.788 578.716L417.236 571.791Z" fill="#999999"/>
<path d="M942.336 974.92L941.215 976.463L950.117 982.931L951.238 981.388L942.336 974.92Z" fill="#999999"/>
<path d="M406.439 585.713L405.318 587.256L414.221 593.724L415.342 592.181L406.439 585.713Z" fill="#999999"/>
<path d="M951.878 960.662L950.839 962.262L960.069 968.254L961.108 966.654L951.878 960.662Z" fill="#999999"/>
<path d="M396.373 600.065L395.334 601.664L404.563 607.657L405.602 606.058L396.373 600.065Z" fill="#999999"/>
<path d="M960.821 946.286L959.867 947.938L969.397 953.44L970.351 951.788L960.821 946.286Z" fill="#999999"/>
<path d="M387.198 615.249L386.244 616.9L395.774 622.403L396.728 620.751L387.198 615.249Z" fill="#999999"/>
<path d="M976.295 916.058L975.52 917.8L985.573 922.276L986.348 920.534L976.295 916.058Z" fill="#999999"/>
<path d="M371.069 646.518L370.293 648.26L380.346 652.736L381.122 650.993L371.069 646.518Z" fill="#999999"/>
<path d="M982.7 900.124L982.016 901.904L992.29 905.848L992.973 904.068L982.7 900.124Z" fill="#999999"/>
<path d="M364.283 662.787L363.599 664.567L373.873 668.511L374.556 666.731L364.283 662.787Z" fill="#999999"/>
<path d="M988.397 884.124L987.808 885.938L998.274 889.338L998.863 887.524L988.397 884.124Z" fill="#999999"/>
<path d="M358.283 679.286L357.694 681.1L368.16 684.5L368.749 682.687L358.283 679.286Z" fill="#999999"/>
<path d="M993.167 867.705L992.674 869.547L1003.3 872.395L1003.8 870.553L993.167 867.705Z" fill="#999999"/>
<path d="M353.279 696.289L352.786 698.131L363.415 700.979L363.909 699.137L353.279 696.289Z" fill="#999999"/>
<path d="M1000.1 834.3L999.804 836.184L1010.67 837.905L1010.97 836.022L1000.1 834.3Z" fill="#999999"/>
<path d="M345.902 730.765L345.603 732.648L356.472 734.37L356.771 732.486L345.902 730.765Z" fill="#999999"/>
<path d="M1002.31 817.401L1002.11 819.298L1013.05 820.448L1013.25 818.551L1002.31 817.401Z" fill="#999999"/>
<path d="M343.454 748.121L343.255 750.018L354.199 751.168L354.398 749.271L343.454 748.121Z" fill="#999999"/>
<path d="M1003.56 800.397L1003.46 802.302L1014.45 802.878L1014.55 800.973L1003.56 800.397Z" fill="#999999"/>
<path d="M341.985 765.679L341.885 767.583L352.874 768.159L352.974 766.254L341.985 765.679Z" fill="#999999"/>
<path d="M1015.02 783.376H1004.01V785.283H1015.02V783.376Z" fill="#999999"/>
<path d="M352.552 783.376H341.548V785.283H352.552V783.376Z" fill="#999999"/>
</g>
<g opacity="0.6">
<mask id="mask1_2001_2786" style="mask-type:luminance" maskUnits="userSpaceOnUse" x="198" y="304" width="960" height="960">
<path opacity="0.5" d="M1017.48 1123.47C1204.79 936.163 1204.79 632.47 1017.48 445.158C830.163 257.846 526.47 257.846 339.158 445.158C151.846 632.47 151.846 936.163 339.158 1123.47C526.47 1310.79 830.163 1310.79 1017.48 1123.47Z" fill="white"/>
</mask>
<g mask="url(#mask1_2001_2786)">
<path d="M653.911 292.137L651.124 292.283L651.967 308.375L654.755 308.229L653.911 292.137Z" fill="#999999"/>
<path d="M704.646 1260.19L701.858 1260.34L702.702 1276.43L705.489 1276.28L704.646 1260.19Z" fill="#999999"/>
<path d="M628.201 294.057L625.424 294.349L627.109 310.375L629.885 310.083L628.201 294.057Z" fill="#999999"/>
<path d="M729.553 1258.13L726.776 1258.42L728.461 1274.45L731.237 1274.15L729.553 1258.13Z" fill="#999999"/>
<path d="M602.628 297.356L599.87 297.793L602.391 313.709L605.148 313.272L602.628 297.356Z" fill="#999999"/>
<path d="M754.277 1254.8L751.52 1255.24L754.041 1271.16L756.798 1270.72L754.277 1254.8Z" fill="#999999"/>
<path d="M577.257 301.931L574.526 302.512L577.876 318.274L580.607 317.693L577.257 301.931Z" fill="#999999"/>
<path d="M778.775 1250.21L776.045 1250.79L779.395 1266.55L782.125 1265.97L778.775 1250.21Z" fill="#999999"/>
<path d="M527.351 315.274L524.695 316.137L529.675 331.462L532.33 330.6L527.351 315.274Z" fill="#999999"/>
<path d="M826.952 1237.15L824.297 1238.01L829.277 1253.34L831.932 1252.47L826.952 1237.15Z" fill="#999999"/>
<path d="M503.025 323.806L500.419 324.807L506.194 339.85L508.8 338.85L503.025 323.806Z" fill="#999999"/>
<path d="M850.416 1228.77L847.809 1229.77L853.584 1244.81L856.19 1243.81L850.416 1228.77Z" fill="#999999"/>
<path d="M479.157 333.603L476.607 334.738L483.161 349.459L485.711 348.324L479.157 333.603Z" fill="#999999"/>
<path d="M873.463 1219.11L870.913 1220.24L877.467 1234.97L880.017 1233.83L873.463 1219.11Z" fill="#999999"/>
<path d="M455.843 344.589L453.355 345.856L460.671 360.214L463.158 358.947L455.843 344.589Z" fill="#999999"/>
<path d="M895.901 1208.52L893.414 1209.79L900.73 1224.15L903.217 1222.88L895.901 1208.52Z" fill="#999999"/>
<path d="M411.098 370.298L408.757 371.818L417.533 385.333L419.875 383.812L411.098 370.298Z" fill="#999999"/>
<path d="M939.081 1183.25L936.74 1184.77L945.516 1198.29L947.857 1196.77L939.081 1183.25Z" fill="#999999"/>
<path d="M389.807 384.8L387.549 386.441L397.021 399.478L399.279 397.837L389.807 384.8Z" fill="#999999"/>
<path d="M959.615 1168.93L957.357 1170.58L966.828 1183.61L969.087 1181.97L959.615 1168.93Z" fill="#999999"/>
<path d="M369.311 400.547L367.142 402.304L377.283 414.827L379.452 413.07L369.311 400.547Z" fill="#999999"/>
<path d="M979.361 1153.86L977.191 1155.62L987.332 1168.14L989.502 1166.38L979.361 1153.86Z" fill="#999999"/>
<path d="M349.636 417.156L347.561 419.024L358.344 431L360.418 429.132L349.636 417.156Z" fill="#999999"/>
<path d="M998.279 1137.57L996.204 1139.43L1006.99 1151.41L1009.06 1149.54L998.279 1137.57Z" fill="#999999"/>
<path d="M313.063 453.564L311.195 455.639L323.17 466.421L325.038 464.347L313.063 453.564Z" fill="#999999"/>
<path d="M1033.45 1102.19L1031.59 1104.26L1043.56 1115.04L1045.43 1112.97L1033.45 1102.19Z" fill="#999999"/>
<path d="M296.239 473.092L294.482 475.262L307.005 485.403L308.762 483.233L296.239 473.092Z" fill="#999999"/>
<path d="M1049.59 1083.05L1047.83 1085.21L1060.36 1095.36L1062.11 1093.19L1049.59 1083.05Z" fill="#999999"/>
<path d="M280.483 493.521L278.842 495.779L291.879 505.251L293.52 502.992L280.483 493.521Z" fill="#999999"/>
<path d="M1064.71 1063.21L1063.07 1065.46L1076.11 1074.94L1077.75 1072.68L1064.71 1063.21Z" fill="#999999"/>
<path d="M265.825 514.767L264.305 517.108L277.819 525.885L279.34 523.543L265.825 514.767Z" fill="#999999"/>
<path d="M1078.83 1042.75L1077.31 1045.09L1090.83 1053.87L1092.35 1051.52L1078.83 1042.75Z" fill="#999999"/>
<path d="M239.878 559.255L238.611 561.742L252.969 569.058L254.236 566.57L239.878 559.255Z" fill="#999999"/>
<path d="M1103.68 999.54L1102.41 1002.03L1116.77 1009.34L1118.04 1006.86L1103.68 999.54Z" fill="#999999"/>
<path d="M228.721 582.597L227.585 585.147L242.306 591.702L243.442 589.151L228.721 582.597Z" fill="#999999"/>
<path d="M1114.31 976.845L1113.17 979.396L1127.89 985.95L1129.03 983.399L1114.31 976.845Z" fill="#999999"/>
<path d="M218.78 606.417L217.78 609.023L232.824 614.798L233.824 612.192L218.78 606.417Z" fill="#999999"/>
<path d="M1123.77 953.737L1122.77 956.344L1137.81 962.119L1138.81 959.512L1123.77 953.737Z" fill="#999999"/>
<path d="M210.061 630.611L209.198 633.267L224.524 638.246L225.386 635.591L210.061 630.611Z" fill="#999999"/>
<path d="M1132.05 930.222L1131.19 932.877L1146.51 937.857L1147.37 935.202L1132.05 930.222Z" fill="#999999"/>
<path d="M196.65 680.539L196.07 683.27L211.832 686.62L212.412 683.889L196.65 680.539Z" fill="#999999"/>
<path d="M1144.95 882.131L1144.37 884.861L1160.13 888.212L1160.71 885.481L1144.95 882.131Z" fill="#999999"/>
<path d="M191.861 705.865L191.425 708.622L207.341 711.143L207.777 708.386L191.861 705.865Z" fill="#999999"/>
<path d="M1149.35 857.51L1148.91 860.268L1164.83 862.788L1165.26 860.031L1149.35 857.51Z" fill="#999999"/>
<path d="M188.43 731.427L188.138 734.203L204.164 735.888L204.456 733.111L188.43 731.427Z" fill="#999999"/>
<path d="M1152.54 832.742L1152.25 835.519L1168.27 837.203L1168.56 834.427L1152.54 832.742Z" fill="#999999"/>
<path d="M186.288 757.103L186.142 759.891L202.234 760.734L202.38 757.946L186.288 757.103Z" fill="#999999"/>
<path d="M1154.39 807.83L1154.24 810.618L1170.33 811.462L1170.48 808.674L1154.39 807.83Z" fill="#999999"/>
<path d="M202.16 807.943L186.068 808.786L186.214 811.574L202.307 810.731L202.16 807.943Z" fill="#999999"/>
<path d="M1170.42 756.95L1154.33 757.791L1154.47 760.579L1170.57 759.738L1170.42 756.95Z" fill="#999999"/>
<path d="M204.255 832.574L188.229 834.259L188.521 837.035L204.547 835.351L204.255 832.574Z" fill="#999999"/>
<path d="M1168.23 731.404L1152.2 733.091L1152.49 735.867L1168.52 734.18L1168.23 731.404Z" fill="#999999"/>
<path d="M207.203 857.62L191.287 860.141L191.724 862.898L207.64 860.377L207.203 857.62Z" fill="#999999"/>
<path d="M1164.83 705.736L1148.91 708.254L1149.35 711.011L1165.26 708.493L1164.83 705.736Z" fill="#999999"/>
<path d="M211.755 882.062L195.993 885.412L196.574 888.143L212.336 884.792L211.755 882.062Z" fill="#999999"/>
<path d="M1160.06 680.321L1144.29 683.669L1144.87 686.4L1160.64 683.052L1160.06 680.321Z" fill="#999999"/>
<path d="M224.646 930.092L209.322 935.074L210.185 937.729L225.509 932.747L224.646 930.092Z" fill="#999999"/>
<path d="M1146.46 630.936L1131.14 635.91L1132 638.566L1147.33 633.591L1146.46 630.936Z" fill="#999999"/>
<path d="M232.831 953.765L217.787 959.54L218.788 962.146L233.832 956.372L232.831 953.765Z" fill="#999999"/>
<path d="M1137.87 606.307L1122.82 612.082L1123.82 614.688L1138.87 608.914L1137.87 606.307Z" fill="#999999"/>
<path d="M242.227 977.073L227.506 983.627L228.642 986.177L243.363 979.623L242.227 977.073Z" fill="#999999"/>
<path d="M1127.87 582.768L1113.15 589.322L1114.29 591.873L1129.01 585.318L1127.87 582.768Z" fill="#999999"/>
<path d="M252.934 999.583L238.576 1006.9L239.844 1009.39L254.201 1002.07L252.934 999.583Z" fill="#999999"/>
<path d="M1116.72 559.58L1102.36 566.894L1103.62 569.381L1117.98 562.068L1116.72 559.58Z" fill="#999999"/>
<path d="M277.819 1042.65L264.305 1051.43L265.825 1053.77L279.34 1045L277.819 1042.65Z" fill="#999999"/>
<path d="M1090.8 514.811L1077.29 523.588L1078.81 525.929L1092.32 517.153L1090.8 514.811Z" fill="#999999"/>
<path d="M291.845 1063.54L278.806 1073.01L280.447 1075.27L293.485 1065.8L291.845 1063.54Z" fill="#999999"/>
<path d="M1076.14 493.424L1063.1 502.894L1064.74 505.152L1077.78 495.683L1076.14 493.424Z" fill="#999999"/>
<path d="M307.04 1082.97L294.518 1093.12L296.276 1095.29L308.797 1085.14L307.04 1082.97Z" fill="#999999"/>
<path d="M1060.43 473.34L1047.9 483.479L1049.66 485.648L1062.19 475.51L1060.43 473.34Z" fill="#999999"/>
<path d="M323.167 1102.03L311.192 1112.81L313.06 1114.89L325.035 1104.1L323.167 1102.03Z" fill="#999999"/>
<path d="M1043.63 453.779L1031.65 464.56L1033.52 466.635L1045.49 455.854L1043.63 453.779Z" fill="#999999"/>
<path d="M358.319 1137.44L347.538 1149.41L349.613 1151.28L360.394 1139.3L358.319 1137.44Z" fill="#999999"/>
<path d="M1006.9 416.927L996.121 428.904L998.196 430.772L1008.98 418.795L1006.9 416.927Z" fill="#999999"/>
<path d="M377.236 1153.59L367.097 1166.11L369.267 1167.87L379.406 1155.34L377.236 1153.59Z" fill="#999999"/>
<path d="M987.246 400.239L977.105 412.762L979.274 414.519L989.415 401.995L987.246 400.239Z" fill="#999999"/>
<path d="M397.037 1169.15L387.568 1182.19L389.827 1183.83L399.296 1170.79L397.037 1169.15Z" fill="#999999"/>
<path d="M966.785 384.723L957.315 397.762L959.574 399.402L969.044 386.364L966.785 384.723Z" fill="#999999"/>
<path d="M417.555 1183.35L408.778 1196.86L411.12 1198.38L419.896 1184.87L417.555 1183.35Z" fill="#999999"/>
<path d="M945.597 370.401L936.82 383.916L939.161 385.437L947.938 371.922L945.597 370.401Z" fill="#999999"/>
<path d="M460.688 1208.4L453.372 1222.76L455.86 1224.03L463.175 1209.67L460.688 1208.4Z" fill="#999999"/>
<path d="M900.852 344.711L893.534 359.067L896.021 360.335L903.339 345.979L900.852 344.711Z" fill="#999999"/>
<path d="M483.245 1219.35L476.688 1234.07L479.238 1235.21L485.795 1220.49L483.245 1219.35Z" fill="#999999"/>
<path d="M877.542 333.65L870.986 348.37L873.536 349.506L880.093 334.786L877.542 333.65Z" fill="#999999"/>
<path d="M506.166 1228.7L500.391 1243.74L502.997 1244.74L508.772 1229.7L506.166 1228.7Z" fill="#999999"/>
<path d="M853.61 323.757L847.835 338.801L850.441 339.801L856.216 324.757L853.61 323.757Z" fill="#999999"/>
<path d="M529.8 1237.39L524.823 1252.72L527.478 1253.58L532.455 1238.25L529.8 1237.39Z" fill="#999999"/>
<path d="M829.388 315.324L824.406 330.648L827.061 331.512L832.043 316.187L829.388 315.324Z" fill="#999999"/>
<path d="M577.852 1250.24L574.504 1266L577.235 1266.58L580.582 1250.82L577.852 1250.24Z" fill="#999999"/>
<path d="M779.348 301.955L775.998 317.717L778.728 318.297L782.079 302.535L779.348 301.955Z" fill="#999999"/>
<path d="M602.408 1254.9L599.89 1270.81L602.648 1271.25L605.166 1255.33L602.408 1254.9Z" fill="#999999"/>
<path d="M753.863 297.253L751.342 313.169L754.1 313.606L756.62 297.69L753.863 297.253Z" fill="#999999"/>
<path d="M626.977 1258.03L625.29 1274.05L628.066 1274.35L629.753 1258.32L626.977 1258.03Z" fill="#999999"/>
<path d="M728.563 294.175L726.879 310.201L729.655 310.493L731.34 294.467L728.563 294.175Z" fill="#999999"/>
<path d="M651.819 1260.02L650.982 1276.11L653.77 1276.26L654.607 1260.17L651.819 1260.02Z" fill="#999999"/>
<path d="M702.586 292.045L701.742 308.137L704.53 308.283L705.374 292.191L702.586 292.045Z" fill="#999999"/>
<path d="M628.201 294.056L625.424 294.348L627.109 310.374L629.885 310.082L628.201 294.056Z" fill="#999999"/>
<path d="M729.553 1258.13L726.776 1258.42L728.461 1274.44L731.237 1274.15L729.553 1258.13Z" fill="#999999"/>
<path d="M602.628 297.353L599.87 297.79L602.391 313.706L605.148 313.269L602.628 297.353Z" fill="#999999"/>
<path d="M754.277 1254.8L751.52 1255.24L754.041 1271.15L756.798 1270.72L754.277 1254.8Z" fill="#999999"/>
<path d="M577.257 301.93L574.526 302.511L577.876 318.273L580.607 317.692L577.257 301.93Z" fill="#999999"/>
<path d="M778.775 1250.21L776.045 1250.79L779.395 1266.55L782.125 1265.97L778.775 1250.21Z" fill="#999999"/>
<path d="M552.144 307.917L549.447 308.64L553.618 324.205L556.314 323.482L552.144 307.917Z" fill="#999999"/>
<path d="M803.019 1244.31L800.322 1245.03L804.493 1260.6L807.189 1259.87L803.019 1244.31Z" fill="#999999"/>
<path d="M503.025 323.803L500.419 324.804L506.194 339.848L508.8 338.847L503.025 323.803Z" fill="#999999"/>
<path d="M850.416 1228.76L847.809 1229.76L853.584 1244.81L856.19 1243.81L850.416 1228.76Z" fill="#999999"/>
<path d="M479.157 333.602L476.607 334.737L483.161 349.458L485.712 348.323L479.157 333.602Z" fill="#999999"/>
<path d="M873.463 1219.11L870.913 1220.24L877.467 1234.96L880.017 1233.83L873.463 1219.11Z" fill="#999999"/>
<path d="M455.843 344.587L453.355 345.854L460.671 360.212L463.158 358.945L455.843 344.587Z" fill="#999999"/>
<path d="M895.901 1208.52L893.414 1209.79L900.73 1224.15L903.217 1222.88L895.901 1208.52Z" fill="#999999"/>
<path d="M433.131 356.873L430.713 358.269L438.771 372.224L441.188 370.828L433.131 356.873Z" fill="#999999"/>
<path d="M917.859 1196.34L915.441 1197.74L923.498 1211.69L925.916 1210.29L917.859 1196.34Z" fill="#999999"/>
<path d="M389.808 384.798L387.549 386.439L397.021 399.476L399.279 397.835L389.808 384.798Z" fill="#999999"/>
<path d="M959.615 1168.93L957.357 1170.57L966.828 1183.61L969.087 1181.97L959.615 1168.93Z" fill="#999999"/>
<path d="M369.311 400.546L367.142 402.303L377.283 414.826L379.452 413.069L369.311 400.546Z" fill="#999999"/>
<path d="M979.361 1153.86L977.191 1155.62L987.332 1168.14L989.502 1166.38L979.361 1153.86Z" fill="#999999"/>
<path d="M349.636 417.153L347.561 419.021L358.344 430.997L360.418 429.129L349.636 417.153Z" fill="#999999"/>
<path d="M998.279 1137.56L996.204 1139.43L1006.99 1151.41L1009.06 1149.54L998.279 1137.56Z" fill="#999999"/>
<path d="M330.858 434.861L328.884 436.835L340.279 448.229L342.253 446.255L330.858 434.861Z" fill="#999999"/>
<path d="M1016.34 1120.31L1014.36 1122.28L1025.76 1133.68L1027.73 1131.7L1016.34 1120.31Z" fill="#999999"/>
<path d="M296.239 473.09L294.482 475.26L307.005 485.401L308.762 483.231L296.239 473.09Z" fill="#999999"/>
<path d="M1049.59 1083.04L1047.83 1085.21L1060.36 1095.35L1062.11 1093.18L1049.59 1083.04Z" fill="#999999"/>
<path d="M280.483 493.521L278.842 495.779L291.879 505.251L293.52 502.992L280.483 493.521Z" fill="#999999"/>
<path d="M1064.71 1063.21L1063.07 1065.46L1076.11 1074.94L1077.75 1072.68L1064.71 1063.21Z" fill="#999999"/>
<path d="M265.825 514.765L264.305 517.106L277.819 525.883L279.34 523.542L265.825 514.765Z" fill="#999999"/>
<path d="M1078.83 1042.74L1077.31 1045.09L1090.83 1053.86L1092.35 1051.52L1078.83 1042.74Z" fill="#999999"/>
<path d="M252.282 536.729L250.886 539.146L264.841 547.204L266.237 544.786L252.282 536.729Z" fill="#999999"/>
<path d="M1091.75 1021.29L1090.35 1023.71L1104.31 1031.77L1105.71 1029.35L1091.75 1021.29Z" fill="#999999"/>
<path d="M228.721 582.594L227.585 585.145L242.306 591.699L243.442 589.148L228.721 582.594Z" fill="#999999"/>
<path d="M1114.31 976.842L1113.17 979.393L1127.89 985.947L1129.03 983.396L1114.31 976.842Z" fill="#999999"/>
<path d="M218.78 606.413L217.78 609.02L232.824 614.794L233.824 612.188L218.78 606.413Z" fill="#999999"/>
<path d="M1123.77 953.734L1122.77 956.34L1137.81 962.115L1138.81 959.508L1123.77 953.734Z" fill="#999999"/>
<path d="M210.061 630.611L209.198 633.267L224.524 638.246L225.386 635.591L210.061 630.611Z" fill="#999999"/>
<path d="M1132.05 930.223L1131.19 932.878L1146.51 937.858L1147.37 935.203L1132.05 930.223Z" fill="#999999"/>
<path d="M202.711 655.407L201.989 658.104L217.554 662.274L218.277 659.578L202.711 655.407Z" fill="#999999"/>
<path d="M1139.1 906.325L1138.38 909.021L1153.95 913.192L1154.67 910.495L1139.1 906.325Z" fill="#999999"/>
<path d="M191.861 705.865L191.425 708.622L207.341 711.143L207.777 708.386L191.861 705.865Z" fill="#999999"/>
<path d="M1149.35 857.51L1148.91 860.268L1164.83 862.788L1165.26 860.031L1149.35 857.51Z" fill="#999999"/>
<path d="M188.43 731.427L188.138 734.203L204.164 735.888L204.456 733.111L188.43 731.427Z" fill="#999999"/>
<path d="M1152.54 832.742L1152.25 835.519L1168.27 837.203L1168.56 834.427L1152.54 832.742Z" fill="#999999"/>
<path d="M186.288 757.102L186.142 759.89L202.234 760.733L202.38 757.945L186.288 757.102Z" fill="#999999"/>
<path d="M1154.39 807.829L1154.24 810.617L1170.33 811.461L1170.48 808.673L1154.39 807.829Z" fill="#999999"/>
<path d="M201.67 782.878H185.555V785.67H201.67V782.878Z" fill="#999999"/>
<path d="M1171.07 782.878H1154.95V785.67H1171.07V782.878Z" fill="#999999"/>
<path d="M204.255 832.572L188.229 834.257L188.521 837.033L204.547 835.349L204.255 832.572Z" fill="#999999"/>
<path d="M1168.23 731.402L1152.2 733.089L1152.49 735.865L1168.52 734.178L1168.23 731.402Z" fill="#999999"/>
<path d="M207.203 857.619L191.287 860.14L191.724 862.897L207.64 860.376L207.203 857.619Z" fill="#999999"/>
<path d="M1164.83 705.735L1148.91 708.253L1149.35 711.01L1165.26 708.492L1164.83 705.735Z" fill="#999999"/>
<path d="M211.755 882.059L195.993 885.409L196.574 888.14L212.336 884.789L211.755 882.059Z" fill="#999999"/>
<path d="M1160.06 680.317L1144.29 683.665L1144.87 686.396L1160.64 683.048L1160.06 680.317Z" fill="#999999"/>
<path d="M217.544 906.292L201.979 910.463L202.701 913.16L218.266 908.989L217.544 906.292Z" fill="#999999"/>
<path d="M1153.98 655.17L1138.41 659.338L1139.13 662.035L1154.7 657.867L1153.98 655.17Z" fill="#999999"/>
<path d="M232.831 953.763L217.787 959.538L218.788 962.144L233.832 956.37L232.831 953.763Z" fill="#999999"/>
<path d="M1137.87 606.305L1122.82 612.08L1123.82 614.686L1138.87 608.912L1137.87 606.305Z" fill="#999999"/>
<path d="M242.227 977.069L227.506 983.623L228.642 986.173L243.363 979.619L242.227 977.069Z" fill="#999999"/>
<path d="M1127.87 582.764L1113.15 589.318L1114.29 591.869L1129.01 585.315L1127.87 582.764Z" fill="#999999"/>
<path d="M252.934 999.579L238.576 1006.89L239.844 1009.38L254.201 1002.07L252.934 999.579Z" fill="#999999"/>
<path d="M1116.72 559.576L1102.36 566.89L1103.62 569.377L1117.98 562.064L1116.72 559.576Z" fill="#999999"/>
<path d="M264.821 1021.41L250.864 1029.46L252.259 1031.88L266.216 1023.83L264.821 1021.41Z" fill="#999999"/>
<path d="M1104.34 536.447L1090.39 544.504L1091.78 546.922L1105.74 538.865L1104.34 536.447Z" fill="#999999"/>
<path d="M291.845 1063.54L278.806 1073.01L280.447 1075.27L293.485 1065.8L291.845 1063.54Z" fill="#999999"/>
<path d="M1076.14 493.422L1063.1 502.892L1064.74 505.15L1077.78 495.681L1076.14 493.422Z" fill="#999999"/>
<path d="M307.04 1082.97L294.518 1093.11L296.276 1095.28L308.797 1085.14L307.04 1082.97Z" fill="#999999"/>
<path d="M1060.43 473.338L1047.9 483.477L1049.66 485.646L1062.19 475.508L1060.43 473.338Z" fill="#999999"/>
<path d="M323.167 1102.03L311.192 1112.81L313.06 1114.88L325.035 1104.1L323.167 1102.03Z" fill="#999999"/>
<path d="M1043.63 453.777L1031.65 464.558L1033.52 466.633L1045.49 455.852L1043.63 453.777Z" fill="#999999"/>
<path d="M340.279 1120.34L328.884 1131.73L330.858 1133.71L342.253 1122.31L340.279 1120.34Z" fill="#999999"/>
<path d="M1025.8 434.97L1014.41 446.364L1016.38 448.338L1027.78 436.944L1025.8 434.97Z" fill="#999999"/>
<path d="M377.236 1153.59L367.097 1166.11L369.267 1167.87L379.406 1155.34L377.236 1153.59Z" fill="#999999"/>
<path d="M987.246 400.236L977.105 412.759L979.274 414.516L989.415 401.993L987.246 400.236Z" fill="#999999"/>
<path d="M397.037 1169.15L387.568 1182.19L389.827 1183.83L399.296 1170.79L397.037 1169.15Z" fill="#999999"/>
<path d="M966.785 384.721L957.315 397.76L959.574 399.4L969.044 386.362L966.785 384.721Z" fill="#999999"/>
<path d="M417.555 1183.35L408.778 1196.86L411.12 1198.38L419.896 1184.87L417.555 1183.35Z" fill="#999999"/>
<path d="M945.597 370.4L936.82 383.915L939.162 385.436L947.938 371.921L945.597 370.4Z" fill="#999999"/>
<path d="M438.803 1196.45L430.746 1210.4L433.164 1211.8L441.221 1197.84L438.803 1196.45Z" fill="#999999"/>
<path d="M923.462 356.814L915.407 370.771L917.825 372.166L925.88 358.209L923.462 356.814Z" fill="#999999"/>
<path d="M483.245 1219.35L476.688 1234.07L479.238 1235.2L485.795 1220.48L483.245 1219.35Z" fill="#999999"/>
<path d="M877.542 333.648L870.986 348.368L873.536 349.504L880.093 334.784L877.542 333.648Z" fill="#999999"/>
<path d="M506.165 1228.7L500.391 1243.74L502.997 1244.74L508.772 1229.7L506.165 1228.7Z" fill="#999999"/>
<path d="M853.61 323.756L847.835 338.8L850.441 339.8L856.216 324.756L853.61 323.756Z" fill="#999999"/>
<path d="M529.8 1237.39L524.823 1252.72L527.478 1253.58L532.455 1238.25L529.8 1237.39Z" fill="#999999"/>
<path d="M829.388 315.324L824.406 330.648L827.061 331.512L832.043 316.187L829.388 315.324Z" fill="#999999"/>
<path d="M553.5 1244.16L549.335 1259.73L552.032 1260.45L556.197 1244.88L553.5 1244.16Z" fill="#999999"/>
<path d="M804.493 307.945L800.323 323.51L803.019 324.232L807.19 308.667L804.493 307.945Z" fill="#999999"/>
<path d="M602.408 1254.9L599.89 1270.81L602.648 1271.25L605.166 1255.33L602.408 1254.9Z" fill="#999999"/>
<path d="M753.863 297.25L751.342 313.166L754.1 313.603L756.62 297.687L753.863 297.25Z" fill="#999999"/>
<path d="M626.977 1258.03L625.29 1274.05L628.066 1274.34L629.753 1258.32L626.977 1258.03Z" fill="#999999"/>
<path d="M728.563 294.172L726.879 310.198L729.655 310.49L731.34 294.464L728.563 294.172Z" fill="#999999"/>
<path d="M651.82 1260.02L650.982 1276.11L653.77 1276.26L654.607 1260.17L651.82 1260.02Z" fill="#999999"/>
<path d="M702.586 292.044L701.742 308.136L704.53 308.282L705.374 292.19L702.586 292.044Z" fill="#999999"/>
<path d="M679.699 1260.92H676.907V1277.04H679.699V1260.92Z" fill="#999999"/>
<path d="M679.699 291.525H676.907V307.64H679.699V291.525Z" fill="#999999"/>
</g>
</g>
<path d="M969.094 493.539C1129.69 654.131 1129.69 914.502 969.094 1075.09C808.502 1235.69 548.132 1235.69 387.54 1075.09C226.948 914.502 226.948 654.131 387.54 493.539C548.132 332.948 808.502 332.948 969.094 493.539Z" stroke="#0AF571" stroke-width="0.771316"/>
<mask id="mask2_2001_2786" style="mask-type:luminance" maskUnits="userSpaceOnUse" x="485" y="591" width="386" height="386">
<path d="M814.558 920.558C889.802 845.314 889.802 723.319 814.558 648.075C739.314 572.831 617.32 572.831 542.076 648.075C466.832 723.319 466.832 845.314 542.076 920.558C617.32 995.802 739.314 995.802 814.558 920.558Z" fill="white"/>
</mask>
<g mask="url(#mask2_2001_2786)">
<path d="M668.513 586.605L667.393 586.664L667.732 593.128L668.852 593.07L668.513 586.605Z" fill="#999999"/>
<path d="M688.893 975.476L687.774 975.535L688.112 981.999L689.232 981.941L688.893 975.476Z" fill="#999999"/>
<path d="M658.185 587.377L657.07 587.494L657.746 593.932L658.862 593.815L658.185 587.377Z" fill="#999999"/>
<path d="M698.899 974.648L697.783 974.766L698.46 981.203L699.575 981.086L698.899 974.648Z" fill="#999999"/>
<path d="M647.912 588.702L646.804 588.878L647.817 595.271L648.925 595.096L647.912 588.702Z" fill="#999999"/>
<path d="M708.83 973.313L707.723 973.488L708.735 979.882L709.843 979.706L708.83 973.313Z" fill="#999999"/>
<path d="M637.721 590.54L636.624 590.773L637.97 597.105L639.066 596.872L637.721 590.54Z" fill="#999999"/>
<path d="M718.671 971.466L717.574 971.699L718.92 978.031L720.017 977.798L718.671 971.466Z" fill="#999999"/>
<path d="M617.673 595.901L616.607 596.247L618.607 602.403L619.673 602.057L617.673 595.901Z" fill="#999999"/>
<path d="M738.024 966.221L736.958 966.567L738.958 972.724L740.025 972.377L738.024 966.221Z" fill="#999999"/>
<path d="M607.902 599.33L606.855 599.731L609.174 605.775L610.221 605.373L607.902 599.33Z" fill="#999999"/>
<path d="M747.45 962.855L746.403 963.257L748.722 969.3L749.769 968.898L747.45 962.855Z" fill="#999999"/>
<path d="M598.314 603.264L597.289 603.72L599.922 609.633L600.946 609.177L598.314 603.264Z" fill="#999999"/>
<path d="M756.708 958.975L755.683 959.431L758.316 965.344L759.341 964.888L756.708 958.975Z" fill="#999999"/>
<path d="M588.948 607.675L587.949 608.185L590.888 613.952L591.887 613.443L588.948 607.675Z" fill="#999999"/>
<path d="M765.721 954.721L764.722 955.23L767.661 960.998L768.66 960.489L765.721 954.721Z" fill="#999999"/>
<path d="M570.974 618.004L570.033 618.615L573.559 624.044L574.5 623.433L570.974 618.004Z" fill="#999999"/>
<path d="M783.067 944.571L782.126 945.182L785.652 950.61L786.592 950L783.067 944.571Z" fill="#999999"/>
<path d="M562.422 623.83L561.514 624.489L565.319 629.726L566.226 629.067L562.422 623.83Z" fill="#999999"/>
<path d="M791.315 938.819L790.408 939.479L794.213 944.715L795.12 944.056L791.315 938.819Z" fill="#999999"/>
<path d="M554.188 630.157L553.317 630.862L557.39 635.893L558.262 635.187L554.188 630.157Z" fill="#999999"/>
<path d="M799.247 932.766L798.376 933.472L802.45 938.502L803.321 937.797L799.247 932.766Z" fill="#999999"/>
<path d="M546.284 636.827L545.451 637.577L549.782 642.388L550.616 641.637L546.284 636.827Z" fill="#999999"/>
<path d="M806.847 926.217L806.013 926.968L810.345 931.778L811.178 931.028L806.847 926.217Z" fill="#999999"/>
<path d="M531.593 651.452L530.843 652.285L535.653 656.617L536.403 655.783L531.593 651.452Z" fill="#999999"/>
<path d="M820.977 912.006L820.226 912.84L825.037 917.171L825.787 916.338L820.977 912.006Z" fill="#999999"/>
<path d="M524.835 659.295L524.129 660.167L529.16 664.241L529.865 663.369L524.835 659.295Z" fill="#999999"/>
<path d="M827.459 904.316L826.754 905.188L831.784 909.261L832.49 908.39L827.459 904.316Z" fill="#999999"/>
<path d="M518.505 667.502L517.846 668.409L523.083 672.214L523.742 671.307L518.505 667.502Z" fill="#999999"/>
<path d="M833.533 896.347L832.874 897.254L838.111 901.059L838.77 900.152L833.533 896.347Z" fill="#999999"/>
<path d="M512.617 676.037L512.007 676.978L517.435 680.503L518.046 679.563L512.617 676.037Z" fill="#999999"/>
<path d="M839.206 888.129L838.596 889.069L844.025 892.595L844.635 891.654L839.206 888.129Z" fill="#999999"/>
<path d="M502.194 693.909L501.685 694.908L507.453 697.847L507.962 696.848L502.194 693.909Z" fill="#999999"/>
<path d="M849.186 870.773L848.677 871.772L854.445 874.711L854.954 873.712L849.186 870.773Z" fill="#999999"/>
<path d="M497.712 703.283L497.256 704.308L503.17 706.94L503.626 705.916L497.712 703.283Z" fill="#999999"/>
<path d="M853.456 861.654L853 862.679L858.913 865.312L859.369 864.287L853.456 861.654Z" fill="#999999"/>
<path d="M493.719 712.853L493.317 713.899L499.361 716.219L499.762 715.172L493.719 712.853Z" fill="#999999"/>
<path d="M857.256 852.372L856.854 853.419L862.898 855.739L863.299 854.692L857.256 852.372Z" fill="#999999"/>
<path d="M490.216 722.573L489.87 723.64L496.026 725.64L496.373 724.573L490.216 722.573Z" fill="#999999"/>
<path d="M860.583 842.928L860.236 843.994L866.392 845.994L866.739 844.928L860.583 842.928Z" fill="#999999"/>
<path d="M484.83 742.629L484.596 743.726L490.928 745.071L491.161 743.974L484.83 742.629Z" fill="#999999"/>
<path d="M865.764 823.609L865.531 824.706L871.863 826.052L872.096 824.955L865.764 823.609Z" fill="#999999"/>
<path d="M482.906 752.803L482.73 753.91L489.124 754.923L489.299 753.815L482.906 752.803Z" fill="#999999"/>
<path d="M867.532 813.719L867.357 814.827L873.75 815.84L873.926 814.732L867.532 813.719Z" fill="#999999"/>
<path d="M481.527 763.071L481.41 764.187L487.848 764.863L487.965 763.748L481.527 763.071Z" fill="#999999"/>
<path d="M868.813 803.77L868.696 804.885L875.134 805.561L875.251 804.446L868.813 803.77Z" fill="#999999"/>
<path d="M480.667 773.384L480.608 774.504L487.072 774.843L487.131 773.723L480.667 773.384Z" fill="#999999"/>
<path d="M869.556 793.762L869.497 794.882L875.961 795.221L876.02 794.101L869.556 793.762Z" fill="#999999"/>
<path d="M487.043 793.806L480.579 794.145L480.637 795.264L487.102 794.926L487.043 793.806Z" fill="#999999"/>
<path d="M875.997 773.323L869.532 773.66L869.591 774.78L876.055 774.442L875.997 773.323Z" fill="#999999"/>
<path d="M487.884 803.701L481.447 804.378L481.564 805.493L488.002 804.817L487.884 803.701Z" fill="#999999"/>
<path d="M875.115 763.061L868.678 763.738L868.795 764.854L875.233 764.176L875.115 763.061Z" fill="#999999"/>
<path d="M489.069 813.763L482.675 814.775L482.851 815.883L489.244 814.87L489.069 813.763Z" fill="#999999"/>
<path d="M873.75 752.75L867.356 753.762L867.531 754.869L873.925 753.858L873.75 752.75Z" fill="#999999"/>
<path d="M490.897 823.581L484.566 824.927L484.799 826.024L491.13 824.678L490.897 823.581Z" fill="#999999"/>
<path d="M871.834 742.541L865.502 743.886L865.735 744.983L872.067 743.638L871.834 742.541Z" fill="#999999"/>
<path d="M496.075 842.874L489.92 844.875L490.266 845.941L496.422 843.94L496.075 842.874Z" fill="#999999"/>
<path d="M866.373 722.701L860.216 724.699L860.562 725.766L866.719 723.768L866.373 722.701Z" fill="#999999"/>
<path d="M499.364 852.386L493.32 854.706L493.722 855.753L499.765 853.433L499.364 852.386Z" fill="#999999"/>
<path d="M862.92 712.81L856.877 715.13L857.279 716.177L863.322 713.857L862.92 712.81Z" fill="#999999"/>
<path d="M503.138 861.746L497.224 864.379L497.681 865.403L503.594 862.771L503.138 861.746Z" fill="#999999"/>
<path d="M858.906 703.352L852.992 705.985L853.448 707.01L859.362 704.377L858.906 703.352Z" fill="#999999"/>
<path d="M507.439 870.79L501.671 873.729L502.18 874.728L507.948 871.789L507.439 870.79Z" fill="#999999"/>
<path d="M854.424 694.038L848.656 696.976L849.165 697.975L854.933 695.037L854.424 694.038Z" fill="#999999"/>
<path d="M517.435 888.092L512.007 891.617L512.617 892.558L518.046 889.032L517.435 888.092Z" fill="#999999"/>
<path d="M844.015 676.055L838.586 679.58L839.196 680.521L844.625 676.995L844.015 676.055Z" fill="#999999"/>
<path d="M523.069 896.482L517.832 900.286L518.491 901.193L523.728 897.39L523.069 896.482Z" fill="#999999"/>
<path d="M838.125 667.464L832.887 671.268L833.546 672.175L838.784 668.371L838.125 667.464Z" fill="#999999"/>
<path d="M529.173 904.287L524.143 908.361L524.849 909.233L529.879 905.158L529.173 904.287Z" fill="#999999"/>
<path d="M831.813 659.396L826.781 663.469L827.487 664.34L832.518 660.268L831.813 659.396Z" fill="#999999"/>
<path d="M535.652 911.943L530.841 916.274L531.592 917.108L536.402 912.776L535.652 911.943Z" fill="#999999"/>
<path d="M825.063 651.539L820.252 655.869L821.002 656.703L825.813 652.372L825.063 651.539Z" fill="#999999"/>
<path d="M549.772 926.167L545.442 930.979L546.275 931.729L550.606 926.918L549.772 926.167Z" fill="#999999"/>
<path d="M810.311 636.737L805.98 641.548L806.813 642.298L811.144 637.487L810.311 636.737Z" fill="#999999"/>
<path d="M557.371 932.653L553.299 937.685L554.17 938.39L558.243 933.359L557.371 932.653Z" fill="#999999"/>
<path d="M802.415 630.029L798.341 635.06L799.213 635.765L803.286 630.735L802.415 630.029Z" fill="#999999"/>
<path d="M565.326 938.906L561.522 944.144L562.429 944.803L566.233 939.565L565.326 938.906Z" fill="#999999"/>
<path d="M794.196 623.799L790.392 629.036L791.299 629.695L795.103 624.458L794.196 623.799Z" fill="#999999"/>
<path d="M573.568 944.609L570.042 950.038L570.983 950.649L574.508 945.22L573.568 944.609Z" fill="#999999"/>
<path d="M785.684 618.045L782.159 623.474L783.099 624.084L786.625 618.656L785.684 618.045Z" fill="#999999"/>
<path d="M590.894 954.676L587.956 960.443L588.955 960.952L591.894 955.185L590.894 954.676Z" fill="#999999"/>
<path d="M767.71 607.726L764.77 613.493L765.769 614.002L768.709 608.235L767.71 607.726Z" fill="#999999"/>
<path d="M599.956 959.071L597.322 964.984L598.346 965.441L600.98 959.528L599.956 959.071Z" fill="#999999"/>
<path d="M758.347 603.282L755.713 609.195L756.737 609.652L759.371 603.739L758.347 603.282Z" fill="#999999"/>
<path d="M609.163 962.827L606.843 968.87L607.89 969.272L610.21 963.229L609.163 962.827Z" fill="#999999"/>
<path d="M748.733 599.308L746.413 605.352L747.46 605.753L749.78 599.71L748.733 599.308Z" fill="#999999"/>
<path d="M618.657 966.321L616.658 972.478L617.724 972.824L619.724 966.667L618.657 966.321Z" fill="#999999"/>
<path d="M739.003 595.922L737.001 602.078L738.068 602.425L740.069 596.269L739.003 595.922Z" fill="#999999"/>
<path d="M637.96 971.482L636.615 977.813L637.712 978.046L639.056 971.715L637.96 971.482Z" fill="#999999"/>
<path d="M718.901 590.552L717.556 596.884L718.652 597.117L719.998 590.785L718.901 590.552Z" fill="#999999"/>
<path d="M647.824 973.351L646.813 979.744L647.92 979.919L648.932 973.526L647.824 973.351Z" fill="#999999"/>
<path d="M708.664 588.66L707.651 595.054L708.759 595.229L709.772 588.836L708.664 588.66Z" fill="#999999"/>
<path d="M657.693 974.608L657.016 981.046L658.131 981.163L658.809 974.726L657.693 974.608Z" fill="#999999"/>
<path d="M698.501 587.425L697.824 593.862L698.94 593.98L699.616 587.542L698.501 587.425Z" fill="#999999"/>
<path d="M667.673 975.409L667.336 981.873L668.456 981.931L668.793 975.467L667.673 975.409Z" fill="#999999"/>
<path d="M688.066 586.569L687.727 593.033L688.847 593.092L689.186 586.628L688.066 586.569Z" fill="#999999"/>
<path d="M658.185 587.376L657.07 587.493L657.746 593.931L658.862 593.814L658.185 587.376Z" fill="#999999"/>
<path d="M698.899 974.647L697.783 974.765L698.46 981.202L699.575 981.085L698.899 974.647Z" fill="#999999"/>
<path d="M647.912 588.702L646.804 588.878L647.817 595.271L648.925 595.096L647.912 588.702Z" fill="#999999"/>
<path d="M708.83 973.313L707.723 973.488L708.735 979.882L709.843 979.706L708.83 973.313Z" fill="#999999"/>
<path d="M637.721 590.54L636.624 590.773L637.97 597.105L639.066 596.872L637.721 590.54Z" fill="#999999"/>
<path d="M718.671 971.466L717.574 971.699L718.92 978.031L720.017 977.798L718.671 971.466Z" fill="#999999"/>
<path d="M627.633 592.945L626.549 593.235L628.225 599.488L629.308 599.198L627.633 592.945Z" fill="#999999"/>
<path d="M728.41 969.096L727.327 969.387L729.002 975.639L730.085 975.349L728.41 969.096Z" fill="#999999"/>
<path d="M607.901 599.329L606.854 599.73L609.174 605.774L610.221 605.372L607.901 599.329Z" fill="#999999"/>
<path d="M747.45 962.854L746.403 963.256L748.722 969.299L749.769 968.897L747.45 962.854Z" fill="#999999"/>
<path d="M598.314 603.263L597.289 603.719L599.922 609.632L600.947 609.176L598.314 603.263Z" fill="#999999"/>
<path d="M756.708 958.974L755.683 959.43L758.316 965.343L759.341 964.887L756.708 958.974Z" fill="#999999"/>
<path d="M588.948 607.675L587.949 608.185L590.888 613.952L591.887 613.443L588.948 607.675Z" fill="#999999"/>
<path d="M765.721 954.722L764.722 955.231L767.661 960.999L768.66 960.49L765.721 954.722Z" fill="#999999"/>
<path d="M579.825 612.611L578.854 613.172L582.09 618.778L583.061 618.217L579.825 612.611Z" fill="#999999"/>
<path d="M774.542 949.828L773.571 950.389L776.807 955.995L777.779 955.434L774.542 949.828Z" fill="#999999"/>
<path d="M562.422 623.828L561.514 624.487L565.319 629.724L566.226 629.065L562.422 623.828Z" fill="#999999"/>
<path d="M791.315 938.817L790.408 939.477L794.213 944.713L795.12 944.054L791.315 938.817Z" fill="#999999"/>
<path d="M554.188 630.155L553.317 630.86L557.39 635.891L558.262 635.185L554.188 630.155Z" fill="#999999"/>
<path d="M799.247 932.764L798.376 933.47L802.45 938.5L803.321 937.795L799.247 932.764Z" fill="#999999"/>
<path d="M546.284 636.827L545.451 637.577L549.782 642.388L550.616 641.637L546.284 636.827Z" fill="#999999"/>
<path d="M806.847 926.217L806.013 926.968L810.345 931.778L811.178 931.028L806.847 926.217Z" fill="#999999"/>
<path d="M538.741 643.939L537.948 644.732L542.525 649.31L543.318 648.517L538.741 643.939Z" fill="#999999"/>
<path d="M814.101 919.287L813.308 920.08L817.885 924.657L818.678 923.864L814.101 919.287Z" fill="#999999"/>
<path d="M524.835 659.295L524.129 660.167L529.16 664.241L529.865 663.369L524.835 659.295Z" fill="#999999"/>
<path d="M827.459 904.316L826.754 905.188L831.784 909.261L832.49 908.39L827.459 904.316Z" fill="#999999"/>
<path d="M518.505 667.502L517.846 668.409L523.083 672.214L523.742 671.307L518.505 667.502Z" fill="#999999"/>
<path d="M833.533 896.347L832.874 897.254L838.111 901.059L838.77 900.152L833.533 896.347Z" fill="#999999"/>
<path d="M512.617 676.037L512.007 676.978L517.435 680.503L518.046 679.563L512.617 676.037Z" fill="#999999"/>
<path d="M839.206 888.129L838.596 889.069L844.025 892.595L844.635 891.654L839.206 888.129Z" fill="#999999"/>
<path d="M507.177 684.858L506.616 685.829L512.222 689.066L512.783 688.095L507.177 684.858Z" fill="#999999"/>
<path d="M844.394 879.509L843.834 880.48L849.44 883.717L850 882.746L844.394 879.509Z" fill="#999999"/>
<path d="M497.712 703.283L497.256 704.308L503.17 706.94L503.626 705.916L497.712 703.283Z" fill="#999999"/>
<path d="M853.456 861.654L853 862.679L858.913 865.312L859.369 864.287L853.456 861.654Z" fill="#999999"/>
<path d="M493.719 712.853L493.317 713.899L499.36 716.219L499.762 715.172L493.719 712.853Z" fill="#999999"/>
<path d="M857.256 852.372L856.854 853.419L862.897 855.739L863.299 854.692L857.256 852.372Z" fill="#999999"/>
<path d="M490.216 722.572L489.87 723.639L496.026 725.639L496.373 724.572L490.216 722.572Z" fill="#999999"/>
<path d="M860.583 842.927L860.236 843.993L866.392 845.993L866.739 844.927L860.583 842.927Z" fill="#999999"/>
<path d="M487.264 732.532L486.974 733.615L493.227 735.291L493.517 734.207L487.264 732.532Z" fill="#999999"/>
<path d="M863.417 833.326L863.126 834.409L869.379 836.085L869.669 835.001L863.417 833.326Z" fill="#999999"/>
<path d="M482.906 752.802L482.73 753.909L489.124 754.922L489.299 753.814L482.906 752.802Z" fill="#999999"/>
<path d="M867.532 813.719L867.357 814.826L873.75 815.839L873.926 814.731L867.532 813.719Z" fill="#999999"/>
<path d="M481.527 763.071L481.41 764.187L487.848 764.863L487.965 763.748L481.527 763.071Z" fill="#999999"/>
<path d="M868.813 803.77L868.696 804.885L875.134 805.561L875.251 804.446L868.813 803.77Z" fill="#999999"/>
<path d="M480.667 773.385L480.608 774.505L487.072 774.844L487.131 773.724L480.667 773.385Z" fill="#999999"/>
<path d="M869.556 793.763L869.497 794.883L875.961 795.222L876.02 794.102L869.556 793.763Z" fill="#999999"/>
<path d="M486.846 783.738H480.373V784.86H486.846V783.738Z" fill="#999999"/>
<path d="M876.256 783.738H869.783V784.86H876.256V783.738Z" fill="#999999"/>
<path d="M487.884 803.701L481.447 804.378L481.564 805.493L488.002 804.817L487.884 803.701Z" fill="#999999"/>
<path d="M875.115 763.061L868.678 763.738L868.795 764.854L875.233 764.176L875.115 763.061Z" fill="#999999"/>
<path d="M489.069 813.763L482.675 814.775L482.851 815.883L489.244 814.87L489.069 813.763Z" fill="#999999"/>
<path d="M873.75 752.751L867.356 753.763L867.531 754.87L873.925 753.859L873.75 752.751Z" fill="#999999"/>
<path d="M490.897 823.58L484.566 824.926L484.799 826.023L491.13 824.677L490.897 823.58Z" fill="#999999"/>
<path d="M871.834 742.54L865.502 743.885L865.735 744.982L872.067 743.637L871.834 742.54Z" fill="#999999"/>
<path d="M493.222 833.315L486.97 834.99L487.26 836.073L493.513 834.398L493.222 833.315Z" fill="#999999"/>
<path d="M869.392 732.439L863.139 734.113L863.429 735.197L869.682 733.522L869.392 732.439Z" fill="#999999"/>
<path d="M499.364 852.386L493.32 854.706L493.722 855.753L499.765 853.433L499.364 852.386Z" fill="#999999"/>
<path d="M862.92 712.81L856.877 715.13L857.279 716.177L863.322 713.857L862.92 712.81Z" fill="#999999"/>
<path d="M503.138 861.746L497.224 864.379L497.681 865.403L503.594 862.771L503.138 861.746Z" fill="#999999"/>
<path d="M858.906 703.352L852.992 705.985L853.448 707.01L859.362 704.377L858.906 703.352Z" fill="#999999"/>
<path d="M507.439 870.789L501.671 873.728L502.18 874.727L507.948 871.788L507.439 870.789Z" fill="#999999"/>
<path d="M854.424 694.037L848.656 696.975L849.165 697.974L854.933 695.036L854.424 694.037Z" fill="#999999"/>
<path d="M512.214 879.557L506.607 882.793L507.168 883.764L512.774 880.529L512.214 879.557Z" fill="#999999"/>
<path d="M849.453 684.747L843.847 687.983L844.408 688.955L850.014 685.718L849.453 684.747Z" fill="#999999"/>
<path d="M523.069 896.482L517.832 900.286L518.491 901.193L523.728 897.39L523.069 896.482Z" fill="#999999"/>
<path d="M838.125 667.464L832.887 671.268L833.546 672.175L838.784 668.371L838.125 667.464Z" fill="#999999"/>
<path d="M529.173 904.287L524.143 908.361L524.849 909.233L529.879 905.158L529.173 904.287Z" fill="#999999"/>
<path d="M831.813 659.396L826.781 663.469L827.487 664.34L832.518 660.268L831.813 659.396Z" fill="#999999"/>
<path d="M535.652 911.943L530.841 916.274L531.592 917.108L536.402 912.776L535.652 911.943Z" fill="#999999"/>
<path d="M825.063 651.539L820.252 655.869L821.002 656.703L825.813 652.372L825.063 651.539Z" fill="#999999"/>
<path d="M542.525 919.3L537.948 923.877L538.741 924.67L543.318 920.093L542.525 919.3Z" fill="#999999"/>
<path d="M817.903 643.983L813.326 648.561L814.119 649.354L818.696 644.776L817.903 643.983Z" fill="#999999"/>
<path d="M557.371 932.652L553.299 937.684L554.17 938.389L558.243 933.358L557.371 932.652Z" fill="#999999"/>
<path d="M802.415 630.028L798.341 635.059L799.213 635.764L803.286 630.734L802.415 630.028Z" fill="#999999"/>
<path d="M565.326 938.906L561.522 944.144L562.429 944.803L566.233 939.565L565.326 938.906Z" fill="#999999"/>
<path d="M794.196 623.799L790.392 629.036L791.299 629.695L795.103 624.458L794.196 623.799Z" fill="#999999"/>
<path d="M573.568 944.61L570.042 950.039L570.983 950.65L574.508 945.221L573.568 944.61Z" fill="#999999"/>
<path d="M785.684 618.046L782.159 623.475L783.099 624.085L786.625 618.657L785.684 618.046Z" fill="#999999"/>
<path d="M582.103 949.871L578.867 955.477L579.838 956.037L583.075 950.431L582.103 949.871Z" fill="#999999"/>
<path d="M776.793 612.586L773.557 618.192L774.528 618.753L777.764 613.146L776.793 612.586Z" fill="#999999"/>
<path d="M599.956 959.071L597.322 964.984L598.346 965.441L600.98 959.528L599.956 959.071Z" fill="#999999"/>
<path d="M758.347 603.282L755.713 609.195L756.737 609.652L759.371 603.739L758.347 603.282Z" fill="#999999"/>
<path d="M609.163 962.825L606.843 968.868L607.89 969.27L610.21 963.227L609.163 962.825Z" fill="#999999"/>
<path d="M748.733 599.306L746.413 605.35L747.46 605.751L749.78 599.708L748.733 599.306Z" fill="#999999"/>
<path d="M618.657 966.319L616.658 972.476L617.724 972.822L619.724 966.665L618.657 966.319Z" fill="#999999"/>
<path d="M739.003 595.92L737.001 602.076L738.068 602.423L740.069 596.267L739.003 595.92Z" fill="#999999"/>
<path d="M628.177 969.038L626.504 975.291L627.588 975.581L629.261 969.328L628.177 969.038Z" fill="#999999"/>
<path d="M729.002 592.955L727.327 599.208L728.41 599.498L730.086 593.246L729.002 592.955Z" fill="#999999"/>
<path d="M647.824 973.351L646.813 979.744L647.92 979.919L648.932 973.526L647.824 973.351Z" fill="#999999"/>
<path d="M708.664 588.66L707.651 595.054L708.759 595.229L709.772 588.836L708.664 588.66Z" fill="#999999"/>
<path d="M657.693 974.607L657.016 981.045L658.131 981.162L658.809 974.725L657.693 974.607Z" fill="#999999"/>
<path d="M698.501 587.424L697.824 593.861L698.94 593.979L699.616 587.541L698.501 587.424Z" fill="#999999"/>
<path d="M667.673 975.408L667.336 981.872L668.456 981.93L668.793 975.466L667.673 975.408Z" fill="#999999"/>
<path d="M688.066 586.568L687.727 593.032L688.847 593.091L689.186 586.627L688.066 586.568Z" fill="#999999"/>
<path d="M678.872 975.771H677.751V982.245H678.872V975.771Z" fill="#999999"/>
<path d="M678.872 586.36H677.751V592.834H678.872V586.36Z" fill="#999999"/>
</g>
</g>
<g opacity="0.6" filter="url(#filter0_f_2001_2786)">
<ellipse cx="882.634" cy="781.509" rx="416.875" ry="269" transform="rotate(-90 882.634 781.509)" fill="url(#paint0_radial_2001_2786)"/>
</g>
<g filter="url(#filter1_f_2001_2786)">
<ellipse cx="917.634" cy="782.08" rx="294.447" ry="190" transform="rotate(-90 917.634 782.08)" fill="url(#paint1_radial_2001_2786)"/>
</g>
<defs>
<filter id="filter0_f_2001_2786" x="249.095" y="0.0946655" width="1267.08" height="1562.83" filterUnits="userSpaceOnUse" color-interpolation-filters="sRGB">
<feFlood flood-opacity="0" result="BackgroundImageFix"/>
<feBlend mode="normal" in="SourceGraphic" in2="BackgroundImageFix" result="shape"/>
<feGaussianBlur stdDeviation="182.27" result="effect1_foregroundBlur_2001_2786"/>
</filter>
<filter id="filter1_f_2001_2786" x="470.153" y="230.153" width="894.962" height="1103.86" filterUnits="userSpaceOnUse" color-interpolation-filters="sRGB">
<feFlood flood-opacity="0" result="BackgroundImageFix"/>
<feBlend mode="normal" in="SourceGraphic" in2="BackgroundImageFix" result="shape"/>
<feGaussianBlur stdDeviation="128.741" result="effect1_foregroundBlur_2001_2786"/>
</filter>
<radialGradient id="paint0_radial_2001_2786" cx="0" cy="0" r="1" gradientUnits="userSpaceOnUse" gradientTransform="translate(882.634 781.509) rotate(89.5994) scale(268.09 415.452)">
<stop stop-color="#0AF571"/>
<stop offset="1" stop-color="#080B0A"/>
</radialGradient>
<radialGradient id="paint1_radial_2001_2786" cx="0" cy="0" r="1" gradientUnits="userSpaceOnUse" gradientTransform="translate(917.634 782.08) rotate(89.5994) scale(189.357 293.442)">
<stop stop-color="#68FFAA"/>
<stop offset="1" stop-color="#080B0A"/>
</radialGradient>
</defs>
</svg>
