<svg width="27" height="27" viewBox="0 0 27 27" fill="none" xmlns="http://www.w3.org/2000/svg">
<path d="M7.875 4.5H19.125V9H7.875V4.5ZM7.875 13.5H10.125V11.25H7.875V13.5ZM16.875 13.5H19.125V11.25H16.875V13.5ZM7.875 18H10.125V15.75H7.875V18ZM16.875 18H19.125V15.75H16.875V18ZM12.375 13.5H14.625V11.25H12.375V13.5ZM12.375 18H14.625V15.75H12.375V18ZM7.875 22.5H10.125V20.25H7.875V22.5ZM16.875 22.5H19.125V20.25H16.875V22.5ZM12.375 22.5H14.625V20.25H12.375V22.5ZM24.75 22.5H23.625V27H3.375V3.375C3.375 1.51425 4.88925 0 6.75 0H20.25C22.1108 0 23.625 1.51425 23.625 3.375V4.5H24.75V22.5ZM21.375 3.375C21.375 2.754 20.871 2.25 20.25 2.25H6.75C6.13013 2.25 5.625 2.754 5.625 3.375V24.75H21.375V3.375Z" fill="url(#paint0_linear_2010_7666)"/>
<defs>
<linearGradient id="paint0_linear_2010_7666" x1="3.375" y1="0" x2="30.1011" y2="22.7589" gradientUnits="userSpaceOnUse">
<stop stop-color="#0AF471"/>
<stop offset="1" stop-color="#00454C"/>
</linearGradient>
</defs>
</svg>
